<?xml version="1.0" encoding="UTF-8" standalone="no"?>
<svg
   xmlns:dc="http://purl.org/dc/elements/1.1/"
   xmlns:cc="http://creativecommons.org/ns#"
   xmlns:rdf="http://www.w3.org/1999/02/22-rdf-syntax-ns#"
   xmlns:svg="http://www.w3.org/2000/svg"
   xmlns="http://www.w3.org/2000/svg"
   xmlns:sodipodi="http://sodipodi.sourceforge.net/DTD/sodipodi-0.dtd"
   xmlns:inkscape="http://www.inkscape.org/namespaces/inkscape"
   width="3691.7461"
   height="1222.7938"
   version="1.1"
   id="svg113"
   sodipodi:docname="IN-PNL-STD-X-F-1.svg"
   inkscape:version="0.92.2 (5c3e80d, 2017-08-06)"
   inkscape:export-filename="C:\Users\sasha user\Documents\personal\blog\panel\panel_blank.png"
   inkscape:export-xdpi="400"
   inkscape:export-ydpi="400">
  <metadata
     id="metadata117">
    <rdf:RDF>
      <cc:Work
         rdf:about="">
        <dc:format>image/svg+xml</dc:format>
        <dc:type
           rdf:resource="http://purl.org/dc/dcmitype/StillImage" />
        <dc:title></dc:title>
      </cc:Work>
    </rdf:RDF>
  </metadata>
  <sodipodi:namedview
     pagecolor="#ffffff"
     bordercolor="#666666"
     borderopacity="1"
     objecttolerance="10"
     gridtolerance="10"
     guidetolerance="10"
     inkscape:pageopacity="0"
     inkscape:pageshadow="2"
     inkscape:window-width="1920"
     inkscape:window-height="1017"
     id="namedview115"
     showgrid="false"
     inkscape:zoom="0.42048262"
     inkscape:cx="1698.2567"
     inkscape:cy="692.37518"
     inkscape:window-x="1912"
     inkscape:window-y="-8"
     inkscape:window-maximized="1"
     inkscape:current-layer="g111"
     fit-margin-top="0"
     fit-margin-left="0"
     fit-margin-right="0"
     fit-margin-bottom="0" />
  <desc
     id="desc2">C:\Users\sasha user\Downloads\IN-PNL-STD-X-F-1.DXF - scale = 1.000000, origin = (0.000000, 0.000000), method = manual</desc>
  <defs
     id="defs17">
    <marker
       id="DistanceX"
       orient="auto"
       refX="0"
       refY="0"
       style="overflow:visible">
      <path
         d="M 3,-3 -3,3 M 0,-5 V 5"
         style="stroke:#000000;stroke-width:0.5"
         id="path4"
         inkscape:connector-curvature="0" />
    </marker>
    <pattern
       height="8"
       id="Hatch"
       patternUnits="userSpaceOnUse"
       width="8"
       x="0"
       y="0">
      <path
         d="M8 4 l-4,4"
         linecap="square"
         stroke="#000000"
         stroke-width="0.25"
         id="path7" />
      <path
         d="M6 2 l-4,4"
         linecap="square"
         stroke="#000000"
         stroke-width="0.25"
         id="path9" />
      <path
         d="M4 0 l-4,4"
         linecap="square"
         stroke="#000000"
         stroke-width="0.25"
         id="path11" />
    </pattern>
    <symbol
       id="*Model_Space" />
    <symbol
       id="*Paper_Space" />
    <symbol
       id="*Paper_Space0" />
  </defs>
  <g
     inkscape:groupmode="layer"
     inkscape:label="0"
     id="g111"
     transform="translate(1503.4094,544.16218)">
    <g
       id="g976"
       transform="translate(342.46362,-589.79846)">
      <path
         id="path19"
         style="fill:none;stroke:#000000;stroke-width:0.89999998;stroke-linecap:round"
         d="m 1826.5244,862.14391 a 7.74805,7.74805 0 1 0 -15.4961,0 7.74805,7.74805 0 1 0 15.4961,0 z"
         inkscape:connector-curvature="0" />
      <path
         id="path21"
         style="fill:none;stroke:#000000;stroke-width:0.89999998;stroke-linecap:round"
         d="m 246.81846,64.983959 a 7.7480315,7.7480315 0 1 0 -15.49606,0 7.7480315,7.7480315 0 1 0 15.49606,0 z"
         inkscape:connector-curvature="0" />
      <path
         id="path23"
         style="fill:none;stroke:#000000;stroke-width:0.89999998;stroke-linecap:round"
         d="m 171.48305,1246.1713 a 7.748035,7.748035 0 1 0 -15.49607,0 7.748035,7.748035 0 1 0 15.49607,0 z"
         inkscape:connector-curvature="0" />
      <path
         id="path25"
         style="fill:none;stroke:#000000;stroke-width:0.89999998;stroke-linecap:round"
         d="m 427.2394,1122.2873 a 7.7480315,7.7480315 0 1 0 -15.49606,0 7.7480315,7.7480315 0 1 0 15.49606,0 z"
         inkscape:connector-curvature="0" />
      <path
         id="path27"
         style="fill:none;stroke:#000000;stroke-width:0.89999998;stroke-linecap:round"
         d="m 1023.0201,1116.9348 a 7.74805,7.74805 0 1 0 -15.4961,0 7.74805,7.74805 0 1 0 15.4961,0 z"
         inkscape:connector-curvature="0" />
      <path
         id="path29"
         style="fill:none;stroke:#000000;stroke-width:0.89999998;stroke-linecap:round"
         d="m -684.86571,157.19891 a 7.7480315,7.7480315 0 1 0 -15.49606,0 7.7480315,7.7480315 0 1 0 15.49606,0 z"
         inkscape:connector-curvature="0" />
      <path
         id="path31"
         style="fill:none;stroke:#000000;stroke-width:0.89999998;stroke-linecap:round"
         d="m -1007.524,1116.9348 a 7.74805,7.74805 0 1 0 -15.4961,0 7.74805,7.74805 0 1 0 15.4961,0 z"
         inkscape:connector-curvature="0" />
      <path
         id="path33"
         style="fill:none;stroke:#000000;stroke-width:0.89999998;stroke-linecap:round"
         d="m 700.36177,157.19891 a 7.7480315,7.7480315 0 1 0 -15.49606,0 7.7480315,7.7480315 0 1 0 15.49606,0 z"
         inkscape:connector-curvature="0" />
      <path
         id="path35"
         style="fill:none;stroke:#000000;stroke-width:0.89999998;stroke-linecap:round"
         d="m -411.74334,1122.2873 a 7.7480315,7.7480315 0 1 0 -15.49606,0 7.7480315,7.7480315 0 1 0 15.49606,0 z"
         inkscape:connector-curvature="0" />
      <path
         id="path37"
         style="fill:none;stroke:#000000;stroke-width:0.89999998;stroke-linecap:round"
         d="m -231.3224,64.983959 a 7.7480315,7.7480315 0 1 0 -15.49606,0 7.7480315,7.7480315 0 1 0 15.49606,0 z"
         inkscape:connector-curvature="0" />
      <path
         id="path39"
         style="fill:none;stroke:#000000;stroke-width:0.89999998;stroke-linecap:round"
         d="m -155.98698,1246.1713 a 7.748035,7.748035 0 1 0 -15.49607,0 7.748035,7.748035 0 1 0 15.49607,0 z"
         inkscape:connector-curvature="0" />
      <path
         id="path41"
         style="fill:none;stroke:#000000;stroke-width:0.89999998;stroke-linecap:round"
         d="m 1189.7869,195.77753 a 7.74805,7.74805 0 1 0 -15.4961,0 7.74805,7.74805 0 1 0 15.4961,0 z"
         inkscape:connector-curvature="0" />
      <path
         id="path43"
         style="fill:none;stroke:#000000;stroke-width:0.89999998;stroke-linecap:round"
         d="m -1174.2908,195.77753 a 7.74805,7.74805 0 1 0 -15.4961,0 7.74805,7.74805 0 1 0 15.4961,0 z"
         inkscape:connector-curvature="0" />
      <path
         id="path45"
         style="fill:none;stroke:#000000;stroke-width:0.89999998;stroke-linecap:round"
         d="m 1595.7377,1101.4393 a 7.74805,7.74805 0 1 0 -15.4961,0 7.74805,7.74805 0 1 0 15.4961,0 z"
         inkscape:connector-curvature="0" />
      <path
         id="path47"
         style="fill:none;stroke:#000000;stroke-width:0.89999998;stroke-linecap:round"
         d="m -1580.2416,1101.4393 a 7.74805,7.74805 0 1 0 -15.4961,0 7.74805,7.74805 0 1 0 15.4961,0 z"
         inkscape:connector-curvature="0" />
      <path
         id="path49"
         style="fill:none;stroke:#000000;stroke-width:0.89999998;stroke-linecap:round"
         d="m -1811.0283,862.14391 a 7.74805,7.74805 0 1 0 -15.4961,0 7.74805,7.74805 0 1 0 15.4961,0 z"
         inkscape:connector-curvature="0" />
      <path
         id="path51"
         style="fill:none;stroke:#000000;stroke-width:0.89999998;stroke-linecap:round"
         d="m -1748.0497,410.86397 a 7.74805,7.74805 0 1 0 -15.4961,0 7.74805,7.74805 0 1 0 15.4961,0 z"
         inkscape:connector-curvature="0" />
      <path
         id="path53"
         style="fill:none;stroke:#000000;stroke-width:0.89999998;stroke-linecap:round"
         d="m 1763.5458,410.86397 a 7.74805,7.74805 0 1 0 -15.4961,0 7.74805,7.74805 0 1 0 15.4961,0 z"
         inkscape:connector-curvature="0" />
      <path
         id="path55"
         style="fill:none;stroke:#000000;stroke-width:0.89999998;stroke-linecap:round"
         d="m 210.63199,1245.538 c 92.78411,-76.4184 179.35363,-109.7055 269.33182,-109.7055"
         inkscape:connector-curvature="0" />
      <path
         id="path57"
         style="fill:none;stroke:#000000;stroke-width:0.89999998;stroke-linecap:round"
         d="m -479.96381,1135.8325 c 89.97819,0 176.54771,33.2871 269.33182,109.7055"
         inkscape:connector-curvature="0" />
      <path
         id="path59"
         style="fill:none;stroke:#000000;stroke-width:0.89999998;stroke-linecap:round"
         d="m -1622.3828,1023.2224 v 40.8075"
         inkscape:connector-curvature="0" />
      <path
         id="path61"
         style="fill:none;stroke:#000000;stroke-width:0.89999998;stroke-linecap:round"
         d="m -1800.0687,888.79054 h 43.2541"
         inkscape:connector-curvature="0" />
      <path
         id="path63"
         style="fill:none;stroke:#000000;stroke-width:0.89999998;stroke-linecap:round"
         d="M -1845.423,652.57256 V 843.43621"
         inkscape:connector-curvature="0" />
      <path
         id="path65"
         style="fill:none;stroke:#000000;stroke-width:0.89999998;stroke-linecap:round"
         d="M -993.06245,176.87989 H -1394.851"
         inkscape:connector-curvature="0" />
      <path
         id="path67"
         style="fill:none;stroke:#000000;stroke-width:0.89999998;stroke-linecap:round"
         d="M 352.45626,46.086321 H -352.45626"
         inkscape:connector-curvature="0" />
      <path
         id="path69"
         style="fill:none;stroke:#000000;stroke-width:0.89999998;stroke-linecap:round"
         d="M 1394.851,176.87989 H 993.06245"
         inkscape:connector-curvature="0" />
      <path
         id="path71"
         style="fill:none;stroke:#000000;stroke-width:0.89999998;stroke-linecap:round"
         d="M 1845.423,843.43621 V 652.57256"
         inkscape:connector-curvature="0" />
      <path
         id="path73"
         style="fill:none;stroke:#000000;stroke-width:0.89999998;stroke-linecap:round"
         d="m 1756.8146,888.79054 h 43.2541"
         inkscape:connector-curvature="0" />
      <path
         id="path75"
         style="fill:none;stroke:#000000;stroke-width:0.89999998;stroke-linecap:round"
         d="m 1622.3828,1064.0299 v -40.8075"
         inkscape:connector-curvature="0" />
      <path
         id="path77"
         style="fill:none;stroke:#000000;stroke-width:0.89999998;stroke-linecap:round"
         d="M 479.96381,1135.8325 H 1550.5802"
         inkscape:connector-curvature="0" />
      <path
         id="path79"
         style="fill:none;stroke:#000000;stroke-width:0.89999998;stroke-linecap:round"
         d="m -148.08365,1267.98 h 296.1673"
         inkscape:connector-curvature="0" />
      <path
         id="path81"
         style="fill:none;stroke:#000000;stroke-width:0.89999998;stroke-linecap:round"
         d="M -1550.5802,1135.8325 H -479.96381"
         inkscape:connector-curvature="0" />
      <path
         id="path83"
         style="fill:none;stroke:#000000;stroke-width:0.89999998;stroke-linecap:round"
         d="m -1622.3828,1064.0299 a 71.802554,71.802554 0 0 0 71.8026,71.8026"
         inkscape:connector-curvature="0" />
      <path
         id="path85"
         style="fill:none;stroke:#000000;stroke-width:0.89999998;stroke-linecap:round"
         d="M -1622.3828,1023.2224 A 134.43184,134.43184 0 0 0 -1756.8146,888.79054"
         inkscape:connector-curvature="0" />
      <path
         id="path87"
         style="fill:none;stroke:#000000;stroke-width:0.89999998;stroke-linecap:round"
         d="m -1845.423,843.43621 a 45.354331,45.354331 0 0 0 45.3543,45.35433"
         inkscape:connector-curvature="0" />
      <path
         id="path89"
         style="fill:none;stroke:#000000;stroke-width:0.89999998;stroke-linecap:round"
         d="m -1394.851,176.87989 a 476.39295,476.39295 0 0 0 -450.572,475.69267"
         inkscape:connector-curvature="0" />
      <path
         id="path91"
         style="fill:none;stroke:#000000;stroke-width:0.89999998;stroke-linecap:round"
         d="M -993.06245,176.87989 A 1170.3329,1170.3329 0 0 0 -534.28949,83.211497"
         inkscape:connector-curvature="0" />
      <path
         id="path93"
         style="fill:none;stroke:#000000;stroke-width:0.89999998;stroke-linecap:round"
         d="M -352.45626,46.086321 A 463.85779,463.85779 0 0 0 -534.28949,83.211497"
         inkscape:connector-curvature="0" />
      <path
         id="path95"
         style="fill:none;stroke:#000000;stroke-width:0.89999998;stroke-linecap:round"
         d="M 534.28949,83.211497 A 463.85779,463.85779 0 0 0 352.45626,46.086321"
         inkscape:connector-curvature="0" />
      <path
         id="path97"
         style="fill:none;stroke:#000000;stroke-width:0.89999998;stroke-linecap:round"
         d="M 534.28949,83.211497 A 1170.3329,1170.3329 0 0 0 993.06245,176.87989"
         inkscape:connector-curvature="0" />
      <path
         id="path99"
         style="fill:none;stroke:#000000;stroke-width:0.89999998;stroke-linecap:round"
         d="M 1845.423,652.57256 A 476.39295,476.39295 0 0 0 1394.851,176.87989"
         inkscape:connector-curvature="0" />
      <path
         id="path101"
         style="fill:none;stroke:#000000;stroke-width:0.89999998;stroke-linecap:round"
         d="m 1800.0687,888.79054 a 45.354331,45.354331 0 0 0 45.3543,-45.35433"
         inkscape:connector-curvature="0" />
      <path
         id="path103"
         style="fill:none;stroke:#000000;stroke-width:0.89999998;stroke-linecap:round"
         d="M 1756.8146,888.79054 A 134.43184,134.43184 0 0 0 1622.3828,1023.2224"
         inkscape:connector-curvature="0" />
      <path
         id="path105"
         style="fill:none;stroke:#000000;stroke-width:0.89999998;stroke-linecap:round"
         d="m 1550.5802,1135.8325 a 71.802554,71.802554 0 0 0 71.8026,-71.8026"
         inkscape:connector-curvature="0" />
      <path
         id="path107"
         style="fill:none;stroke:#000000;stroke-width:0.89999998;stroke-linecap:round"
         d="m 148.08365,1267.98 a 98.385605,98.385605 0 0 0 62.54834,-22.442"
         inkscape:connector-curvature="0" />
      <path
         id="path109"
         style="fill:none;stroke:#000000;stroke-width:0.89999998;stroke-linecap:round"
         d="m -210.63199,1245.538 a 98.385605,98.385605 0 0 0 62.54834,22.442"
         inkscape:connector-curvature="0" />
    </g>
  </g>
</svg>
