  0
SECTION
  2
HEADER
  9
$ACADVER
  1
AC1014
  9
$HANDSEED
  5
FFFF
  9
$MEASUREMENT
 70
     1
  0
ENDSEC
  0
SECTION
  2
TABLES
  0
TABLE
  2
VPORT
  5
8
330
0
100
AcDbSymbolTable
 70
     4
  0
VPORT
  5
2E
330
8
100
AcDbSymbolTableRecord
100
AcDbViewportTableRecord
  2
*ACTIVE
 70
     0
 10
0.0
 20
0.0
 11
1.0
 21
1.0
 12
210.0
 22
148.5
 13
0.0
 23
0.0
 14
10.0
 24
10.0
 15
10.0
 25
10.0
 16
0.0
 26
0.0
 36
1.0
 17
0.0
 27
0.0
 37
0.0
 40
341.0
 41
1.24
 42
50.0
 43
0.0
 44
0.0
 50
0.0
 51
0.0
 71
     0
 72
   100
 73
     1
 74
     3
 75
     0
 76
     0
 77
     0
 78
     0
  0
ENDTAB
  0
TABLE
  2
LTYPE
  5
5
330
0
100
AcDbSymbolTable
 70
     1
  0
LTYPE
  5
14
330
5
100
AcDbSymbolTableRecord
100
AcDbLinetypeTableRecord
  2
BYBLOCK
 70
     0
  3

 72
    65
 73
     0
 40
0.0
  0
LTYPE
  5
15
330
5
100
AcDbSymbolTableRecord
100
AcDbLinetypeTableRecord
  2
BYLAYER
 70
     0
  3

 72
    65
 73
     0
 40
0.0
  0
LTYPE
  5
16
330
5
100
AcDbSymbolTableRecord
100
AcDbLinetypeTableRecord
  2
CONTINUOUS
 70
     0
  3
Solid line
 72
    65
 73
     0
 40
0.0
  0
ENDTAB
  0
TABLE
  2
LAYER
  5
2
100
AcDbSymbolTable
 70
1
  0
LAYER
  5
50
100
AcDbSymbolTableRecord
100
AcDbLayerTableRecord
  2
0
 70
0
  6
CONTINUOUS
  0
ENDTAB
  0
TABLE
  2
STYLE
  5
3
330
0
100
AcDbSymbolTable
 70
     1
  0
STYLE
  5
11
330
3
100
AcDbSymbolTableRecord
100
AcDbTextStyleTableRecord
  2
STANDARD
 70
     0
 40
0.0
 41
1.0
 50
0.0
 71
     0
 42
2.5
  3
txt
  4

  0
ENDTAB
  0
TABLE
  2
VIEW
  5
6
330
0
100
AcDbSymbolTable
 70
     0
  0
ENDTAB
  0
TABLE
  2
UCS
  5
7
330
0
100
AcDbSymbolTable
 70
     0
  0
ENDTAB
  0
TABLE
  2
APPID
  5
9
330
0
100
AcDbSymbolTable
 70
     2
  0
APPID
  5
12
330
9
100
AcDbSymbolTableRecord
100
AcDbRegAppTableRecord
  2
ACAD
 70
     0
  0
ENDTAB
  0
TABLE
  2
DIMSTYLE
  5
A
330
0
100
AcDbSymbolTable
 70
     1
  0
DIMSTYLE
105
27
330
A
100
AcDbSymbolTableRecord
100
AcDbDimStyleTableRecord
  2
ISO-25
 70
     0
  3

  4

  5

  6

  7

 40
1.0
 41
2.5
 42
0.625
 43
3.75
 44
1.25
 45
0.0
 46
0.0
 47
0.0
 48
0.0
140
2.5
141
2.5
142
0.0
143
0.03937007874016
144
1.0
145
0.0
146
1.0
147
0.625
 71
     0
 72
     0
 73
     0
 74
     0
 75
     0
 76
     0
 77
     1
 78
     8
170
     0
171
     3
172
     1
173
     0
174
     0
175
     0
176
     0
177
     0
178
     0
270
     2
271
     2
272
     2
273
     2
274
     3
340
11
275
     0
280
     0
281
     0
282
     0
283
     0
284
     8
285
     0
286
     0
287
     3
288
     0
  0
ENDTAB
  0
TABLE
  2
BLOCK_RECORD
  5
1
330
0
100
AcDbSymbolTable
 70
     1
  0
BLOCK_RECORD
  5
1F
330
1
100
AcDbSymbolTableRecord
100
AcDbBlockTableRecord
  2
*MODEL_SPACE
  0
BLOCK_RECORD
  5
1B
330
1
100
AcDbSymbolTableRecord
100
AcDbBlockTableRecord
  2
*PAPER_SPACE
  0
ENDTAB
  0
ENDSEC
  0
SECTION
  2
BLOCKS
  0
BLOCK
  5
20
330
1F
100
AcDbEntity
  8
0
100
AcDbBlockBegin
  2
*MODEL_SPACE
 70
     0
 10
0.0
 20
0.0
 30
0.0
  3
*MODEL_SPACE
  1

  0
ENDBLK
  5
21
330
1F
100
AcDbEntity
  8
0
100
AcDbBlockEnd
  0
BLOCK
  5
1C
330
1B
100
AcDbEntity
 67
     1
  8
0
100
AcDbBlockBegin
  2
*PAPER_SPACE
  1

  0
ENDBLK
  5
1D
330
1B
100
AcDbEntity
 67
     1
  8
0
100
AcDbBlockEnd
  0
ENDSEC
  0
SECTION
  2
ENTITIES
  0
SPLINE
  5
100
100
AcDbEntity
  8
0
 62
7
100
AcDbSpline
 70
8
 71
3
 72
8
 73
4
 74
0
 40
0
 40
0
 40
0
 40
0
 40
1
 40
1
 40
1
 40
1
 10
971.655145
 20
107.496549
 30
0.0
 10
971.655145
 20
108.228945
 30
0.0
 10
971.264417
 20
108.905707
 30
0.0
 10
970.630143
 20
109.271905
 30
0.0
  0
SPLINE
  5
101
100
AcDbEntity
  8
0
 62
7
100
AcDbSpline
 70
8
 71
3
 72
8
 73
4
 74
0
 40
0
 40
0
 40
0
 40
0
 40
1
 40
1
 40
1
 40
1
 10
970.630143
 20
109.271905
 30
0.0
 10
969.995869
 20
109.638104
 30
0.0
 10
969.214412
 20
109.638104
 30
0.0
 10
968.580138
 20
109.271905
 30
0.0
  0
SPLINE
  5
102
100
AcDbEntity
  8
0
 62
7
100
AcDbSpline
 70
8
 71
3
 72
8
 73
4
 74
0
 40
0
 40
0
 40
0
 40
0
 40
1
 40
1
 40
1
 40
1
 10
968.580138
 20
109.271905
 30
0.0
 10
967.945864
 20
108.905707
 30
0.0
 10
967.555136
 20
108.228945
 30
0.0
 10
967.555136
 20
107.496549
 30
0.0
  0
SPLINE
  5
103
100
AcDbEntity
  8
0
 62
7
100
AcDbSpline
 70
8
 71
3
 72
8
 73
4
 74
0
 40
0
 40
0
 40
0
 40
0
 40
1
 40
1
 40
1
 40
1
 10
967.555136
 20
107.496549
 30
0.0
 10
967.555136
 20
106.764153
 30
0.0
 10
967.945864
 20
106.087391
 30
0.0
 10
968.580138
 20
105.721193
 30
0.0
  0
SPLINE
  5
104
100
AcDbEntity
  8
0
 62
7
100
AcDbSpline
 70
8
 71
3
 72
8
 73
4
 74
0
 40
0
 40
0
 40
0
 40
0
 40
1
 40
1
 40
1
 40
1
 10
968.580138
 20
105.721193
 30
0.0
 10
969.214412
 20
105.354995
 30
0.0
 10
969.995869
 20
105.354995
 30
0.0
 10
970.630143
 20
105.721193
 30
0.0
  0
SPLINE
  5
105
100
AcDbEntity
  8
0
 62
7
100
AcDbSpline
 70
8
 71
3
 72
8
 73
4
 74
0
 40
0
 40
0
 40
0
 40
0
 40
1
 40
1
 40
1
 40
1
 10
970.630143
 20
105.721193
 30
0.0
 10
971.264417
 20
106.087391
 30
0.0
 10
971.655145
 20
106.764153
 30
0.0
 10
971.655145
 20
107.496549
 30
0.0
  0
SPLINE
  5
106
100
AcDbEntity
  8
0
 62
7
100
AcDbSpline
 70
8
 71
3
 72
8
 73
4
 74
0
 40
0
 40
0
 40
0
 40
0
 40
1
 40
1
 40
1
 40
1
 10
553.691282
 20
318.411786
 30
0.0
 10
553.691738
 20
319.144484
 30
0.0
 10
553.301110
 20
319.821720
 30
0.0
 10
552.666651
 20
320.188201
 30
0.0
  0
SPLINE
  5
107
100
AcDbEntity
  8
0
 62
7
100
AcDbSpline
 70
8
 71
3
 72
8
 73
4
 74
0
 40
0
 40
0
 40
0
 40
0
 40
1
 40
1
 40
1
 40
1
 10
552.666651
 20
320.188201
 30
0.0
 10
552.032191
 20
320.554682
 30
0.0
 10
551.250374
 20
320.554682
 30
0.0
 10
550.615914
 20
320.188201
 30
0.0
  0
SPLINE
  5
108
100
AcDbEntity
  8
0
 62
7
100
AcDbSpline
 70
8
 71
3
 72
8
 73
4
 74
0
 40
0
 40
0
 40
0
 40
0
 40
1
 40
1
 40
1
 40
1
 10
550.615914
 20
320.188201
 30
0.0
 10
549.981455
 20
319.821720
 30
0.0
 10
549.590827
 20
319.144484
 30
0.0
 10
549.591283
 20
318.411786
 30
0.0
  0
SPLINE
  5
109
100
AcDbEntity
  8
0
 62
7
100
AcDbSpline
 70
8
 71
3
 72
8
 73
4
 74
0
 40
0
 40
0
 40
0
 40
0
 40
1
 40
1
 40
1
 40
1
 10
549.591283
 20
318.411786
 30
0.0
 10
549.590827
 20
317.679088
 30
0.0
 10
549.981455
 20
317.001852
 30
0.0
 10
550.615914
 20
316.635371
 30
0.0
  0
SPLINE
  5
10a
100
AcDbEntity
  8
0
 62
7
100
AcDbSpline
 70
8
 71
3
 72
8
 73
4
 74
0
 40
0
 40
0
 40
0
 40
0
 40
1
 40
1
 40
1
 40
1
 10
550.615914
 20
316.635371
 30
0.0
 10
551.250374
 20
316.268890
 30
0.0
 10
552.032191
 20
316.268890
 30
0.0
 10
552.666651
 20
316.635371
 30
0.0
  0
SPLINE
  5
10b
100
AcDbEntity
  8
0
 62
7
100
AcDbSpline
 70
8
 71
3
 72
8
 73
4
 74
0
 40
0
 40
0
 40
0
 40
0
 40
1
 40
1
 40
1
 40
1
 10
552.666651
 20
316.635371
 30
0.0
 10
553.301110
 20
317.001852
 30
0.0
 10
553.691738
 20
317.679088
 30
0.0
 10
553.691282
 20
318.411786
 30
0.0
  0
LWPOLYLINE
  5
10c
100
AcDbEntity
  8
0
 62
7
100
AcDbPolyline
 90
1
 70
1
 10
971.655145
 20
107.496549
 30
0.0
  0
SPLINE
  5
10d
100
AcDbEntity
  8
0
 62
7
100
AcDbSpline
 70
8
 71
3
 72
8
 73
4
 74
0
 40
0
 40
0
 40
0
 40
0
 40
1
 40
1
 40
1
 40
1
 10
533.758788
 20
5.889302
 30
0.0
 10
533.758788
 20
6.621697
 30
0.0
 10
533.368060
 20
7.298458
 30
0.0
 10
532.733788
 20
7.664655
 30
0.0
  0
SPLINE
  5
10e
100
AcDbEntity
  8
0
 62
7
100
AcDbSpline
 70
8
 71
3
 72
8
 73
4
 74
0
 40
0
 40
0
 40
0
 40
0
 40
1
 40
1
 40
1
 40
1
 10
532.733788
 20
7.664655
 30
0.0
 10
532.099515
 20
8.030852
 30
0.0
 10
531.318059
 20
8.030852
 30
0.0
 10
530.683787
 20
7.664655
 30
0.0
  0
SPLINE
  5
10f
100
AcDbEntity
  8
0
 62
7
100
AcDbSpline
 70
8
 71
3
 72
8
 73
4
 74
0
 40
0
 40
0
 40
0
 40
0
 40
1
 40
1
 40
1
 40
1
 10
530.683787
 20
7.664655
 30
0.0
 10
530.049514
 20
7.298458
 30
0.0
 10
529.658786
 20
6.621697
 30
0.0
 10
529.658786
 20
5.889302
 30
0.0
  0
SPLINE
  5
110
100
AcDbEntity
  8
0
 62
7
100
AcDbSpline
 70
8
 71
3
 72
8
 73
4
 74
0
 40
0
 40
0
 40
0
 40
0
 40
1
 40
1
 40
1
 40
1
 10
529.658786
 20
5.889302
 30
0.0
 10
529.658786
 20
5.156907
 30
0.0
 10
530.049514
 20
4.480147
 30
0.0
 10
530.683787
 20
4.113949
 30
0.0
  0
SPLINE
  5
111
100
AcDbEntity
  8
0
 62
7
100
AcDbSpline
 70
8
 71
3
 72
8
 73
4
 74
0
 40
0
 40
0
 40
0
 40
0
 40
1
 40
1
 40
1
 40
1
 10
530.683787
 20
4.113949
 30
0.0
 10
531.318059
 20
3.747752
 30
0.0
 10
532.099515
 20
3.747752
 30
0.0
 10
532.733788
 20
4.113949
 30
0.0
  0
SPLINE
  5
112
100
AcDbEntity
  8
0
 62
7
100
AcDbSpline
 70
8
 71
3
 72
8
 73
4
 74
0
 40
0
 40
0
 40
0
 40
0
 40
1
 40
1
 40
1
 40
1
 10
532.733788
 20
4.113949
 30
0.0
 10
533.368060
 20
4.480147
 30
0.0
 10
533.758788
 20
5.156907
 30
0.0
 10
533.758788
 20
5.889302
 30
0.0
  0
LWPOLYLINE
  5
113
100
AcDbEntity
  8
0
 62
7
100
AcDbPolyline
 90
1
 70
1
 10
553.691282
 20
318.411786
 30
0.0
  0
SPLINE
  5
114
100
AcDbEntity
  8
0
 62
7
100
AcDbSpline
 70
8
 71
3
 72
8
 73
4
 74
0
 40
0
 40
0
 40
0
 40
0
 40
1
 40
1
 40
1
 40
1
 10
601.427656
 20
38.666944
 30
0.0
 10
601.428112
 20
39.399642
 30
0.0
 10
601.037484
 20
40.076878
 30
0.0
 10
600.403024
 20
40.443359
 30
0.0
  0
SPLINE
  5
115
100
AcDbEntity
  8
0
 62
7
100
AcDbSpline
 70
8
 71
3
 72
8
 73
4
 74
0
 40
0
 40
0
 40
0
 40
0
 40
1
 40
1
 40
1
 40
1
 10
600.403024
 20
40.443359
 30
0.0
 10
599.768565
 20
40.809840
 30
0.0
 10
598.986747
 20
40.809840
 30
0.0
 10
598.352288
 20
40.443359
 30
0.0
  0
SPLINE
  5
116
100
AcDbEntity
  8
0
 62
7
100
AcDbSpline
 70
8
 71
3
 72
8
 73
4
 74
0
 40
0
 40
0
 40
0
 40
0
 40
1
 40
1
 40
1
 40
1
 10
598.352288
 20
40.443359
 30
0.0
 10
597.717829
 20
40.076878
 30
0.0
 10
597.327201
 20
39.399642
 30
0.0
 10
597.327657
 20
38.666944
 30
0.0
  0
SPLINE
  5
117
100
AcDbEntity
  8
0
 62
7
100
AcDbSpline
 70
8
 71
3
 72
8
 73
4
 74
0
 40
0
 40
0
 40
0
 40
0
 40
1
 40
1
 40
1
 40
1
 10
597.327657
 20
38.666944
 30
0.0
 10
597.327201
 20
37.934246
 30
0.0
 10
597.717829
 20
37.257010
 30
0.0
 10
598.352288
 20
36.890529
 30
0.0
  0
SPLINE
  5
118
100
AcDbEntity
  8
0
 62
7
100
AcDbSpline
 70
8
 71
3
 72
8
 73
4
 74
0
 40
0
 40
0
 40
0
 40
0
 40
1
 40
1
 40
1
 40
1
 10
598.352288
 20
36.890529
 30
0.0
 10
598.986747
 20
36.524048
 30
0.0
 10
599.768565
 20
36.524048
 30
0.0
 10
600.403024
 20
36.890529
 30
0.0
  0
SPLINE
  5
119
100
AcDbEntity
  8
0
 62
7
100
AcDbSpline
 70
8
 71
3
 72
8
 73
4
 74
0
 40
0
 40
0
 40
0
 40
0
 40
1
 40
1
 40
1
 40
1
 10
600.403024
 20
36.890529
 30
0.0
 10
601.037484
 20
37.257010
 30
0.0
 10
601.428112
 20
37.934246
 30
0.0
 10
601.427656
 20
38.666944
 30
0.0
  0
LWPOLYLINE
  5
11a
100
AcDbEntity
  8
0
 62
7
100
AcDbPolyline
 90
1
 70
1
 10
533.758788
 20
5.889302
 30
0.0
  0
SPLINE
  5
11b
100
AcDbEntity
  8
0
 62
7
100
AcDbSpline
 70
8
 71
3
 72
8
 73
4
 74
0
 40
0
 40
0
 40
0
 40
0
 40
1
 40
1
 40
1
 40
1
 10
759.061299
 20
40.083126
 30
0.0
 10
759.061299
 20
40.815522
 30
0.0
 10
758.670571
 20
41.492284
 30
0.0
 10
758.036297
 20
41.858482
 30
0.0
  0
SPLINE
  5
11c
100
AcDbEntity
  8
0
 62
7
100
AcDbSpline
 70
8
 71
3
 72
8
 73
4
 74
0
 40
0
 40
0
 40
0
 40
0
 40
1
 40
1
 40
1
 40
1
 10
758.036297
 20
41.858482
 30
0.0
 10
757.402023
 20
42.224681
 30
0.0
 10
756.620566
 20
42.224681
 30
0.0
 10
755.986292
 20
41.858482
 30
0.0
  0
SPLINE
  5
11d
100
AcDbEntity
  8
0
 62
7
100
AcDbSpline
 70
8
 71
3
 72
8
 73
4
 74
0
 40
0
 40
0
 40
0
 40
0
 40
1
 40
1
 40
1
 40
1
 10
755.986292
 20
41.858482
 30
0.0
 10
755.352018
 20
41.492284
 30
0.0
 10
754.961290
 20
40.815522
 30
0.0
 10
754.961290
 20
40.083126
 30
0.0
  0
SPLINE
  5
11e
100
AcDbEntity
  8
0
 62
7
100
AcDbSpline
 70
8
 71
3
 72
8
 73
4
 74
0
 40
0
 40
0
 40
0
 40
0
 40
1
 40
1
 40
1
 40
1
 10
754.961290
 20
40.083126
 30
0.0
 10
754.961290
 20
39.350730
 30
0.0
 10
755.352018
 20
38.673968
 30
0.0
 10
755.986292
 20
38.307770
 30
0.0
  0
SPLINE
  5
11f
100
AcDbEntity
  8
0
 62
7
100
AcDbSpline
 70
8
 71
3
 72
8
 73
4
 74
0
 40
0
 40
0
 40
0
 40
0
 40
1
 40
1
 40
1
 40
1
 10
755.986292
 20
38.307770
 30
0.0
 10
756.620566
 20
37.941572
 30
0.0
 10
757.402023
 20
37.941572
 30
0.0
 10
758.036297
 20
38.307770
 30
0.0
  0
SPLINE
  5
120
100
AcDbEntity
  8
0
 62
7
100
AcDbSpline
 70
8
 71
3
 72
8
 73
4
 74
0
 40
0
 40
0
 40
0
 40
0
 40
1
 40
1
 40
1
 40
1
 10
758.036297
 20
38.307770
 30
0.0
 10
758.670571
 20
38.673968
 30
0.0
 10
759.061299
 20
39.350730
 30
0.0
 10
759.061299
 20
40.083126
 30
0.0
  0
LWPOLYLINE
  5
121
100
AcDbEntity
  8
0
 62
7
100
AcDbPolyline
 90
1
 70
1
 10
601.427656
 20
38.666944
 30
0.0
  0
SPLINE
  5
122
100
AcDbEntity
  8
0
 62
7
100
AcDbSpline
 70
8
 71
3
 72
8
 73
4
 74
0
 40
0
 40
0
 40
0
 40
0
 40
1
 40
1
 40
1
 40
1
 10
307.183179
 20
294.013247
 30
0.0
 10
307.183635
 20
294.745945
 30
0.0
 10
306.793007
 20
295.423181
 30
0.0
 10
306.158547
 20
295.789662
 30
0.0
  0
SPLINE
  5
123
100
AcDbEntity
  8
0
 62
7
100
AcDbSpline
 70
8
 71
3
 72
8
 73
4
 74
0
 40
0
 40
0
 40
0
 40
0
 40
1
 40
1
 40
1
 40
1
 10
306.158547
 20
295.789662
 30
0.0
 10
305.524088
 20
296.156143
 30
0.0
 10
304.742270
 20
296.156143
 30
0.0
 10
304.107811
 20
295.789662
 30
0.0
  0
SPLINE
  5
124
100
AcDbEntity
  8
0
 62
7
100
AcDbSpline
 70
8
 71
3
 72
8
 73
4
 74
0
 40
0
 40
0
 40
0
 40
0
 40
1
 40
1
 40
1
 40
1
 10
304.107811
 20
295.789662
 30
0.0
 10
303.473352
 20
295.423181
 30
0.0
 10
303.082724
 20
294.745945
 30
0.0
 10
303.083180
 20
294.013247
 30
0.0
  0
SPLINE
  5
125
100
AcDbEntity
  8
0
 62
7
100
AcDbSpline
 70
8
 71
3
 72
8
 73
4
 74
0
 40
0
 40
0
 40
0
 40
0
 40
1
 40
1
 40
1
 40
1
 10
303.083180
 20
294.013247
 30
0.0
 10
303.082724
 20
293.280549
 30
0.0
 10
303.473352
 20
292.603313
 30
0.0
 10
304.107811
 20
292.236832
 30
0.0
  0
SPLINE
  5
126
100
AcDbEntity
  8
0
 62
7
100
AcDbSpline
 70
8
 71
3
 72
8
 73
4
 74
0
 40
0
 40
0
 40
0
 40
0
 40
1
 40
1
 40
1
 40
1
 10
304.107811
 20
292.236832
 30
0.0
 10
304.742270
 20
291.870351
 30
0.0
 10
305.524088
 20
291.870351
 30
0.0
 10
306.158547
 20
292.236832
 30
0.0
  0
SPLINE
  5
127
100
AcDbEntity
  8
0
 62
7
100
AcDbSpline
 70
8
 71
3
 72
8
 73
4
 74
0
 40
0
 40
0
 40
0
 40
0
 40
1
 40
1
 40
1
 40
1
 10
306.158547
 20
292.236832
 30
0.0
 10
306.793007
 20
292.603313
 30
0.0
 10
307.183635
 20
293.280549
 30
0.0
 10
307.183179
 20
294.013247
 30
0.0
  0
LWPOLYLINE
  5
128
100
AcDbEntity
  8
0
 62
7
100
AcDbPolyline
 90
1
 70
1
 10
759.061299
 20
40.083126
 30
0.0
  0
SPLINE
  5
129
100
AcDbEntity
  8
0
 62
7
100
AcDbSpline
 70
8
 71
3
 72
8
 73
4
 74
0
 40
0
 40
0
 40
0
 40
0
 40
1
 40
1
 40
1
 40
1
 10
221.813173
 20
40.083126
 30
0.0
 10
221.813173
 20
40.815522
 30
0.0
 10
221.422444
 20
41.492284
 30
0.0
 10
220.788170
 20
41.858482
 30
0.0
  0
SPLINE
  5
12a
100
AcDbEntity
  8
0
 62
7
100
AcDbSpline
 70
8
 71
3
 72
8
 73
4
 74
0
 40
0
 40
0
 40
0
 40
0
 40
1
 40
1
 40
1
 40
1
 10
220.788170
 20
41.858482
 30
0.0
 10
220.153897
 20
42.224681
 30
0.0
 10
219.372439
 20
42.224681
 30
0.0
 10
218.738166
 20
41.858482
 30
0.0
  0
SPLINE
  5
12b
100
AcDbEntity
  8
0
 62
7
100
AcDbSpline
 70
8
 71
3
 72
8
 73
4
 74
0
 40
0
 40
0
 40
0
 40
0
 40
1
 40
1
 40
1
 40
1
 10
218.738166
 20
41.858482
 30
0.0
 10
218.103892
 20
41.492284
 30
0.0
 10
217.713163
 20
40.815522
 30
0.0
 10
217.713163
 20
40.083126
 30
0.0
  0
SPLINE
  5
12c
100
AcDbEntity
  8
0
 62
7
100
AcDbSpline
 70
8
 71
3
 72
8
 73
4
 74
0
 40
0
 40
0
 40
0
 40
0
 40
1
 40
1
 40
1
 40
1
 10
217.713163
 20
40.083126
 30
0.0
 10
217.713163
 20
39.350730
 30
0.0
 10
218.103892
 20
38.673968
 30
0.0
 10
218.738166
 20
38.307770
 30
0.0
  0
SPLINE
  5
12d
100
AcDbEntity
  8
0
 62
7
100
AcDbSpline
 70
8
 71
3
 72
8
 73
4
 74
0
 40
0
 40
0
 40
0
 40
0
 40
1
 40
1
 40
1
 40
1
 10
218.738166
 20
38.307770
 30
0.0
 10
219.372439
 20
37.941572
 30
0.0
 10
220.153897
 20
37.941572
 30
0.0
 10
220.788170
 20
38.307770
 30
0.0
  0
SPLINE
  5
12e
100
AcDbEntity
  8
0
 62
7
100
AcDbSpline
 70
8
 71
3
 72
8
 73
4
 74
0
 40
0
 40
0
 40
0
 40
0
 40
1
 40
1
 40
1
 40
1
 10
220.788170
 20
38.307770
 30
0.0
 10
221.422444
 20
38.673968
 30
0.0
 10
221.813173
 20
39.350730
 30
0.0
 10
221.813173
 20
40.083126
 30
0.0
  0
LWPOLYLINE
  5
12f
100
AcDbEntity
  8
0
 62
7
100
AcDbPolyline
 90
1
 70
1
 10
307.183179
 20
294.013247
 30
0.0
  0
SPLINE
  5
130
100
AcDbEntity
  8
0
 62
7
100
AcDbSpline
 70
8
 71
3
 72
8
 73
4
 74
0
 40
0
 40
0
 40
0
 40
0
 40
1
 40
1
 40
1
 40
1
 10
673.691283
 20
294.013247
 30
0.0
 10
673.691739
 20
294.745945
 30
0.0
 10
673.301111
 20
295.423181
 30
0.0
 10
672.666652
 20
295.789662
 30
0.0
  0
SPLINE
  5
131
100
AcDbEntity
  8
0
 62
7
100
AcDbSpline
 70
8
 71
3
 72
8
 73
4
 74
0
 40
0
 40
0
 40
0
 40
0
 40
1
 40
1
 40
1
 40
1
 10
672.666652
 20
295.789662
 30
0.0
 10
672.032192
 20
296.156143
 30
0.0
 10
671.250374
 20
296.156143
 30
0.0
 10
670.615915
 20
295.789662
 30
0.0
  0
SPLINE
  5
132
100
AcDbEntity
  8
0
 62
7
100
AcDbSpline
 70
8
 71
3
 72
8
 73
4
 74
0
 40
0
 40
0
 40
0
 40
0
 40
1
 40
1
 40
1
 40
1
 10
670.615915
 20
295.789662
 30
0.0
 10
669.981456
 20
295.423181
 30
0.0
 10
669.590828
 20
294.745945
 30
0.0
 10
669.591284
 20
294.013247
 30
0.0
  0
SPLINE
  5
133
100
AcDbEntity
  8
0
 62
7
100
AcDbSpline
 70
8
 71
3
 72
8
 73
4
 74
0
 40
0
 40
0
 40
0
 40
0
 40
1
 40
1
 40
1
 40
1
 10
669.591284
 20
294.013247
 30
0.0
 10
669.590828
 20
293.280549
 30
0.0
 10
669.981456
 20
292.603313
 30
0.0
 10
670.615915
 20
292.236832
 30
0.0
  0
SPLINE
  5
134
100
AcDbEntity
  8
0
 62
7
100
AcDbSpline
 70
8
 71
3
 72
8
 73
4
 74
0
 40
0
 40
0
 40
0
 40
0
 40
1
 40
1
 40
1
 40
1
 10
670.615915
 20
292.236832
 30
0.0
 10
671.250374
 20
291.870351
 30
0.0
 10
672.032192
 20
291.870351
 30
0.0
 10
672.666652
 20
292.236832
 30
0.0
  0
SPLINE
  5
135
100
AcDbEntity
  8
0
 62
7
100
AcDbSpline
 70
8
 71
3
 72
8
 73
4
 74
0
 40
0
 40
0
 40
0
 40
0
 40
1
 40
1
 40
1
 40
1
 10
672.666652
 20
292.236832
 30
0.0
 10
673.301111
 20
292.603313
 30
0.0
 10
673.691739
 20
293.280549
 30
0.0
 10
673.691283
 20
294.013247
 30
0.0
  0
LWPOLYLINE
  5
136
100
AcDbEntity
  8
0
 62
7
100
AcDbPolyline
 90
1
 70
1
 10
221.813173
 20
40.083126
 30
0.0
  0
SPLINE
  5
137
100
AcDbEntity
  8
0
 62
7
100
AcDbSpline
 70
8
 71
3
 72
8
 73
4
 74
0
 40
0
 40
0
 40
0
 40
0
 40
1
 40
1
 40
1
 40
1
 10
379.446806
 20
38.666944
 30
0.0
 10
379.447262
 20
39.399642
 30
0.0
 10
379.056634
 20
40.076878
 30
0.0
 10
378.422174
 20
40.443359
 30
0.0
  0
SPLINE
  5
138
100
AcDbEntity
  8
0
 62
7
100
AcDbSpline
 70
8
 71
3
 72
8
 73
4
 74
0
 40
0
 40
0
 40
0
 40
0
 40
1
 40
1
 40
1
 40
1
 10
378.422174
 20
40.443359
 30
0.0
 10
377.787715
 20
40.809840
 30
0.0
 10
377.005897
 20
40.809840
 30
0.0
 10
376.371438
 20
40.443359
 30
0.0
  0
SPLINE
  5
139
100
AcDbEntity
  8
0
 62
7
100
AcDbSpline
 70
8
 71
3
 72
8
 73
4
 74
0
 40
0
 40
0
 40
0
 40
0
 40
1
 40
1
 40
1
 40
1
 10
376.371438
 20
40.443359
 30
0.0
 10
375.736979
 20
40.076878
 30
0.0
 10
375.346351
 20
39.399642
 30
0.0
 10
375.346807
 20
38.666944
 30
0.0
  0
SPLINE
  5
13a
100
AcDbEntity
  8
0
 62
7
100
AcDbSpline
 70
8
 71
3
 72
8
 73
4
 74
0
 40
0
 40
0
 40
0
 40
0
 40
1
 40
1
 40
1
 40
1
 10
375.346807
 20
38.666944
 30
0.0
 10
375.346351
 20
37.934246
 30
0.0
 10
375.736979
 20
37.257010
 30
0.0
 10
376.371438
 20
36.890529
 30
0.0
  0
SPLINE
  5
13b
100
AcDbEntity
  8
0
 62
7
100
AcDbSpline
 70
8
 71
3
 72
8
 73
4
 74
0
 40
0
 40
0
 40
0
 40
0
 40
1
 40
1
 40
1
 40
1
 10
376.371438
 20
36.890529
 30
0.0
 10
377.005897
 20
36.524048
 30
0.0
 10
377.787715
 20
36.524048
 30
0.0
 10
378.422174
 20
36.890529
 30
0.0
  0
SPLINE
  5
13c
100
AcDbEntity
  8
0
 62
7
100
AcDbSpline
 70
8
 71
3
 72
8
 73
4
 74
0
 40
0
 40
0
 40
0
 40
0
 40
1
 40
1
 40
1
 40
1
 10
378.422174
 20
36.890529
 30
0.0
 10
379.056634
 20
37.257010
 30
0.0
 10
379.447262
 20
37.934246
 30
0.0
 10
379.446806
 20
38.666944
 30
0.0
  0
LWPOLYLINE
  5
13d
100
AcDbEntity
  8
0
 62
7
100
AcDbPolyline
 90
1
 70
1
 10
673.691283
 20
294.013247
 30
0.0
  0
SPLINE
  5
13e
100
AcDbEntity
  8
0
 62
7
100
AcDbSpline
 70
8
 71
3
 72
8
 73
4
 74
0
 40
0
 40
0
 40
0
 40
0
 40
1
 40
1
 40
1
 40
1
 10
427.183180
 20
318.411786
 30
0.0
 10
427.183636
 20
319.144484
 30
0.0
 10
426.793008
 20
319.821720
 30
0.0
 10
426.158548
 20
320.188201
 30
0.0
  0
SPLINE
  5
13f
100
AcDbEntity
  8
0
 62
7
100
AcDbSpline
 70
8
 71
3
 72
8
 73
4
 74
0
 40
0
 40
0
 40
0
 40
0
 40
1
 40
1
 40
1
 40
1
 10
426.158548
 20
320.188201
 30
0.0
 10
425.524089
 20
320.554682
 30
0.0
 10
424.742271
 20
320.554682
 30
0.0
 10
424.107812
 20
320.188201
 30
0.0
  0
SPLINE
  5
140
100
AcDbEntity
  8
0
 62
7
100
AcDbSpline
 70
8
 71
3
 72
8
 73
4
 74
0
 40
0
 40
0
 40
0
 40
0
 40
1
 40
1
 40
1
 40
1
 10
424.107812
 20
320.188201
 30
0.0
 10
423.473352
 20
319.821720
 30
0.0
 10
423.082724
 20
319.144484
 30
0.0
 10
423.083180
 20
318.411786
 30
0.0
  0
SPLINE
  5
141
100
AcDbEntity
  8
0
 62
7
100
AcDbSpline
 70
8
 71
3
 72
8
 73
4
 74
0
 40
0
 40
0
 40
0
 40
0
 40
1
 40
1
 40
1
 40
1
 10
423.083180
 20
318.411786
 30
0.0
 10
423.082724
 20
317.679088
 30
0.0
 10
423.473352
 20
317.001852
 30
0.0
 10
424.107812
 20
316.635371
 30
0.0
  0
SPLINE
  5
142
100
AcDbEntity
  8
0
 62
7
100
AcDbSpline
 70
8
 71
3
 72
8
 73
4
 74
0
 40
0
 40
0
 40
0
 40
0
 40
1
 40
1
 40
1
 40
1
 10
424.107812
 20
316.635371
 30
0.0
 10
424.742271
 20
316.268890
 30
0.0
 10
425.524089
 20
316.268890
 30
0.0
 10
426.158548
 20
316.635371
 30
0.0
  0
SPLINE
  5
143
100
AcDbEntity
  8
0
 62
7
100
AcDbSpline
 70
8
 71
3
 72
8
 73
4
 74
0
 40
0
 40
0
 40
0
 40
0
 40
1
 40
1
 40
1
 40
1
 10
426.158548
 20
316.635371
 30
0.0
 10
426.793008
 20
317.001852
 30
0.0
 10
427.183636
 20
317.679088
 30
0.0
 10
427.183180
 20
318.411786
 30
0.0
  0
LWPOLYLINE
  5
144
100
AcDbEntity
  8
0
 62
7
100
AcDbPolyline
 90
1
 70
1
 10
379.446806
 20
38.666944
 30
0.0
  0
SPLINE
  5
145
100
AcDbEntity
  8
0
 62
7
100
AcDbSpline
 70
8
 71
3
 72
8
 73
4
 74
0
 40
0
 40
0
 40
0
 40
0
 40
1
 40
1
 40
1
 40
1
 10
447.115676
 20
5.889302
 30
0.0
 10
447.115676
 20
6.621697
 30
0.0
 10
446.724948
 20
7.298458
 30
0.0
 10
446.090676
 20
7.664655
 30
0.0
  0
SPLINE
  5
146
100
AcDbEntity
  8
0
 62
7
100
AcDbSpline
 70
8
 71
3
 72
8
 73
4
 74
0
 40
0
 40
0
 40
0
 40
0
 40
1
 40
1
 40
1
 40
1
 10
446.090676
 20
7.664655
 30
0.0
 10
445.456403
 20
8.030852
 30
0.0
 10
444.674947
 20
8.030852
 30
0.0
 10
444.040675
 20
7.664655
 30
0.0
  0
SPLINE
  5
147
100
AcDbEntity
  8
0
 62
7
100
AcDbSpline
 70
8
 71
3
 72
8
 73
4
 74
0
 40
0
 40
0
 40
0
 40
0
 40
1
 40
1
 40
1
 40
1
 10
444.040675
 20
7.664655
 30
0.0
 10
443.406402
 20
7.298458
 30
0.0
 10
443.015674
 20
6.621697
 30
0.0
 10
443.015674
 20
5.889302
 30
0.0
  0
SPLINE
  5
148
100
AcDbEntity
  8
0
 62
7
100
AcDbSpline
 70
8
 71
3
 72
8
 73
4
 74
0
 40
0
 40
0
 40
0
 40
0
 40
1
 40
1
 40
1
 40
1
 10
443.015674
 20
5.889302
 30
0.0
 10
443.015674
 20
5.156907
 30
0.0
 10
443.406402
 20
4.480147
 30
0.0
 10
444.040675
 20
4.113949
 30
0.0
  0
SPLINE
  5
149
100
AcDbEntity
  8
0
 62
7
100
AcDbSpline
 70
8
 71
3
 72
8
 73
4
 74
0
 40
0
 40
0
 40
0
 40
0
 40
1
 40
1
 40
1
 40
1
 10
444.040675
 20
4.113949
 30
0.0
 10
444.674947
 20
3.747752
 30
0.0
 10
445.456403
 20
3.747752
 30
0.0
 10
446.090676
 20
4.113949
 30
0.0
  0
SPLINE
  5
14a
100
AcDbEntity
  8
0
 62
7
100
AcDbSpline
 70
8
 71
3
 72
8
 73
4
 74
0
 40
0
 40
0
 40
0
 40
0
 40
1
 40
1
 40
1
 40
1
 10
446.090676
 20
4.113949
 30
0.0
 10
446.724948
 20
4.480147
 30
0.0
 10
447.115676
 20
5.156907
 30
0.0
 10
447.115676
 20
5.889302
 30
0.0
  0
LWPOLYLINE
  5
14b
100
AcDbEntity
  8
0
 62
7
100
AcDbPolyline
 90
1
 70
1
 10
427.183180
 20
318.411786
 30
0.0
  0
SPLINE
  5
14c
100
AcDbEntity
  8
0
 62
7
100
AcDbSpline
 70
8
 71
3
 72
8
 73
4
 74
0
 40
0
 40
0
 40
0
 40
0
 40
1
 40
1
 40
1
 40
1
 10
803.185015
 20
283.805987
 30
0.0
 10
803.185015
 20
284.538383
 30
0.0
 10
802.794286
 20
285.215145
 30
0.0
 10
802.160013
 20
285.581344
 30
0.0
  0
SPLINE
  5
14d
100
AcDbEntity
  8
0
 62
7
100
AcDbSpline
 70
8
 71
3
 72
8
 73
4
 74
0
 40
0
 40
0
 40
0
 40
0
 40
1
 40
1
 40
1
 40
1
 10
802.160013
 20
285.581344
 30
0.0
 10
801.525739
 20
285.947542
 30
0.0
 10
800.744282
 20
285.947542
 30
0.0
 10
800.110008
 20
285.581344
 30
0.0
  0
SPLINE
  5
14e
100
AcDbEntity
  8
0
 62
7
100
AcDbSpline
 70
8
 71
3
 72
8
 73
4
 74
0
 40
0
 40
0
 40
0
 40
0
 40
1
 40
1
 40
1
 40
1
 10
800.110008
 20
285.581344
 30
0.0
 10
799.475734
 20
285.215145
 30
0.0
 10
799.085005
 20
284.538383
 30
0.0
 10
799.085005
 20
283.805987
 30
0.0
  0
SPLINE
  5
14f
100
AcDbEntity
  8
0
 62
7
100
AcDbSpline
 70
8
 71
3
 72
8
 73
4
 74
0
 40
0
 40
0
 40
0
 40
0
 40
1
 40
1
 40
1
 40
1
 10
799.085005
 20
283.805987
 30
0.0
 10
799.085005
 20
283.073591
 30
0.0
 10
799.475734
 20
282.396829
 30
0.0
 10
800.110008
 20
282.030631
 30
0.0
  0
SPLINE
  5
150
100
AcDbEntity
  8
0
 62
7
100
AcDbSpline
 70
8
 71
3
 72
8
 73
4
 74
0
 40
0
 40
0
 40
0
 40
0
 40
1
 40
1
 40
1
 40
1
 10
800.110008
 20
282.030631
 30
0.0
 10
800.744282
 20
281.664433
 30
0.0
 10
801.525739
 20
281.664433
 30
0.0
 10
802.160013
 20
282.030631
 30
0.0
  0
SPLINE
  5
151
100
AcDbEntity
  8
0
 62
7
100
AcDbSpline
 70
8
 71
3
 72
8
 73
4
 74
0
 40
0
 40
0
 40
0
 40
0
 40
1
 40
1
 40
1
 40
1
 10
802.160013
 20
282.030631
 30
0.0
 10
802.794286
 20
282.396829
 30
0.0
 10
803.185015
 20
283.073591
 30
0.0
 10
803.185015
 20
283.805987
 30
0.0
  0
LWPOLYLINE
  5
152
100
AcDbEntity
  8
0
 62
7
100
AcDbPolyline
 90
1
 70
1
 10
447.115676
 20
5.889302
 30
0.0
  0
SPLINE
  5
153
100
AcDbEntity
  8
0
 62
7
100
AcDbSpline
 70
8
 71
3
 72
8
 73
4
 74
0
 40
0
 40
0
 40
0
 40
0
 40
1
 40
1
 40
1
 40
1
 10
177.689457
 20
283.805987
 30
0.0
 10
177.689457
 20
284.538383
 30
0.0
 10
177.298728
 20
285.215145
 30
0.0
 10
176.664455
 20
285.581344
 30
0.0
  0
SPLINE
  5
154
100
AcDbEntity
  8
0
 62
7
100
AcDbSpline
 70
8
 71
3
 72
8
 73
4
 74
0
 40
0
 40
0
 40
0
 40
0
 40
1
 40
1
 40
1
 40
1
 10
176.664455
 20
285.581344
 30
0.0
 10
176.030181
 20
285.947542
 30
0.0
 10
175.248723
 20
285.947542
 30
0.0
 10
174.614450
 20
285.581344
 30
0.0
  0
SPLINE
  5
155
100
AcDbEntity
  8
0
 62
7
100
AcDbSpline
 70
8
 71
3
 72
8
 73
4
 74
0
 40
0
 40
0
 40
0
 40
0
 40
1
 40
1
 40
1
 40
1
 10
174.614450
 20
285.581344
 30
0.0
 10
173.980176
 20
285.215145
 30
0.0
 10
173.589447
 20
284.538383
 30
0.0
 10
173.589447
 20
283.805987
 30
0.0
  0
SPLINE
  5
156
100
AcDbEntity
  8
0
 62
7
100
AcDbSpline
 70
8
 71
3
 72
8
 73
4
 74
0
 40
0
 40
0
 40
0
 40
0
 40
1
 40
1
 40
1
 40
1
 10
173.589447
 20
283.805987
 30
0.0
 10
173.589447
 20
283.073591
 30
0.0
 10
173.980176
 20
282.396829
 30
0.0
 10
174.614450
 20
282.030631
 30
0.0
  0
SPLINE
  5
157
100
AcDbEntity
  8
0
 62
7
100
AcDbSpline
 70
8
 71
3
 72
8
 73
4
 74
0
 40
0
 40
0
 40
0
 40
0
 40
1
 40
1
 40
1
 40
1
 10
174.614450
 20
282.030631
 30
0.0
 10
175.248723
 20
281.664433
 30
0.0
 10
176.030181
 20
281.664433
 30
0.0
 10
176.664455
 20
282.030631
 30
0.0
  0
SPLINE
  5
158
100
AcDbEntity
  8
0
 62
7
100
AcDbSpline
 70
8
 71
3
 72
8
 73
4
 74
0
 40
0
 40
0
 40
0
 40
0
 40
1
 40
1
 40
1
 40
1
 10
176.664455
 20
282.030631
 30
0.0
 10
177.298728
 20
282.396829
 30
0.0
 10
177.689457
 20
283.073591
 30
0.0
 10
177.689457
 20
283.805987
 30
0.0
  0
LWPOLYLINE
  5
159
100
AcDbEntity
  8
0
 62
7
100
AcDbPolyline
 90
1
 70
1
 10
803.185015
 20
283.805987
 30
0.0
  0
SPLINE
  5
15a
100
AcDbEntity
  8
0
 62
7
100
AcDbSpline
 70
8
 71
3
 72
8
 73
4
 74
0
 40
0
 40
0
 40
0
 40
0
 40
1
 40
1
 40
1
 40
1
 10
910.592831
 20
44.182977
 30
0.0
 10
910.592831
 20
44.915373
 30
0.0
 10
910.202102
 20
45.592135
 30
0.0
 10
909.567829
 20
45.958334
 30
0.0
  0
SPLINE
  5
15b
100
AcDbEntity
  8
0
 62
7
100
AcDbSpline
 70
8
 71
3
 72
8
 73
4
 74
0
 40
0
 40
0
 40
0
 40
0
 40
1
 40
1
 40
1
 40
1
 10
909.567829
 20
45.958334
 30
0.0
 10
908.933555
 20
46.324532
 30
0.0
 10
908.152097
 20
46.324532
 30
0.0
 10
907.517824
 20
45.958334
 30
0.0
  0
SPLINE
  5
15c
100
AcDbEntity
  8
0
 62
7
100
AcDbSpline
 70
8
 71
3
 72
8
 73
4
 74
0
 40
0
 40
0
 40
0
 40
0
 40
1
 40
1
 40
1
 40
1
 10
907.517824
 20
45.958334
 30
0.0
 10
906.883550
 20
45.592135
 30
0.0
 10
906.492821
 20
44.915373
 30
0.0
 10
906.492821
 20
44.182977
 30
0.0
  0
SPLINE
  5
15d
100
AcDbEntity
  8
0
 62
7
100
AcDbSpline
 70
8
 71
3
 72
8
 73
4
 74
0
 40
0
 40
0
 40
0
 40
0
 40
1
 40
1
 40
1
 40
1
 10
906.492821
 20
44.182977
 30
0.0
 10
906.492821
 20
43.450581
 30
0.0
 10
906.883550
 20
42.773819
 30
0.0
 10
907.517824
 20
42.407621
 30
0.0
  0
SPLINE
  5
15e
100
AcDbEntity
  8
0
 62
7
100
AcDbSpline
 70
8
 71
3
 72
8
 73
4
 74
0
 40
0
 40
0
 40
0
 40
0
 40
1
 40
1
 40
1
 40
1
 10
907.517824
 20
42.407621
 30
0.0
 10
908.152097
 20
42.041423
 30
0.0
 10
908.933555
 20
42.041423
 30
0.0
 10
909.567829
 20
42.407621
 30
0.0
  0
SPLINE
  5
15f
100
AcDbEntity
  8
0
 62
7
100
AcDbSpline
 70
8
 71
3
 72
8
 73
4
 74
0
 40
0
 40
0
 40
0
 40
0
 40
1
 40
1
 40
1
 40
1
 10
909.567829
 20
42.407621
 30
0.0
 10
910.202102
 20
42.773819
 30
0.0
 10
910.592831
 20
43.450581
 30
0.0
 10
910.592831
 20
44.182977
 30
0.0
  0
LWPOLYLINE
  5
160
100
AcDbEntity
  8
0
 62
7
100
AcDbPolyline
 90
1
 70
1
 10
177.689457
 20
283.805987
 30
0.0
  0
SPLINE
  5
161
100
AcDbEntity
  8
0
 62
7
100
AcDbSpline
 70
8
 71
3
 72
8
 73
4
 74
0
 40
0
 40
0
 40
0
 40
0
 40
1
 40
1
 40
1
 40
1
 10
70.281641
 20
44.182977
 30
0.0
 10
70.281641
 20
44.915373
 30
0.0
 10
69.890913
 20
45.592135
 30
0.0
 10
69.256639
 20
45.958334
 30
0.0
  0
SPLINE
  5
162
100
AcDbEntity
  8
0
 62
7
100
AcDbSpline
 70
8
 71
3
 72
8
 73
4
 74
0
 40
0
 40
0
 40
0
 40
0
 40
1
 40
1
 40
1
 40
1
 10
69.256639
 20
45.958334
 30
0.0
 10
68.622365
 20
46.324532
 30
0.0
 10
67.840908
 20
46.324532
 30
0.0
 10
67.206634
 20
45.958334
 30
0.0
  0
SPLINE
  5
163
100
AcDbEntity
  8
0
 62
7
100
AcDbSpline
 70
8
 71
3
 72
8
 73
4
 74
0
 40
0
 40
0
 40
0
 40
0
 40
1
 40
1
 40
1
 40
1
 10
67.206634
 20
45.958334
 30
0.0
 10
66.572360
 20
45.592135
 30
0.0
 10
66.181631
 20
44.915373
 30
0.0
 10
66.181631
 20
44.182977
 30
0.0
  0
SPLINE
  5
164
100
AcDbEntity
  8
0
 62
7
100
AcDbSpline
 70
8
 71
3
 72
8
 73
4
 74
0
 40
0
 40
0
 40
0
 40
0
 40
1
 40
1
 40
1
 40
1
 10
66.181631
 20
44.182977
 30
0.0
 10
66.181631
 20
43.450581
 30
0.0
 10
66.572360
 20
42.773819
 30
0.0
 10
67.206634
 20
42.407621
 30
0.0
  0
SPLINE
  5
165
100
AcDbEntity
  8
0
 62
7
100
AcDbSpline
 70
8
 71
3
 72
8
 73
4
 74
0
 40
0
 40
0
 40
0
 40
0
 40
1
 40
1
 40
1
 40
1
 10
67.206634
 20
42.407621
 30
0.0
 10
67.840908
 20
42.041423
 30
0.0
 10
68.622365
 20
42.041423
 30
0.0
 10
69.256639
 20
42.407621
 30
0.0
  0
SPLINE
  5
166
100
AcDbEntity
  8
0
 62
7
100
AcDbSpline
 70
8
 71
3
 72
8
 73
4
 74
0
 40
0
 40
0
 40
0
 40
0
 40
1
 40
1
 40
1
 40
1
 10
69.256639
 20
42.407621
 30
0.0
 10
69.890913
 20
42.773819
 30
0.0
 10
70.281641
 20
43.450581
 30
0.0
 10
70.281641
 20
44.182977
 30
0.0
  0
LWPOLYLINE
  5
167
100
AcDbEntity
  8
0
 62
7
100
AcDbPolyline
 90
1
 70
1
 10
910.592831
 20
44.182977
 30
0.0
  0
SPLINE
  5
168
100
AcDbEntity
  8
0
 62
7
100
AcDbSpline
 70
8
 71
3
 72
8
 73
4
 74
0
 40
0
 40
0
 40
0
 40
0
 40
1
 40
1
 40
1
 40
1
 10
9.219327
 20
107.496549
 30
0.0
 10
9.219327
 20
108.228945
 30
0.0
 10
8.828598
 20
108.905707
 30
0.0
 10
8.194324
 20
109.271905
 30
0.0
  0
SPLINE
  5
169
100
AcDbEntity
  8
0
 62
7
100
AcDbSpline
 70
8
 71
3
 72
8
 73
4
 74
0
 40
0
 40
0
 40
0
 40
0
 40
1
 40
1
 40
1
 40
1
 10
8.194324
 20
109.271905
 30
0.0
 10
7.560051
 20
109.638104
 30
0.0
 10
6.778593
 20
109.638104
 30
0.0
 10
6.144320
 20
109.271905
 30
0.0
  0
SPLINE
  5
16a
100
AcDbEntity
  8
0
 62
7
100
AcDbSpline
 70
8
 71
3
 72
8
 73
4
 74
0
 40
0
 40
0
 40
0
 40
0
 40
1
 40
1
 40
1
 40
1
 10
6.144320
 20
109.271905
 30
0.0
 10
5.510046
 20
108.905707
 30
0.0
 10
5.119317
 20
108.228945
 30
0.0
 10
5.119317
 20
107.496549
 30
0.0
  0
SPLINE
  5
16b
100
AcDbEntity
  8
0
 62
7
100
AcDbSpline
 70
8
 71
3
 72
8
 73
4
 74
0
 40
0
 40
0
 40
0
 40
0
 40
1
 40
1
 40
1
 40
1
 10
5.119317
 20
107.496549
 30
0.0
 10
5.119317
 20
106.764153
 30
0.0
 10
5.510046
 20
106.087391
 30
0.0
 10
6.144319
 20
105.721193
 30
0.0
  0
SPLINE
  5
16c
100
AcDbEntity
  8
0
 62
7
100
AcDbSpline
 70
8
 71
3
 72
8
 73
4
 74
0
 40
0
 40
0
 40
0
 40
0
 40
1
 40
1
 40
1
 40
1
 10
6.144319
 20
105.721193
 30
0.0
 10
6.778593
 20
105.354994
 30
0.0
 10
7.560051
 20
105.354994
 30
0.0
 10
8.194325
 20
105.721193
 30
0.0
  0
SPLINE
  5
16d
100
AcDbEntity
  8
0
 62
7
100
AcDbSpline
 70
8
 71
3
 72
8
 73
4
 74
0
 40
0
 40
0
 40
0
 40
0
 40
1
 40
1
 40
1
 40
1
 10
8.194325
 20
105.721193
 30
0.0
 10
8.828598
 20
106.087391
 30
0.0
 10
9.219327
 20
106.764153
 30
0.0
 10
9.219327
 20
107.496549
 30
0.0
  0
LWPOLYLINE
  5
16e
100
AcDbEntity
  8
0
 62
7
100
AcDbPolyline
 90
1
 70
1
 10
70.281641
 20
44.182977
 30
0.0
  0
SPLINE
  5
16f
100
AcDbEntity
  8
0
 62
7
100
AcDbSpline
 70
8
 71
3
 72
8
 73
4
 74
0
 40
0
 40
0
 40
0
 40
0
 40
1
 40
1
 40
1
 40
1
 10
25.882415
 20
226.897700
 30
0.0
 10
25.882415
 20
227.630096
 30
0.0
 10
25.491686
 20
228.306858
 30
0.0
 10
24.857412
 20
228.673056
 30
0.0
  0
SPLINE
  5
170
100
AcDbEntity
  8
0
 62
7
100
AcDbSpline
 70
8
 71
3
 72
8
 73
4
 74
0
 40
0
 40
0
 40
0
 40
0
 40
1
 40
1
 40
1
 40
1
 10
24.857412
 20
228.673056
 30
0.0
 10
24.223139
 20
229.039254
 30
0.0
 10
23.441681
 20
229.039254
 30
0.0
 10
22.807407
 20
228.673056
 30
0.0
  0
SPLINE
  5
171
100
AcDbEntity
  8
0
 62
7
100
AcDbSpline
 70
8
 71
3
 72
8
 73
4
 74
0
 40
0
 40
0
 40
0
 40
0
 40
1
 40
1
 40
1
 40
1
 10
22.807407
 20
228.673056
 30
0.0
 10
22.173134
 20
228.306858
 30
0.0
 10
21.782405
 20
227.630096
 30
0.0
 10
21.782405
 20
226.897700
 30
0.0
  0
SPLINE
  5
172
100
AcDbEntity
  8
0
 62
7
100
AcDbSpline
 70
8
 71
3
 72
8
 73
4
 74
0
 40
0
 40
0
 40
0
 40
0
 40
1
 40
1
 40
1
 40
1
 10
21.782405
 20
226.897700
 30
0.0
 10
21.782405
 20
226.165304
 30
0.0
 10
22.173134
 20
225.488542
 30
0.0
 10
22.807407
 20
225.122344
 30
0.0
  0
SPLINE
  5
173
100
AcDbEntity
  8
0
 62
7
100
AcDbSpline
 70
8
 71
3
 72
8
 73
4
 74
0
 40
0
 40
0
 40
0
 40
0
 40
1
 40
1
 40
1
 40
1
 10
22.807407
 20
225.122344
 30
0.0
 10
23.441681
 20
224.756146
 30
0.0
 10
24.223139
 20
224.756146
 30
0.0
 10
24.857412
 20
225.122344
 30
0.0
  0
SPLINE
  5
174
100
AcDbEntity
  8
0
 62
7
100
AcDbSpline
 70
8
 71
3
 72
8
 73
4
 74
0
 40
0
 40
0
 40
0
 40
0
 40
1
 40
1
 40
1
 40
1
 10
24.857412
 20
225.122344
 30
0.0
 10
25.491686
 20
225.488542
 30
0.0
 10
25.882415
 20
226.165304
 30
0.0
 10
25.882415
 20
226.897700
 30
0.0
  0
LWPOLYLINE
  5
175
100
AcDbEntity
  8
0
 62
7
100
AcDbPolyline
 90
1
 70
1
 10
9.219327
 20
107.496549
 30
0.0
  0
SPLINE
  5
176
100
AcDbEntity
  8
0
 62
7
100
AcDbSpline
 70
8
 71
3
 72
8
 73
4
 74
0
 40
0
 40
0
 40
0
 40
0
 40
1
 40
1
 40
1
 40
1
 10
954.992058
 20
226.897700
 30
0.0
 10
954.992058
 20
227.630096
 30
0.0
 10
954.601329
 20
228.306858
 30
0.0
 10
953.967055
 20
228.673056
 30
0.0
  0
SPLINE
  5
177
100
AcDbEntity
  8
0
 62
7
100
AcDbSpline
 70
8
 71
3
 72
8
 73
4
 74
0
 40
0
 40
0
 40
0
 40
0
 40
1
 40
1
 40
1
 40
1
 10
953.967055
 20
228.673056
 30
0.0
 10
953.332781
 20
229.039254
 30
0.0
 10
952.551324
 20
229.039254
 30
0.0
 10
951.917050
 20
228.673056
 30
0.0
  0
SPLINE
  5
178
100
AcDbEntity
  8
0
 62
7
100
AcDbSpline
 70
8
 71
3
 72
8
 73
4
 74
0
 40
0
 40
0
 40
0
 40
0
 40
1
 40
1
 40
1
 40
1
 10
951.917050
 20
228.673056
 30
0.0
 10
951.282776
 20
228.306858
 30
0.0
 10
950.892048
 20
227.630096
 30
0.0
 10
950.892048
 20
226.897700
 30
0.0
  0
SPLINE
  5
179
100
AcDbEntity
  8
0
 62
7
100
AcDbSpline
 70
8
 71
3
 72
8
 73
4
 74
0
 40
0
 40
0
 40
0
 40
0
 40
1
 40
1
 40
1
 40
1
 10
950.892048
 20
226.897700
 30
0.0
 10
950.892048
 20
226.165304
 30
0.0
 10
951.282776
 20
225.488542
 30
0.0
 10
951.917050
 20
225.122344
 30
0.0
  0
SPLINE
  5
17a
100
AcDbEntity
  8
0
 62
7
100
AcDbSpline
 70
8
 71
3
 72
8
 73
4
 74
0
 40
0
 40
0
 40
0
 40
0
 40
1
 40
1
 40
1
 40
1
 10
951.917050
 20
225.122344
 30
0.0
 10
952.551324
 20
224.756146
 30
0.0
 10
953.332781
 20
224.756146
 30
0.0
 10
953.967055
 20
225.122344
 30
0.0
  0
SPLINE
  5
17b
100
AcDbEntity
  8
0
 62
7
100
AcDbSpline
 70
8
 71
3
 72
8
 73
4
 74
0
 40
0
 40
0
 40
0
 40
0
 40
1
 40
1
 40
1
 40
1
 10
953.967055
 20
225.122344
 30
0.0
 10
954.601329
 20
225.488542
 30
0.0
 10
954.992058
 20
226.165304
 30
0.0
 10
954.992058
 20
226.897700
 30
0.0
  0
LWPOLYLINE
  5
17c
100
AcDbEntity
  8
0
 62
7
100
AcDbPolyline
 90
1
 70
1
 10
25.882415
 20
226.897700
 30
0.0
  0
SPLINE
  5
17d
100
AcDbEntity
  8
0
 62
7
100
AcDbSpline
 70
8
 71
3
 72
8
 73
4
 74
0
 40
0
 40
0
 40
0
 40
0
 40
1
 40
1
 40
1
 40
1
 10
544.116945
 20
6.056863
 30
0.0
 10
568.666074
 20
26.275898
 30
0.0
 10
591.570927
 20
35.083110
 30
0.0
 10
615.377656
 20
35.083110
 30
0.0
  0
SPLINE
  5
17e
100
AcDbEntity
  8
0
 62
7
100
AcDbSpline
 70
8
 71
3
 72
8
 73
4
 74
0
 40
0
 40
0
 40
0
 40
0
 40
1
 40
1
 40
1
 40
1
 10
361.396807
 20
35.083110
 30
0.0
 10
385.203536
 20
35.083110
 30
0.0
 10
408.108388
 20
26.275898
 30
0.0
 10
432.657517
 20
6.056863
 30
0.0
  0
LWPOLYLINE
  5
17f
100
AcDbEntity
  8
0
 62
7
100
AcDbPolyline
 90
1
 70
1
 10
954.992058
 20
226.897700
 30
0.0
  0
LWPOLYLINE
  5
180
100
AcDbEntity
  8
0
 62
7
100
AcDbPolyline
 90
2
 70
0
 10
59.131782
 20
64.877865
 30
0.0
 10
59.131782
 20
54.080881
 30
0.0
  0
LWPOLYLINE
  5
181
100
AcDbEntity
  8
0
 62
7
100
AcDbPolyline
 90
2
 70
0
 10
12.119054
 20
100.446295
 30
0.0
 10
23.563368
 20
100.446295
 30
0.0
  0
LWPOLYLINE
  5
182
100
AcDbEntity
  8
0
 62
7
100
AcDbPolyline
 90
2
 70
0
 10
0.119062
 20
162.945636
 30
0.0
 10
0.119062
 20
112.446295
 30
0.0
  0
LWPOLYLINE
  5
183
100
AcDbEntity
  8
0
 62
7
100
AcDbPolyline
 90
2
 70
0
 10
225.639458
 20
288.805988
 30
0.0
 10
119.332904
 20
288.805988
 30
0.0
  0
LWPOLYLINE
  5
184
100
AcDbEntity
  8
0
 62
7
100
AcDbPolyline
 90
2
 70
0
 10
581.641283
 20
323.411786
 30
0.0
 10
395.133179
 20
323.411786
 30
0.0
  0
LWPOLYLINE
  5
185
100
AcDbEntity
  8
0
 62
7
100
AcDbPolyline
 90
2
 70
0
 10
857.441558
 20
288.805988
 30
0.0
 10
751.135004
 20
288.805988
 30
0.0
  0
LWPOLYLINE
  5
186
100
AcDbEntity
  8
0
 62
7
100
AcDbPolyline
 90
2
 70
0
 10
976.655400
 20
112.446295
 30
0.0
 10
976.655400
 20
162.945636
 30
0.0
  0
LWPOLYLINE
  5
187
100
AcDbEntity
  8
0
 62
7
100
AcDbPolyline
 90
2
 70
0
 10
953.211094
 20
100.446295
 30
0.0
 10
964.655408
 20
100.446295
 30
0.0
  0
LWPOLYLINE
  5
188
100
AcDbEntity
  8
0
 62
7
100
AcDbPolyline
 90
2
 70
0
 10
917.642680
 20
54.080881
 30
0.0
 10
917.642680
 20
64.877865
 30
0.0
  0
LWPOLYLINE
  5
189
100
AcDbEntity
  8
0
 62
7
100
AcDbPolyline
 90
2
 70
0
 10
615.377656
 20
35.083110
 30
0.0
 10
898.644909
 20
35.083110
 30
0.0
  0
LWPOLYLINE
  5
18a
100
AcDbEntity
  8
0
 62
7
100
AcDbPolyline
 90
2
 70
0
 10
449.206766
 20
0.119084
 30
0.0
 10
527.567697
 20
0.119084
 30
0.0
  0
SPLINE
  5
18b
100
AcDbEntity
  8
0
 62
7
100
AcDbSpline
 70
8
 71
3
 72
8
 73
4
 74
0
 40
0
 40
0
 40
0
 40
0
 40
1
 40
1
 40
1
 40
1
 10
59.131782
 20
54.080881
 30
0.0
 10
59.131779
 20
49.042358
 30
0.0
 10
61.133323
 20
44.210198
 30
0.0
 10
64.696097
 20
40.647425
 30
0.0
  0
SPLINE
  5
18c
100
AcDbEntity
  8
0
 62
7
100
AcDbSpline
 70
8
 71
3
 72
8
 73
4
 74
0
 40
0
 40
0
 40
0
 40
0
 40
1
 40
1
 40
1
 40
1
 10
64.696097
 20
40.647425
 30
0.0
 10
68.258871
 20
37.084651
 30
0.0
 10
73.091030
 20
35.083106
 30
0.0
 10
78.129553
 20
35.083110
 30
0.0
  0
SPLINE
  5
18d
100
AcDbEntity
  8
0
 62
7
100
AcDbSpline
 70
8
 71
3
 72
8
 73
4
 74
0
 40
0
 40
0
 40
0
 40
0
 40
1
 40
1
 40
1
 40
1
 10
59.131782
 20
64.877865
 30
0.0
 10
59.131785
 20
84.521762
 30
0.0
 10
43.207265
 20
100.446289
 30
0.0
 10
23.563368
 20
100.446295
 30
0.0
  0
SPLINE
  5
18e
100
AcDbEntity
  8
0
 62
7
100
AcDbSpline
 70
8
 71
3
 72
8
 73
4
 74
0
 40
0
 40
0
 40
0
 40
0
 40
1
 40
1
 40
1
 40
1
 10
0.119062
 20
112.446295
 30
0.0
 10
0.119063
 20
105.818881
 30
0.0
 10
5.491641
 20
100.446299
 30
0.0
 10
12.119054
 20
100.446295
 30
0.0
  0
SPLINE
  5
18f
100
AcDbEntity
  8
0
 62
7
100
AcDbSpline
 70
8
 71
3
 72
8
 73
4
 74
0
 40
0
 40
0
 40
0
 40
0
 40
1
 40
1
 40
1
 40
1
 10
119.332904
 20
288.805988
 30
0.0
 10
52.472794
 20
285.176772
 30
0.0
 10
0.119062
 20
229.904171
 30
0.0
 10
0.119062
 20
162.945634
 30
0.0
  0
SPLINE
  5
190
100
AcDbEntity
  8
0
 62
7
100
AcDbSpline
 70
8
 71
3
 72
8
 73
4
 74
0
 40
0
 40
0
 40
0
 40
0
 40
1
 40
1
 40
1
 40
1
 10
225.639458
 20
288.805988
 30
0.0
 10
267.357031
 20
288.805988
 30
0.0
 10
308.644459
 20
297.235707
 30
0.0
 10
347.023137
 20
313.589083
 30
0.0
  0
SPLINE
  5
191
100
AcDbEntity
  8
0
 62
7
100
AcDbSpline
 70
8
 71
3
 72
8
 73
4
 74
0
 40
0
 40
0
 40
0
 40
0
 40
1
 40
1
 40
1
 40
1
 10
395.133179
 20
323.411786
 30
0.0
 10
378.598549
 20
323.411786
 30
0.0
 10
362.234406
 20
320.070693
 30
0.0
 10
347.023137
 20
313.589083
 30
0.0
  0
SPLINE
  5
192
100
AcDbEntity
  8
0
 62
7
100
AcDbSpline
 70
8
 71
3
 72
8
 73
4
 74
0
 40
0
 40
0
 40
0
 40
0
 40
1
 40
1
 40
1
 40
1
 10
629.751325
 20
313.589083
 30
0.0
 10
614.540056
 20
320.070693
 30
0.0
 10
598.175913
 20
323.411786
 30
0.0
 10
581.641283
 20
323.411786
 30
0.0
  0
SPLINE
  5
193
100
AcDbEntity
  8
0
 62
7
100
AcDbSpline
 70
8
 71
3
 72
8
 73
4
 74
0
 40
0
 40
0
 40
0
 40
0
 40
1
 40
1
 40
1
 40
1
 10
629.751325
 20
313.589083
 30
0.0
 10
668.130004
 20
297.235707
 30
0.0
 10
709.417432
 20
288.805988
 30
0.0
 10
751.135004
 20
288.805988
 30
0.0
  0
SPLINE
  5
194
100
AcDbEntity
  8
0
 62
7
100
AcDbSpline
 70
8
 71
3
 72
8
 73
4
 74
0
 40
0
 40
0
 40
0
 40
0
 40
1
 40
1
 40
1
 40
1
 10
976.655400
 20
162.945634
 30
0.0
 10
976.655400
 20
229.904171
 30
0.0
 10
924.301669
 20
285.176772
 30
0.0
 10
857.441558
 20
288.805988
 30
0.0
  0
SPLINE
  5
195
100
AcDbEntity
  8
0
 62
7
100
AcDbSpline
 70
8
 71
3
 72
8
 73
4
 74
0
 40
0
 40
0
 40
0
 40
0
 40
1
 40
1
 40
1
 40
1
 10
964.655408
 20
100.446295
 30
0.0
 10
971.282822
 20
100.446299
 30
0.0
 10
976.655400
 20
105.818881
 30
0.0
 10
976.655400
 20
112.446295
 30
0.0
  0
SPLINE
  5
196
100
AcDbEntity
  8
0
 62
7
100
AcDbSpline
 70
8
 71
3
 72
8
 73
4
 74
0
 40
0
 40
0
 40
0
 40
0
 40
1
 40
1
 40
1
 40
1
 10
953.211094
 20
100.446295
 30
0.0
 10
933.567198
 20
100.446289
 30
0.0
 10
917.642677
 20
84.521762
 30
0.0
 10
917.642680
 20
64.877865
 30
0.0
  0
SPLINE
  5
197
100
AcDbEntity
  8
0
 62
7
100
AcDbSpline
 70
8
 71
3
 72
8
 73
4
 74
0
 40
0
 40
0
 40
0
 40
0
 40
1
 40
1
 40
1
 40
1
 10
898.644909
 20
35.083110
 30
0.0
 10
903.683432
 20
35.083106
 30
0.0
 10
908.515592
 20
37.084651
 30
0.0
 10
912.078366
 20
40.647425
 30
0.0
  0
SPLINE
  5
198
100
AcDbEntity
  8
0
 62
7
100
AcDbSpline
 70
8
 71
3
 72
8
 73
4
 74
0
 40
0
 40
0
 40
0
 40
0
 40
1
 40
1
 40
1
 40
1
 10
912.078366
 20
40.647425
 30
0.0
 10
915.641140
 20
44.210198
 30
0.0
 10
917.642684
 20
49.042358
 30
0.0
 10
917.642680
 20
54.080881
 30
0.0
  0
SPLINE
  5
199
100
AcDbEntity
  8
0
 62
7
100
AcDbSpline
 70
8
 71
3
 72
8
 73
4
 74
0
 40
0
 40
0
 40
0
 40
0
 40
1
 40
1
 40
1
 40
1
 10
527.567697
 20
0.119084
 30
0.0
 10
533.605815
 20
0.119084
 30
0.0
 10
539.456137
 20
2.218148
 30
0.0
 10
544.116945
 20
6.056863
 30
0.0
  0
SPLINE
  5
19a
100
AcDbEntity
  8
0
 62
7
100
AcDbSpline
 70
8
 71
3
 72
8
 73
4
 74
0
 40
0
 40
0
 40
0
 40
0
 40
1
 40
1
 40
1
 40
1
 10
432.657517
 20
6.056863
 30
0.0
 10
437.318325
 20
2.218148
 30
0.0
 10
443.168648
 20
0.119084
 30
0.0
 10
449.206766
 20
0.119084
 30
0.0
  0
SPLINE
  5
19b
100
AcDbEntity
  8
0
 62
7
100
AcDbSpline
 70
8
 71
3
 72
8
 73
4
 74
0
 40
0
 40
0
 40
0
 40
0
 40
1
 40
1
 40
1
 40
1
 10
241.555725
 20
54.958906
 30
0.0
 10
241.555725
 20
52.868200
 30
0.0
 10
240.440348
 20
50.936308
 30
0.0
 10
238.629746
 20
49.890955
 30
0.0
  0
SPLINE
  5
19c
100
AcDbEntity
  8
0
 62
7
100
AcDbSpline
 70
8
 71
3
 72
8
 73
4
 74
0
 40
0
 40
0
 40
0
 40
0
 40
1
 40
1
 40
1
 40
1
 10
238.629746
 20
49.890955
 30
0.0
 10
236.819143
 20
48.845603
 30
0.0
 10
234.588389
 20
48.845603
 30
0.0
 10
232.777787
 20
49.890955
 30
0.0
  0
SPLINE
  5
19d
100
AcDbEntity
  8
0
 62
7
100
AcDbSpline
 70
8
 71
3
 72
8
 73
4
 74
0
 40
0
 40
0
 40
0
 40
0
 40
1
 40
1
 40
1
 40
1
 10
232.777787
 20
49.890955
 30
0.0
 10
230.967184
 20
50.936308
 30
0.0
 10
229.851807
 20
52.868200
 30
0.0
 10
229.851807
 20
54.958906
 30
0.0
  0
SPLINE
  5
19e
100
AcDbEntity
  8
0
 62
7
100
AcDbSpline
 70
8
 71
3
 72
8
 73
4
 74
0
 40
0
 40
0
 40
0
 40
0
 40
1
 40
1
 40
1
 40
1
 10
229.851807
 20
54.958906
 30
0.0
 10
229.851807
 20
58.190857
 30
0.0
 10
232.471819
 20
60.810871
 30
0.0
 10
235.703766
 20
60.810871
 30
0.0
  0
SPLINE
  5
19f
100
AcDbEntity
  8
0
 62
7
100
AcDbSpline
 70
8
 71
3
 72
8
 73
4
 74
0
 40
0
 40
0
 40
0
 40
0
 40
1
 40
1
 40
1
 40
1
 10
235.703766
 20
60.810871
 30
0.0
 10
238.935714
 20
60.810871
 30
0.0
 10
241.555725
 20
58.190857
 30
0.0
 10
241.555725
 20
54.958906
 30
0.0
  0
LWPOLYLINE
  5
1a0
100
AcDbEntity
  8
0
 62
7
100
AcDbPolyline
 90
2
 70
0
 10
78.129553
 20
35.083110
 30
0.0
 10
361.396807
 20
35.083110
 30
0.0
  0
SPLINE
  5
1a1
100
AcDbEntity
  8
0
 62
7
100
AcDbSpline
 70
8
 71
3
 72
8
 73
4
 74
0
 40
0
 40
0
 40
0
 40
0
 40
1
 40
1
 40
1
 40
1
 10
319.618212
 20
54.958906
 30
0.0
 10
319.618212
 20
52.868200
 30
0.0
 10
318.502835
 20
50.936308
 30
0.0
 10
316.692233
 20
49.890955
 30
0.0
  0
SPLINE
  5
1a2
100
AcDbEntity
  8
0
 62
7
100
AcDbSpline
 70
8
 71
3
 72
8
 73
4
 74
0
 40
0
 40
0
 40
0
 40
0
 40
1
 40
1
 40
1
 40
1
 10
316.692233
 20
49.890955
 30
0.0
 10
314.881630
 20
48.845603
 30
0.0
 10
312.650876
 20
48.845603
 30
0.0
 10
310.840273
 20
49.890955
 30
0.0
  0
SPLINE
  5
1a3
100
AcDbEntity
  8
0
 62
7
100
AcDbSpline
 70
8
 71
3
 72
8
 73
4
 74
0
 40
0
 40
0
 40
0
 40
0
 40
1
 40
1
 40
1
 40
1
 10
310.840273
 20
49.890955
 30
0.0
 10
309.029671
 20
50.936308
 30
0.0
 10
307.914294
 20
52.868200
 30
0.0
 10
307.914294
 20
54.958906
 30
0.0
  0
SPLINE
  5
1a4
100
AcDbEntity
  8
0
 62
7
100
AcDbSpline
 70
8
 71
3
 72
8
 73
4
 74
0
 40
0
 40
0
 40
0
 40
0
 40
1
 40
1
 40
1
 40
1
 10
307.914294
 20
54.958906
 30
0.0
 10
307.914294
 20
57.049612
 30
0.0
 10
309.029671
 20
58.981504
 30
0.0
 10
310.840273
 20
60.026857
 30
0.0
  0
SPLINE
  5
1a5
100
AcDbEntity
  8
0
 62
7
100
AcDbSpline
 70
8
 71
3
 72
8
 73
4
 74
0
 40
0
 40
0
 40
0
 40
0
 40
1
 40
1
 40
1
 40
1
 10
310.840273
 20
60.026857
 30
0.0
 10
312.650876
 20
61.072210
 30
0.0
 10
314.881630
 20
61.072210
 30
0.0
 10
316.692233
 20
60.026857
 30
0.0
  0
SPLINE
  5
1a6
100
AcDbEntity
  8
0
 62
7
100
AcDbSpline
 70
8
 71
3
 72
8
 73
4
 74
0
 40
0
 40
0
 40
0
 40
0
 40
1
 40
1
 40
1
 40
1
 10
316.692233
 20
60.026857
 30
0.0
 10
318.502835
 20
58.981504
 30
0.0
 10
319.618212
 20
57.049612
 30
0.0
 10
319.618212
 20
54.958906
 30
0.0
  0
LWPOLYLINE
  5
1a7
100
AcDbEntity
  8
0
 62
7
100
AcDbPolyline
 90
1
 70
1
 10
241.555725
 20
54.958906
 30
0.0
  0
SPLINE
  5
1a8
100
AcDbEntity
  8
0
 62
7
100
AcDbSpline
 70
8
 71
3
 72
8
 73
4
 74
0
 40
0
 40
0
 40
0
 40
0
 40
1
 40
1
 40
1
 40
1
 10
668.994048
 20
54.958906
 30
0.0
 10
668.994048
 20
52.868200
 30
0.0
 10
667.878671
 20
50.936308
 30
0.0
 10
666.068068
 20
49.890955
 30
0.0
  0
SPLINE
  5
1a9
100
AcDbEntity
  8
0
 62
7
100
AcDbSpline
 70
8
 71
3
 72
8
 73
4
 74
0
 40
0
 40
0
 40
0
 40
0
 40
1
 40
1
 40
1
 40
1
 10
666.068068
 20
49.890955
 30
0.0
 10
664.257466
 20
48.845603
 30
0.0
 10
662.026712
 20
48.845603
 30
0.0
 10
660.216109
 20
49.890955
 30
0.0
  0
SPLINE
  5
1aa
100
AcDbEntity
  8
0
 62
7
100
AcDbSpline
 70
8
 71
3
 72
8
 73
4
 74
0
 40
0
 40
0
 40
0
 40
0
 40
1
 40
1
 40
1
 40
1
 10
660.216109
 20
49.890955
 30
0.0
 10
658.405507
 20
50.936308
 30
0.0
 10
657.290130
 20
52.868200
 30
0.0
 10
657.290130
 20
54.958906
 30
0.0
  0
SPLINE
  5
1ab
100
AcDbEntity
  8
0
 62
7
100
AcDbSpline
 70
8
 71
3
 72
8
 73
4
 74
0
 40
0
 40
0
 40
0
 40
0
 40
1
 40
1
 40
1
 40
1
 10
657.290130
 20
54.958906
 30
0.0
 10
657.290130
 20
57.049612
 30
0.0
 10
658.405507
 20
58.981504
 30
0.0
 10
660.216109
 20
60.026857
 30
0.0
  0
SPLINE
  5
1ac
100
AcDbEntity
  8
0
 62
7
100
AcDbSpline
 70
8
 71
3
 72
8
 73
4
 74
0
 40
0
 40
0
 40
0
 40
0
 40
1
 40
1
 40
1
 40
1
 10
660.216109
 20
60.026857
 30
0.0
 10
662.026712
 20
61.072210
 30
0.0
 10
664.257466
 20
61.072210
 30
0.0
 10
666.068068
 20
60.026857
 30
0.0
  0
SPLINE
  5
1ad
100
AcDbEntity
  8
0
 62
7
100
AcDbSpline
 70
8
 71
3
 72
8
 73
4
 74
0
 40
0
 40
0
 40
0
 40
0
 40
1
 40
1
 40
1
 40
1
 10
666.068068
 20
60.026857
 30
0.0
 10
667.878671
 20
58.981504
 30
0.0
 10
668.994048
 20
57.049612
 30
0.0
 10
668.994048
 20
54.958906
 30
0.0
  0
LWPOLYLINE
  5
1ae
100
AcDbEntity
  8
0
 62
7
100
AcDbPolyline
 90
1
 70
1
 10
319.618212
 20
54.958906
 30
0.0
  0
SPLINE
  5
1af
100
AcDbEntity
  8
0
 62
7
100
AcDbSpline
 70
8
 71
3
 72
8
 73
4
 74
0
 40
0
 40
0
 40
0
 40
0
 40
1
 40
1
 40
1
 40
1
 10
630.202083
 20
54.958906
 30
0.0
 10
630.202083
 20
52.868200
 30
0.0
 10
629.086706
 20
50.936308
 30
0.0
 10
627.276104
 20
49.890955
 30
0.0
  0
SPLINE
  5
1b0
100
AcDbEntity
  8
0
 62
7
100
AcDbSpline
 70
8
 71
3
 72
8
 73
4
 74
0
 40
0
 40
0
 40
0
 40
0
 40
1
 40
1
 40
1
 40
1
 10
627.276104
 20
49.890955
 30
0.0
 10
625.465501
 20
48.845603
 30
0.0
 10
623.234747
 20
48.845603
 30
0.0
 10
621.424144
 20
49.890955
 30
0.0
  0
SPLINE
  5
1b1
100
AcDbEntity
  8
0
 62
7
100
AcDbSpline
 70
8
 71
3
 72
8
 73
4
 74
0
 40
0
 40
0
 40
0
 40
0
 40
1
 40
1
 40
1
 40
1
 10
621.424144
 20
49.890955
 30
0.0
 10
619.613542
 20
50.936308
 30
0.0
 10
618.498165
 20
52.868200
 30
0.0
 10
618.498165
 20
54.958906
 30
0.0
  0
SPLINE
  5
1b2
100
AcDbEntity
  8
0
 62
7
100
AcDbSpline
 70
8
 71
3
 72
8
 73
4
 74
0
 40
0
 40
0
 40
0
 40
0
 40
1
 40
1
 40
1
 40
1
 10
618.498165
 20
54.958906
 30
0.0
 10
618.498165
 20
58.190857
 30
0.0
 10
621.118176
 20
60.810871
 30
0.0
 10
624.350124
 20
60.810871
 30
0.0
  0
SPLINE
  5
1b3
100
AcDbEntity
  8
0
 62
7
100
AcDbSpline
 70
8
 71
3
 72
8
 73
4
 74
0
 40
0
 40
0
 40
0
 40
0
 40
1
 40
1
 40
1
 40
1
 10
624.350124
 20
60.810871
 30
0.0
 10
627.582071
 20
60.810871
 30
0.0
 10
630.202083
 20
58.190857
 30
0.0
 10
630.202083
 20
54.958906
 30
0.0
  0
LWPOLYLINE
  5
1b4
100
AcDbEntity
  8
0
 62
7
100
AcDbPolyline
 90
1
 70
1
 10
668.994048
 20
54.958906
 30
0.0
  0
SPLINE
  5
1b5
100
AcDbEntity
  8
0
 62
7
100
AcDbSpline
 70
8
 71
3
 72
8
 73
4
 74
0
 40
0
 40
0
 40
0
 40
0
 40
1
 40
1
 40
1
 40
1
 10
358.538315
 20
54.958906
 30
0.0
 10
358.538315
 20
52.868200
 30
0.0
 10
357.422937
 20
50.936308
 30
0.0
 10
355.612335
 20
49.890955
 30
0.0
  0
SPLINE
  5
1b6
100
AcDbEntity
  8
0
 62
7
100
AcDbSpline
 70
8
 71
3
 72
8
 73
4
 74
0
 40
0
 40
0
 40
0
 40
0
 40
1
 40
1
 40
1
 40
1
 10
355.612335
 20
49.890955
 30
0.0
 10
353.801733
 20
48.845603
 30
0.0
 10
351.570978
 20
48.845603
 30
0.0
 10
349.760376
 20
49.890955
 30
0.0
  0
SPLINE
  5
1b7
100
AcDbEntity
  8
0
 62
7
100
AcDbSpline
 70
8
 71
3
 72
8
 73
4
 74
0
 40
0
 40
0
 40
0
 40
0
 40
1
 40
1
 40
1
 40
1
 10
349.760376
 20
49.890955
 30
0.0
 10
347.949773
 20
50.936308
 30
0.0
 10
346.834396
 20
52.868200
 30
0.0
 10
346.834396
 20
54.958906
 30
0.0
  0
SPLINE
  5
1b8
100
AcDbEntity
  8
0
 62
7
100
AcDbSpline
 70
8
 71
3
 72
8
 73
4
 74
0
 40
0
 40
0
 40
0
 40
0
 40
1
 40
1
 40
1
 40
1
 10
346.834396
 20
54.958906
 30
0.0
 10
346.834396
 20
57.049612
 30
0.0
 10
347.949773
 20
58.981504
 30
0.0
 10
349.760376
 20
60.026857
 30
0.0
  0
SPLINE
  5
1b9
100
AcDbEntity
  8
0
 62
7
100
AcDbSpline
 70
8
 71
3
 72
8
 73
4
 74
0
 40
0
 40
0
 40
0
 40
0
 40
1
 40
1
 40
1
 40
1
 10
349.760376
 20
60.026857
 30
0.0
 10
351.570978
 20
61.072210
 30
0.0
 10
353.801733
 20
61.072210
 30
0.0
 10
355.612335
 20
60.026857
 30
0.0
  0
SPLINE
  5
1ba
100
AcDbEntity
  8
0
 62
7
100
AcDbSpline
 70
8
 71
3
 72
8
 73
4
 74
0
 40
0
 40
0
 40
0
 40
0
 40
1
 40
1
 40
1
 40
1
 10
355.612335
 20
60.026857
 30
0.0
 10
357.422937
 20
58.981504
 30
0.0
 10
358.538315
 20
57.049612
 30
0.0
 10
358.538315
 20
54.958906
 30
0.0
  0
LWPOLYLINE
  5
1bb
100
AcDbEntity
  8
0
 62
7
100
AcDbPolyline
 90
1
 70
1
 10
630.202083
 20
54.958906
 30
0.0
  0
SPLINE
  5
1bc
100
AcDbEntity
  8
0
 62
7
100
AcDbSpline
 70
8
 71
3
 72
8
 73
4
 74
0
 40
0
 40
0
 40
0
 40
0
 40
1
 40
1
 40
1
 40
1
 10
746.693944
 20
54.958906
 30
0.0
 10
746.693944
 20
52.868200
 30
0.0
 10
745.578567
 20
50.936308
 30
0.0
 10
743.767965
 20
49.890955
 30
0.0
  0
SPLINE
  5
1bd
100
AcDbEntity
  8
0
 62
7
100
AcDbSpline
 70
8
 71
3
 72
8
 73
4
 74
0
 40
0
 40
0
 40
0
 40
0
 40
1
 40
1
 40
1
 40
1
 10
743.767965
 20
49.890955
 30
0.0
 10
741.957362
 20
48.845603
 30
0.0
 10
739.726608
 20
48.845603
 30
0.0
 10
737.916006
 20
49.890955
 30
0.0
  0
SPLINE
  5
1be
100
AcDbEntity
  8
0
 62
7
100
AcDbSpline
 70
8
 71
3
 72
8
 73
4
 74
0
 40
0
 40
0
 40
0
 40
0
 40
1
 40
1
 40
1
 40
1
 10
737.916006
 20
49.890955
 30
0.0
 10
736.105403
 20
50.936308
 30
0.0
 10
734.990026
 20
52.868200
 30
0.0
 10
734.990026
 20
54.958906
 30
0.0
  0
SPLINE
  5
1bf
100
AcDbEntity
  8
0
 62
7
100
AcDbSpline
 70
8
 71
3
 72
8
 73
4
 74
0
 40
0
 40
0
 40
0
 40
0
 40
1
 40
1
 40
1
 40
1
 10
734.990026
 20
54.958906
 30
0.0
 10
734.990026
 20
58.190857
 30
0.0
 10
737.610038
 20
60.810871
 30
0.0
 10
740.841985
 20
60.810871
 30
0.0
  0
SPLINE
  5
1c0
100
AcDbEntity
  8
0
 62
7
100
AcDbSpline
 70
8
 71
3
 72
8
 73
4
 74
0
 40
0
 40
0
 40
0
 40
0
 40
1
 40
1
 40
1
 40
1
 10
740.841985
 20
60.810871
 30
0.0
 10
744.073933
 20
60.810871
 30
0.0
 10
746.693944
 20
58.190857
 30
0.0
 10
746.693944
 20
54.958906
 30
0.0
  0
LWPOLYLINE
  5
1c1
100
AcDbEntity
  8
0
 62
7
100
AcDbPolyline
 90
1
 70
1
 10
358.538315
 20
54.958906
 30
0.0
  0
SPLINE
  5
1c2
100
AcDbEntity
  8
0
 62
7
100
AcDbSpline
 70
8
 71
3
 72
8
 73
4
 74
0
 40
0
 40
0
 40
0
 40
0
 40
1
 40
1
 40
1
 40
1
 10
280.673953
 20
54.958906
 30
0.0
 10
280.673953
 20
52.868200
 30
0.0
 10
279.558576
 20
50.936308
 30
0.0
 10
277.747974
 20
49.890955
 30
0.0
  0
SPLINE
  5
1c3
100
AcDbEntity
  8
0
 62
7
100
AcDbSpline
 70
8
 71
3
 72
8
 73
4
 74
0
 40
0
 40
0
 40
0
 40
0
 40
1
 40
1
 40
1
 40
1
 10
277.747974
 20
49.890955
 30
0.0
 10
275.937371
 20
48.845603
 30
0.0
 10
273.706617
 20
48.845603
 30
0.0
 10
271.896014
 20
49.890955
 30
0.0
  0
SPLINE
  5
1c4
100
AcDbEntity
  8
0
 62
7
100
AcDbSpline
 70
8
 71
3
 72
8
 73
4
 74
0
 40
0
 40
0
 40
0
 40
0
 40
1
 40
1
 40
1
 40
1
 10
271.896014
 20
49.890955
 30
0.0
 10
270.085412
 20
50.936308
 30
0.0
 10
268.970035
 20
52.868200
 30
0.0
 10
268.970035
 20
54.958906
 30
0.0
  0
SPLINE
  5
1c5
100
AcDbEntity
  8
0
 62
7
100
AcDbSpline
 70
8
 71
3
 72
8
 73
4
 74
0
 40
0
 40
0
 40
0
 40
0
 40
1
 40
1
 40
1
 40
1
 10
268.970035
 20
54.958906
 30
0.0
 10
268.970035
 20
57.049612
 30
0.0
 10
270.085412
 20
58.981504
 30
0.0
 10
271.896014
 20
60.026857
 30
0.0
  0
SPLINE
  5
1c6
100
AcDbEntity
  8
0
 62
7
100
AcDbSpline
 70
8
 71
3
 72
8
 73
4
 74
0
 40
0
 40
0
 40
0
 40
0
 40
1
 40
1
 40
1
 40
1
 10
271.896014
 20
60.026857
 30
0.0
 10
273.706617
 20
61.072210
 30
0.0
 10
275.937371
 20
61.072210
 30
0.0
 10
277.747974
 20
60.026857
 30
0.0
  0
SPLINE
  5
1c7
100
AcDbEntity
  8
0
 62
7
100
AcDbSpline
 70
8
 71
3
 72
8
 73
4
 74
0
 40
0
 40
0
 40
0
 40
0
 40
1
 40
1
 40
1
 40
1
 10
277.747974
 20
60.026857
 30
0.0
 10
279.558576
 20
58.981504
 30
0.0
 10
280.673953
 20
57.049612
 30
0.0
 10
280.673953
 20
54.958906
 30
0.0
  0
LWPOLYLINE
  5
1c8
100
AcDbEntity
  8
0
 62
7
100
AcDbPolyline
 90
1
 70
1
 10
746.693944
 20
54.958906
 30
0.0
  0
SPLINE
  5
1c9
100
AcDbEntity
  8
0
 62
7
100
AcDbSpline
 70
8
 71
3
 72
8
 73
4
 74
0
 40
0
 40
0
 40
0
 40
0
 40
1
 40
1
 40
1
 40
1
 10
707.932433
 20
54.958906
 30
0.0
 10
707.932433
 20
52.868200
 30
0.0
 10
706.817056
 20
50.936308
 30
0.0
 10
705.006454
 20
49.890955
 30
0.0
  0
SPLINE
  5
1ca
100
AcDbEntity
  8
0
 62
7
100
AcDbSpline
 70
8
 71
3
 72
8
 73
4
 74
0
 40
0
 40
0
 40
0
 40
0
 40
1
 40
1
 40
1
 40
1
 10
705.006454
 20
49.890955
 30
0.0
 10
703.195851
 20
48.845603
 30
0.0
 10
700.965097
 20
48.845603
 30
0.0
 10
699.154494
 20
49.890955
 30
0.0
  0
SPLINE
  5
1cb
100
AcDbEntity
  8
0
 62
7
100
AcDbSpline
 70
8
 71
3
 72
8
 73
4
 74
0
 40
0
 40
0
 40
0
 40
0
 40
1
 40
1
 40
1
 40
1
 10
699.154494
 20
49.890955
 30
0.0
 10
697.343892
 20
50.936308
 30
0.0
 10
696.228515
 20
52.868200
 30
0.0
 10
696.228515
 20
54.958906
 30
0.0
  0
SPLINE
  5
1cc
100
AcDbEntity
  8
0
 62
7
100
AcDbSpline
 70
8
 71
3
 72
8
 73
4
 74
0
 40
0
 40
0
 40
0
 40
0
 40
1
 40
1
 40
1
 40
1
 10
696.228515
 20
54.958906
 30
0.0
 10
696.228515
 20
58.190857
 30
0.0
 10
698.848526
 20
60.810871
 30
0.0
 10
702.080474
 20
60.810871
 30
0.0
  0
SPLINE
  5
1cd
100
AcDbEntity
  8
0
 62
7
100
AcDbSpline
 70
8
 71
3
 72
8
 73
4
 74
0
 40
0
 40
0
 40
0
 40
0
 40
1
 40
1
 40
1
 40
1
 10
702.080474
 20
60.810871
 30
0.0
 10
705.312421
 20
60.810871
 30
0.0
 10
707.932433
 20
58.190857
 30
0.0
 10
707.932433
 20
54.958906
 30
0.0
  0
LWPOLYLINE
  5
1ce
100
AcDbEntity
  8
0
 62
7
100
AcDbPolyline
 90
1
 70
1
 10
280.673953
 20
54.958906
 30
0.0
  0
SPLINE
  5
1cf
100
AcDbEntity
  8
0
 62
7
100
AcDbSpline
 70
8
 71
3
 72
8
 73
4
 74
0
 40
0
 40
0
 40
0
 40
0
 40
1
 40
1
 40
1
 40
1
 10
391.226263
 20
146.573621
 30
0.0
 10
391.226263
 20
144.482915
 30
0.0
 10
390.110885
 20
142.551023
 30
0.0
 10
388.300283
 20
141.505670
 30
0.0
  0
SPLINE
  5
1d0
100
AcDbEntity
  8
0
 62
7
100
AcDbSpline
 70
8
 71
3
 72
8
 73
4
 74
0
 40
0
 40
0
 40
0
 40
0
 40
1
 40
1
 40
1
 40
1
 10
388.300283
 20
141.505670
 30
0.0
 10
386.489680
 20
140.460318
 30
0.0
 10
384.258926
 20
140.460318
 30
0.0
 10
382.448324
 20
141.505670
 30
0.0
  0
SPLINE
  5
1d1
100
AcDbEntity
  8
0
 62
7
100
AcDbSpline
 70
8
 71
3
 72
8
 73
4
 74
0
 40
0
 40
0
 40
0
 40
0
 40
1
 40
1
 40
1
 40
1
 10
382.448324
 20
141.505670
 30
0.0
 10
380.637721
 20
142.551023
 30
0.0
 10
379.522344
 20
144.482915
 30
0.0
 10
379.522344
 20
146.573621
 30
0.0
  0
SPLINE
  5
1d2
100
AcDbEntity
  8
0
 62
7
100
AcDbSpline
 70
8
 71
3
 72
8
 73
4
 74
0
 40
0
 40
0
 40
0
 40
0
 40
1
 40
1
 40
1
 40
1
 10
379.522344
 20
146.573621
 30
0.0
 10
379.522344
 20
148.664327
 30
0.0
 10
380.637721
 20
150.596219
 30
0.0
 10
382.448324
 20
151.641572
 30
0.0
  0
SPLINE
  5
1d3
100
AcDbEntity
  8
0
 62
7
100
AcDbSpline
 70
8
 71
3
 72
8
 73
4
 74
0
 40
0
 40
0
 40
0
 40
0
 40
1
 40
1
 40
1
 40
1
 10
382.448324
 20
151.641572
 30
0.0
 10
384.258926
 20
152.686924
 30
0.0
 10
386.489680
 20
152.686924
 30
0.0
 10
388.300283
 20
151.641572
 30
0.0
  0
SPLINE
  5
1d4
100
AcDbEntity
  8
0
 62
7
100
AcDbSpline
 70
8
 71
3
 72
8
 73
4
 74
0
 40
0
 40
0
 40
0
 40
0
 40
1
 40
1
 40
1
 40
1
 10
388.300283
 20
151.641572
 30
0.0
 10
390.110885
 20
150.596219
 30
0.0
 10
391.226263
 20
148.664327
 30
0.0
 10
391.226263
 20
146.573621
 30
0.0
  0
LWPOLYLINE
  5
1d5
100
AcDbEntity
  8
0
 62
7
100
AcDbPolyline
 90
1
 70
1
 10
707.932433
 20
54.958906
 30
0.0
  0
SPLINE
  5
1d6
100
AcDbEntity
  8
0
 62
7
100
AcDbSpline
 70
8
 71
3
 72
8
 73
4
 74
0
 40
0
 40
0
 40
0
 40
0
 40
1
 40
1
 40
1
 40
1
 10
58.716614
 20
189.379286
 30
0.0
 10
58.716614
 20
187.288580
 30
0.0
 10
57.601237
 20
185.356688
 30
0.0
 10
55.790634
 20
184.311335
 30
0.0
  0
SPLINE
  5
1d7
100
AcDbEntity
  8
0
 62
7
100
AcDbSpline
 70
8
 71
3
 72
8
 73
4
 74
0
 40
0
 40
0
 40
0
 40
0
 40
1
 40
1
 40
1
 40
1
 10
55.790634
 20
184.311335
 30
0.0
 10
53.980032
 20
183.265982
 30
0.0
 10
51.749278
 20
183.265982
 30
0.0
 10
49.938675
 20
184.311335
 30
0.0
  0
SPLINE
  5
1d8
100
AcDbEntity
  8
0
 62
7
100
AcDbSpline
 70
8
 71
3
 72
8
 73
4
 74
0
 40
0
 40
0
 40
0
 40
0
 40
1
 40
1
 40
1
 40
1
 10
49.938675
 20
184.311335
 30
0.0
 10
48.128073
 20
185.356688
 30
0.0
 10
47.012696
 20
187.288580
 30
0.0
 10
47.012696
 20
189.379286
 30
0.0
  0
SPLINE
  5
1d9
100
AcDbEntity
  8
0
 62
7
100
AcDbSpline
 70
8
 71
3
 72
8
 73
4
 74
0
 40
0
 40
0
 40
0
 40
0
 40
1
 40
1
 40
1
 40
1
 10
47.012696
 20
189.379286
 30
0.0
 10
47.012696
 20
192.611237
 30
0.0
 10
49.632707
 20
195.231251
 30
0.0
 10
52.864655
 20
195.231251
 30
0.0
  0
SPLINE
  5
1da
100
AcDbEntity
  8
0
 62
7
100
AcDbSpline
 70
8
 71
3
 72
8
 73
4
 74
0
 40
0
 40
0
 40
0
 40
0
 40
1
 40
1
 40
1
 40
1
 10
52.864655
 20
195.231251
 30
0.0
 10
56.096603
 20
195.231251
 30
0.0
 10
58.716614
 20
192.611237
 30
0.0
 10
58.716614
 20
189.379286
 30
0.0
  0
LWPOLYLINE
  5
1db
100
AcDbEntity
  8
0
 62
7
100
AcDbPolyline
 90
1
 70
1
 10
391.226263
 20
146.573621
 30
0.0
  0
SPLINE
  5
1dc
100
AcDbEntity
  8
0
 62
7
100
AcDbSpline
 70
8
 71
3
 72
8
 73
4
 74
0
 40
0
 40
0
 40
0
 40
0
 40
1
 40
1
 40
1
 40
1
 10
391.226263
 20
107.721503
 30
0.0
 10
391.226263
 20
105.630797
 30
0.0
 10
390.110885
 20
103.698906
 30
0.0
 10
388.300283
 20
102.653553
 30
0.0
  0
SPLINE
  5
1dd
100
AcDbEntity
  8
0
 62
7
100
AcDbSpline
 70
8
 71
3
 72
8
 73
4
 74
0
 40
0
 40
0
 40
0
 40
0
 40
1
 40
1
 40
1
 40
1
 10
388.300283
 20
102.653553
 30
0.0
 10
386.489680
 20
101.608200
 30
0.0
 10
384.258926
 20
101.608200
 30
0.0
 10
382.448324
 20
102.653553
 30
0.0
  0
SPLINE
  5
1de
100
AcDbEntity
  8
0
 62
7
100
AcDbSpline
 70
8
 71
3
 72
8
 73
4
 74
0
 40
0
 40
0
 40
0
 40
0
 40
1
 40
1
 40
1
 40
1
 10
382.448324
 20
102.653553
 30
0.0
 10
380.637721
 20
103.698906
 30
0.0
 10
379.522344
 20
105.630797
 30
0.0
 10
379.522344
 20
107.721503
 30
0.0
  0
SPLINE
  5
1df
100
AcDbEntity
  8
0
 62
7
100
AcDbSpline
 70
8
 71
3
 72
8
 73
4
 74
0
 40
0
 40
0
 40
0
 40
0
 40
1
 40
1
 40
1
 40
1
 10
379.522344
 20
107.721503
 30
0.0
 10
379.522344
 20
109.812209
 30
0.0
 10
380.637721
 20
111.744101
 30
0.0
 10
382.448324
 20
112.789454
 30
0.0
  0
SPLINE
  5
1e0
100
AcDbEntity
  8
0
 62
7
100
AcDbSpline
 70
8
 71
3
 72
8
 73
4
 74
0
 40
0
 40
0
 40
0
 40
0
 40
1
 40
1
 40
1
 40
1
 10
382.448324
 20
112.789454
 30
0.0
 10
384.258926
 20
113.834807
 30
0.0
 10
386.489680
 20
113.834807
 30
0.0
 10
388.300283
 20
112.789454
 30
0.0
  0
SPLINE
  5
1e1
100
AcDbEntity
  8
0
 62
7
100
AcDbSpline
 70
8
 71
3
 72
8
 73
4
 74
0
 40
0
 40
0
 40
0
 40
0
 40
1
 40
1
 40
1
 40
1
 10
388.300283
 20
112.789454
 30
0.0
 10
390.110885
 20
111.744101
 30
0.0
 10
391.226263
 20
109.812209
 30
0.0
 10
391.226263
 20
107.721503
 30
0.0
  0
LWPOLYLINE
  5
1e2
100
AcDbEntity
  8
0
 62
7
100
AcDbPolyline
 90
1
 70
1
 10
58.716614
 20
189.379286
 30
0.0
  0
SPLINE
  5
1e3
100
AcDbEntity
  8
0
 62
7
100
AcDbSpline
 70
8
 71
3
 72
8
 73
4
 74
0
 40
0
 40
0
 40
0
 40
0
 40
1
 40
1
 40
1
 40
1
 10
87.169694
 20
227.981999
 30
0.0
 10
87.169694
 20
224.750048
 30
0.0
 10
84.549683
 20
222.130034
 30
0.0
 10
81.317735
 20
222.130034
 30
0.0
  0
SPLINE
  5
1e4
100
AcDbEntity
  8
0
 62
7
100
AcDbSpline
 70
8
 71
3
 72
8
 73
4
 74
0
 40
0
 40
0
 40
0
 40
0
 40
1
 40
1
 40
1
 40
1
 10
81.317735
 20
222.130034
 30
0.0
 10
78.085787
 20
222.130034
 30
0.0
 10
75.465776
 20
224.750048
 30
0.0
 10
75.465776
 20
227.981999
 30
0.0
  0
SPLINE
  5
1e5
100
AcDbEntity
  8
0
 62
7
100
AcDbSpline
 70
8
 71
3
 72
8
 73
4
 74
0
 40
0
 40
0
 40
0
 40
0
 40
1
 40
1
 40
1
 40
1
 10
75.465776
 20
227.981999
 30
0.0
 10
75.465776
 20
231.213951
 30
0.0
 10
78.085787
 20
233.833964
 30
0.0
 10
81.317735
 20
233.833964
 30
0.0
  0
SPLINE
  5
1e6
100
AcDbEntity
  8
0
 62
7
100
AcDbSpline
 70
8
 71
3
 72
8
 73
4
 74
0
 40
0
 40
0
 40
0
 40
0
 40
1
 40
1
 40
1
 40
1
 10
81.317735
 20
233.833964
 30
0.0
 10
84.549683
 20
233.833964
 30
0.0
 10
87.169694
 20
231.213951
 30
0.0
 10
87.169694
 20
227.981999
 30
0.0
  0
LWPOLYLINE
  5
1e7
100
AcDbEntity
  8
0
 62
7
100
AcDbPolyline
 90
1
 70
1
 10
391.226263
 20
107.721503
 30
0.0
  0
SPLINE
  5
1e8
100
AcDbEntity
  8
0
 62
7
100
AcDbSpline
 70
8
 71
3
 72
8
 73
4
 74
0
 40
0
 40
0
 40
0
 40
0
 40
1
 40
1
 40
1
 40
1
 10
57.422064
 20
227.981999
 30
0.0
 10
57.422064
 20
225.891294
 30
0.0
 10
56.306686
 20
223.959402
 30
0.0
 10
54.496082
 20
222.914049
 30
0.0
  0
SPLINE
  5
1e9
100
AcDbEntity
  8
0
 62
7
100
AcDbSpline
 70
8
 71
3
 72
8
 73
4
 74
0
 40
0
 40
0
 40
0
 40
0
 40
1
 40
1
 40
1
 40
1
 10
54.496082
 20
222.914049
 30
0.0
 10
52.685477
 20
221.868696
 30
0.0
 10
50.454721
 20
221.868696
 30
0.0
 10
48.644116
 20
222.914049
 30
0.0
  0
SPLINE
  5
1ea
100
AcDbEntity
  8
0
 62
7
100
AcDbSpline
 70
8
 71
3
 72
8
 73
4
 74
0
 40
0
 40
0
 40
0
 40
0
 40
1
 40
1
 40
1
 40
1
 10
48.644116
 20
222.914049
 30
0.0
 10
46.833512
 20
223.959402
 30
0.0
 10
45.718134
 20
225.891294
 30
0.0
 10
45.718134
 20
227.981999
 30
0.0
  0
SPLINE
  5
1eb
100
AcDbEntity
  8
0
 62
7
100
AcDbSpline
 70
8
 71
3
 72
8
 73
4
 74
0
 40
0
 40
0
 40
0
 40
0
 40
1
 40
1
 40
1
 40
1
 10
45.718134
 20
227.981999
 30
0.0
 10
45.718134
 20
230.072705
 30
0.0
 10
46.833512
 20
232.004597
 30
0.0
 10
48.644116
 20
233.049950
 30
0.0
  0
SPLINE
  5
1ec
100
AcDbEntity
  8
0
 62
7
100
AcDbSpline
 70
8
 71
3
 72
8
 73
4
 74
0
 40
0
 40
0
 40
0
 40
0
 40
1
 40
1
 40
1
 40
1
 10
48.644116
 20
233.049950
 30
0.0
 10
50.454721
 20
234.095303
 30
0.0
 10
52.685477
 20
234.095303
 30
0.0
 10
54.496082
 20
233.049950
 30
0.0
  0
SPLINE
  5
1ed
100
AcDbEntity
  8
0
 62
7
100
AcDbSpline
 70
8
 71
3
 72
8
 73
4
 74
0
 40
0
 40
0
 40
0
 40
0
 40
1
 40
1
 40
1
 40
1
 10
54.496082
 20
233.049950
 30
0.0
 10
56.306686
 20
232.004597
 30
0.0
 10
57.422064
 20
230.072705
 30
0.0
 10
57.422064
 20
227.981999
 30
0.0
  0
LWPOLYLINE
  5
1ee
100
AcDbEntity
  8
0
 62
7
100
AcDbPolyline
 90
1
 70
1
 10
87.169694
 20
227.981999
 30
0.0
  0
SPLINE
  5
1ef
100
AcDbEntity
  8
0
 62
7
100
AcDbSpline
 70
8
 71
3
 72
8
 73
4
 74
0
 40
0
 40
0
 40
0
 40
0
 40
1
 40
1
 40
1
 40
1
 10
80.528134
 20
195.424467
 30
0.0
 10
77.492139
 20
195.027982
 30
0.0
 10
75.220890
 20
192.441650
 30
0.0
 10
75.219930
 20
189.379876
 30
0.0
  0
SPLINE
  5
1f0
100
AcDbEntity
  8
0
 62
7
100
AcDbSpline
 70
8
 71
3
 72
8
 73
4
 74
0
 40
0
 40
0
 40
0
 40
0
 40
1
 40
1
 40
1
 40
1
 10
75.219930
 20
189.379876
 30
0.0
 10
75.219946
 20
186.012158
 30
0.0
 10
77.950012
 20
183.282084
 30
0.0
 10
81.317730
 20
183.282058
 30
0.0
  0
SPLINE
  5
1f1
100
AcDbEntity
  8
0
 62
7
100
AcDbSpline
 70
8
 71
3
 72
8
 73
4
 74
0
 40
0
 40
0
 40
0
 40
0
 40
1
 40
1
 40
1
 40
1
 10
81.317730
 20
183.282058
 30
0.0
 10
84.685458
 20
183.282070
 30
0.0
 10
87.415539
 20
186.012148
 30
0.0
 10
87.415555
 20
189.379876
 30
0.0
  0
SPLINE
  5
1f2
100
AcDbEntity
  8
0
 62
7
100
AcDbSpline
 70
8
 71
3
 72
8
 73
4
 74
0
 40
0
 40
0
 40
0
 40
0
 40
1
 40
1
 40
1
 40
1
 10
87.415555
 20
189.379876
 30
0.0
 10
87.414404
 20
192.441109
 30
0.0
 10
85.143774
 20
195.027018
 30
0.0
 10
82.108384
 20
195.423951
 30
0.0
  0
LWPOLYLINE
  5
1f3
100
AcDbEntity
  8
0
 62
7
100
AcDbPolyline
 90
1
 70
1
 10
57.422064
 20
227.981999
 30
0.0
  0
SPLINE
  5
1f4
100
AcDbEntity
  8
0
 62
7
100
AcDbSpline
 70
8
 71
3
 72
8
 73
4
 74
0
 40
0
 40
0
 40
0
 40
0
 40
1
 40
1
 40
1
 40
1
 10
87.169694
 20
150.277788
 30
0.0
 10
87.169694
 20
147.045837
 30
0.0
 10
84.549683
 20
144.425823
 30
0.0
 10
81.317735
 20
144.425823
 30
0.0
  0
SPLINE
  5
1f5
100
AcDbEntity
  8
0
 62
7
100
AcDbSpline
 70
8
 71
3
 72
8
 73
4
 74
0
 40
0
 40
0
 40
0
 40
0
 40
1
 40
1
 40
1
 40
1
 10
81.317735
 20
144.425823
 30
0.0
 10
78.085787
 20
144.425823
 30
0.0
 10
75.465776
 20
147.045837
 30
0.0
 10
75.465776
 20
150.277788
 30
0.0
  0
SPLINE
  5
1f6
100
AcDbEntity
  8
0
 62
7
100
AcDbSpline
 70
8
 71
3
 72
8
 73
4
 74
0
 40
0
 40
0
 40
0
 40
0
 40
1
 40
1
 40
1
 40
1
 10
75.465776
 20
150.277788
 30
0.0
 10
75.465776
 20
153.509739
 30
0.0
 10
78.085787
 20
156.129753
 30
0.0
 10
81.317735
 20
156.129753
 30
0.0
  0
SPLINE
  5
1f7
100
AcDbEntity
  8
0
 62
7
100
AcDbSpline
 70
8
 71
3
 72
8
 73
4
 74
0
 40
0
 40
0
 40
0
 40
0
 40
1
 40
1
 40
1
 40
1
 10
81.317735
 20
156.129753
 30
0.0
 10
84.549683
 20
156.129753
 30
0.0
 10
87.169694
 20
153.509739
 30
0.0
 10
87.169694
 20
150.277788
 30
0.0
  0
LWPOLYLINE
  5
1f8
100
AcDbEntity
  8
0
 62
7
100
AcDbPolyline
 90
4
 70
0
 10
82.108384
 20
195.423951
 30
0.0
 10
82.108384
 20
194.490157
 30
0.0
 10
80.528134
 20
194.490157
 30
0.0
 10
80.528134
 20
195.424467
 30
0.0
  0
SPLINE
  5
1f9
100
AcDbEntity
  8
0
 62
7
100
AcDbSpline
 70
8
 71
3
 72
8
 73
4
 74
0
 40
0
 40
0
 40
0
 40
0
 40
1
 40
1
 40
1
 40
1
 10
36.999710
 20
152.782884
 30
0.0
 10
36.999710
 20
150.020070
 30
0.0
 10
35.525766
 20
147.467125
 30
0.0
 10
33.133099
 20
146.085718
 30
0.0
  0
SPLINE
  5
1fa
100
AcDbEntity
  8
0
 62
7
100
AcDbSpline
 70
8
 71
3
 72
8
 73
4
 74
0
 40
0
 40
0
 40
0
 40
0
 40
1
 40
1
 40
1
 40
1
 10
33.133099
 20
146.085718
 30
0.0
 10
30.740432
 20
144.704311
 30
0.0
 10
27.792545
 20
144.704311
 30
0.0
 10
25.399878
 20
146.085718
 30
0.0
  0
SPLINE
  5
1fb
100
AcDbEntity
  8
0
 62
7
100
AcDbSpline
 70
8
 71
3
 72
8
 73
4
 74
0
 40
0
 40
0
 40
0
 40
0
 40
1
 40
1
 40
1
 40
1
 10
25.399878
 20
146.085718
 30
0.0
 10
23.007211
 20
147.467125
 30
0.0
 10
21.533268
 20
150.020070
 30
0.0
 10
21.533268
 20
152.782884
 30
0.0
  0
SPLINE
  5
1fc
100
AcDbEntity
  8
0
 62
7
100
AcDbSpline
 70
8
 71
3
 72
8
 73
4
 74
0
 40
0
 40
0
 40
0
 40
0
 40
1
 40
1
 40
1
 40
1
 10
21.533268
 20
152.782884
 30
0.0
 10
21.533268
 20
157.053824
 30
0.0
 10
24.995549
 20
160.516104
 30
0.0
 10
29.266489
 20
160.516104
 30
0.0
  0
SPLINE
  5
1fd
100
AcDbEntity
  8
0
 62
7
100
AcDbSpline
 70
8
 71
3
 72
8
 73
4
 74
0
 40
0
 40
0
 40
0
 40
0
 40
1
 40
1
 40
1
 40
1
 10
29.266489
 20
160.516104
 30
0.0
 10
33.537429
 20
160.516104
 30
0.0
 10
36.999709
 20
157.053824
 30
0.0
 10
36.999710
 20
152.782884
 30
0.0
  0
LWPOLYLINE
  5
1fe
100
AcDbEntity
  8
0
 62
7
100
AcDbPolyline
 90
1
 70
1
 10
87.169694
 20
150.277788
 30
0.0
  0
SPLINE
  5
1ff
100
AcDbEntity
  8
0
 62
7
100
AcDbSpline
 70
8
 71
3
 72
8
 73
4
 74
0
 40
0
 40
0
 40
0
 40
0
 40
1
 40
1
 40
1
 40
1
 10
497.550097
 20
10.936896
 30
0.0
 10
497.550097
 20
7.757676
 30
0.0
 10
495.854003
 20
4.819955
 30
0.0
 10
493.100717
 20
3.230345
 30
0.0
  0
SPLINE
  5
200
100
AcDbEntity
  8
0
 62
7
100
AcDbSpline
 70
8
 71
3
 72
8
 73
4
 74
0
 40
0
 40
0
 40
0
 40
0
 40
1
 40
1
 40
1
 40
1
 10
493.100717
 20
3.230345
 30
0.0
 10
490.347432
 20
1.640735
 30
0.0
 10
486.955245
 20
1.640735
 30
0.0
 10
484.201959
 20
3.230345
 30
0.0
  0
SPLINE
  5
201
100
AcDbEntity
  8
0
 62
7
100
AcDbSpline
 70
8
 71
3
 72
8
 73
4
 74
0
 40
0
 40
0
 40
0
 40
0
 40
1
 40
1
 40
1
 40
1
 10
484.201959
 20
3.230345
 30
0.0
 10
481.448674
 20
4.819955
 30
0.0
 10
479.752580
 20
7.757676
 30
0.0
 10
479.752580
 20
10.936896
 30
0.0
  0
SPLINE
  5
202
100
AcDbEntity
  8
0
 62
7
100
AcDbSpline
 70
8
 71
3
 72
8
 73
4
 74
0
 40
0
 40
0
 40
0
 40
0
 40
1
 40
1
 40
1
 40
1
 10
479.752580
 20
10.936896
 30
0.0
 10
479.752580
 20
14.116116
 30
0.0
 10
481.448674
 20
17.053837
 30
0.0
 10
484.201959
 20
18.643447
 30
0.0
  0
SPLINE
  5
203
100
AcDbEntity
  8
0
 62
7
100
AcDbSpline
 70
8
 71
3
 72
8
 73
4
 74
0
 40
0
 40
0
 40
0
 40
0
 40
1
 40
1
 40
1
 40
1
 10
484.201959
 20
18.643447
 30
0.0
 10
486.955245
 20
20.233057
 30
0.0
 10
490.347432
 20
20.233057
 30
0.0
 10
493.100717
 20
18.643447
 30
0.0
  0
SPLINE
  5
204
100
AcDbEntity
  8
0
 62
7
100
AcDbSpline
 70
8
 71
3
 72
8
 73
4
 74
0
 40
0
 40
0
 40
0
 40
0
 40
1
 40
1
 40
1
 40
1
 10
493.100717
 20
18.643447
 30
0.0
 10
495.854003
 20
17.053837
 30
0.0
 10
497.550097
 20
14.116116
 30
0.0
 10
497.550097
 20
10.936896
 30
0.0
  0
LWPOLYLINE
  5
205
100
AcDbEntity
  8
0
 62
7
100
AcDbPolyline
 90
1
 70
1
 10
36.999710
 20
152.782884
 30
0.0
  0
SPLINE
  5
206
100
AcDbEntity
  8
0
 62
7
100
AcDbSpline
 70
8
 71
3
 72
8
 73
4
 74
0
 40
0
 40
0
 40
0
 40
0
 40
1
 40
1
 40
1
 40
1
 10
391.226263
 20
185.425739
 30
0.0
 10
391.226263
 20
183.335033
 30
0.0
 10
390.110885
 20
181.403141
 30
0.0
 10
388.300283
 20
180.357788
 30
0.0
  0
SPLINE
  5
207
100
AcDbEntity
  8
0
 62
7
100
AcDbSpline
 70
8
 71
3
 72
8
 73
4
 74
0
 40
0
 40
0
 40
0
 40
0
 40
1
 40
1
 40
1
 40
1
 10
388.300283
 20
180.357788
 30
0.0
 10
386.489680
 20
179.312435
 30
0.0
 10
384.258926
 20
179.312435
 30
0.0
 10
382.448324
 20
180.357788
 30
0.0
  0
SPLINE
  5
208
100
AcDbEntity
  8
0
 62
7
100
AcDbSpline
 70
8
 71
3
 72
8
 73
4
 74
0
 40
0
 40
0
 40
0
 40
0
 40
1
 40
1
 40
1
 40
1
 10
382.448324
 20
180.357788
 30
0.0
 10
380.637721
 20
181.403141
 30
0.0
 10
379.522344
 20
183.335033
 30
0.0
 10
379.522344
 20
185.425739
 30
0.0
  0
SPLINE
  5
209
100
AcDbEntity
  8
0
 62
7
100
AcDbSpline
 70
8
 71
3
 72
8
 73
4
 74
0
 40
0
 40
0
 40
0
 40
0
 40
1
 40
1
 40
1
 40
1
 10
379.522344
 20
185.425739
 30
0.0
 10
379.522344
 20
187.516445
 30
0.0
 10
380.637721
 20
189.448336
 30
0.0
 10
382.448324
 20
190.493689
 30
0.0
  0
SPLINE
  5
20a
100
AcDbEntity
  8
0
 62
7
100
AcDbSpline
 70
8
 71
3
 72
8
 73
4
 74
0
 40
0
 40
0
 40
0
 40
0
 40
1
 40
1
 40
1
 40
1
 10
382.448324
 20
190.493689
 30
0.0
 10
384.258926
 20
191.539042
 30
0.0
 10
386.489680
 20
191.539042
 30
0.0
 10
388.300283
 20
190.493689
 30
0.0
  0
SPLINE
  5
20b
100
AcDbEntity
  8
0
 62
7
100
AcDbSpline
 70
8
 71
3
 72
8
 73
4
 74
0
 40
0
 40
0
 40
0
 40
0
 40
1
 40
1
 40
1
 40
1
 10
388.300283
 20
190.493689
 30
0.0
 10
390.110885
 20
189.448336
 30
0.0
 10
391.226263
 20
187.516445
 30
0.0
 10
391.226263
 20
185.425739
 30
0.0
  0
LWPOLYLINE
  5
20c
100
AcDbEntity
  8
0
 62
7
100
AcDbPolyline
 90
1
 70
1
 10
497.550097
 20
10.936896
 30
0.0
  0
LWPOLYLINE
  5
20d
100
AcDbEntity
  8
0
 62
7
100
AcDbPolyline
 90
1
 70
1
 10
391.226263
 20
185.425739
 30
0.0
  0
LWPOLYLINE
  5
20e
100
AcDbEntity
  8
0
 62
7
100
AcDbPolyline
 90
4
 70
1
 10
101.873780
 20
264.958616
 30
0.0
 10
363.847293
 20
264.958616
 30
0.0
 10
363.847293
 20
79.885109
 30
0.0
 10
101.873780
 20
79.885109
 30
0.0
  0
SPLINE
  5
20f
100
AcDbEntity
  8
0
 62
7
100
AcDbSpline
 70
8
 71
3
 72
8
 73
4
 74
0
 40
0
 40
0
 40
0
 40
0
 40
1
 40
1
 40
1
 40
1
 10
908.285376
 20
194.841993
 30
0.0
 10
908.285376
 20
194.248801
 30
0.0
 10
907.968911
 20
193.700668
 30
0.0
 10
907.455191
 20
193.404072
 30
0.0
  0
SPLINE
  5
210
100
AcDbEntity
  8
0
 62
7
100
AcDbSpline
 70
8
 71
3
 72
8
 73
4
 74
0
 40
0
 40
0
 40
0
 40
0
 40
1
 40
1
 40
1
 40
1
 10
907.455191
 20
193.404072
 30
0.0
 10
906.941472
 20
193.107476
 30
0.0
 10
906.308543
 20
193.107476
 30
0.0
 10
905.794823
 20
193.404072
 30
0.0
  0
SPLINE
  5
211
100
AcDbEntity
  8
0
 62
7
100
AcDbSpline
 70
8
 71
3
 72
8
 73
4
 74
0
 40
0
 40
0
 40
0
 40
0
 40
1
 40
1
 40
1
 40
1
 10
905.794823
 20
193.404072
 30
0.0
 10
905.281103
 20
193.700668
 30
0.0
 10
904.964638
 20
194.248801
 30
0.0
 10
904.964638
 20
194.841993
 30
0.0
  0
SPLINE
  5
212
100
AcDbEntity
  8
0
 62
7
100
AcDbSpline
 70
8
 71
3
 72
8
 73
4
 74
0
 40
0
 40
0
 40
0
 40
0
 40
1
 40
1
 40
1
 40
1
 10
904.964638
 20
194.841993
 30
0.0
 10
904.964638
 20
195.435186
 30
0.0
 10
905.281103
 20
195.983319
 30
0.0
 10
905.794823
 20
196.279915
 30
0.0
  0
SPLINE
  5
213
100
AcDbEntity
  8
0
 62
7
100
AcDbSpline
 70
8
 71
3
 72
8
 73
4
 74
0
 40
0
 40
0
 40
0
 40
0
 40
1
 40
1
 40
1
 40
1
 10
905.794823
 20
196.279915
 30
0.0
 10
906.308543
 20
196.576511
 30
0.0
 10
906.941472
 20
196.576511
 30
0.0
 10
907.455191
 20
196.279915
 30
0.0
  0
SPLINE
  5
214
100
AcDbEntity
  8
0
 62
7
100
AcDbSpline
 70
8
 71
3
 72
8
 73
4
 74
0
 40
0
 40
0
 40
0
 40
0
 40
1
 40
1
 40
1
 40
1
 10
907.455191
 20
196.279915
 30
0.0
 10
907.968911
 20
195.983319
 30
0.0
 10
908.285376
 20
195.435186
 30
0.0
 10
908.285376
 20
194.841993
 30
0.0
  0
LWPOLYLINE
  5
215
100
AcDbEntity
  8
0
 62
7
100
AcDbPolyline
 90
4
 70
1
 10
908.007270
 20
191.389882
 30
0.0
 10
934.366237
 20
191.389882
 30
0.0
 10
934.366237
 20
155.124915
 30
0.0
 10
908.007270
 20
155.124915
 30
0.0
  0
SPLINE
  5
216
100
AcDbEntity
  8
0
 62
7
100
AcDbSpline
 70
8
 71
3
 72
8
 73
4
 74
0
 40
0
 40
0
 40
0
 40
0
 40
1
 40
1
 40
1
 40
1
 10
934.285371
 20
194.841993
 30
0.0
 10
934.285371
 20
194.248801
 30
0.0
 10
933.968907
 20
193.700668
 30
0.0
 10
933.455187
 20
193.404072
 30
0.0
  0
SPLINE
  5
217
100
AcDbEntity
  8
0
 62
7
100
AcDbSpline
 70
8
 71
3
 72
8
 73
4
 74
0
 40
0
 40
0
 40
0
 40
0
 40
1
 40
1
 40
1
 40
1
 10
933.455187
 20
193.404072
 30
0.0
 10
932.941467
 20
193.107476
 30
0.0
 10
932.308538
 20
193.107476
 30
0.0
 10
931.794818
 20
193.404072
 30
0.0
  0
SPLINE
  5
218
100
AcDbEntity
  8
0
 62
7
100
AcDbSpline
 70
8
 71
3
 72
8
 73
4
 74
0
 40
0
 40
0
 40
0
 40
0
 40
1
 40
1
 40
1
 40
1
 10
931.794818
 20
193.404072
 30
0.0
 10
931.281099
 20
193.700668
 30
0.0
 10
930.964634
 20
194.248801
 30
0.0
 10
930.964634
 20
194.841993
 30
0.0
  0
SPLINE
  5
219
100
AcDbEntity
  8
0
 62
7
100
AcDbSpline
 70
8
 71
3
 72
8
 73
4
 74
0
 40
0
 40
0
 40
0
 40
0
 40
1
 40
1
 40
1
 40
1
 10
930.964634
 20
194.841993
 30
0.0
 10
930.964634
 20
195.435186
 30
0.0
 10
931.281099
 20
195.983319
 30
0.0
 10
931.794818
 20
196.279915
 30
0.0
  0
SPLINE
  5
21a
100
AcDbEntity
  8
0
 62
7
100
AcDbSpline
 70
8
 71
3
 72
8
 73
4
 74
0
 40
0
 40
0
 40
0
 40
0
 40
1
 40
1
 40
1
 40
1
 10
931.794818
 20
196.279915
 30
0.0
 10
932.308538
 20
196.576511
 30
0.0
 10
932.941467
 20
196.576511
 30
0.0
 10
933.455187
 20
196.279915
 30
0.0
  0
SPLINE
  5
21b
100
AcDbEntity
  8
0
 62
7
100
AcDbSpline
 70
8
 71
3
 72
8
 73
4
 74
0
 40
0
 40
0
 40
0
 40
0
 40
1
 40
1
 40
1
 40
1
 10
933.455187
 20
196.279915
 30
0.0
 10
933.968907
 20
195.983319
 30
0.0
 10
934.285371
 20
195.435186
 30
0.0
 10
934.285371
 20
194.841993
 30
0.0
  0
LWPOLYLINE
  5
21c
100
AcDbEntity
  8
0
 62
7
100
AcDbPolyline
 90
1
 70
1
 10
908.285376
 20
194.841993
 30
0.0
  0
SPLINE
  5
21d
100
AcDbEntity
  8
0
 62
7
100
AcDbSpline
 70
8
 71
3
 72
8
 73
4
 74
0
 40
0
 40
0
 40
0
 40
0
 40
1
 40
1
 40
1
 40
1
 10
908.285376
 20
150.841993
 30
0.0
 10
908.285376
 20
150.248800
 30
0.0
 10
907.968911
 20
149.700668
 30
0.0
 10
907.455191
 20
149.404072
 30
0.0
  0
SPLINE
  5
21e
100
AcDbEntity
  8
0
 62
7
100
AcDbSpline
 70
8
 71
3
 72
8
 73
4
 74
0
 40
0
 40
0
 40
0
 40
0
 40
1
 40
1
 40
1
 40
1
 10
907.455191
 20
149.404072
 30
0.0
 10
906.941472
 20
149.107475
 30
0.0
 10
906.308543
 20
149.107475
 30
0.0
 10
905.794823
 20
149.404072
 30
0.0
  0
SPLINE
  5
21f
100
AcDbEntity
  8
0
 62
7
100
AcDbSpline
 70
8
 71
3
 72
8
 73
4
 74
0
 40
0
 40
0
 40
0
 40
0
 40
1
 40
1
 40
1
 40
1
 10
905.794823
 20
149.404072
 30
0.0
 10
905.281103
 20
149.700668
 30
0.0
 10
904.964638
 20
150.248800
 30
0.0
 10
904.964638
 20
150.841993
 30
0.0
  0
SPLINE
  5
220
100
AcDbEntity
  8
0
 62
7
100
AcDbSpline
 70
8
 71
3
 72
8
 73
4
 74
0
 40
0
 40
0
 40
0
 40
0
 40
1
 40
1
 40
1
 40
1
 10
904.964638
 20
150.841993
 30
0.0
 10
904.964638
 20
151.435186
 30
0.0
 10
905.281103
 20
151.983318
 30
0.0
 10
905.794823
 20
152.279915
 30
0.0
  0
SPLINE
  5
221
100
AcDbEntity
  8
0
 62
7
100
AcDbSpline
 70
8
 71
3
 72
8
 73
4
 74
0
 40
0
 40
0
 40
0
 40
0
 40
1
 40
1
 40
1
 40
1
 10
905.794823
 20
152.279915
 30
0.0
 10
906.308543
 20
152.576511
 30
0.0
 10
906.941472
 20
152.576511
 30
0.0
 10
907.455191
 20
152.279915
 30
0.0
  0
SPLINE
  5
222
100
AcDbEntity
  8
0
 62
7
100
AcDbSpline
 70
8
 71
3
 72
8
 73
4
 74
0
 40
0
 40
0
 40
0
 40
0
 40
1
 40
1
 40
1
 40
1
 10
907.455191
 20
152.279915
 30
0.0
 10
907.968911
 20
151.983318
 30
0.0
 10
908.285376
 20
151.435186
 30
0.0
 10
908.285376
 20
150.841993
 30
0.0
  0
LWPOLYLINE
  5
223
100
AcDbEntity
  8
0
 62
7
100
AcDbPolyline
 90
1
 70
1
 10
934.285371
 20
194.841993
 30
0.0
  0
SPLINE
  5
224
100
AcDbEntity
  8
0
 62
7
100
AcDbSpline
 70
8
 71
3
 72
8
 73
4
 74
0
 40
0
 40
0
 40
0
 40
0
 40
1
 40
1
 40
1
 40
1
 10
934.285371
 20
150.841993
 30
0.0
 10
934.285371
 20
150.248800
 30
0.0
 10
933.968907
 20
149.700668
 30
0.0
 10
933.455187
 20
149.404072
 30
0.0
  0
SPLINE
  5
225
100
AcDbEntity
  8
0
 62
7
100
AcDbSpline
 70
8
 71
3
 72
8
 73
4
 74
0
 40
0
 40
0
 40
0
 40
0
 40
1
 40
1
 40
1
 40
1
 10
933.455187
 20
149.404072
 30
0.0
 10
932.941467
 20
149.107475
 30
0.0
 10
932.308538
 20
149.107475
 30
0.0
 10
931.794818
 20
149.404072
 30
0.0
  0
SPLINE
  5
226
100
AcDbEntity
  8
0
 62
7
100
AcDbSpline
 70
8
 71
3
 72
8
 73
4
 74
0
 40
0
 40
0
 40
0
 40
0
 40
1
 40
1
 40
1
 40
1
 10
931.794818
 20
149.404072
 30
0.0
 10
931.281099
 20
149.700668
 30
0.0
 10
930.964634
 20
150.248800
 30
0.0
 10
930.964634
 20
150.841993
 30
0.0
  0
SPLINE
  5
227
100
AcDbEntity
  8
0
 62
7
100
AcDbSpline
 70
8
 71
3
 72
8
 73
4
 74
0
 40
0
 40
0
 40
0
 40
0
 40
1
 40
1
 40
1
 40
1
 10
930.964634
 20
150.841993
 30
0.0
 10
930.964634
 20
151.435186
 30
0.0
 10
931.281099
 20
151.983318
 30
0.0
 10
931.794818
 20
152.279915
 30
0.0
  0
SPLINE
  5
228
100
AcDbEntity
  8
0
 62
7
100
AcDbSpline
 70
8
 71
3
 72
8
 73
4
 74
0
 40
0
 40
0
 40
0
 40
0
 40
1
 40
1
 40
1
 40
1
 10
931.794818
 20
152.279915
 30
0.0
 10
932.308538
 20
152.576511
 30
0.0
 10
932.941467
 20
152.576511
 30
0.0
 10
933.455187
 20
152.279915
 30
0.0
  0
SPLINE
  5
229
100
AcDbEntity
  8
0
 62
7
100
AcDbSpline
 70
8
 71
3
 72
8
 73
4
 74
0
 40
0
 40
0
 40
0
 40
0
 40
1
 40
1
 40
1
 40
1
 10
933.455187
 20
152.279915
 30
0.0
 10
933.968907
 20
151.983318
 30
0.0
 10
934.285371
 20
151.435186
 30
0.0
 10
934.285371
 20
150.841993
 30
0.0
  0
LWPOLYLINE
  5
22a
100
AcDbEntity
  8
0
 62
7
100
AcDbPolyline
 90
1
 70
1
 10
908.285376
 20
150.841993
 30
0.0
  0
LWPOLYLINE
  5
22b
100
AcDbEntity
  8
0
 62
7
100
AcDbPolyline
 90
1
 70
1
 10
934.285371
 20
150.841993
 30
0.0
  0
LWPOLYLINE
  5
22c
100
AcDbEntity
  8
0
 62
7
100
AcDbPolyline
 90
1
 70
1
 10
906.505442
 20
194.882810
 30
0.0
  0
LWPOLYLINE
  5
22d
100
AcDbEntity
  8
0
 62
7
100
AcDbPolyline
 90
3
 70
0
 10
1007.716795
 20
121.664592
 30
0.0
 10
1008.510545
 20
121.664592
 30
0.0
 10
1009.304295
 20
121.664592
 30
0.0
  0
LWPOLYLINE
  5
22e
100
AcDbEntity
  8
0
 62
7
100
AcDbPolyline
 90
3
 70
0
 10
1008.510545
 20
122.458342
 30
0.0
 10
1008.510545
 20
121.664592
 30
0.0
 10
1008.510545
 20
120.870842
 30
0.0
  0
LWPOLYLINE
  5
22f
100
AcDbEntity
  8
0
 62
7
100
AcDbPolyline
 90
3
 70
0
 10
1007.716795
 20
121.664592
 30
0.0
 10
1008.510545
 20
121.664592
 30
0.0
 10
1009.304295
 20
121.664592
 30
0.0
  0
LWPOLYLINE
  5
230
100
AcDbEntity
  8
0
 62
7
100
AcDbPolyline
 90
3
 70
0
 10
1008.510545
 20
122.458342
 30
0.0
 10
1008.510545
 20
121.664592
 30
0.0
 10
1008.510545
 20
120.870842
 30
0.0
  0
LWPOLYLINE
  5
231
100
AcDbEntity
  8
0
 62
7
100
AcDbPolyline
 90
3
 70
0
 10
1007.716795
 20
121.664592
 30
0.0
 10
1008.510545
 20
121.664592
 30
0.0
 10
1009.304295
 20
121.664592
 30
0.0
  0
LWPOLYLINE
  5
232
100
AcDbEntity
  8
0
 62
7
100
AcDbPolyline
 90
3
 70
0
 10
1008.510545
 20
122.458342
 30
0.0
 10
1008.510545
 20
121.664592
 30
0.0
 10
1008.510545
 20
120.870842
 30
0.0
  0
LWPOLYLINE
  5
233
100
AcDbEntity
  8
0
 62
7
100
AcDbPolyline
 90
3
 70
0
 10
1007.716795
 20
121.664592
 30
0.0
 10
1008.510545
 20
121.664592
 30
0.0
 10
1009.304295
 20
121.664592
 30
0.0
  0
LWPOLYLINE
  5
234
100
AcDbEntity
  8
0
 62
7
100
AcDbPolyline
 90
3
 70
0
 10
1008.510545
 20
122.458342
 30
0.0
 10
1008.510545
 20
121.664592
 30
0.0
 10
1008.510545
 20
120.870842
 30
0.0
  0
SPLINE
  5
235
100
AcDbEntity
  8
0
 62
7
100
AcDbSpline
 70
8
 71
3
 72
8
 73
4
 74
0
 40
0
 40
0
 40
0
 40
0
 40
1
 40
1
 40
1
 40
1
 10
614.041696
 20
265.871993
 30
0.0
 10
614.041695
 20
264.839941
 30
0.0
 10
613.205052
 20
264.003299
 30
0.0
 10
612.173002
 20
264.003299
 30
0.0
  0
SPLINE
  5
236
100
AcDbEntity
  8
0
 62
7
100
AcDbSpline
 70
8
 71
3
 72
8
 73
4
 74
0
 40
0
 40
0
 40
0
 40
0
 40
1
 40
1
 40
1
 40
1
 10
612.173002
 20
264.003299
 30
0.0
 10
611.677393
 20
264.003298
 30
0.0
 10
611.202083
 20
264.200178
 30
0.0
 10
610.851635
 20
264.550626
 30
0.0
  0
SPLINE
  5
237
100
AcDbEntity
  8
0
 62
7
100
AcDbSpline
 70
8
 71
3
 72
8
 73
4
 74
0
 40
0
 40
0
 40
0
 40
0
 40
1
 40
1
 40
1
 40
1
 10
610.851635
 20
264.550626
 30
0.0
 10
610.501186
 20
264.901074
 30
0.0
 10
610.304306
 20
265.376384
 30
0.0
 10
610.304305
 20
265.871993
 30
0.0
  0
SPLINE
  5
238
100
AcDbEntity
  8
0
 62
7
100
AcDbSpline
 70
8
 71
3
 72
8
 73
4
 74
0
 40
0
 40
0
 40
0
 40
0
 40
1
 40
1
 40
1
 40
1
 10
610.304305
 20
265.871993
 30
0.0
 10
610.304304
 20
266.367603
 30
0.0
 10
610.501184
 20
266.842914
 30
0.0
 10
610.851633
 20
267.193364
 30
0.0
  0
SPLINE
  5
239
100
AcDbEntity
  8
0
 62
7
100
AcDbSpline
 70
8
 71
3
 72
8
 73
4
 74
0
 40
0
 40
0
 40
0
 40
0
 40
1
 40
1
 40
1
 40
1
 10
610.851633
 20
267.193364
 30
0.0
 10
611.202081
 20
267.543813
 30
0.0
 10
611.677392
 20
267.740693
 30
0.0
 10
612.173002
 20
267.740692
 30
0.0
  0
SPLINE
  5
23a
100
AcDbEntity
  8
0
 62
7
100
AcDbSpline
 70
8
 71
3
 72
8
 73
4
 74
0
 40
0
 40
0
 40
0
 40
0
 40
1
 40
1
 40
1
 40
1
 10
612.173002
 20
267.740692
 30
0.0
 10
612.668611
 20
267.740692
 30
0.0
 10
613.143921
 20
267.543812
 30
0.0
 10
613.494369
 20
267.193363
 30
0.0
  0
SPLINE
  5
23b
100
AcDbEntity
  8
0
 62
7
100
AcDbSpline
 70
8
 71
3
 72
8
 73
4
 74
0
 40
0
 40
0
 40
0
 40
0
 40
1
 40
1
 40
1
 40
1
 10
613.494369
 20
267.193363
 30
0.0
 10
613.844817
 20
266.842913
 30
0.0
 10
614.041697
 20
266.367602
 30
0.0
 10
614.041696
 20
265.871993
 30
0.0
  0
LWPOLYLINE
  5
23c
100
AcDbEntity
  8
0
 62
7
100
AcDbPolyline
 90
4
 70
1
 10
613.086539
 20
264.958883
 30
0.0
 10
875.060181
 20
264.958883
 30
0.0
 10
875.060181
 20
79.885360
 30
0.0
 10
613.086539
 20
79.885360
 30
0.0
  0
LWPOLYLINE
  5
23d
100
AcDbEntity
  8
0
 62
7
100
AcDbPolyline
 90
1
 70
1
 10
614.041696
 20
265.871993
 30
0.0
  0
LWPOLYLINE
  5
23e
100
AcDbEntity
  8
0
 62
7
100
AcDbPolyline
 90
1
 70
1
 10
612.063470
 20
265.144450
 30
0.0
  0
LWPOLYLINE
  5
23f
100
AcDbEntity
  8
0
 62
7
100
AcDbPolyline
 90
1
 70
1
 10
612.146893
 20
265.088832
 30
0.0
  0
LWPOLYLINE
  5
240
100
AcDbEntity
  8
0
 62
7
100
AcDbPolyline
 90
1
 70
1
 10
612.119085
 20
265.144450
 30
0.0
  0
LWPOLYLINE
  5
241
100
AcDbEntity
  8
0
 62
7
100
AcDbPolyline
 90
1
 70
1
 10
611.952223
 20
265.088832
 30
0.0
  0
SPLINE
  5
242
100
AcDbEntity
  8
0
 62
7
100
AcDbSpline
 70
8
 71
3
 72
8
 73
4
 74
0
 40
0
 40
0
 40
0
 40
0
 40
1
 40
1
 40
1
 40
1
 10
614.041696
 20
78.971854
 30
0.0
 10
614.041695
 20
77.939803
 30
0.0
 10
613.205052
 20
77.103160
 30
0.0
 10
612.173002
 20
77.103160
 30
0.0
  0
SPLINE
  5
243
100
AcDbEntity
  8
0
 62
7
100
AcDbSpline
 70
8
 71
3
 72
8
 73
4
 74
0
 40
0
 40
0
 40
0
 40
0
 40
1
 40
1
 40
1
 40
1
 10
612.173002
 20
77.103160
 30
0.0
 10
611.677393
 20
77.103160
 30
0.0
 10
611.202083
 20
77.300039
 30
0.0
 10
610.851635
 20
77.650487
 30
0.0
  0
SPLINE
  5
244
100
AcDbEntity
  8
0
 62
7
100
AcDbSpline
 70
8
 71
3
 72
8
 73
4
 74
0
 40
0
 40
0
 40
0
 40
0
 40
1
 40
1
 40
1
 40
1
 10
610.851635
 20
77.650487
 30
0.0
 10
610.501186
 20
78.000935
 30
0.0
 10
610.304306
 20
78.476245
 30
0.0
 10
610.304305
 20
78.971854
 30
0.0
  0
SPLINE
  5
245
100
AcDbEntity
  8
0
 62
7
100
AcDbSpline
 70
8
 71
3
 72
8
 73
4
 74
0
 40
0
 40
0
 40
0
 40
0
 40
1
 40
1
 40
1
 40
1
 10
610.304305
 20
78.971854
 30
0.0
 10
610.304304
 20
79.467464
 30
0.0
 10
610.501184
 20
79.942776
 30
0.0
 10
610.851633
 20
80.293225
 30
0.0
  0
SPLINE
  5
246
100
AcDbEntity
  8
0
 62
7
100
AcDbSpline
 70
8
 71
3
 72
8
 73
4
 74
0
 40
0
 40
0
 40
0
 40
0
 40
1
 40
1
 40
1
 40
1
 10
610.851633
 20
80.293225
 30
0.0
 10
611.202081
 20
80.643674
 30
0.0
 10
611.677392
 20
80.840554
 30
0.0
 10
612.173002
 20
80.840554
 30
0.0
  0
SPLINE
  5
247
100
AcDbEntity
  8
0
 62
7
100
AcDbSpline
 70
8
 71
3
 72
8
 73
4
 74
0
 40
0
 40
0
 40
0
 40
0
 40
1
 40
1
 40
1
 40
1
 10
612.173002
 20
80.840554
 30
0.0
 10
612.668611
 20
80.840554
 30
0.0
 10
613.143921
 20
80.643673
 30
0.0
 10
613.494369
 20
80.293224
 30
0.0
  0
SPLINE
  5
248
100
AcDbEntity
  8
0
 62
7
100
AcDbSpline
 70
8
 71
3
 72
8
 73
4
 74
0
 40
0
 40
0
 40
0
 40
0
 40
1
 40
1
 40
1
 40
1
 10
613.494369
 20
80.293224
 30
0.0
 10
613.844817
 20
79.942775
 30
0.0
 10
614.041697
 20
79.467464
 30
0.0
 10
614.041696
 20
78.971854
 30
0.0
  0
LWPOLYLINE
  5
249
100
AcDbEntity
  8
0
 62
7
100
AcDbPolyline
 90
2
 70
0
 10
612.174687
 20
265.874424
 30
0.0
 10
612.167729
 20
265.874424
 30
0.0
  0
LWPOLYLINE
  5
24a
100
AcDbEntity
  8
0
 62
7
100
AcDbPolyline
 90
1
 70
1
 10
614.041696
 20
78.971854
 30
0.0
  0
LWPOLYLINE
  5
24b
100
AcDbEntity
  8
0
 62
7
100
AcDbPolyline
 90
1
 70
1
 10
612.063470
 20
78.244311
 30
0.0
  0
LWPOLYLINE
  5
24c
100
AcDbEntity
  8
0
 62
7
100
AcDbPolyline
 90
1
 70
1
 10
612.146893
 20
78.188693
 30
0.0
  0
LWPOLYLINE
  5
24d
100
AcDbEntity
  8
0
 62
7
100
AcDbPolyline
 90
1
 70
1
 10
612.119085
 20
78.244311
 30
0.0
  0
LWPOLYLINE
  5
24e
100
AcDbEntity
  8
0
 62
7
100
AcDbPolyline
 90
1
 70
1
 10
611.952223
 20
78.188693
 30
0.0
  0
SPLINE
  5
24f
100
AcDbEntity
  8
0
 62
7
100
AcDbSpline
 70
8
 71
3
 72
8
 73
4
 74
0
 40
0
 40
0
 40
0
 40
0
 40
1
 40
1
 40
1
 40
1
 10
877.841696
 20
265.871855
 30
0.0
 10
877.841695
 20
264.839804
 30
0.0
 10
877.005052
 20
264.003161
 30
0.0
 10
875.973002
 20
264.003161
 30
0.0
  0
SPLINE
  5
250
100
AcDbEntity
  8
0
 62
7
100
AcDbSpline
 70
8
 71
3
 72
8
 73
4
 74
0
 40
0
 40
0
 40
0
 40
0
 40
1
 40
1
 40
1
 40
1
 10
875.973002
 20
264.003161
 30
0.0
 10
875.477393
 20
264.003161
 30
0.0
 10
875.002083
 20
264.200040
 30
0.0
 10
874.651635
 20
264.550488
 30
0.0
  0
SPLINE
  5
251
100
AcDbEntity
  8
0
 62
7
100
AcDbSpline
 70
8
 71
3
 72
8
 73
4
 74
0
 40
0
 40
0
 40
0
 40
0
 40
1
 40
1
 40
1
 40
1
 10
874.651635
 20
264.550488
 30
0.0
 10
874.301186
 20
264.900936
 30
0.0
 10
874.104306
 20
265.376246
 30
0.0
 10
874.104305
 20
265.871855
 30
0.0
  0
SPLINE
  5
252
100
AcDbEntity
  8
0
 62
7
100
AcDbSpline
 70
8
 71
3
 72
8
 73
4
 74
0
 40
0
 40
0
 40
0
 40
0
 40
1
 40
1
 40
1
 40
1
 10
874.104305
 20
265.871855
 30
0.0
 10
874.104304
 20
266.367465
 30
0.0
 10
874.301184
 20
266.842777
 30
0.0
 10
874.651633
 20
267.193226
 30
0.0
  0
SPLINE
  5
253
100
AcDbEntity
  8
0
 62
7
100
AcDbSpline
 70
8
 71
3
 72
8
 73
4
 74
0
 40
0
 40
0
 40
0
 40
0
 40
1
 40
1
 40
1
 40
1
 10
874.651633
 20
267.193226
 30
0.0
 10
875.002081
 20
267.543675
 30
0.0
 10
875.477392
 20
267.740555
 30
0.0
 10
875.973002
 20
267.740554
 30
0.0
  0
SPLINE
  5
254
100
AcDbEntity
  8
0
 62
7
100
AcDbSpline
 70
8
 71
3
 72
8
 73
4
 74
0
 40
0
 40
0
 40
0
 40
0
 40
1
 40
1
 40
1
 40
1
 10
875.973002
 20
267.740554
 30
0.0
 10
876.468611
 20
267.740554
 30
0.0
 10
876.943921
 20
267.543674
 30
0.0
 10
877.294369
 20
267.193225
 30
0.0
  0
SPLINE
  5
255
100
AcDbEntity
  8
0
 62
7
100
AcDbSpline
 70
8
 71
3
 72
8
 73
4
 74
0
 40
0
 40
0
 40
0
 40
0
 40
1
 40
1
 40
1
 40
1
 10
877.294369
 20
267.193225
 30
0.0
 10
877.644817
 20
266.842776
 30
0.0
 10
877.841697
 20
266.367465
 30
0.0
 10
877.841696
 20
265.871855
 30
0.0
  0
LWPOLYLINE
  5
256
100
AcDbEntity
  8
0
 62
7
100
AcDbPolyline
 90
2
 70
0
 10
612.174687
 20
78.974286
 30
0.0
 10
612.167729
 20
78.974286
 30
0.0
  0
LWPOLYLINE
  5
257
100
AcDbEntity
  8
0
 62
7
100
AcDbPolyline
 90
1
 70
1
 10
877.841696
 20
265.871855
 30
0.0
  0
LWPOLYLINE
  5
258
100
AcDbEntity
  8
0
 62
7
100
AcDbPolyline
 90
1
 70
1
 10
875.863470
 20
265.144312
 30
0.0
  0
LWPOLYLINE
  5
259
100
AcDbEntity
  8
0
 62
7
100
AcDbPolyline
 90
1
 70
1
 10
875.946893
 20
265.088694
 30
0.0
  0
LWPOLYLINE
  5
25a
100
AcDbEntity
  8
0
 62
7
100
AcDbPolyline
 90
1
 70
1
 10
875.919085
 20
265.144312
 30
0.0
  0
LWPOLYLINE
  5
25b
100
AcDbEntity
  8
0
 62
7
100
AcDbPolyline
 90
1
 70
1
 10
875.752223
 20
265.088694
 30
0.0
  0
SPLINE
  5
25c
100
AcDbEntity
  8
0
 62
7
100
AcDbSpline
 70
8
 71
3
 72
8
 73
4
 74
0
 40
0
 40
0
 40
0
 40
0
 40
1
 40
1
 40
1
 40
1
 10
877.841696
 20
78.971717
 30
0.0
 10
877.841695
 20
77.939665
 30
0.0
 10
877.005052
 20
77.103023
 30
0.0
 10
875.973002
 20
77.103023
 30
0.0
  0
SPLINE
  5
25d
100
AcDbEntity
  8
0
 62
7
100
AcDbSpline
 70
8
 71
3
 72
8
 73
4
 74
0
 40
0
 40
0
 40
0
 40
0
 40
1
 40
1
 40
1
 40
1
 10
875.973002
 20
77.103023
 30
0.0
 10
875.477393
 20
77.103022
 30
0.0
 10
875.002083
 20
77.299901
 30
0.0
 10
874.651635
 20
77.650349
 30
0.0
  0
SPLINE
  5
25e
100
AcDbEntity
  8
0
 62
7
100
AcDbSpline
 70
8
 71
3
 72
8
 73
4
 74
0
 40
0
 40
0
 40
0
 40
0
 40
1
 40
1
 40
1
 40
1
 10
874.651635
 20
77.650349
 30
0.0
 10
874.301186
 20
78.000798
 30
0.0
 10
874.104306
 20
78.476108
 30
0.0
 10
874.104305
 20
78.971717
 30
0.0
  0
SPLINE
  5
25f
100
AcDbEntity
  8
0
 62
7
100
AcDbSpline
 70
8
 71
3
 72
8
 73
4
 74
0
 40
0
 40
0
 40
0
 40
0
 40
1
 40
1
 40
1
 40
1
 10
874.104305
 20
78.971717
 30
0.0
 10
874.104304
 20
79.467327
 30
0.0
 10
874.301184
 20
79.942638
 30
0.0
 10
874.651633
 20
80.293087
 30
0.0
  0
SPLINE
  5
260
100
AcDbEntity
  8
0
 62
7
100
AcDbSpline
 70
8
 71
3
 72
8
 73
4
 74
0
 40
0
 40
0
 40
0
 40
0
 40
1
 40
1
 40
1
 40
1
 10
874.651633
 20
80.293087
 30
0.0
 10
875.002081
 20
80.643537
 30
0.0
 10
875.477392
 20
80.840417
 30
0.0
 10
875.973002
 20
80.840416
 30
0.0
  0
SPLINE
  5
261
100
AcDbEntity
  8
0
 62
7
100
AcDbSpline
 70
8
 71
3
 72
8
 73
4
 74
0
 40
0
 40
0
 40
0
 40
0
 40
1
 40
1
 40
1
 40
1
 10
875.973002
 20
80.840416
 30
0.0
 10
876.468611
 20
80.840416
 30
0.0
 10
876.943921
 20
80.643536
 30
0.0
 10
877.294369
 20
80.293086
 30
0.0
  0
SPLINE
  5
262
100
AcDbEntity
  8
0
 62
7
100
AcDbSpline
 70
8
 71
3
 72
8
 73
4
 74
0
 40
0
 40
0
 40
0
 40
0
 40
1
 40
1
 40
1
 40
1
 10
877.294369
 20
80.293086
 30
0.0
 10
877.644817
 20
79.942637
 30
0.0
 10
877.841697
 20
79.467326
 30
0.0
 10
877.841696
 20
78.971717
 30
0.0
  0
LWPOLYLINE
  5
263
100
AcDbEntity
  8
0
 62
7
100
AcDbPolyline
 90
2
 70
0
 10
875.974687
 20
265.874287
 30
0.0
 10
875.967729
 20
265.874287
 30
0.0
  0
LWPOLYLINE
  5
264
100
AcDbEntity
  8
0
 62
7
100
AcDbPolyline
 90
1
 70
1
 10
877.841696
 20
78.971717
 30
0.0
  0
LWPOLYLINE
  5
265
100
AcDbEntity
  8
0
 62
7
100
AcDbPolyline
 90
1
 70
1
 10
875.863470
 20
78.244173
 30
0.0
  0
LWPOLYLINE
  5
266
100
AcDbEntity
  8
0
 62
7
100
AcDbPolyline
 90
1
 70
1
 10
875.946893
 20
78.188555
 30
0.0
  0
LWPOLYLINE
  5
267
100
AcDbEntity
  8
0
 62
7
100
AcDbPolyline
 90
1
 70
1
 10
875.919085
 20
78.244173
 30
0.0
  0
LWPOLYLINE
  5
268
100
AcDbEntity
  8
0
 62
7
100
AcDbPolyline
 90
1
 70
1
 10
875.752223
 20
78.188555
 30
0.0
  0
SPLINE
  5
269
100
AcDbEntity
  8
0
 62
7
100
AcDbSpline
 70
8
 71
3
 72
8
 73
4
 74
0
 40
0
 40
0
 40
0
 40
0
 40
1
 40
1
 40
1
 40
1
 10
102.828701
 20
265.871855
 30
0.0
 10
102.828700
 20
264.839804
 30
0.0
 10
101.992058
 20
264.003161
 30
0.0
 10
100.960008
 20
264.003161
 30
0.0
  0
SPLINE
  5
26a
100
AcDbEntity
  8
0
 62
7
100
AcDbSpline
 70
8
 71
3
 72
8
 73
4
 74
0
 40
0
 40
0
 40
0
 40
0
 40
1
 40
1
 40
1
 40
1
 10
100.960008
 20
264.003161
 30
0.0
 10
100.464399
 20
264.003161
 30
0.0
 10
99.989089
 20
264.200040
 30
0.0
 10
99.638640
 20
264.550488
 30
0.0
  0
SPLINE
  5
26b
100
AcDbEntity
  8
0
 62
7
100
AcDbSpline
 70
8
 71
3
 72
8
 73
4
 74
0
 40
0
 40
0
 40
0
 40
0
 40
1
 40
1
 40
1
 40
1
 10
99.638640
 20
264.550488
 30
0.0
 10
99.288192
 20
264.900936
 30
0.0
 10
99.091312
 20
265.376246
 30
0.0
 10
99.091311
 20
265.871855
 30
0.0
  0
SPLINE
  5
26c
100
AcDbEntity
  8
0
 62
7
100
AcDbSpline
 70
8
 71
3
 72
8
 73
4
 74
0
 40
0
 40
0
 40
0
 40
0
 40
1
 40
1
 40
1
 40
1
 10
99.091311
 20
265.871855
 30
0.0
 10
99.091310
 20
266.367465
 30
0.0
 10
99.288190
 20
266.842777
 30
0.0
 10
99.638639
 20
267.193226
 30
0.0
  0
SPLINE
  5
26d
100
AcDbEntity
  8
0
 62
7
100
AcDbSpline
 70
8
 71
3
 72
8
 73
4
 74
0
 40
0
 40
0
 40
0
 40
0
 40
1
 40
1
 40
1
 40
1
 10
99.638639
 20
267.193226
 30
0.0
 10
99.989087
 20
267.543675
 30
0.0
 10
100.464398
 20
267.740555
 30
0.0
 10
100.960008
 20
267.740554
 30
0.0
  0
SPLINE
  5
26e
100
AcDbEntity
  8
0
 62
7
100
AcDbSpline
 70
8
 71
3
 72
8
 73
4
 74
0
 40
0
 40
0
 40
0
 40
0
 40
1
 40
1
 40
1
 40
1
 10
100.960008
 20
267.740554
 30
0.0
 10
101.455617
 20
267.740555
 30
0.0
 10
101.930927
 20
267.543674
 30
0.0
 10
102.281375
 20
267.193225
 30
0.0
  0
SPLINE
  5
26f
100
AcDbEntity
  8
0
 62
7
100
AcDbSpline
 70
8
 71
3
 72
8
 73
4
 74
0
 40
0
 40
0
 40
0
 40
0
 40
1
 40
1
 40
1
 40
1
 10
102.281375
 20
267.193225
 30
0.0
 10
102.631823
 20
266.842776
 30
0.0
 10
102.828702
 20
266.367465
 30
0.0
 10
102.828701
 20
265.871855
 30
0.0
  0
LWPOLYLINE
  5
270
100
AcDbEntity
  8
0
 62
7
100
AcDbPolyline
 90
2
 70
0
 10
875.974687
 20
78.974148
 30
0.0
 10
875.967729
 20
78.974148
 30
0.0
  0
LWPOLYLINE
  5
271
100
AcDbEntity
  8
0
 62
7
100
AcDbPolyline
 90
1
 70
1
 10
102.828701
 20
265.871855
 30
0.0
  0
LWPOLYLINE
  5
272
100
AcDbEntity
  8
0
 62
7
100
AcDbPolyline
 90
1
 70
1
 10
100.850475
 20
265.144312
 30
0.0
  0
LWPOLYLINE
  5
273
100
AcDbEntity
  8
0
 62
7
100
AcDbPolyline
 90
1
 70
1
 10
100.933898
 20
265.088694
 30
0.0
  0
LWPOLYLINE
  5
274
100
AcDbEntity
  8
0
 62
7
100
AcDbPolyline
 90
1
 70
1
 10
100.906091
 20
265.144312
 30
0.0
  0
LWPOLYLINE
  5
275
100
AcDbEntity
  8
0
 62
7
100
AcDbPolyline
 90
1
 70
1
 10
100.739229
 20
265.088694
 30
0.0
  0
SPLINE
  5
276
100
AcDbEntity
  8
0
 62
7
100
AcDbSpline
 70
8
 71
3
 72
8
 73
4
 74
0
 40
0
 40
0
 40
0
 40
0
 40
1
 40
1
 40
1
 40
1
 10
102.828701
 20
78.971717
 30
0.0
 10
102.828700
 20
77.939665
 30
0.0
 10
101.992058
 20
77.103023
 30
0.0
 10
100.960008
 20
77.103023
 30
0.0
  0
SPLINE
  5
277
100
AcDbEntity
  8
0
 62
7
100
AcDbSpline
 70
8
 71
3
 72
8
 73
4
 74
0
 40
0
 40
0
 40
0
 40
0
 40
1
 40
1
 40
1
 40
1
 10
100.960008
 20
77.103023
 30
0.0
 10
100.464399
 20
77.103022
 30
0.0
 10
99.989089
 20
77.299901
 30
0.0
 10
99.638640
 20
77.650350
 30
0.0
  0
SPLINE
  5
278
100
AcDbEntity
  8
0
 62
7
100
AcDbSpline
 70
8
 71
3
 72
8
 73
4
 74
0
 40
0
 40
0
 40
0
 40
0
 40
1
 40
1
 40
1
 40
1
 10
99.638640
 20
77.650350
 30
0.0
 10
99.288192
 20
78.000798
 30
0.0
 10
99.091312
 20
78.476108
 30
0.0
 10
99.091311
 20
78.971717
 30
0.0
  0
SPLINE
  5
279
100
AcDbEntity
  8
0
 62
7
100
AcDbSpline
 70
8
 71
3
 72
8
 73
4
 74
0
 40
0
 40
0
 40
0
 40
0
 40
1
 40
1
 40
1
 40
1
 10
99.091311
 20
78.971717
 30
0.0
 10
99.091310
 20
79.467327
 30
0.0
 10
99.288190
 20
79.942638
 30
0.0
 10
99.638639
 20
80.293087
 30
0.0
  0
SPLINE
  5
27a
100
AcDbEntity
  8
0
 62
7
100
AcDbSpline
 70
8
 71
3
 72
8
 73
4
 74
0
 40
0
 40
0
 40
0
 40
0
 40
1
 40
1
 40
1
 40
1
 10
99.638639
 20
80.293087
 30
0.0
 10
99.989087
 20
80.643537
 30
0.0
 10
100.464398
 20
80.840417
 30
0.0
 10
100.960008
 20
80.840416
 30
0.0
  0
SPLINE
  5
27b
100
AcDbEntity
  8
0
 62
7
100
AcDbSpline
 70
8
 71
3
 72
8
 73
4
 74
0
 40
0
 40
0
 40
0
 40
0
 40
1
 40
1
 40
1
 40
1
 10
100.960008
 20
80.840416
 30
0.0
 10
101.455617
 20
80.840416
 30
0.0
 10
101.930927
 20
80.643536
 30
0.0
 10
102.281375
 20
80.293087
 30
0.0
  0
SPLINE
  5
27c
100
AcDbEntity
  8
0
 62
7
100
AcDbSpline
 70
8
 71
3
 72
8
 73
4
 74
0
 40
0
 40
0
 40
0
 40
0
 40
1
 40
1
 40
1
 40
1
 10
102.281375
 20
80.293087
 30
0.0
 10
102.631823
 20
79.942637
 30
0.0
 10
102.828702
 20
79.467326
 30
0.0
 10
102.828701
 20
78.971717
 30
0.0
  0
LWPOLYLINE
  5
27d
100
AcDbEntity
  8
0
 62
7
100
AcDbPolyline
 90
2
 70
0
 10
100.961693
 20
265.874287
 30
0.0
 10
100.954734
 20
265.874287
 30
0.0
  0
LWPOLYLINE
  5
27e
100
AcDbEntity
  8
0
 62
7
100
AcDbPolyline
 90
1
 70
1
 10
102.828701
 20
78.971717
 30
0.0
  0
LWPOLYLINE
  5
27f
100
AcDbEntity
  8
0
 62
7
100
AcDbPolyline
 90
1
 70
1
 10
100.850475
 20
78.244173
 30
0.0
  0
LWPOLYLINE
  5
280
100
AcDbEntity
  8
0
 62
7
100
AcDbPolyline
 90
1
 70
1
 10
100.933898
 20
78.188555
 30
0.0
  0
LWPOLYLINE
  5
281
100
AcDbEntity
  8
0
 62
7
100
AcDbPolyline
 90
1
 70
1
 10
100.906091
 20
78.244173
 30
0.0
  0
LWPOLYLINE
  5
282
100
AcDbEntity
  8
0
 62
7
100
AcDbPolyline
 90
1
 70
1
 10
100.739229
 20
78.188555
 30
0.0
  0
SPLINE
  5
283
100
AcDbEntity
  8
0
 62
7
100
AcDbSpline
 70
8
 71
3
 72
8
 73
4
 74
0
 40
0
 40
0
 40
0
 40
0
 40
1
 40
1
 40
1
 40
1
 10
366.628701
 20
265.871718
 30
0.0
 10
366.628700
 20
264.839666
 30
0.0
 10
365.792058
 20
264.003024
 30
0.0
 10
364.760008
 20
264.003024
 30
0.0
  0
SPLINE
  5
284
100
AcDbEntity
  8
0
 62
7
100
AcDbSpline
 70
8
 71
3
 72
8
 73
4
 74
0
 40
0
 40
0
 40
0
 40
0
 40
1
 40
1
 40
1
 40
1
 10
364.760008
 20
264.003024
 30
0.0
 10
364.264399
 20
264.003023
 30
0.0
 10
363.789089
 20
264.199902
 30
0.0
 10
363.438640
 20
264.550350
 30
0.0
  0
SPLINE
  5
285
100
AcDbEntity
  8
0
 62
7
100
AcDbSpline
 70
8
 71
3
 72
8
 73
4
 74
0
 40
0
 40
0
 40
0
 40
0
 40
1
 40
1
 40
1
 40
1
 10
363.438640
 20
264.550350
 30
0.0
 10
363.088192
 20
264.900798
 30
0.0
 10
362.891312
 20
265.376108
 30
0.0
 10
362.891311
 20
265.871718
 30
0.0
  0
SPLINE
  5
286
100
AcDbEntity
  8
0
 62
7
100
AcDbSpline
 70
8
 71
3
 72
8
 73
4
 74
0
 40
0
 40
0
 40
0
 40
0
 40
1
 40
1
 40
1
 40
1
 10
362.891311
 20
265.871718
 30
0.0
 10
362.891310
 20
266.367328
 30
0.0
 10
363.088190
 20
266.842639
 30
0.0
 10
363.438639
 20
267.193088
 30
0.0
  0
SPLINE
  5
287
100
AcDbEntity
  8
0
 62
7
100
AcDbSpline
 70
8
 71
3
 72
8
 73
4
 74
0
 40
0
 40
0
 40
0
 40
0
 40
1
 40
1
 40
1
 40
1
 10
363.438639
 20
267.193088
 30
0.0
 10
363.789087
 20
267.543538
 30
0.0
 10
364.264398
 20
267.740418
 30
0.0
 10
364.760008
 20
267.740417
 30
0.0
  0
SPLINE
  5
288
100
AcDbEntity
  8
0
 62
7
100
AcDbSpline
 70
8
 71
3
 72
8
 73
4
 74
0
 40
0
 40
0
 40
0
 40
0
 40
1
 40
1
 40
1
 40
1
 10
364.760008
 20
267.740417
 30
0.0
 10
365.255617
 20
267.740417
 30
0.0
 10
365.730927
 20
267.543537
 30
0.0
 10
366.081375
 20
267.193087
 30
0.0
  0
SPLINE
  5
289
100
AcDbEntity
  8
0
 62
7
100
AcDbSpline
 70
8
 71
3
 72
8
 73
4
 74
0
 40
0
 40
0
 40
0
 40
0
 40
1
 40
1
 40
1
 40
1
 10
366.081375
 20
267.193087
 30
0.0
 10
366.431823
 20
266.842638
 30
0.0
 10
366.628702
 20
266.367327
 30
0.0
 10
366.628701
 20
265.871718
 30
0.0
  0
LWPOLYLINE
  5
28a
100
AcDbEntity
  8
0
 62
7
100
AcDbPolyline
 90
2
 70
0
 10
100.961693
 20
78.974148
 30
0.0
 10
100.954734
 20
78.974148
 30
0.0
  0
LWPOLYLINE
  5
28b
100
AcDbEntity
  8
0
 62
7
100
AcDbPolyline
 90
1
 70
1
 10
366.628701
 20
265.871718
 30
0.0
  0
LWPOLYLINE
  5
28c
100
AcDbEntity
  8
0
 62
7
100
AcDbPolyline
 90
1
 70
1
 10
364.650475
 20
265.144174
 30
0.0
  0
LWPOLYLINE
  5
28d
100
AcDbEntity
  8
0
 62
7
100
AcDbPolyline
 90
1
 70
1
 10
364.733898
 20
265.088556
 30
0.0
  0
LWPOLYLINE
  5
28e
100
AcDbEntity
  8
0
 62
7
100
AcDbPolyline
 90
1
 70
1
 10
364.706091
 20
265.144174
 30
0.0
  0
LWPOLYLINE
  5
28f
100
AcDbEntity
  8
0
 62
7
100
AcDbPolyline
 90
1
 70
1
 10
364.539229
 20
265.088556
 30
0.0
  0
SPLINE
  5
290
100
AcDbEntity
  8
0
 62
7
100
AcDbSpline
 70
8
 71
3
 72
8
 73
4
 74
0
 40
0
 40
0
 40
0
 40
0
 40
1
 40
1
 40
1
 40
1
 10
366.628701
 20
78.971579
 30
0.0
 10
366.628700
 20
77.939528
 30
0.0
 10
365.792058
 20
77.102885
 30
0.0
 10
364.760008
 20
77.102885
 30
0.0
  0
SPLINE
  5
291
100
AcDbEntity
  8
0
 62
7
100
AcDbSpline
 70
8
 71
3
 72
8
 73
4
 74
0
 40
0
 40
0
 40
0
 40
0
 40
1
 40
1
 40
1
 40
1
 10
364.760008
 20
77.102885
 30
0.0
 10
364.264399
 20
77.102884
 30
0.0
 10
363.789089
 20
77.299764
 30
0.0
 10
363.438640
 20
77.650212
 30
0.0
  0
SPLINE
  5
292
100
AcDbEntity
  8
0
 62
7
100
AcDbSpline
 70
8
 71
3
 72
8
 73
4
 74
0
 40
0
 40
0
 40
0
 40
0
 40
1
 40
1
 40
1
 40
1
 10
363.438640
 20
77.650212
 30
0.0
 10
363.088192
 20
78.000660
 30
0.0
 10
362.891312
 20
78.475970
 30
0.0
 10
362.891311
 20
78.971579
 30
0.0
  0
SPLINE
  5
293
100
AcDbEntity
  8
0
 62
7
100
AcDbSpline
 70
8
 71
3
 72
8
 73
4
 74
0
 40
0
 40
0
 40
0
 40
0
 40
1
 40
1
 40
1
 40
1
 10
362.891311
 20
78.971579
 30
0.0
 10
362.891310
 20
79.467189
 30
0.0
 10
363.088190
 20
79.942501
 30
0.0
 10
363.438639
 20
80.292950
 30
0.0
  0
SPLINE
  5
294
100
AcDbEntity
  8
0
 62
7
100
AcDbSpline
 70
8
 71
3
 72
8
 73
4
 74
0
 40
0
 40
0
 40
0
 40
0
 40
1
 40
1
 40
1
 40
1
 10
363.438639
 20
80.292950
 30
0.0
 10
363.789087
 20
80.643399
 30
0.0
 10
364.264398
 20
80.840279
 30
0.0
 10
364.760008
 20
80.840278
 30
0.0
  0
SPLINE
  5
295
100
AcDbEntity
  8
0
 62
7
100
AcDbSpline
 70
8
 71
3
 72
8
 73
4
 74
0
 40
0
 40
0
 40
0
 40
0
 40
1
 40
1
 40
1
 40
1
 10
364.760008
 20
80.840278
 30
0.0
 10
365.255617
 20
80.840278
 30
0.0
 10
365.730927
 20
80.643398
 30
0.0
 10
366.081375
 20
80.292949
 30
0.0
  0
SPLINE
  5
296
100
AcDbEntity
  8
0
 62
7
100
AcDbSpline
 70
8
 71
3
 72
8
 73
4
 74
0
 40
0
 40
0
 40
0
 40
0
 40
1
 40
1
 40
1
 40
1
 10
366.081375
 20
80.292949
 30
0.0
 10
366.431823
 20
79.942500
 30
0.0
 10
366.628702
 20
79.467189
 30
0.0
 10
366.628701
 20
78.971579
 30
0.0
  0
LWPOLYLINE
  5
297
100
AcDbEntity
  8
0
 62
7
100
AcDbPolyline
 90
2
 70
0
 10
364.761693
 20
265.874149
 30
0.0
 10
364.754734
 20
265.874149
 30
0.0
  0
LWPOLYLINE
  5
298
100
AcDbEntity
  8
0
 62
7
100
AcDbPolyline
 90
1
 70
1
 10
366.628701
 20
78.971579
 30
0.0
  0
LWPOLYLINE
  5
299
100
AcDbEntity
  8
0
 62
7
100
AcDbPolyline
 90
1
 70
1
 10
364.650475
 20
78.244036
 30
0.0
  0
LWPOLYLINE
  5
29a
100
AcDbEntity
  8
0
 62
7
100
AcDbPolyline
 90
1
 70
1
 10
364.733898
 20
78.188418
 30
0.0
  0
LWPOLYLINE
  5
29b
100
AcDbEntity
  8
0
 62
7
100
AcDbPolyline
 90
1
 70
1
 10
364.706091
 20
78.244036
 30
0.0
  0
LWPOLYLINE
  5
29c
100
AcDbEntity
  8
0
 62
7
100
AcDbPolyline
 90
1
 70
1
 10
364.539229
 20
78.188418
 30
0.0
  0
LWPOLYLINE
  5
29d
100
AcDbEntity
  8
0
 62
7
100
AcDbPolyline
 90
2
 70
0
 10
364.761693
 20
78.974011
 30
0.0
 10
364.754734
 20
78.974011
 30
0.0
  0
SPLINE
  5
29e
100
AcDbEntity
  8
0
 62
7
100
AcDbSpline
 70
8
 71
3
 72
8
 73
4
 74
0
 40
0
 40
0
 40
0
 40
0
 40
1
 40
1
 40
1
 40
1
 10
491.341209
 20
266.742074
 30
0.0
 10
491.341209
 20
252.540409
 30
0.0
 10
483.764711
 20
239.417529
 30
0.0
 10
471.465708
 20
232.316696
 30
0.0
  0
SPLINE
  5
29f
100
AcDbEntity
  8
0
 62
7
100
AcDbSpline
 70
8
 71
3
 72
8
 73
4
 74
0
 40
0
 40
0
 40
0
 40
0
 40
1
 40
1
 40
1
 40
1
 10
471.465708
 20
232.316696
 30
0.0
 10
459.166705
 20
225.215863
 30
0.0
 10
444.013708
 20
225.215863
 30
0.0
 10
431.714705
 20
232.316696
 30
0.0
  0
SPLINE
  5
2a0
100
AcDbEntity
  8
0
 62
7
100
AcDbSpline
 70
8
 71
3
 72
8
 73
4
 74
0
 40
0
 40
0
 40
0
 40
0
 40
1
 40
1
 40
1
 40
1
 10
431.714705
 20
232.316696
 30
0.0
 10
419.415702
 20
239.417529
 30
0.0
 10
411.839204
 20
252.540409
 30
0.0
 10
411.839204
 20
266.742074
 30
0.0
  0
SPLINE
  5
2a1
100
AcDbEntity
  8
0
 62
7
100
AcDbSpline
 70
8
 71
3
 72
8
 73
4
 74
0
 40
0
 40
0
 40
0
 40
0
 40
1
 40
1
 40
1
 40
1
 10
411.839204
 20
266.742074
 30
0.0
 10
411.839204
 20
280.943739
 30
0.0
 10
419.415702
 20
294.066619
 30
0.0
 10
431.714705
 20
301.167452
 30
0.0
  0
SPLINE
  5
2a2
100
AcDbEntity
  8
0
 62
7
100
AcDbSpline
 70
8
 71
3
 72
8
 73
4
 74
0
 40
0
 40
0
 40
0
 40
0
 40
1
 40
1
 40
1
 40
1
 10
431.714705
 20
301.167452
 30
0.0
 10
444.013708
 20
308.268285
 30
0.0
 10
459.166705
 20
308.268285
 30
0.0
 10
471.465708
 20
301.167452
 30
0.0
  0
SPLINE
  5
2a3
100
AcDbEntity
  8
0
 62
7
100
AcDbSpline
 70
8
 71
3
 72
8
 73
4
 74
0
 40
0
 40
0
 40
0
 40
0
 40
1
 40
1
 40
1
 40
1
 10
471.465708
 20
301.167452
 30
0.0
 10
483.764711
 20
294.066619
 30
0.0
 10
491.341209
 20
280.943739
 30
0.0
 10
491.341209
 20
266.742074
 30
0.0
  0
LWPOLYLINE
  5
2a4
100
AcDbEntity
  8
0
 62
7
100
AcDbPolyline
 90
4
 70
1
 10
405.286766
 20
220.702124
 30
0.0
 10
565.775499
 20
220.702124
 30
0.0
 10
565.775499
 20
108.741387
 30
0.0
 10
405.286766
 20
108.741387
 30
0.0
  0
SPLINE
  5
2a5
100
AcDbEntity
  8
0
 62
7
100
AcDbSpline
 70
8
 71
3
 72
8
 73
4
 74
0
 40
0
 40
0
 40
0
 40
0
 40
1
 40
1
 40
1
 40
1
 10
421.997229
 20
298.239627
 30
0.0
 10
421.997229
 20
297.559393
 30
0.0
 10
421.634329
 20
296.930832
 30
0.0
 10
421.045229
 20
296.590715
 30
0.0
  0
SPLINE
  5
2a6
100
AcDbEntity
  8
0
 62
7
100
AcDbSpline
 70
8
 71
3
 72
8
 73
4
 74
0
 40
0
 40
0
 40
0
 40
0
 40
1
 40
1
 40
1
 40
1
 10
421.045229
 20
296.590715
 30
0.0
 10
420.456129
 20
296.250598
 30
0.0
 10
419.730329
 20
296.250598
 30
0.0
 10
419.141229
 20
296.590715
 30
0.0
  0
SPLINE
  5
2a7
100
AcDbEntity
  8
0
 62
7
100
AcDbSpline
 70
8
 71
3
 72
8
 73
4
 74
0
 40
0
 40
0
 40
0
 40
0
 40
1
 40
1
 40
1
 40
1
 10
419.141229
 20
296.590715
 30
0.0
 10
418.552129
 20
296.930832
 30
0.0
 10
418.189229
 20
297.559393
 30
0.0
 10
418.189229
 20
298.239627
 30
0.0
  0
SPLINE
  5
2a8
100
AcDbEntity
  8
0
 62
7
100
AcDbSpline
 70
8
 71
3
 72
8
 73
4
 74
0
 40
0
 40
0
 40
0
 40
0
 40
1
 40
1
 40
1
 40
1
 10
418.189229
 20
298.239627
 30
0.0
 10
418.189229
 20
298.919861
 30
0.0
 10
418.552129
 20
299.548423
 30
0.0
 10
419.141229
 20
299.888539
 30
0.0
  0
SPLINE
  5
2a9
100
AcDbEntity
  8
0
 62
7
100
AcDbSpline
 70
8
 71
3
 72
8
 73
4
 74
0
 40
0
 40
0
 40
0
 40
0
 40
1
 40
1
 40
1
 40
1
 10
419.141229
 20
299.888539
 30
0.0
 10
419.730329
 20
300.228656
 30
0.0
 10
420.456129
 20
300.228656
 30
0.0
 10
421.045229
 20
299.888539
 30
0.0
  0
SPLINE
  5
2aa
100
AcDbEntity
  8
0
 62
7
100
AcDbSpline
 70
8
 71
3
 72
8
 73
4
 74
0
 40
0
 40
0
 40
0
 40
0
 40
1
 40
1
 40
1
 40
1
 10
421.045229
 20
299.888539
 30
0.0
 10
421.634329
 20
299.548423
 30
0.0
 10
421.997229
 20
298.919861
 30
0.0
 10
421.997229
 20
298.239627
 30
0.0
  0
LWPOLYLINE
  5
2ab
100
AcDbEntity
  8
0
 62
7
100
AcDbPolyline
 90
1
 70
1
 10
491.341209
 20
266.742074
 30
0.0
  0
SPLINE
  5
2ac
100
AcDbEntity
  8
0
 62
7
100
AcDbSpline
 70
8
 71
3
 72
8
 73
4
 74
0
 40
0
 40
0
 40
0
 40
0
 40
1
 40
1
 40
1
 40
1
 10
484.989227
 20
298.238627
 30
0.0
 10
484.989227
 20
297.187077
 30
0.0
 10
484.136777
 20
296.334627
 30
0.0
 10
483.085227
 20
296.334627
 30
0.0
  0
SPLINE
  5
2ad
100
AcDbEntity
  8
0
 62
7
100
AcDbSpline
 70
8
 71
3
 72
8
 73
4
 74
0
 40
0
 40
0
 40
0
 40
0
 40
1
 40
1
 40
1
 40
1
 10
483.085227
 20
296.334627
 30
0.0
 10
482.033677
 20
296.334627
 30
0.0
 10
481.181227
 20
297.187077
 30
0.0
 10
481.181227
 20
298.238627
 30
0.0
  0
SPLINE
  5
2ae
100
AcDbEntity
  8
0
 62
7
100
AcDbSpline
 70
8
 71
3
 72
8
 73
4
 74
0
 40
0
 40
0
 40
0
 40
0
 40
1
 40
1
 40
1
 40
1
 10
481.181227
 20
298.238627
 30
0.0
 10
481.181227
 20
299.290177
 30
0.0
 10
482.033677
 20
300.142627
 30
0.0
 10
483.085227
 20
300.142627
 30
0.0
  0
SPLINE
  5
2af
100
AcDbEntity
  8
0
 62
7
100
AcDbSpline
 70
8
 71
3
 72
8
 73
4
 74
0
 40
0
 40
0
 40
0
 40
0
 40
1
 40
1
 40
1
 40
1
 10
483.085227
 20
300.142627
 30
0.0
 10
484.136777
 20
300.142627
 30
0.0
 10
484.989227
 20
299.290177
 30
0.0
 10
484.989227
 20
298.238627
 30
0.0
  0
LWPOLYLINE
  5
2b0
100
AcDbEntity
  8
0
 62
7
100
AcDbPolyline
 90
1
 70
1
 10
421.997229
 20
298.239627
 30
0.0
  0
SPLINE
  5
2b1
100
AcDbEntity
  8
0
 62
7
100
AcDbSpline
 70
8
 71
3
 72
8
 73
4
 74
0
 40
0
 40
0
 40
0
 40
0
 40
1
 40
1
 40
1
 40
1
 10
421.997229
 20
235.246630
 30
0.0
 10
421.997229
 20
234.566396
 30
0.0
 10
421.634329
 20
233.937834
 30
0.0
 10
421.045229
 20
233.597717
 30
0.0
  0
SPLINE
  5
2b2
100
AcDbEntity
  8
0
 62
7
100
AcDbSpline
 70
8
 71
3
 72
8
 73
4
 74
0
 40
0
 40
0
 40
0
 40
0
 40
1
 40
1
 40
1
 40
1
 10
421.045229
 20
233.597717
 30
0.0
 10
420.456129
 20
233.257600
 30
0.0
 10
419.730329
 20
233.257600
 30
0.0
 10
419.141229
 20
233.597717
 30
0.0
  0
SPLINE
  5
2b3
100
AcDbEntity
  8
0
 62
7
100
AcDbSpline
 70
8
 71
3
 72
8
 73
4
 74
0
 40
0
 40
0
 40
0
 40
0
 40
1
 40
1
 40
1
 40
1
 10
419.141229
 20
233.597717
 30
0.0
 10
418.552129
 20
233.937834
 30
0.0
 10
418.189229
 20
234.566396
 30
0.0
 10
418.189229
 20
235.246630
 30
0.0
  0
SPLINE
  5
2b4
100
AcDbEntity
  8
0
 62
7
100
AcDbSpline
 70
8
 71
3
 72
8
 73
4
 74
0
 40
0
 40
0
 40
0
 40
0
 40
1
 40
1
 40
1
 40
1
 10
418.189229
 20
235.246630
 30
0.0
 10
418.189229
 20
235.926863
 30
0.0
 10
418.552129
 20
236.555425
 30
0.0
 10
419.141229
 20
236.895542
 30
0.0
  0
SPLINE
  5
2b5
100
AcDbEntity
  8
0
 62
7
100
AcDbSpline
 70
8
 71
3
 72
8
 73
4
 74
0
 40
0
 40
0
 40
0
 40
0
 40
1
 40
1
 40
1
 40
1
 10
419.141229
 20
236.895542
 30
0.0
 10
419.730329
 20
237.235659
 30
0.0
 10
420.456129
 20
237.235659
 30
0.0
 10
421.045229
 20
236.895542
 30
0.0
  0
SPLINE
  5
2b6
100
AcDbEntity
  8
0
 62
7
100
AcDbSpline
 70
8
 71
3
 72
8
 73
4
 74
0
 40
0
 40
0
 40
0
 40
0
 40
1
 40
1
 40
1
 40
1
 10
421.045229
 20
236.895542
 30
0.0
 10
421.634329
 20
236.555425
 30
0.0
 10
421.997229
 20
235.926863
 30
0.0
 10
421.997229
 20
235.246630
 30
0.0
  0
LWPOLYLINE
  5
2b7
100
AcDbEntity
  8
0
 62
7
100
AcDbPolyline
 90
1
 70
1
 10
484.989227
 20
298.238627
 30
0.0
  0
SPLINE
  5
2b8
100
AcDbEntity
  8
0
 62
7
100
AcDbSpline
 70
8
 71
3
 72
8
 73
4
 74
0
 40
0
 40
0
 40
0
 40
0
 40
1
 40
1
 40
1
 40
1
 10
561.974995
 20
254.739190
 30
0.0
 10
561.974995
 20
244.530326
 30
0.0
 10
556.528630
 20
235.096946
 30
0.0
 10
547.687495
 20
229.992514
 30
0.0
  0
SPLINE
  5
2b9
100
AcDbEntity
  8
0
 62
7
100
AcDbSpline
 70
8
 71
3
 72
8
 73
4
 74
0
 40
0
 40
0
 40
0
 40
0
 40
1
 40
1
 40
1
 40
1
 10
547.687495
 20
229.992514
 30
0.0
 10
538.846359
 20
224.888082
 30
0.0
 10
527.953630
 20
224.888082
 30
0.0
 10
519.112495
 20
229.992514
 30
0.0
  0
SPLINE
  5
2ba
100
AcDbEntity
  8
0
 62
7
100
AcDbSpline
 70
8
 71
3
 72
8
 73
4
 74
0
 40
0
 40
0
 40
0
 40
0
 40
1
 40
1
 40
1
 40
1
 10
519.112495
 20
229.992514
 30
0.0
 10
510.271359
 20
235.096946
 30
0.0
 10
504.824995
 20
244.530326
 30
0.0
 10
504.824995
 20
254.739190
 30
0.0
  0
SPLINE
  5
2bb
100
AcDbEntity
  8
0
 62
7
100
AcDbSpline
 70
8
 71
3
 72
8
 73
4
 74
0
 40
0
 40
0
 40
0
 40
0
 40
1
 40
1
 40
1
 40
1
 10
504.824995
 20
254.739190
 30
0.0
 10
504.824995
 20
264.948055
 30
0.0
 10
510.271359
 20
274.381434
 30
0.0
 10
519.112495
 20
279.485866
 30
0.0
  0
SPLINE
  5
2bc
100
AcDbEntity
  8
0
 62
7
100
AcDbSpline
 70
8
 71
3
 72
8
 73
4
 74
0
 40
0
 40
0
 40
0
 40
0
 40
1
 40
1
 40
1
 40
1
 10
519.112495
 20
279.485866
 30
0.0
 10
527.953630
 20
284.590298
 30
0.0
 10
538.846359
 20
284.590298
 30
0.0
 10
547.687495
 20
279.485866
 30
0.0
  0
SPLINE
  5
2bd
100
AcDbEntity
  8
0
 62
7
100
AcDbSpline
 70
8
 71
3
 72
8
 73
4
 74
0
 40
0
 40
0
 40
0
 40
0
 40
1
 40
1
 40
1
 40
1
 10
547.687495
 20
279.485866
 30
0.0
 10
556.528630
 20
274.381434
 30
0.0
 10
561.974995
 20
264.948055
 30
0.0
 10
561.974995
 20
254.739190
 30
0.0
  0
LWPOLYLINE
  5
2be
100
AcDbEntity
  8
0
 62
7
100
AcDbPolyline
 90
1
 70
1
 10
421.997229
 20
235.246630
 30
0.0
  0
SPLINE
  5
2bf
100
AcDbEntity
  8
0
 62
7
100
AcDbSpline
 70
8
 71
3
 72
8
 73
4
 74
0
 40
0
 40
0
 40
0
 40
0
 40
1
 40
1
 40
1
 40
1
 10
511.423233
 20
278.290031
 30
0.0
 10
511.423233
 20
277.663887
 30
0.0
 10
511.089113
 20
277.085306
 30
0.0
 10
510.546733
 20
276.772234
 30
0.0
  0
SPLINE
  5
2c0
100
AcDbEntity
  8
0
 62
7
100
AcDbSpline
 70
8
 71
3
 72
8
 73
4
 74
0
 40
0
 40
0
 40
0
 40
0
 40
1
 40
1
 40
1
 40
1
 10
510.546733
 20
276.772234
 30
0.0
 10
510.004352
 20
276.459163
 30
0.0
 10
509.336113
 20
276.459163
 30
0.0
 10
508.793733
 20
276.772234
 30
0.0
  0
SPLINE
  5
2c1
100
AcDbEntity
  8
0
 62
7
100
AcDbSpline
 70
8
 71
3
 72
8
 73
4
 74
0
 40
0
 40
0
 40
0
 40
0
 40
1
 40
1
 40
1
 40
1
 10
508.793733
 20
276.772234
 30
0.0
 10
508.251353
 20
277.085306
 30
0.0
 10
507.917233
 20
277.663887
 30
0.0
 10
507.917233
 20
278.290031
 30
0.0
  0
SPLINE
  5
2c2
100
AcDbEntity
  8
0
 62
7
100
AcDbSpline
 70
8
 71
3
 72
8
 73
4
 74
0
 40
0
 40
0
 40
0
 40
0
 40
1
 40
1
 40
1
 40
1
 10
507.917233
 20
278.290031
 30
0.0
 10
507.917233
 20
278.916174
 30
0.0
 10
508.251353
 20
279.494755
 30
0.0
 10
508.793733
 20
279.807827
 30
0.0
  0
SPLINE
  5
2c3
100
AcDbEntity
  8
0
 62
7
100
AcDbSpline
 70
8
 71
3
 72
8
 73
4
 74
0
 40
0
 40
0
 40
0
 40
0
 40
1
 40
1
 40
1
 40
1
 10
508.793733
 20
279.807827
 30
0.0
 10
509.336113
 20
280.120899
 30
0.0
 10
510.004352
 20
280.120899
 30
0.0
 10
510.546733
 20
279.807827
 30
0.0
  0
SPLINE
  5
2c4
100
AcDbEntity
  8
0
 62
7
100
AcDbSpline
 70
8
 71
3
 72
8
 73
4
 74
0
 40
0
 40
0
 40
0
 40
0
 40
1
 40
1
 40
1
 40
1
 10
510.546733
 20
279.807827
 30
0.0
 10
511.089113
 20
279.494755
 30
0.0
 10
511.423233
 20
278.916174
 30
0.0
 10
511.423233
 20
278.290031
 30
0.0
  0
LWPOLYLINE
  5
2c5
100
AcDbEntity
  8
0
 62
7
100
AcDbPolyline
 90
1
 70
1
 10
561.974995
 20
254.739190
 30
0.0
  0
SPLINE
  5
2c6
100
AcDbEntity
  8
0
 62
7
100
AcDbSpline
 70
8
 71
3
 72
8
 73
4
 74
0
 40
0
 40
0
 40
0
 40
0
 40
1
 40
1
 40
1
 40
1
 10
511.603229
 20
231.189631
 30
0.0
 10
511.603229
 20
230.563487
 30
0.0
 10
511.269109
 20
229.984906
 30
0.0
 10
510.726729
 20
229.671834
 30
0.0
  0
SPLINE
  5
2c7
100
AcDbEntity
  8
0
 62
7
100
AcDbSpline
 70
8
 71
3
 72
8
 73
4
 74
0
 40
0
 40
0
 40
0
 40
0
 40
1
 40
1
 40
1
 40
1
 10
510.726729
 20
229.671834
 30
0.0
 10
510.184349
 20
229.358763
 30
0.0
 10
509.516109
 20
229.358763
 30
0.0
 10
508.973729
 20
229.671834
 30
0.0
  0
SPLINE
  5
2c8
100
AcDbEntity
  8
0
 62
7
100
AcDbSpline
 70
8
 71
3
 72
8
 73
4
 74
0
 40
0
 40
0
 40
0
 40
0
 40
1
 40
1
 40
1
 40
1
 10
508.973729
 20
229.671834
 30
0.0
 10
508.431349
 20
229.984906
 30
0.0
 10
508.097229
 20
230.563487
 30
0.0
 10
508.097229
 20
231.189631
 30
0.0
  0
SPLINE
  5
2c9
100
AcDbEntity
  8
0
 62
7
100
AcDbSpline
 70
8
 71
3
 72
8
 73
4
 74
0
 40
0
 40
0
 40
0
 40
0
 40
1
 40
1
 40
1
 40
1
 10
508.097229
 20
231.189631
 30
0.0
 10
508.097229
 20
231.815774
 30
0.0
 10
508.431349
 20
232.394355
 30
0.0
 10
508.973729
 20
232.707427
 30
0.0
  0
SPLINE
  5
2ca
100
AcDbEntity
  8
0
 62
7
100
AcDbSpline
 70
8
 71
3
 72
8
 73
4
 74
0
 40
0
 40
0
 40
0
 40
0
 40
1
 40
1
 40
1
 40
1
 10
508.973729
 20
232.707427
 30
0.0
 10
509.516109
 20
233.020499
 30
0.0
 10
510.184349
 20
233.020499
 30
0.0
 10
510.726729
 20
232.707427
 30
0.0
  0
SPLINE
  5
2cb
100
AcDbEntity
  8
0
 62
7
100
AcDbSpline
 70
8
 71
3
 72
8
 73
4
 74
0
 40
0
 40
0
 40
0
 40
0
 40
1
 40
1
 40
1
 40
1
 10
510.726729
 20
232.707427
 30
0.0
 10
511.269109
 20
232.394355
 30
0.0
 10
511.603229
 20
231.815774
 30
0.0
 10
511.603229
 20
231.189631
 30
0.0
  0
LWPOLYLINE
  5
2cc
100
AcDbEntity
  8
0
 62
7
100
AcDbPolyline
 90
1
 70
1
 10
511.423233
 20
278.290031
 30
0.0
  0
SPLINE
  5
2cd
100
AcDbEntity
  8
0
 62
7
100
AcDbSpline
 70
8
 71
3
 72
8
 73
4
 74
0
 40
0
 40
0
 40
0
 40
0
 40
1
 40
1
 40
1
 40
1
 10
558.703237
 20
278.290031
 30
0.0
 10
558.703237
 20
277.663887
 30
0.0
 10
558.369117
 20
277.085306
 30
0.0
 10
557.826737
 20
276.772234
 30
0.0
  0
SPLINE
  5
2ce
100
AcDbEntity
  8
0
 62
7
100
AcDbSpline
 70
8
 71
3
 72
8
 73
4
 74
0
 40
0
 40
0
 40
0
 40
0
 40
1
 40
1
 40
1
 40
1
 10
557.826737
 20
276.772234
 30
0.0
 10
557.284357
 20
276.459163
 30
0.0
 10
556.616117
 20
276.459163
 30
0.0
 10
556.073737
 20
276.772234
 30
0.0
  0
SPLINE
  5
2cf
100
AcDbEntity
  8
0
 62
7
100
AcDbSpline
 70
8
 71
3
 72
8
 73
4
 74
0
 40
0
 40
0
 40
0
 40
0
 40
1
 40
1
 40
1
 40
1
 10
556.073737
 20
276.772234
 30
0.0
 10
555.531357
 20
277.085306
 30
0.0
 10
555.197237
 20
277.663887
 30
0.0
 10
555.197237
 20
278.290031
 30
0.0
  0
SPLINE
  5
2d0
100
AcDbEntity
  8
0
 62
7
100
AcDbSpline
 70
8
 71
3
 72
8
 73
4
 74
0
 40
0
 40
0
 40
0
 40
0
 40
1
 40
1
 40
1
 40
1
 10
555.197237
 20
278.290031
 30
0.0
 10
555.197237
 20
278.916174
 30
0.0
 10
555.531357
 20
279.494755
 30
0.0
 10
556.073737
 20
279.807827
 30
0.0
  0
SPLINE
  5
2d1
100
AcDbEntity
  8
0
 62
7
100
AcDbSpline
 70
8
 71
3
 72
8
 73
4
 74
0
 40
0
 40
0
 40
0
 40
0
 40
1
 40
1
 40
1
 40
1
 10
556.073737
 20
279.807827
 30
0.0
 10
556.616117
 20
280.120899
 30
0.0
 10
557.284357
 20
280.120899
 30
0.0
 10
557.826737
 20
279.807827
 30
0.0
  0
SPLINE
  5
2d2
100
AcDbEntity
  8
0
 62
7
100
AcDbSpline
 70
8
 71
3
 72
8
 73
4
 74
0
 40
0
 40
0
 40
0
 40
0
 40
1
 40
1
 40
1
 40
1
 10
557.826737
 20
279.807827
 30
0.0
 10
558.369117
 20
279.494755
 30
0.0
 10
558.703237
 20
278.916174
 30
0.0
 10
558.703237
 20
278.290031
 30
0.0
  0
LWPOLYLINE
  5
2d3
100
AcDbEntity
  8
0
 62
7
100
AcDbPolyline
 90
1
 70
1
 10
511.603229
 20
231.189631
 30
0.0
  0
SPLINE
  5
2d4
100
AcDbEntity
  8
0
 62
7
100
AcDbSpline
 70
8
 71
3
 72
8
 73
4
 74
0
 40
0
 40
0
 40
0
 40
0
 40
1
 40
1
 40
1
 40
1
 10
558.703237
 20
231.189631
 30
0.0
 10
558.703237
 20
230.563487
 30
0.0
 10
558.369117
 20
229.984906
 30
0.0
 10
557.826737
 20
229.671834
 30
0.0
  0
SPLINE
  5
2d5
100
AcDbEntity
  8
0
 62
7
100
AcDbSpline
 70
8
 71
3
 72
8
 73
4
 74
0
 40
0
 40
0
 40
0
 40
0
 40
1
 40
1
 40
1
 40
1
 10
557.826737
 20
229.671834
 30
0.0
 10
557.284357
 20
229.358763
 30
0.0
 10
556.616117
 20
229.358763
 30
0.0
 10
556.073737
 20
229.671834
 30
0.0
  0
SPLINE
  5
2d6
100
AcDbEntity
  8
0
 62
7
100
AcDbSpline
 70
8
 71
3
 72
8
 73
4
 74
0
 40
0
 40
0
 40
0
 40
0
 40
1
 40
1
 40
1
 40
1
 10
556.073737
 20
229.671834
 30
0.0
 10
555.531357
 20
229.984906
 30
0.0
 10
555.197237
 20
230.563487
 30
0.0
 10
555.197237
 20
231.189631
 30
0.0
  0
SPLINE
  5
2d7
100
AcDbEntity
  8
0
 62
7
100
AcDbSpline
 70
8
 71
3
 72
8
 73
4
 74
0
 40
0
 40
0
 40
0
 40
0
 40
1
 40
1
 40
1
 40
1
 10
555.197237
 20
231.189631
 30
0.0
 10
555.197237
 20
231.815774
 30
0.0
 10
555.531357
 20
232.394355
 30
0.0
 10
556.073737
 20
232.707427
 30
0.0
  0
SPLINE
  5
2d8
100
AcDbEntity
  8
0
 62
7
100
AcDbSpline
 70
8
 71
3
 72
8
 73
4
 74
0
 40
0
 40
0
 40
0
 40
0
 40
1
 40
1
 40
1
 40
1
 10
556.073737
 20
232.707427
 30
0.0
 10
556.616117
 20
233.020499
 30
0.0
 10
557.284357
 20
233.020499
 30
0.0
 10
557.826737
 20
232.707427
 30
0.0
  0
SPLINE
  5
2d9
100
AcDbEntity
  8
0
 62
7
100
AcDbSpline
 70
8
 71
3
 72
8
 73
4
 74
0
 40
0
 40
0
 40
0
 40
0
 40
1
 40
1
 40
1
 40
1
 10
557.826737
 20
232.707427
 30
0.0
 10
558.369117
 20
232.394355
 30
0.0
 10
558.703237
 20
231.815774
 30
0.0
 10
558.703237
 20
231.189631
 30
0.0
  0
LWPOLYLINE
  5
2da
100
AcDbEntity
  8
0
 62
7
100
AcDbPolyline
 90
1
 70
1
 10
558.703237
 20
278.290031
 30
0.0
  0
SPLINE
  5
2db
100
AcDbEntity
  8
0
 62
7
100
AcDbSpline
 70
8
 71
3
 72
8
 73
4
 74
0
 40
0
 40
0
 40
0
 40
0
 40
1
 40
1
 40
1
 40
1
 10
580.834000
 20
278.290255
 30
0.0
 10
580.834000
 20
277.322321
 30
0.0
 10
580.049155
 20
276.537656
 30
0.0
 10
579.081000
 20
276.537656
 30
0.0
  0
SPLINE
  5
2dc
100
AcDbEntity
  8
0
 62
7
100
AcDbSpline
 70
8
 71
3
 72
8
 73
4
 74
0
 40
0
 40
0
 40
0
 40
0
 40
1
 40
1
 40
1
 40
1
 10
579.081000
 20
276.537656
 30
0.0
 10
578.112845
 20
276.537656
 30
0.0
 10
577.328001
 20
277.322321
 30
0.0
 10
577.328000
 20
278.290255
 30
0.0
  0
SPLINE
  5
2dd
100
AcDbEntity
  8
0
 62
7
100
AcDbSpline
 70
8
 71
3
 72
8
 73
4
 74
0
 40
0
 40
0
 40
0
 40
0
 40
1
 40
1
 40
1
 40
1
 10
577.328000
 20
278.290255
 30
0.0
 10
577.328001
 20
279.258190
 30
0.0
 10
578.112845
 20
280.042855
 30
0.0
 10
579.081000
 20
280.042855
 30
0.0
  0
SPLINE
  5
2de
100
AcDbEntity
  8
0
 62
7
100
AcDbSpline
 70
8
 71
3
 72
8
 73
4
 74
0
 40
0
 40
0
 40
0
 40
0
 40
1
 40
1
 40
1
 40
1
 10
579.081000
 20
280.042855
 30
0.0
 10
580.049155
 20
280.042855
 30
0.0
 10
580.834000
 20
279.258190
 30
0.0
 10
580.834000
 20
278.290255
 30
0.0
  0
LWPOLYLINE
  5
2df
100
AcDbEntity
  8
0
 62
7
100
AcDbPolyline
 90
1
 70
1
 10
558.703237
 20
231.189631
 30
0.0
  0
SPLINE
  5
2e0
100
AcDbEntity
  8
0
 62
7
100
AcDbSpline
 70
8
 71
3
 72
8
 73
4
 74
0
 40
0
 40
0
 40
0
 40
0
 40
1
 40
1
 40
1
 40
1
 10
580.834000
 20
231.190258
 30
0.0
 10
580.834000
 20
230.222324
 30
0.0
 10
580.049155
 20
229.437658
 30
0.0
 10
579.081000
 20
229.437658
 30
0.0
  0
SPLINE
  5
2e1
100
AcDbEntity
  8
0
 62
7
100
AcDbSpline
 70
8
 71
3
 72
8
 73
4
 74
0
 40
0
 40
0
 40
0
 40
0
 40
1
 40
1
 40
1
 40
1
 10
579.081000
 20
229.437658
 30
0.0
 10
578.112845
 20
229.437658
 30
0.0
 10
577.328001
 20
230.222324
 30
0.0
 10
577.328000
 20
231.190258
 30
0.0
  0
SPLINE
  5
2e2
100
AcDbEntity
  8
0
 62
7
100
AcDbSpline
 70
8
 71
3
 72
8
 73
4
 74
0
 40
0
 40
0
 40
0
 40
0
 40
1
 40
1
 40
1
 40
1
 10
577.328000
 20
231.190258
 30
0.0
 10
577.328001
 20
232.158192
 30
0.0
 10
578.112845
 20
232.942857
 30
0.0
 10
579.081000
 20
232.942857
 30
0.0
  0
SPLINE
  5
2e3
100
AcDbEntity
  8
0
 62
7
100
AcDbSpline
 70
8
 71
3
 72
8
 73
4
 74
0
 40
0
 40
0
 40
0
 40
0
 40
1
 40
1
 40
1
 40
1
 10
579.081000
 20
232.942857
 30
0.0
 10
580.049155
 20
232.942857
 30
0.0
 10
580.834000
 20
232.158192
 30
0.0
 10
580.834000
 20
231.190258
 30
0.0
  0
LWPOLYLINE
  5
2e4
100
AcDbEntity
  8
0
 62
7
100
AcDbPolyline
 90
1
 70
1
 10
580.834000
 20
278.290255
 30
0.0
  0
LWPOLYLINE
  5
2e5
100
AcDbEntity
  8
0
 62
7
100
AcDbPolyline
 90
1
 70
1
 10
580.834000
 20
231.190258
 30
0.0
  0
SPLINE
  5
2e6
100
AcDbEntity
  8
0
 62
7
100
AcDbSpline
 70
8
 71
3
 72
8
 73
4
 74
0
 40
0
 40
0
 40
0
 40
0
 40
1
 40
1
 40
1
 40
1
 10
414.119517
 20
54.975125
 30
0.0
 10
414.119517
 20
52.848323
 30
0.0
 10
412.984882
 20
50.883077
 30
0.0
 10
411.143017
 20
49.819676
 30
0.0
  0
SPLINE
  5
2e7
100
AcDbEntity
  8
0
 62
7
100
AcDbSpline
 70
8
 71
3
 72
8
 73
4
 74
0
 40
0
 40
0
 40
0
 40
0
 40
1
 40
1
 40
1
 40
1
 10
411.143017
 20
49.819676
 30
0.0
 10
409.301152
 20
48.756275
 30
0.0
 10
407.031882
 20
48.756275
 30
0.0
 10
405.190017
 20
49.819676
 30
0.0
  0
SPLINE
  5
2e8
100
AcDbEntity
  8
0
 62
7
100
AcDbSpline
 70
8
 71
3
 72
8
 73
4
 74
0
 40
0
 40
0
 40
0
 40
0
 40
1
 40
1
 40
1
 40
1
 10
405.190017
 20
49.819676
 30
0.0
 10
403.348153
 20
50.883077
 30
0.0
 10
402.213517
 20
52.848323
 30
0.0
 10
402.213517
 20
54.975125
 30
0.0
  0
SPLINE
  5
2e9
100
AcDbEntity
  8
0
 62
7
100
AcDbSpline
 70
8
 71
3
 72
8
 73
4
 74
0
 40
0
 40
0
 40
0
 40
0
 40
1
 40
1
 40
1
 40
1
 10
402.213517
 20
54.975125
 30
0.0
 10
402.213518
 20
58.262876
 30
0.0
 10
404.878766
 20
60.928124
 30
0.0
 10
408.166517
 20
60.928124
 30
0.0
  0
SPLINE
  5
2ea
100
AcDbEntity
  8
0
 62
7
100
AcDbSpline
 70
8
 71
3
 72
8
 73
4
 74
0
 40
0
 40
0
 40
0
 40
0
 40
1
 40
1
 40
1
 40
1
 10
408.166517
 20
60.928124
 30
0.0
 10
411.454268
 20
60.928124
 30
0.0
 10
414.119517
 20
58.262876
 30
0.0
 10
414.119517
 20
54.975125
 30
0.0
  0
LWPOLYLINE
  5
2eb
100
AcDbEntity
  8
0
 62
7
100
AcDbPolyline
 90
4
 70
1
 10
570.067599
 20
271.778815
 30
0.0
 10
588.040902
 20
271.778815
 30
0.0
 10
588.040902
 20
237.805508
 30
0.0
 10
570.067599
 20
237.805508
 30
0.0
  0
SPLINE
  5
2ec
100
AcDbEntity
  8
0
 62
7
100
AcDbSpline
 70
8
 71
3
 72
8
 73
4
 74
0
 40
0
 40
0
 40
0
 40
0
 40
1
 40
1
 40
1
 40
1
 10
283.860762
 20
275.435552
 30
0.0
 10
283.860762
 20
273.827857
 30
0.0
 10
283.003067
 20
272.342285
 30
0.0
 10
281.610762
 20
271.538438
 30
0.0
  0
SPLINE
  5
2ed
100
AcDbEntity
  8
0
 62
7
100
AcDbSpline
 70
8
 71
3
 72
8
 73
4
 74
0
 40
0
 40
0
 40
0
 40
0
 40
1
 40
1
 40
1
 40
1
 10
281.610762
 20
271.538438
 30
0.0
 10
280.218457
 20
270.734590
 30
0.0
 10
278.503067
 20
270.734590
 30
0.0
 10
277.110762
 20
271.538438
 30
0.0
  0
SPLINE
  5
2ee
100
AcDbEntity
  8
0
 62
7
100
AcDbSpline
 70
8
 71
3
 72
8
 73
4
 74
0
 40
0
 40
0
 40
0
 40
0
 40
1
 40
1
 40
1
 40
1
 10
277.110762
 20
271.538438
 30
0.0
 10
275.718457
 20
272.342285
 30
0.0
 10
274.860762
 20
273.827857
 30
0.0
 10
274.860762
 20
275.435552
 30
0.0
  0
SPLINE
  5
2ef
100
AcDbEntity
  8
0
 62
7
100
AcDbSpline
 70
8
 71
3
 72
8
 73
4
 74
0
 40
0
 40
0
 40
0
 40
0
 40
1
 40
1
 40
1
 40
1
 10
274.860762
 20
275.435552
 30
0.0
 10
274.860762
 20
277.043247
 30
0.0
 10
275.718457
 20
278.528819
 30
0.0
 10
277.110762
 20
279.332666
 30
0.0
  0
SPLINE
  5
2f0
100
AcDbEntity
  8
0
 62
7
100
AcDbSpline
 70
8
 71
3
 72
8
 73
4
 74
0
 40
0
 40
0
 40
0
 40
0
 40
1
 40
1
 40
1
 40
1
 10
277.110762
 20
279.332666
 30
0.0
 10
278.503067
 20
280.136514
 30
0.0
 10
280.218457
 20
280.136514
 30
0.0
 10
281.610762
 20
279.332666
 30
0.0
  0
SPLINE
  5
2f1
100
AcDbEntity
  8
0
 62
7
100
AcDbSpline
 70
8
 71
3
 72
8
 73
4
 74
0
 40
0
 40
0
 40
0
 40
0
 40
1
 40
1
 40
1
 40
1
 10
281.610762
 20
279.332666
 30
0.0
 10
283.003067
 20
278.528819
 30
0.0
 10
283.860762
 20
277.043247
 30
0.0
 10
283.860762
 20
275.435552
 30
0.0
  0
LWPOLYLINE
  5
2f2
100
AcDbEntity
  8
0
 62
7
100
AcDbPolyline
 90
1
 70
1
 10
414.119517
 20
54.975125
 30
0.0
  0
SPLINE
  5
2f3
100
AcDbEntity
  8
0
 62
7
100
AcDbSpline
 70
8
 71
3
 72
8
 73
4
 74
0
 40
0
 40
0
 40
0
 40
0
 40
1
 40
1
 40
1
 40
1
 10
333.464422
 20
275.435462
 30
0.0
 10
333.464422
 20
273.827767
 30
0.0
 10
332.606727
 20
272.342195
 30
0.0
 10
331.214422
 20
271.538348
 30
0.0
  0
SPLINE
  5
2f4
100
AcDbEntity
  8
0
 62
7
100
AcDbSpline
 70
8
 71
3
 72
8
 73
4
 74
0
 40
0
 40
0
 40
0
 40
0
 40
1
 40
1
 40
1
 40
1
 10
331.214422
 20
271.538348
 30
0.0
 10
329.822117
 20
270.734500
 30
0.0
 10
328.106727
 20
270.734500
 30
0.0
 10
326.714422
 20
271.538348
 30
0.0
  0
SPLINE
  5
2f5
100
AcDbEntity
  8
0
 62
7
100
AcDbSpline
 70
8
 71
3
 72
8
 73
4
 74
0
 40
0
 40
0
 40
0
 40
0
 40
1
 40
1
 40
1
 40
1
 10
326.714422
 20
271.538348
 30
0.0
 10
325.322117
 20
272.342195
 30
0.0
 10
324.464422
 20
273.827767
 30
0.0
 10
324.464422
 20
275.435462
 30
0.0
  0
SPLINE
  5
2f6
100
AcDbEntity
  8
0
 62
7
100
AcDbSpline
 70
8
 71
3
 72
8
 73
4
 74
0
 40
0
 40
0
 40
0
 40
0
 40
1
 40
1
 40
1
 40
1
 10
324.464422
 20
275.435462
 30
0.0
 10
324.464422
 20
277.043157
 30
0.0
 10
325.322117
 20
278.528729
 30
0.0
 10
326.714422
 20
279.332576
 30
0.0
  0
SPLINE
  5
2f7
100
AcDbEntity
  8
0
 62
7
100
AcDbSpline
 70
8
 71
3
 72
8
 73
4
 74
0
 40
0
 40
0
 40
0
 40
0
 40
1
 40
1
 40
1
 40
1
 10
326.714422
 20
279.332576
 30
0.0
 10
328.106727
 20
280.136424
 30
0.0
 10
329.822117
 20
280.136424
 30
0.0
 10
331.214422
 20
279.332576
 30
0.0
  0
SPLINE
  5
2f8
100
AcDbEntity
  8
0
 62
7
100
AcDbSpline
 70
8
 71
3
 72
8
 73
4
 74
0
 40
0
 40
0
 40
0
 40
0
 40
1
 40
1
 40
1
 40
1
 10
331.214422
 20
279.332576
 30
0.0
 10
332.606727
 20
278.528729
 30
0.0
 10
333.464422
 20
277.043157
 30
0.0
 10
333.464422
 20
275.435462
 30
0.0
  0
LWPOLYLINE
  5
2f9
100
AcDbEntity
  8
0
 62
7
100
AcDbPolyline
 90
1
 70
1
 10
283.860762
 20
275.435552
 30
0.0
  0
LWPOLYLINE
  5
2fa
100
AcDbEntity
  8
0
 62
7
100
AcDbPolyline
 90
1
 70
1
 10
333.464422
 20
275.435462
 30
0.0
  0
SPLINE
  5
2fb
100
AcDbEntity
  8
0
 62
7
100
AcDbSpline
 70
8
 71
3
 72
8
 73
4
 74
0
 40
0
 40
0
 40
0
 40
0
 40
1
 40
1
 40
1
 40
1
 10
56.644432
 20
124.451012
 30
0.0
 10
56.644432
 20
123.765062
 30
0.0
 10
56.278482
 20
123.131218
 30
0.0
 10
55.684432
 20
122.788243
 30
0.0
  0
SPLINE
  5
2fc
100
AcDbEntity
  8
0
 62
7
100
AcDbSpline
 70
8
 71
3
 72
8
 73
4
 74
0
 40
0
 40
0
 40
0
 40
0
 40
1
 40
1
 40
1
 40
1
 10
55.684432
 20
122.788243
 30
0.0
 10
55.090382
 20
122.445268
 30
0.0
 10
54.358482
 20
122.445268
 30
0.0
 10
53.764432
 20
122.788243
 30
0.0
  0
SPLINE
  5
2fd
100
AcDbEntity
  8
0
 62
7
100
AcDbSpline
 70
8
 71
3
 72
8
 73
4
 74
0
 40
0
 40
0
 40
0
 40
0
 40
1
 40
1
 40
1
 40
1
 10
53.764432
 20
122.788243
 30
0.0
 10
53.170382
 20
123.131218
 30
0.0
 10
52.804432
 20
123.765062
 30
0.0
 10
52.804432
 20
124.451012
 30
0.0
  0
SPLINE
  5
2fe
100
AcDbEntity
  8
0
 62
7
100
AcDbSpline
 70
8
 71
3
 72
8
 73
4
 74
0
 40
0
 40
0
 40
0
 40
0
 40
1
 40
1
 40
1
 40
1
 10
52.804432
 20
124.451012
 30
0.0
 10
52.804432
 20
125.136962
 30
0.0
 10
53.170382
 20
125.770806
 30
0.0
 10
53.764432
 20
126.113781
 30
0.0
  0
SPLINE
  5
2ff
100
AcDbEntity
  8
0
 62
7
100
AcDbSpline
 70
8
 71
3
 72
8
 73
4
 74
0
 40
0
 40
0
 40
0
 40
0
 40
1
 40
1
 40
1
 40
1
 10
53.764432
 20
126.113781
 30
0.0
 10
54.358482
 20
126.456756
 30
0.0
 10
55.090382
 20
126.456756
 30
0.0
 10
55.684432
 20
126.113781
 30
0.0
  0
SPLINE
  5
300
100
AcDbEntity
  8
0
 62
7
100
AcDbSpline
 70
8
 71
3
 72
8
 73
4
 74
0
 40
0
 40
0
 40
0
 40
0
 40
1
 40
1
 40
1
 40
1
 10
55.684432
 20
126.113781
 30
0.0
 10
56.278482
 20
125.770806
 30
0.0
 10
56.644432
 20
125.136962
 30
0.0
 10
56.644432
 20
124.451012
 30
0.0
  0
LWPOLYLINE
  5
301
100
AcDbEntity
  8
0
 62
7
100
AcDbPolyline
 90
4
 70
1
 10
42.130345
 20
116.934634
 30
0.0
 10
72.104152
 20
116.934634
 30
0.0
 10
72.104152
 20
114.800825
 30
0.0
 10
42.130345
 20
114.800825
 30
0.0
  0
SPLINE
  5
302
100
AcDbEntity
  8
0
 62
7
100
AcDbSpline
 70
8
 71
3
 72
8
 73
4
 74
0
 40
0
 40
0
 40
0
 40
0
 40
1
 40
1
 40
1
 40
1
 10
56.661842
 20
107.409464
 30
0.0
 10
56.661842
 20
106.723514
 30
0.0
 10
56.295892
 20
106.089670
 30
0.0
 10
55.701842
 20
105.746695
 30
0.0
  0
SPLINE
  5
303
100
AcDbEntity
  8
0
 62
7
100
AcDbSpline
 70
8
 71
3
 72
8
 73
4
 74
0
 40
0
 40
0
 40
0
 40
0
 40
1
 40
1
 40
1
 40
1
 10
55.701842
 20
105.746695
 30
0.0
 10
55.107792
 20
105.403720
 30
0.0
 10
54.375892
 20
105.403720
 30
0.0
 10
53.781842
 20
105.746695
 30
0.0
  0
SPLINE
  5
304
100
AcDbEntity
  8
0
 62
7
100
AcDbSpline
 70
8
 71
3
 72
8
 73
4
 74
0
 40
0
 40
0
 40
0
 40
0
 40
1
 40
1
 40
1
 40
1
 10
53.781842
 20
105.746695
 30
0.0
 10
53.187792
 20
106.089670
 30
0.0
 10
52.821842
 20
106.723514
 30
0.0
 10
52.821842
 20
107.409464
 30
0.0
  0
SPLINE
  5
305
100
AcDbEntity
  8
0
 62
7
100
AcDbSpline
 70
8
 71
3
 72
8
 73
4
 74
0
 40
0
 40
0
 40
0
 40
0
 40
1
 40
1
 40
1
 40
1
 10
52.821842
 20
107.409464
 30
0.0
 10
52.821842
 20
108.095414
 30
0.0
 10
53.187792
 20
108.729258
 30
0.0
 10
53.781842
 20
109.072233
 30
0.0
  0
SPLINE
  5
306
100
AcDbEntity
  8
0
 62
7
100
AcDbSpline
 70
8
 71
3
 72
8
 73
4
 74
0
 40
0
 40
0
 40
0
 40
0
 40
1
 40
1
 40
1
 40
1
 10
53.781842
 20
109.072233
 30
0.0
 10
54.375892
 20
109.415208
 30
0.0
 10
55.107792
 20
109.415208
 30
0.0
 10
55.701842
 20
109.072233
 30
0.0
  0
SPLINE
  5
307
100
AcDbEntity
  8
0
 62
7
100
AcDbSpline
 70
8
 71
3
 72
8
 73
4
 74
0
 40
0
 40
0
 40
0
 40
0
 40
1
 40
1
 40
1
 40
1
 10
55.701842
 20
109.072233
 30
0.0
 10
56.295892
 20
108.729258
 30
0.0
 10
56.661842
 20
108.095414
 30
0.0
 10
56.661842
 20
107.409464
 30
0.0
  0
LWPOLYLINE
  5
308
100
AcDbEntity
  8
0
 62
7
100
AcDbPolyline
 90
1
 70
1
 10
56.644432
 20
124.451012
 30
0.0
  0
LWPOLYLINE
  5
309
100
AcDbEntity
  8
0
 62
7
100
AcDbPolyline
 90
1
 70
1
 10
56.661842
 20
107.409464
 30
0.0
  0
SPLINE
  5
30a
100
AcDbEntity
  8
0
 62
7
100
AcDbSpline
 70
8
 71
3
 72
8
 73
4
 74
0
 40
0
 40
0
 40
0
 40
0
 40
1
 40
1
 40
1
 40
1
 10
920.129210
 20
124.451195
 30
0.0
 10
920.129210
 20
123.765245
 30
0.0
 10
920.495160
 20
123.131401
 30
0.0
 10
921.089210
 20
122.788426
 30
0.0
  0
SPLINE
  5
30b
100
AcDbEntity
  8
0
 62
7
100
AcDbSpline
 70
8
 71
3
 72
8
 73
4
 74
0
 40
0
 40
0
 40
0
 40
0
 40
1
 40
1
 40
1
 40
1
 10
921.089210
 20
122.788426
 30
0.0
 10
921.683260
 20
122.445451
 30
0.0
 10
922.415160
 20
122.445451
 30
0.0
 10
923.009210
 20
122.788426
 30
0.0
  0
SPLINE
  5
30c
100
AcDbEntity
  8
0
 62
7
100
AcDbSpline
 70
8
 71
3
 72
8
 73
4
 74
0
 40
0
 40
0
 40
0
 40
0
 40
1
 40
1
 40
1
 40
1
 10
923.009210
 20
122.788426
 30
0.0
 10
923.603260
 20
123.131401
 30
0.0
 10
923.969210
 20
123.765245
 30
0.0
 10
923.969210
 20
124.451195
 30
0.0
  0
SPLINE
  5
30d
100
AcDbEntity
  8
0
 62
7
100
AcDbSpline
 70
8
 71
3
 72
8
 73
4
 74
0
 40
0
 40
0
 40
0
 40
0
 40
1
 40
1
 40
1
 40
1
 10
923.969210
 20
124.451195
 30
0.0
 10
923.969210
 20
125.137145
 30
0.0
 10
923.603260
 20
125.770988
 30
0.0
 10
923.009210
 20
126.113963
 30
0.0
  0
SPLINE
  5
30e
100
AcDbEntity
  8
0
 62
7
100
AcDbSpline
 70
8
 71
3
 72
8
 73
4
 74
0
 40
0
 40
0
 40
0
 40
0
 40
1
 40
1
 40
1
 40
1
 10
923.009210
 20
126.113963
 30
0.0
 10
922.415160
 20
126.456938
 30
0.0
 10
921.683260
 20
126.456938
 30
0.0
 10
921.089210
 20
126.113963
 30
0.0
  0
SPLINE
  5
30f
100
AcDbEntity
  8
0
 62
7
100
AcDbSpline
 70
8
 71
3
 72
8
 73
4
 74
0
 40
0
 40
0
 40
0
 40
0
 40
1
 40
1
 40
1
 40
1
 10
921.089210
 20
126.113963
 30
0.0
 10
920.495160
 20
125.770988
 30
0.0
 10
920.129210
 20
125.137145
 30
0.0
 10
920.129210
 20
124.451195
 30
0.0
  0
LWPOLYLINE
  5
310
100
AcDbEntity
  8
0
 62
7
100
AcDbPolyline
 90
4
 70
1
 10
934.643297
 20
116.934816
 30
0.0
 10
904.669490
 20
116.934816
 30
0.0
 10
904.669490
 20
114.801007
 30
0.0
 10
934.643297
 20
114.801007
 30
0.0
  0
SPLINE
  5
311
100
AcDbEntity
  8
0
 62
7
100
AcDbSpline
 70
8
 71
3
 72
8
 73
4
 74
0
 40
0
 40
0
 40
0
 40
0
 40
1
 40
1
 40
1
 40
1
 10
920.111800
 20
107.409647
 30
0.0
 10
920.111800
 20
106.723697
 30
0.0
 10
920.477750
 20
106.089853
 30
0.0
 10
921.071800
 20
105.746878
 30
0.0
  0
SPLINE
  5
312
100
AcDbEntity
  8
0
 62
7
100
AcDbSpline
 70
8
 71
3
 72
8
 73
4
 74
0
 40
0
 40
0
 40
0
 40
0
 40
1
 40
1
 40
1
 40
1
 10
921.071800
 20
105.746878
 30
0.0
 10
921.665850
 20
105.403903
 30
0.0
 10
922.397750
 20
105.403903
 30
0.0
 10
922.991800
 20
105.746878
 30
0.0
  0
SPLINE
  5
313
100
AcDbEntity
  8
0
 62
7
100
AcDbSpline
 70
8
 71
3
 72
8
 73
4
 74
0
 40
0
 40
0
 40
0
 40
0
 40
1
 40
1
 40
1
 40
1
 10
922.991800
 20
105.746878
 30
0.0
 10
923.585850
 20
106.089853
 30
0.0
 10
923.951800
 20
106.723697
 30
0.0
 10
923.951800
 20
107.409647
 30
0.0
  0
SPLINE
  5
314
100
AcDbEntity
  8
0
 62
7
100
AcDbSpline
 70
8
 71
3
 72
8
 73
4
 74
0
 40
0
 40
0
 40
0
 40
0
 40
1
 40
1
 40
1
 40
1
 10
923.951800
 20
107.409647
 30
0.0
 10
923.951800
 20
108.095597
 30
0.0
 10
923.585850
 20
108.729441
 30
0.0
 10
922.991800
 20
109.072416
 30
0.0
  0
SPLINE
  5
315
100
AcDbEntity
  8
0
 62
7
100
AcDbSpline
 70
8
 71
3
 72
8
 73
4
 74
0
 40
0
 40
0
 40
0
 40
0
 40
1
 40
1
 40
1
 40
1
 10
922.991800
 20
109.072416
 30
0.0
 10
922.397750
 20
109.415390
 30
0.0
 10
921.665850
 20
109.415390
 30
0.0
 10
921.071800
 20
109.072416
 30
0.0
  0
SPLINE
  5
316
100
AcDbEntity
  8
0
 62
7
100
AcDbSpline
 70
8
 71
3
 72
8
 73
4
 74
0
 40
0
 40
0
 40
0
 40
0
 40
1
 40
1
 40
1
 40
1
 10
921.071800
 20
109.072416
 30
0.0
 10
920.477750
 20
108.729441
 30
0.0
 10
920.111800
 20
108.095597
 30
0.0
 10
920.111800
 20
107.409647
 30
0.0
  0
LWPOLYLINE
  5
317
100
AcDbEntity
  8
0
 62
7
100
AcDbPolyline
 90
1
 70
1
 10
920.129210
 20
124.451195
 30
0.0
  0
LWPOLYLINE
  5
318
100
AcDbEntity
  8
0
 62
7
100
AcDbPolyline
 90
1
 70
1
 10
920.111800
 20
107.409647
 30
0.0
  0
SPLINE
  5
319
100
AcDbEntity
  8
0
 62
7
100
AcDbSpline
 70
8
 71
3
 72
8
 73
4
 74
0
 40
0
 40
0
 40
0
 40
0
 40
1
 40
1
 40
1
 40
1
 10
925.736884
 20
218.598649
 30
0.0
 10
925.736884
 20
216.455056
 30
0.0
 10
924.593291
 20
214.474294
 30
0.0
 10
922.736884
 20
213.402497
 30
0.0
  0
SPLINE
  5
31a
100
AcDbEntity
  8
0
 62
7
100
AcDbSpline
 70
8
 71
3
 72
8
 73
4
 74
0
 40
0
 40
0
 40
0
 40
0
 40
1
 40
1
 40
1
 40
1
 10
922.736884
 20
213.402497
 30
0.0
 10
920.880478
 20
212.330700
 30
0.0
 10
918.593290
 20
212.330700
 30
0.0
 10
916.736884
 20
213.402497
 30
0.0
  0
SPLINE
  5
31b
100
AcDbEntity
  8
0
 62
7
100
AcDbSpline
 70
8
 71
3
 72
8
 73
4
 74
0
 40
0
 40
0
 40
0
 40
0
 40
1
 40
1
 40
1
 40
1
 10
916.736884
 20
213.402497
 30
0.0
 10
914.880477
 20
214.474294
 30
0.0
 10
913.736884
 20
216.455056
 30
0.0
 10
913.736884
 20
218.598649
 30
0.0
  0
SPLINE
  5
31c
100
AcDbEntity
  8
0
 62
7
100
AcDbSpline
 70
8
 71
3
 72
8
 73
4
 74
0
 40
0
 40
0
 40
0
 40
0
 40
1
 40
1
 40
1
 40
1
 10
913.736884
 20
218.598649
 30
0.0
 10
913.736884
 20
220.742243
 30
0.0
 10
914.880477
 20
222.723005
 30
0.0
 10
916.736884
 20
223.794802
 30
0.0
  0
SPLINE
  5
31d
100
AcDbEntity
  8
0
 62
7
100
AcDbSpline
 70
8
 71
3
 72
8
 73
4
 74
0
 40
0
 40
0
 40
0
 40
0
 40
1
 40
1
 40
1
 40
1
 10
916.736884
 20
223.794802
 30
0.0
 10
918.593290
 20
224.866599
 30
0.0
 10
920.880478
 20
224.866599
 30
0.0
 10
922.736884
 20
223.794802
 30
0.0
  0
SPLINE
  5
31e
100
AcDbEntity
  8
0
 62
7
100
AcDbSpline
 70
8
 71
3
 72
8
 73
4
 74
0
 40
0
 40
0
 40
0
 40
0
 40
1
 40
1
 40
1
 40
1
 10
922.736884
 20
223.794802
 30
0.0
 10
924.593291
 20
222.723005
 30
0.0
 10
925.736884
 20
220.742243
 30
0.0
 10
925.736884
 20
218.598649
 30
0.0
  0
LWPOLYLINE
  5
31f
100
AcDbEntity
  8
0
 62
7
100
AcDbPolyline
 90
6
 70
1
 10
956.001866
 20
161.668113
 30
0.0
 10
956.001866
 20
161.668113
 30
0.0
 10
956.001866
 20
161.668113
 30
0.0
 10
956.001866
 20
161.668113
 30
0.0
 10
956.001866
 20
161.668113
 30
0.0
 10
956.001866
 20
161.668113
 30
0.0
  0
SPLINE
  5
320
100
AcDbEntity
  8
0
 62
7
100
AcDbSpline
 70
8
 71
3
 72
8
 73
4
 74
0
 40
0
 40
0
 40
0
 40
0
 40
1
 40
1
 40
1
 40
1
 10
473.141675
 20
74.934665
 30
0.0
 10
471.506791
 20
74.933242
 30
0.0
 10
469.959412
 20
74.195900
 30
0.0
 10
468.928476
 20
72.927035
 30
0.0
  0
LWPOLYLINE
  5
321
100
AcDbEntity
  8
0
 62
7
100
AcDbPolyline
 90
1
 70
1
 10
925.736884
 20
218.598649
 30
0.0
  0
SPLINE
  5
322
100
AcDbEntity
  8
0
 62
7
100
AcDbSpline
 70
8
 71
3
 72
8
 73
4
 74
0
 40
0
 40
0
 40
0
 40
0
 40
1
 40
1
 40
1
 40
1
 10
468.928476
 20
66.071639
 30
0.0
 10
469.959715
 20
64.803354
 30
0.0
 10
471.507050
 20
64.066604
 30
0.0
 10
473.141675
 20
64.065560
 30
0.0
  0
SPLINE
  5
323
100
AcDbEntity
  8
0
 62
7
100
AcDbSpline
 70
8
 71
3
 72
8
 73
4
 74
0
 40
0
 40
0
 40
0
 40
0
 40
1
 40
1
 40
1
 40
1
 10
473.141675
 20
64.065560
 30
0.0
 10
476.143073
 20
64.065468
 30
0.0
 10
478.576289
 20
66.498455
 30
0.0
 10
478.576481
 20
69.499853
 30
0.0
  0
SPLINE
  5
324
100
AcDbEntity
  8
0
 62
7
100
AcDbSpline
 70
8
 71
3
 72
8
 73
4
 74
0
 40
0
 40
0
 40
0
 40
0
 40
1
 40
1
 40
1
 40
1
 10
478.576481
 20
69.499853
 30
0.0
 10
478.576527
 20
70.941268
 30
0.0
 10
478.003947
 20
72.323659
 30
0.0
 10
476.984714
 20
73.342893
 30
0.0
  0
SPLINE
  5
325
100
AcDbEntity
  8
0
 62
7
100
AcDbSpline
 70
8
 71
3
 72
8
 73
4
 74
0
 40
0
 40
0
 40
0
 40
0
 40
1
 40
1
 40
1
 40
1
 10
476.984714
 20
73.342893
 30
0.0
 10
475.965480
 20
74.362128
 30
0.0
 10
474.583090
 20
74.934709
 30
0.0
 10
473.141675
 20
74.934665
 30
0.0
  0
LWPOLYLINE
  5
326
100
AcDbEntity
  8
0
 62
7
100
AcDbPolyline
 90
2
 70
0
 10
468.928476
 20
72.927035
 30
0.0
 10
468.928476
 20
66.071639
 30
0.0
  0
SPLINE
  5
327
100
AcDbEntity
  8
0
 62
7
100
AcDbSpline
 70
8
 71
3
 72
8
 73
4
 74
0
 40
0
 40
0
 40
0
 40
0
 40
1
 40
1
 40
1
 40
1
 10
553.590910
 20
75.047295
 30
0.0
 10
551.956026
 20
75.045872
 30
0.0
 10
550.408647
 20
74.308531
 30
0.0
 10
549.377711
 20
73.039666
 30
0.0
  0
LWPOLYLINE
  5
328
100
AcDbEntity
  8
0
 62
7
100
AcDbPolyline
 90
1
 70
1
 10
473.141675
 20
74.934665
 30
0.0
  0
SPLINE
  5
329
100
AcDbEntity
  8
0
 62
7
100
AcDbSpline
 70
8
 71
3
 72
8
 73
4
 74
0
 40
0
 40
0
 40
0
 40
0
 40
1
 40
1
 40
1
 40
1
 10
549.377711
 20
66.184269
 30
0.0
 10
550.408950
 20
64.915984
 30
0.0
 10
551.956285
 20
64.179234
 30
0.0
 10
553.590910
 20
64.178191
 30
0.0
  0
SPLINE
  5
32a
100
AcDbEntity
  8
0
 62
7
100
AcDbSpline
 70
8
 71
3
 72
8
 73
4
 74
0
 40
0
 40
0
 40
0
 40
0
 40
1
 40
1
 40
1
 40
1
 10
553.590910
 20
64.178191
 30
0.0
 10
556.592308
 20
64.178099
 30
0.0
 10
559.025524
 20
66.611085
 30
0.0
 10
559.025716
 20
69.612484
 30
0.0
  0
SPLINE
  5
32b
100
AcDbEntity
  8
0
 62
7
100
AcDbSpline
 70
8
 71
3
 72
8
 73
4
 74
0
 40
0
 40
0
 40
0
 40
0
 40
1
 40
1
 40
1
 40
1
 10
559.025716
 20
69.612484
 30
0.0
 10
559.025761
 20
71.053898
 30
0.0
 10
558.453182
 20
72.436289
 30
0.0
 10
557.433949
 20
73.455524
 30
0.0
  0
SPLINE
  5
32c
100
AcDbEntity
  8
0
 62
7
100
AcDbSpline
 70
8
 71
3
 72
8
 73
4
 74
0
 40
0
 40
0
 40
0
 40
0
 40
1
 40
1
 40
1
 40
1
 10
557.433949
 20
73.455524
 30
0.0
 10
556.414715
 20
74.474758
 30
0.0
 10
555.032324
 20
75.047339
 30
0.0
 10
553.590910
 20
75.047295
 30
0.0
  0
LWPOLYLINE
  5
32d
100
AcDbEntity
  8
0
 62
7
100
AcDbPolyline
 90
2
 70
0
 10
549.377711
 20
73.039666
 30
0.0
 10
549.377711
 20
66.184269
 30
0.0
  0
SPLINE
  5
32e
100
AcDbEntity
  8
0
 62
7
100
AcDbSpline
 70
8
 71
3
 72
8
 73
4
 74
0
 40
0
 40
0
 40
0
 40
0
 40
1
 40
1
 40
1
 40
1
 10
127.846070
 20
50.725440
 30
0.0
 10
127.846070
 20
48.974839
 30
0.0
 10
126.887419
 20
47.357216
 30
0.0
 10
125.331234
 20
46.481916
 30
0.0
  0
SPLINE
  5
32f
100
AcDbEntity
  8
0
 62
7
100
AcDbSpline
 70
8
 71
3
 72
8
 73
4
 74
0
 40
0
 40
0
 40
0
 40
0
 40
1
 40
1
 40
1
 40
1
 10
125.331234
 20
46.481916
 30
0.0
 10
123.775048
 20
45.606615
 30
0.0
 10
121.857748
 20
45.606615
 30
0.0
 10
120.301562
 20
46.481916
 30
0.0
  0
SPLINE
  5
330
100
AcDbEntity
  8
0
 62
7
100
AcDbSpline
 70
8
 71
3
 72
8
 73
4
 74
0
 40
0
 40
0
 40
0
 40
0
 40
1
 40
1
 40
1
 40
1
 10
120.301562
 20
46.481916
 30
0.0
 10
118.745376
 20
47.357216
 30
0.0
 10
117.786726
 20
48.974839
 30
0.0
 10
117.786726
 20
50.725440
 30
0.0
  0
SPLINE
  5
331
100
AcDbEntity
  8
0
 62
7
100
AcDbSpline
 70
8
 71
3
 72
8
 73
4
 74
0
 40
0
 40
0
 40
0
 40
0
 40
1
 40
1
 40
1
 40
1
 10
117.786726
 20
50.725440
 30
0.0
 10
117.786726
 20
52.476042
 30
0.0
 10
118.745376
 20
54.093664
 30
0.0
 10
120.301562
 20
54.968965
 30
0.0
  0
SPLINE
  5
332
100
AcDbEntity
  8
0
 62
7
100
AcDbSpline
 70
8
 71
3
 72
8
 73
4
 74
0
 40
0
 40
0
 40
0
 40
0
 40
1
 40
1
 40
1
 40
1
 10
120.301562
 20
54.968965
 30
0.0
 10
121.857748
 20
55.844266
 30
0.0
 10
123.775048
 20
55.844266
 30
0.0
 10
125.331234
 20
54.968965
 30
0.0
  0
SPLINE
  5
333
100
AcDbEntity
  8
0
 62
7
100
AcDbSpline
 70
8
 71
3
 72
8
 73
4
 74
0
 40
0
 40
0
 40
0
 40
0
 40
1
 40
1
 40
1
 40
1
 10
125.331234
 20
54.968965
 30
0.0
 10
126.887419
 20
54.093664
 30
0.0
 10
127.846070
 20
52.476042
 30
0.0
 10
127.846070
 20
50.725440
 30
0.0
  0
LWPOLYLINE
  5
334
100
AcDbEntity
  8
0
 62
7
100
AcDbPolyline
 90
1
 70
1
 10
553.590910
 20
75.047295
 30
0.0
  0
SPLINE
  5
335
100
AcDbEntity
  8
0
 62
7
100
AcDbSpline
 70
8
 71
3
 72
8
 73
4
 74
0
 40
0
 40
0
 40
0
 40
0
 40
1
 40
1
 40
1
 40
1
 10
105.328805
 20
50.725229
 30
0.0
 10
105.328805
 20
48.974627
 30
0.0
 10
104.370155
 20
47.357005
 30
0.0
 10
102.813970
 20
46.481704
 30
0.0
  0
SPLINE
  5
336
100
AcDbEntity
  8
0
 62
7
100
AcDbSpline
 70
8
 71
3
 72
8
 73
4
 74
0
 40
0
 40
0
 40
0
 40
0
 40
1
 40
1
 40
1
 40
1
 10
102.813970
 20
46.481704
 30
0.0
 10
101.257784
 20
45.606403
 30
0.0
 10
99.340484
 20
45.606403
 30
0.0
 10
97.784298
 20
46.481704
 30
0.0
  0
SPLINE
  5
337
100
AcDbEntity
  8
0
 62
7
100
AcDbSpline
 70
8
 71
3
 72
8
 73
4
 74
0
 40
0
 40
0
 40
0
 40
0
 40
1
 40
1
 40
1
 40
1
 10
97.784298
 20
46.481704
 30
0.0
 10
96.228112
 20
47.357005
 30
0.0
 10
95.269462
 20
48.974627
 30
0.0
 10
95.269462
 20
50.725229
 30
0.0
  0
SPLINE
  5
338
100
AcDbEntity
  8
0
 62
7
100
AcDbSpline
 70
8
 71
3
 72
8
 73
4
 74
0
 40
0
 40
0
 40
0
 40
0
 40
1
 40
1
 40
1
 40
1
 10
95.269462
 20
50.725229
 30
0.0
 10
95.269462
 20
52.475830
 30
0.0
 10
96.228112
 20
54.093453
 30
0.0
 10
97.784298
 20
54.968753
 30
0.0
  0
SPLINE
  5
339
100
AcDbEntity
  8
0
 62
7
100
AcDbSpline
 70
8
 71
3
 72
8
 73
4
 74
0
 40
0
 40
0
 40
0
 40
0
 40
1
 40
1
 40
1
 40
1
 10
97.784298
 20
54.968753
 30
0.0
 10
99.340484
 20
55.844054
 30
0.0
 10
101.257784
 20
55.844054
 30
0.0
 10
102.813970
 20
54.968753
 30
0.0
  0
SPLINE
  5
33a
100
AcDbEntity
  8
0
 62
7
100
AcDbSpline
 70
8
 71
3
 72
8
 73
4
 74
0
 40
0
 40
0
 40
0
 40
0
 40
1
 40
1
 40
1
 40
1
 10
102.813970
 20
54.968753
 30
0.0
 10
104.370155
 20
54.093453
 30
0.0
 10
105.328805
 20
52.475830
 30
0.0
 10
105.328805
 20
50.725229
 30
0.0
  0
LWPOLYLINE
  5
33b
100
AcDbEntity
  8
0
 62
7
100
AcDbPolyline
 90
1
 70
1
 10
127.846070
 20
50.725440
 30
0.0
  0
SPLINE
  5
33c
100
AcDbEntity
  8
0
 62
7
100
AcDbSpline
 70
8
 71
3
 72
8
 73
4
 74
0
 40
0
 40
0
 40
0
 40
0
 40
1
 40
1
 40
1
 40
1
 10
881.442702
 20
50.709936
 30
0.0
 10
881.442702
 20
48.959334
 30
0.0
 10
880.484052
 20
47.341712
 30
0.0
 10
878.927866
 20
46.466411
 30
0.0
  0
SPLINE
  5
33d
100
AcDbEntity
  8
0
 62
7
100
AcDbSpline
 70
8
 71
3
 72
8
 73
4
 74
0
 40
0
 40
0
 40
0
 40
0
 40
1
 40
1
 40
1
 40
1
 10
878.927866
 20
46.466411
 30
0.0
 10
877.371680
 20
45.591110
 30
0.0
 10
875.454380
 20
45.591110
 30
0.0
 10
873.898194
 20
46.466411
 30
0.0
  0
SPLINE
  5
33e
100
AcDbEntity
  8
0
 62
7
100
AcDbSpline
 70
8
 71
3
 72
8
 73
4
 74
0
 40
0
 40
0
 40
0
 40
0
 40
1
 40
1
 40
1
 40
1
 10
873.898194
 20
46.466411
 30
0.0
 10
872.342008
 20
47.341712
 30
0.0
 10
871.383358
 20
48.959334
 30
0.0
 10
871.383358
 20
50.709936
 30
0.0
  0
SPLINE
  5
33f
100
AcDbEntity
  8
0
 62
7
100
AcDbSpline
 70
8
 71
3
 72
8
 73
4
 74
0
 40
0
 40
0
 40
0
 40
0
 40
1
 40
1
 40
1
 40
1
 10
871.383358
 20
50.709936
 30
0.0
 10
871.383358
 20
52.460537
 30
0.0
 10
872.342008
 20
54.078160
 30
0.0
 10
873.898194
 20
54.953461
 30
0.0
  0
SPLINE
  5
340
100
AcDbEntity
  8
0
 62
7
100
AcDbSpline
 70
8
 71
3
 72
8
 73
4
 74
0
 40
0
 40
0
 40
0
 40
0
 40
1
 40
1
 40
1
 40
1
 10
873.898194
 20
54.953461
 30
0.0
 10
875.454380
 20
55.828761
 30
0.0
 10
877.371680
 20
55.828761
 30
0.0
 10
878.927866
 20
54.953461
 30
0.0
  0
SPLINE
  5
341
100
AcDbEntity
  8
0
 62
7
100
AcDbSpline
 70
8
 71
3
 72
8
 73
4
 74
0
 40
0
 40
0
 40
0
 40
0
 40
1
 40
1
 40
1
 40
1
 10
878.927866
 20
54.953461
 30
0.0
 10
880.484052
 20
54.078160
 30
0.0
 10
881.442702
 20
52.460537
 30
0.0
 10
881.442702
 20
50.709936
 30
0.0
  0
LWPOLYLINE
  5
342
100
AcDbEntity
  8
0
 62
7
100
AcDbPolyline
 90
1
 70
1
 10
105.328805
 20
50.725229
 30
0.0
  0
SPLINE
  5
343
100
AcDbEntity
  8
0
 62
7
100
AcDbSpline
 70
8
 71
3
 72
8
 73
4
 74
0
 40
0
 40
0
 40
0
 40
0
 40
1
 40
1
 40
1
 40
1
 10
858.925496
 20
50.709724
 30
0.0
 10
858.925496
 20
48.959123
 30
0.0
 10
857.966846
 20
47.341500
 30
0.0
 10
856.410660
 20
46.466199
 30
0.0
  0
SPLINE
  5
344
100
AcDbEntity
  8
0
 62
7
100
AcDbSpline
 70
8
 71
3
 72
8
 73
4
 74
0
 40
0
 40
0
 40
0
 40
0
 40
1
 40
1
 40
1
 40
1
 10
856.410660
 20
46.466199
 30
0.0
 10
854.854474
 20
45.590899
 30
0.0
 10
852.937174
 20
45.590899
 30
0.0
 10
851.380988
 20
46.466199
 30
0.0
  0
SPLINE
  5
345
100
AcDbEntity
  8
0
 62
7
100
AcDbSpline
 70
8
 71
3
 72
8
 73
4
 74
0
 40
0
 40
0
 40
0
 40
0
 40
1
 40
1
 40
1
 40
1
 10
851.380988
 20
46.466199
 30
0.0
 10
849.824802
 20
47.341500
 30
0.0
 10
848.866152
 20
48.959123
 30
0.0
 10
848.866152
 20
50.709724
 30
0.0
  0
SPLINE
  5
346
100
AcDbEntity
  8
0
 62
7
100
AcDbSpline
 70
8
 71
3
 72
8
 73
4
 74
0
 40
0
 40
0
 40
0
 40
0
 40
1
 40
1
 40
1
 40
1
 10
848.866152
 20
50.709724
 30
0.0
 10
848.866152
 20
52.460326
 30
0.0
 10
849.824802
 20
54.077948
 30
0.0
 10
851.380988
 20
54.953249
 30
0.0
  0
SPLINE
  5
347
100
AcDbEntity
  8
0
 62
7
100
AcDbSpline
 70
8
 71
3
 72
8
 73
4
 74
0
 40
0
 40
0
 40
0
 40
0
 40
1
 40
1
 40
1
 40
1
 10
851.380988
 20
54.953249
 30
0.0
 10
852.937174
 20
55.828550
 30
0.0
 10
854.854474
 20
55.828550
 30
0.0
 10
856.410660
 20
54.953249
 30
0.0
  0
SPLINE
  5
348
100
AcDbEntity
  8
0
 62
7
100
AcDbSpline
 70
8
 71
3
 72
8
 73
4
 74
0
 40
0
 40
0
 40
0
 40
0
 40
1
 40
1
 40
1
 40
1
 10
856.410660
 20
54.953249
 30
0.0
 10
857.966846
 20
54.077948
 30
0.0
 10
858.925496
 20
52.460326
 30
0.0
 10
858.925496
 20
50.709724
 30
0.0
  0
LWPOLYLINE
  5
349
100
AcDbEntity
  8
0
 62
7
100
AcDbPolyline
 90
1
 70
1
 10
881.442702
 20
50.709936
 30
0.0
  0
LWPOLYLINE
  5
34a
100
AcDbEntity
  8
0
 62
7
100
AcDbPolyline
 90
1
 70
1
 10
858.925496
 20
50.709724
 30
0.0
  0
ENDSEC
  0
SECTION
  2
OBJECTS
  0
DICTIONARY
  5
C
330
0
100
AcDbDictionary
  3
ACAD_GROUP
350
D
  3
ACAD_MLINESTYLE
350
17
  0
DICTIONARY
  5
D
330
C
100
AcDbDictionary
  0
DICTIONARY
  5
1A
330
C
100
AcDbDictionary
  0
DICTIONARY
  5
17
330
C
100
AcDbDictionary
  3
STANDARD
350
18
  0
DICTIONARY
  5
19
330
C
100
AcDbDictionary
  0
ENDSEC
  0
EOF
