  0
SECTION
  2
HEADER
  9
$ACADVER
  1
AC1014
  9
$HANDSEED
  5
FFFF
  9
$MEASUREMENT
 70
     1
  0
ENDSEC
  0
SECTION
  2
TABLES
  0
TABLE
  2
VPORT
  5
8
330
0
100
AcDbSymbolTable
 70
     4
  0
VPORT
  5
2E
330
8
100
AcDbSymbolTableRecord
100
AcDbViewportTableRecord
  2
*ACTIVE
 70
     0
 10
0.0
 20
0.0
 11
1.0
 21
1.0
 12
210.0
 22
148.5
 13
0.0
 23
0.0
 14
10.0
 24
10.0
 15
10.0
 25
10.0
 16
0.0
 26
0.0
 36
1.0
 17
0.0
 27
0.0
 37
0.0
 40
341.0
 41
1.24
 42
50.0
 43
0.0
 44
0.0
 50
0.0
 51
0.0
 71
     0
 72
   100
 73
     1
 74
     3
 75
     0
 76
     0
 77
     0
 78
     0
  0
ENDTAB
  0
TABLE
  2
LTYPE
  5
5
330
0
100
AcDbSymbolTable
 70
     1
  0
LTYPE
  5
14
330
5
100
AcDbSymbolTableRecord
100
AcDbLinetypeTableRecord
  2
BYBLOCK
 70
     0
  3

 72
    65
 73
     0
 40
0.0
  0
LTYPE
  5
15
330
5
100
AcDbSymbolTableRecord
100
AcDbLinetypeTableRecord
  2
BYLAYER
 70
     0
  3

 72
    65
 73
     0
 40
0.0
  0
LTYPE
  5
16
330
5
100
AcDbSymbolTableRecord
100
AcDbLinetypeTableRecord
  2
CONTINUOUS
 70
     0
  3
Solid line
 72
    65
 73
     0
 40
0.0
  0
ENDTAB
  0
TABLE
  2
LAYER
  5
2
100
AcDbSymbolTable
 70
1
  0
LAYER
  5
50
100
AcDbSymbolTableRecord
100
AcDbLayerTableRecord
  2
0
 70
0
  6
CONTINUOUS
  0
ENDTAB
  0
TABLE
  2
STYLE
  5
3
330
0
100
AcDbSymbolTable
 70
     1
  0
STYLE
  5
11
330
3
100
AcDbSymbolTableRecord
100
AcDbTextStyleTableRecord
  2
STANDARD
 70
     0
 40
0.0
 41
1.0
 50
0.0
 71
     0
 42
2.5
  3
txt
  4

  0
ENDTAB
  0
TABLE
  2
VIEW
  5
6
330
0
100
AcDbSymbolTable
 70
     0
  0
ENDTAB
  0
TABLE
  2
UCS
  5
7
330
0
100
AcDbSymbolTable
 70
     0
  0
ENDTAB
  0
TABLE
  2
APPID
  5
9
330
0
100
AcDbSymbolTable
 70
     2
  0
APPID
  5
12
330
9
100
AcDbSymbolTableRecord
100
AcDbRegAppTableRecord
  2
ACAD
 70
     0
  0
ENDTAB
  0
TABLE
  2
DIMSTYLE
  5
A
330
0
100
AcDbSymbolTable
 70
     1
  0
DIMSTYLE
105
27
330
A
100
AcDbSymbolTableRecord
100
AcDbDimStyleTableRecord
  2
ISO-25
 70
     0
  3

  4

  5

  6

  7

 40
1.0
 41
2.5
 42
0.625
 43
3.75
 44
1.25
 45
0.0
 46
0.0
 47
0.0
 48
0.0
140
2.5
141
2.5
142
0.0
143
0.03937007874016
144
1.0
145
0.0
146
1.0
147
0.625
 71
     0
 72
     0
 73
     0
 74
     0
 75
     0
 76
     0
 77
     1
 78
     8
170
     0
171
     3
172
     1
173
     0
174
     0
175
     0
176
     0
177
     0
178
     0
270
     2
271
     2
272
     2
273
     2
274
     3
340
11
275
     0
280
     0
281
     0
282
     0
283
     0
284
     8
285
     0
286
     0
287
     3
288
     0
  0
ENDTAB
  0
TABLE
  2
BLOCK_RECORD
  5
1
330
0
100
AcDbSymbolTable
 70
     1
  0
BLOCK_RECORD
  5
1F
330
1
100
AcDbSymbolTableRecord
100
AcDbBlockTableRecord
  2
*MODEL_SPACE
  0
BLOCK_RECORD
  5
1B
330
1
100
AcDbSymbolTableRecord
100
AcDbBlockTableRecord
  2
*PAPER_SPACE
  0
ENDTAB
  0
ENDSEC
  0
SECTION
  2
BLOCKS
  0
BLOCK
  5
20
330
1F
100
AcDbEntity
  8
0
100
AcDbBlockBegin
  2
*MODEL_SPACE
 70
     0
 10
0.0
 20
0.0
 30
0.0
  3
*MODEL_SPACE
  1

  0
ENDBLK
  5
21
330
1F
100
AcDbEntity
  8
0
100
AcDbBlockEnd
  0
BLOCK
  5
1C
330
1B
100
AcDbEntity
 67
     1
  8
0
100
AcDbBlockBegin
  2
*PAPER_SPACE
  1

  0
ENDBLK
  5
1D
330
1B
100
AcDbEntity
 67
     1
  8
0
100
AcDbBlockEnd
  0
ENDSEC
  0
SECTION
  2
ENTITIES
  0
SPLINE
  5
100
100
AcDbEntity
  8
0
 62
7
100
AcDbSpline
 70
8
 71
3
 72
8
 73
4
 74
0
 40
0
 40
0
 40
0
 40
0
 40
1
 40
1
 40
1
 40
1
 10
544.116948
 20
6.056868
 30
0.0
 10
568.666074
 20
26.275903
 30
0.0
 10
591.570921
 20
35.083115
 30
0.0
 10
615.377653
 20
35.083115
 30
0.0
  0
SPLINE
  5
101
100
AcDbEntity
  8
0
 62
7
100
AcDbSpline
 70
8
 71
3
 72
8
 73
4
 74
0
 40
0
 40
0
 40
0
 40
0
 40
1
 40
1
 40
1
 40
1
 10
361.396809
 20
35.083115
 30
0.0
 10
385.203541
 20
35.083115
 30
0.0
 10
408.108388
 20
26.275903
 30
0.0
 10
432.657515
 20
6.056868
 30
0.0
  0
LWPOLYLINE
  5
102
100
AcDbEntity
  8
0
 62
7
100
AcDbPolyline
 90
2
 70
0
 10
59.131782
 20
64.877865
 30
0.0
 10
59.131782
 20
54.080886
 30
0.0
  0
LWPOLYLINE
  5
103
100
AcDbEntity
  8
0
 62
7
100
AcDbPolyline
 90
2
 70
0
 10
12.119054
 20
100.446295
 30
0.0
 10
23.563368
 20
100.446295
 30
0.0
  0
LWPOLYLINE
  5
104
100
AcDbEntity
  8
0
 62
7
100
AcDbPolyline
 90
2
 70
0
 10
0.119063
 20
162.945635
 30
0.0
 10
0.119063
 20
112.446295
 30
0.0
  0
LWPOLYLINE
  5
105
100
AcDbEntity
  8
0
 62
7
100
AcDbPolyline
 90
2
 70
0
 10
225.639458
 20
288.805988
 30
0.0
 10
119.332904
 20
288.805988
 30
0.0
  0
LWPOLYLINE
  5
106
100
AcDbEntity
  8
0
 62
7
100
AcDbPolyline
 90
2
 70
0
 10
581.641294
 20
323.411786
 30
0.0
 10
395.133169
 20
323.411786
 30
0.0
  0
LWPOLYLINE
  5
107
100
AcDbEntity
  8
0
 62
7
100
AcDbPolyline
 90
2
 70
0
 10
857.441558
 20
288.805988
 30
0.0
 10
751.135018
 20
288.805988
 30
0.0
  0
LWPOLYLINE
  5
108
100
AcDbEntity
  8
0
 62
7
100
AcDbPolyline
 90
2
 70
0
 10
976.655400
 20
112.446295
 30
0.0
 10
976.655400
 20
162.945635
 30
0.0
  0
LWPOLYLINE
  5
109
100
AcDbEntity
  8
0
 62
7
100
AcDbPolyline
 90
2
 70
0
 10
953.211094
 20
100.446295
 30
0.0
 10
964.655408
 20
100.446295
 30
0.0
  0
LWPOLYLINE
  5
10a
100
AcDbEntity
  8
0
 62
7
100
AcDbPolyline
 90
2
 70
0
 10
917.642680
 20
54.080886
 30
0.0
 10
917.642680
 20
64.877865
 30
0.0
  0
LWPOLYLINE
  5
10b
100
AcDbEntity
  8
0
 62
7
100
AcDbPolyline
 90
2
 70
0
 10
615.377653
 20
35.083115
 30
0.0
 10
898.644909
 20
35.083115
 30
0.0
  0
LWPOLYLINE
  5
10c
100
AcDbEntity
  8
0
 62
7
100
AcDbPolyline
 90
2
 70
0
 10
449.206779
 20
0.119089
 30
0.0
 10
527.567710
 20
0.119089
 30
0.0
  0
SPLINE
  5
10d
100
AcDbEntity
  8
0
 62
7
100
AcDbSpline
 70
8
 71
3
 72
8
 73
4
 74
0
 40
0
 40
0
 40
0
 40
0
 40
1
 40
1
 40
1
 40
1
 10
59.131782
 20
54.080886
 30
0.0
 10
59.131779
 20
49.042363
 30
0.0
 10
61.133323
 20
44.210204
 30
0.0
 10
64.696097
 20
40.647430
 30
0.0
  0
SPLINE
  5
10e
100
AcDbEntity
  8
0
 62
7
100
AcDbSpline
 70
8
 71
3
 72
8
 73
4
 74
0
 40
0
 40
0
 40
0
 40
0
 40
1
 40
1
 40
1
 40
1
 10
64.696097
 20
40.647430
 30
0.0
 10
68.258871
 20
37.084656
 30
0.0
 10
73.091030
 20
35.083112
 30
0.0
 10
78.129553
 20
35.083115
 30
0.0
  0
SPLINE
  5
10f
100
AcDbEntity
  8
0
 62
7
100
AcDbSpline
 70
8
 71
3
 72
8
 73
4
 74
0
 40
0
 40
0
 40
0
 40
0
 40
1
 40
1
 40
1
 40
1
 10
59.131782
 20
64.877865
 30
0.0
 10
59.131785
 20
84.521762
 30
0.0
 10
43.207265
 20
100.446289
 30
0.0
 10
23.563368
 20
100.446295
 30
0.0
  0
SPLINE
  5
110
100
AcDbEntity
  8
0
 62
7
100
AcDbSpline
 70
8
 71
3
 72
8
 73
4
 74
0
 40
0
 40
0
 40
0
 40
0
 40
1
 40
1
 40
1
 40
1
 10
0.119062
 20
112.446295
 30
0.0
 10
0.119063
 20
105.818881
 30
0.0
 10
5.491641
 20
100.446299
 30
0.0
 10
12.119054
 20
100.446295
 30
0.0
  0
SPLINE
  5
111
100
AcDbEntity
  8
0
 62
7
100
AcDbSpline
 70
8
 71
3
 72
8
 73
4
 74
0
 40
0
 40
0
 40
0
 40
0
 40
1
 40
1
 40
1
 40
1
 10
119.332904
 20
288.805988
 30
0.0
 10
52.472794
 20
285.176772
 30
0.0
 10
0.119062
 20
229.904171
 30
0.0
 10
0.119062
 20
162.945634
 30
0.0
  0
SPLINE
  5
112
100
AcDbEntity
  8
0
 62
7
100
AcDbSpline
 70
8
 71
3
 72
8
 73
4
 74
0
 40
0
 40
0
 40
0
 40
0
 40
1
 40
1
 40
1
 40
1
 10
225.639458
 20
288.805988
 30
0.0
 10
267.357030
 20
288.805988
 30
0.0
 10
308.644457
 20
297.235707
 30
0.0
 10
347.023134
 20
313.589083
 30
0.0
  0
SPLINE
  5
113
100
AcDbEntity
  8
0
 62
7
100
AcDbSpline
 70
8
 71
3
 72
8
 73
4
 74
0
 40
0
 40
0
 40
0
 40
0
 40
1
 40
1
 40
1
 40
1
 10
395.133169
 20
323.411786
 30
0.0
 10
378.598541
 20
323.411785
 30
0.0
 10
362.234401
 20
320.070692
 30
0.0
 10
347.023134
 20
313.589083
 30
0.0
  0
SPLINE
  5
114
100
AcDbEntity
  8
0
 62
7
100
AcDbSpline
 70
8
 71
3
 72
8
 73
4
 74
0
 40
0
 40
0
 40
0
 40
0
 40
1
 40
1
 40
1
 40
1
 10
629.751328
 20
313.589083
 30
0.0
 10
614.540061
 20
320.070692
 30
0.0
 10
598.175921
 20
323.411785
 30
0.0
 10
581.641294
 20
323.411786
 30
0.0
  0
SPLINE
  5
115
100
AcDbEntity
  8
0
 62
7
100
AcDbSpline
 70
8
 71
3
 72
8
 73
4
 74
0
 40
0
 40
0
 40
0
 40
0
 40
1
 40
1
 40
1
 40
1
 10
629.751328
 20
313.589083
 30
0.0
 10
668.130010
 20
297.235705
 30
0.0
 10
709.417441
 20
288.805987
 30
0.0
 10
751.135018
 20
288.805988
 30
0.0
  0
SPLINE
  5
116
100
AcDbEntity
  8
0
 62
7
100
AcDbSpline
 70
8
 71
3
 72
8
 73
4
 74
0
 40
0
 40
0
 40
0
 40
0
 40
1
 40
1
 40
1
 40
1
 10
976.655400
 20
162.945634
 30
0.0
 10
976.655400
 20
229.904171
 30
0.0
 10
924.301669
 20
285.176772
 30
0.0
 10
857.441558
 20
288.805988
 30
0.0
  0
SPLINE
  5
117
100
AcDbEntity
  8
0
 62
7
100
AcDbSpline
 70
8
 71
3
 72
8
 73
4
 74
0
 40
0
 40
0
 40
0
 40
0
 40
1
 40
1
 40
1
 40
1
 10
964.655408
 20
100.446295
 30
0.0
 10
971.282822
 20
100.446299
 30
0.0
 10
976.655400
 20
105.818881
 30
0.0
 10
976.655400
 20
112.446295
 30
0.0
  0
SPLINE
  5
118
100
AcDbEntity
  8
0
 62
7
100
AcDbSpline
 70
8
 71
3
 72
8
 73
4
 74
0
 40
0
 40
0
 40
0
 40
0
 40
1
 40
1
 40
1
 40
1
 10
953.211094
 20
100.446295
 30
0.0
 10
933.567198
 20
100.446289
 30
0.0
 10
917.642677
 20
84.521762
 30
0.0
 10
917.642680
 20
64.877865
 30
0.0
  0
SPLINE
  5
119
100
AcDbEntity
  8
0
 62
7
100
AcDbSpline
 70
8
 71
3
 72
8
 73
4
 74
0
 40
0
 40
0
 40
0
 40
0
 40
1
 40
1
 40
1
 40
1
 10
898.644909
 20
35.083115
 30
0.0
 10
903.683432
 20
35.083112
 30
0.0
 10
908.515592
 20
37.084656
 30
0.0
 10
912.078366
 20
40.647430
 30
0.0
  0
SPLINE
  5
11a
100
AcDbEntity
  8
0
 62
7
100
AcDbSpline
 70
8
 71
3
 72
8
 73
4
 74
0
 40
0
 40
0
 40
0
 40
0
 40
1
 40
1
 40
1
 40
1
 10
912.078366
 20
40.647430
 30
0.0
 10
915.641140
 20
44.210204
 30
0.0
 10
917.642684
 20
49.042363
 30
0.0
 10
917.642680
 20
54.080886
 30
0.0
  0
SPLINE
  5
11b
100
AcDbEntity
  8
0
 62
7
100
AcDbSpline
 70
8
 71
3
 72
8
 73
4
 74
0
 40
0
 40
0
 40
0
 40
0
 40
1
 40
1
 40
1
 40
1
 10
527.567710
 20
0.119089
 30
0.0
 10
533.605824
 20
0.119092
 30
0.0
 10
539.456143
 20
2.218155
 30
0.0
 10
544.116948
 20
6.056868
 30
0.0
  0
SPLINE
  5
11c
100
AcDbEntity
  8
0
 62
7
100
AcDbSpline
 70
8
 71
3
 72
8
 73
4
 74
0
 40
0
 40
0
 40
0
 40
0
 40
1
 40
1
 40
1
 40
1
 10
432.657515
 20
6.056868
 30
0.0
 10
437.318327
 20
2.218150
 30
0.0
 10
443.168656
 20
0.119086
 30
0.0
 10
449.206779
 20
0.119089
 30
0.0
  0
LWPOLYLINE
  5
11d
100
AcDbEntity
  8
0
 62
7
100
AcDbPolyline
 90
2
 70
0
 10
78.129553
 20
35.083115
 30
0.0
 10
361.396809
 20
35.083115
 30
0.0
  0
LWPOLYLINE
  5
11e
100
AcDbEntity
  8
0
 62
7
100
AcDbPolyline
 90
1
 70
1
 10
906.505442
 20
194.882810
 30
0.0
  0
LWPOLYLINE
  5
11f
100
AcDbEntity
  8
0
 62
7
100
AcDbPolyline
 90
3
 70
0
 10
1007.716795
 20
121.664592
 30
0.0
 10
1008.510545
 20
121.664592
 30
0.0
 10
1009.304295
 20
121.664592
 30
0.0
  0
LWPOLYLINE
  5
120
100
AcDbEntity
  8
0
 62
7
100
AcDbPolyline
 90
3
 70
0
 10
1008.510545
 20
122.458342
 30
0.0
 10
1008.510545
 20
121.664592
 30
0.0
 10
1008.510545
 20
120.870842
 30
0.0
  0
LWPOLYLINE
  5
121
100
AcDbEntity
  8
0
 62
7
100
AcDbPolyline
 90
3
 70
0
 10
1007.716795
 20
121.664592
 30
0.0
 10
1008.510545
 20
121.664592
 30
0.0
 10
1009.304295
 20
121.664592
 30
0.0
  0
LWPOLYLINE
  5
122
100
AcDbEntity
  8
0
 62
7
100
AcDbPolyline
 90
3
 70
0
 10
1008.510545
 20
122.458342
 30
0.0
 10
1008.510545
 20
121.664592
 30
0.0
 10
1008.510545
 20
120.870842
 30
0.0
  0
LWPOLYLINE
  5
123
100
AcDbEntity
  8
0
 62
7
100
AcDbPolyline
 90
3
 70
0
 10
1007.716795
 20
121.664592
 30
0.0
 10
1008.510545
 20
121.664592
 30
0.0
 10
1009.304295
 20
121.664592
 30
0.0
  0
LWPOLYLINE
  5
124
100
AcDbEntity
  8
0
 62
7
100
AcDbPolyline
 90
3
 70
0
 10
1008.510545
 20
122.458342
 30
0.0
 10
1008.510545
 20
121.664592
 30
0.0
 10
1008.510545
 20
120.870842
 30
0.0
  0
LWPOLYLINE
  5
125
100
AcDbEntity
  8
0
 62
7
100
AcDbPolyline
 90
3
 70
0
 10
1007.716795
 20
121.664592
 30
0.0
 10
1008.510545
 20
121.664592
 30
0.0
 10
1009.304295
 20
121.664592
 30
0.0
  0
SPLINE
  5
126
100
AcDbEntity
  8
0
 62
1
100
AcDbSpline
 70
8
 71
3
 72
8
 73
4
 74
0
 40
0
 40
0
 40
0
 40
0
 40
1
 40
1
 40
1
 40
1
 10
588.016425
 20
268.736236
 30
0.0
 10
588.016425
 20
267.664439
 30
0.0
 10
587.444628
 20
266.674058
 30
0.0
 10
586.516425
 20
266.138160
 30
0.0
  0
SPLINE
  5
127
100
AcDbEntity
  8
0
 62
1
100
AcDbSpline
 70
8
 71
3
 72
8
 73
4
 74
0
 40
0
 40
0
 40
0
 40
0
 40
1
 40
1
 40
1
 40
1
 10
586.516425
 20
266.138160
 30
0.0
 10
585.588222
 20
265.602261
 30
0.0
 10
584.444628
 20
265.602261
 30
0.0
 10
583.516425
 20
266.138160
 30
0.0
  0
SPLINE
  5
128
100
AcDbEntity
  8
0
 62
1
100
AcDbSpline
 70
8
 71
3
 72
8
 73
4
 74
0
 40
0
 40
0
 40
0
 40
0
 40
1
 40
1
 40
1
 40
1
 10
583.516425
 20
266.138160
 30
0.0
 10
582.588221
 20
266.674058
 30
0.0
 10
582.016425
 20
267.664439
 30
0.0
 10
582.016425
 20
268.736236
 30
0.0
  0
SPLINE
  5
129
100
AcDbEntity
  8
0
 62
1
100
AcDbSpline
 70
8
 71
3
 72
8
 73
4
 74
0
 40
0
 40
0
 40
0
 40
0
 40
1
 40
1
 40
1
 40
1
 10
582.016425
 20
268.736236
 30
0.0
 10
582.016425
 20
269.808033
 30
0.0
 10
582.588221
 20
270.798414
 30
0.0
 10
583.516425
 20
271.334312
 30
0.0
  0
SPLINE
  5
12a
100
AcDbEntity
  8
0
 62
1
100
AcDbSpline
 70
8
 71
3
 72
8
 73
4
 74
0
 40
0
 40
0
 40
0
 40
0
 40
1
 40
1
 40
1
 40
1
 10
583.516425
 20
271.334312
 30
0.0
 10
584.444628
 20
271.870211
 30
0.0
 10
585.588222
 20
271.870211
 30
0.0
 10
586.516425
 20
271.334312
 30
0.0
  0
SPLINE
  5
12b
100
AcDbEntity
  8
0
 62
1
100
AcDbSpline
 70
8
 71
3
 72
8
 73
4
 74
0
 40
0
 40
0
 40
0
 40
0
 40
1
 40
1
 40
1
 40
1
 10
586.516425
 20
271.334312
 30
0.0
 10
587.444628
 20
270.798414
 30
0.0
 10
588.016425
 20
269.808033
 30
0.0
 10
588.016425
 20
268.736236
 30
0.0
  0
LWPOLYLINE
  5
12c
100
AcDbEntity
  8
0
 62
7
100
AcDbPolyline
 90
3
 70
0
 10
1008.510545
 20
122.458342
 30
0.0
 10
1008.510545
 20
121.664592
 30
0.0
 10
1008.510545
 20
120.870842
 30
0.0
  0
LWPOLYLINE
  5
12d
100
AcDbEntity
  8
0
 62
1
100
AcDbPolyline
 90
1
 70
1
 10
588.016425
 20
268.736236
 30
0.0
  0
LWPOLYLINE
  5
12e
100
AcDbEntity
  8
0
 62
7
100
AcDbPolyline
 90
6
 70
1
 10
956.001866
 20
161.668113
 30
0.0
 10
956.001866
 20
161.668113
 30
0.0
 10
956.001866
 20
161.668113
 30
0.0
 10
956.001866
 20
161.668113
 30
0.0
 10
956.001866
 20
161.668113
 30
0.0
 10
956.001866
 20
161.668113
 30
0.0
  0
SPLINE
  5
12f
100
AcDbEntity
  8
0
 62
1
100
AcDbSpline
 70
8
 71
3
 72
8
 73
4
 74
0
 40
0
 40
0
 40
0
 40
0
 40
1
 40
1
 40
1
 40
1
 10
504.357873
 20
69.499999
 30
0.0
 10
504.357873
 20
58.347525
 30
0.0
 10
498.408099
 20
48.042215
 30
0.0
 10
488.749774
 20
42.465978
 30
0.0
  0
SPLINE
  5
130
100
AcDbEntity
  8
0
 62
1
100
AcDbSpline
 70
8
 71
3
 72
8
 73
4
 74
0
 40
0
 40
0
 40
0
 40
0
 40
1
 40
1
 40
1
 40
1
 10
488.749774
 20
42.465978
 30
0.0
 10
479.091449
 20
36.889742
 30
0.0
 10
467.191901
 20
36.889742
 30
0.0
 10
457.533576
 20
42.465978
 30
0.0
  0
SPLINE
  5
131
100
AcDbEntity
  8
0
 62
1
100
AcDbSpline
 70
8
 71
3
 72
8
 73
4
 74
0
 40
0
 40
0
 40
0
 40
0
 40
1
 40
1
 40
1
 40
1
 10
457.533576
 20
42.465978
 30
0.0
 10
447.875251
 20
48.042215
 30
0.0
 10
441.925477
 20
58.347525
 30
0.0
 10
441.925477
 20
69.499999
 30
0.0
  0
SPLINE
  5
132
100
AcDbEntity
  8
0
 62
1
100
AcDbSpline
 70
8
 71
3
 72
8
 73
4
 74
0
 40
0
 40
0
 40
0
 40
0
 40
1
 40
1
 40
1
 40
1
 10
441.925477
 20
69.499999
 30
0.0
 10
441.925477
 20
80.652472
 30
0.0
 10
447.875251
 20
90.957782
 30
0.0
 10
457.533576
 20
96.534019
 30
0.0
  0
SPLINE
  5
133
100
AcDbEntity
  8
0
 62
1
100
AcDbSpline
 70
8
 71
3
 72
8
 73
4
 74
0
 40
0
 40
0
 40
0
 40
0
 40
1
 40
1
 40
1
 40
1
 10
457.533576
 20
96.534019
 30
0.0
 10
467.191901
 20
102.110256
 30
0.0
 10
479.091449
 20
102.110256
 30
0.0
 10
488.749774
 20
96.534019
 30
0.0
  0
SPLINE
  5
134
100
AcDbEntity
  8
0
 62
1
100
AcDbSpline
 70
8
 71
3
 72
8
 73
4
 74
0
 40
0
 40
0
 40
0
 40
0
 40
1
 40
1
 40
1
 40
1
 10
488.749774
 20
96.534019
 30
0.0
 10
498.408099
 20
90.957782
 30
0.0
 10
504.357873
 20
80.652472
 30
0.0
 10
504.357873
 20
69.499999
 30
0.0
  0
LWPOLYLINE
  5
135
100
AcDbEntity
  8
0
 62
1
100
AcDbPolyline
 90
4
 70
1
 10
228.988347
 20
68.025817
 30
0.0
 10
242.756792
 20
68.025817
 30
0.0
 10
242.756792
 20
42.992788
 30
0.0
 10
228.988347
 20
42.992788
 30
0.0
  0
SPLINE
  5
136
100
AcDbEntity
  8
0
 62
1
100
AcDbSpline
 70
8
 71
3
 72
8
 73
4
 74
0
 40
0
 40
0
 40
0
 40
0
 40
1
 40
1
 40
1
 40
1
 10
573.598326
 20
69.387328
 30
0.0
 10
573.598326
 20
58.234855
 30
0.0
 10
567.648552
 20
47.929545
 30
0.0
 10
557.990227
 20
42.353308
 30
0.0
  0
SPLINE
  5
137
100
AcDbEntity
  8
0
 62
1
100
AcDbSpline
 70
8
 71
3
 72
8
 73
4
 74
0
 40
0
 40
0
 40
0
 40
0
 40
1
 40
1
 40
1
 40
1
 10
557.990227
 20
42.353308
 30
0.0
 10
548.331902
 20
36.777071
 30
0.0
 10
536.432354
 20
36.777071
 30
0.0
 10
526.774029
 20
42.353308
 30
0.0
  0
SPLINE
  5
138
100
AcDbEntity
  8
0
 62
1
100
AcDbSpline
 70
8
 71
3
 72
8
 73
4
 74
0
 40
0
 40
0
 40
0
 40
0
 40
1
 40
1
 40
1
 40
1
 10
526.774029
 20
42.353308
 30
0.0
 10
517.115704
 20
47.929545
 30
0.0
 10
511.165930
 20
58.234855
 30
0.0
 10
511.165930
 20
69.387328
 30
0.0
  0
SPLINE
  5
139
100
AcDbEntity
  8
0
 62
1
100
AcDbSpline
 70
8
 71
3
 72
8
 73
4
 74
0
 40
0
 40
0
 40
0
 40
0
 40
1
 40
1
 40
1
 40
1
 10
511.165930
 20
69.387328
 30
0.0
 10
511.165930
 20
80.539802
 30
0.0
 10
517.115704
 20
90.845112
 30
0.0
 10
526.774029
 20
96.421349
 30
0.0
  0
SPLINE
  5
13a
100
AcDbEntity
  8
0
 62
1
100
AcDbSpline
 70
8
 71
3
 72
8
 73
4
 74
0
 40
0
 40
0
 40
0
 40
0
 40
1
 40
1
 40
1
 40
1
 10
526.774029
 20
96.421349
 30
0.0
 10
536.432354
 20
101.997585
 30
0.0
 10
548.331902
 20
101.997585
 30
0.0
 10
557.990227
 20
96.421349
 30
0.0
  0
SPLINE
  5
13b
100
AcDbEntity
  8
0
 62
1
100
AcDbSpline
 70
8
 71
3
 72
8
 73
4
 74
0
 40
0
 40
0
 40
0
 40
0
 40
1
 40
1
 40
1
 40
1
 10
557.990227
 20
96.421349
 30
0.0
 10
567.648552
 20
90.845112
 30
0.0
 10
573.598326
 20
80.539802
 30
0.0
 10
573.598326
 20
69.387328
 30
0.0
  0
LWPOLYLINE
  5
13c
100
AcDbEntity
  8
0
 62
1
100
AcDbPolyline
 90
1
 70
1
 10
504.357873
 20
69.499999
 30
0.0
  0
LWPOLYLINE
  5
13d
100
AcDbEntity
  8
0
 62
1
100
AcDbPolyline
 90
1
 70
1
 10
573.598326
 20
69.387328
 30
0.0
  0
ENDSEC
  0
SECTION
  2
OBJECTS
  0
DICTIONARY
  5
C
330
0
100
AcDbDictionary
  3
ACAD_GROUP
350
D
  3
ACAD_MLINESTYLE
350
17
  0
DICTIONARY
  5
D
330
C
100
AcDbDictionary
  0
DICTIONARY
  5
1A
330
C
100
AcDbDictionary
  0
DICTIONARY
  5
17
330
C
100
AcDbDictionary
  3
STANDARD
350
18
  0
DICTIONARY
  5
19
330
C
100
AcDbDictionary
  0
ENDSEC
  0
EOF
