  0
SECTION
  2
HEADER
  9
$ACADVER
  1
AC1014
  9
$HANDSEED
  5
FFFF
  9
$MEASUREMENT
 70
     1
  0
ENDSEC
  0
SECTION
  2
TABLES
  0
TABLE
  2
VPORT
  5
8
330
0
100
AcDbSymbolTable
 70
     4
  0
VPORT
  5
2E
330
8
100
AcDbSymbolTableRecord
100
AcDbViewportTableRecord
  2
*ACTIVE
 70
     0
 10
0.0
 20
0.0
 11
1.0
 21
1.0
 12
210.0
 22
148.5
 13
0.0
 23
0.0
 14
10.0
 24
10.0
 15
10.0
 25
10.0
 16
0.0
 26
0.0
 36
1.0
 17
0.0
 27
0.0
 37
0.0
 40
341.0
 41
1.24
 42
50.0
 43
0.0
 44
0.0
 50
0.0
 51
0.0
 71
     0
 72
   100
 73
     1
 74
     3
 75
     0
 76
     0
 77
     0
 78
     0
  0
ENDTAB
  0
TABLE
  2
LTYPE
  5
5
330
0
100
AcDbSymbolTable
 70
     1
  0
LTYPE
  5
14
330
5
100
AcDbSymbolTableRecord
100
AcDbLinetypeTableRecord
  2
BYBLOCK
 70
     0
  3

 72
    65
 73
     0
 40
0.0
  0
LTYPE
  5
15
330
5
100
AcDbSymbolTableRecord
100
AcDbLinetypeTableRecord
  2
BYLAYER
 70
     0
  3

 72
    65
 73
     0
 40
0.0
  0
LTYPE
  5
16
330
5
100
AcDbSymbolTableRecord
100
AcDbLinetypeTableRecord
  2
CONTINUOUS
 70
     0
  3
Solid line
 72
    65
 73
     0
 40
0.0
  0
ENDTAB
  0
TABLE
  2
LAYER
  5
2
100
AcDbSymbolTable
 70
1
  0
LAYER
  5
50
100
AcDbSymbolTableRecord
100
AcDbLayerTableRecord
  2
0
 70
0
  6
CONTINUOUS
  0
ENDTAB
  0
TABLE
  2
STYLE
  5
3
330
0
100
AcDbSymbolTable
 70
     1
  0
STYLE
  5
11
330
3
100
AcDbSymbolTableRecord
100
AcDbTextStyleTableRecord
  2
STANDARD
 70
     0
 40
0.0
 41
1.0
 50
0.0
 71
     0
 42
2.5
  3
txt
  4

  0
ENDTAB
  0
TABLE
  2
VIEW
  5
6
330
0
100
AcDbSymbolTable
 70
     0
  0
ENDTAB
  0
TABLE
  2
UCS
  5
7
330
0
100
AcDbSymbolTable
 70
     0
  0
ENDTAB
  0
TABLE
  2
APPID
  5
9
330
0
100
AcDbSymbolTable
 70
     2
  0
APPID
  5
12
330
9
100
AcDbSymbolTableRecord
100
AcDbRegAppTableRecord
  2
ACAD
 70
     0
  0
ENDTAB
  0
TABLE
  2
DIMSTYLE
  5
A
330
0
100
AcDbSymbolTable
 70
     1
  0
DIMSTYLE
105
27
330
A
100
AcDbSymbolTableRecord
100
AcDbDimStyleTableRecord
  2
ISO-25
 70
     0
  3

  4

  5

  6

  7

 40
1.0
 41
2.5
 42
0.625
 43
3.75
 44
1.25
 45
0.0
 46
0.0
 47
0.0
 48
0.0
140
2.5
141
2.5
142
0.0
143
0.03937007874016
144
1.0
145
0.0
146
1.0
147
0.625
 71
     0
 72
     0
 73
     0
 74
     0
 75
     0
 76
     0
 77
     1
 78
     8
170
     0
171
     3
172
     1
173
     0
174
     0
175
     0
176
     0
177
     0
178
     0
270
     2
271
     2
272
     2
273
     2
274
     3
340
11
275
     0
280
     0
281
     0
282
     0
283
     0
284
     8
285
     0
286
     0
287
     3
288
     0
  0
ENDTAB
  0
TABLE
  2
BLOCK_RECORD
  5
1
330
0
100
AcDbSymbolTable
 70
     1
  0
BLOCK_RECORD
  5
1F
330
1
100
AcDbSymbolTableRecord
100
AcDbBlockTableRecord
  2
*MODEL_SPACE
  0
BLOCK_RECORD
  5
1B
330
1
100
AcDbSymbolTableRecord
100
AcDbBlockTableRecord
  2
*PAPER_SPACE
  0
ENDTAB
  0
ENDSEC
  0
SECTION
  2
BLOCKS
  0
BLOCK
  5
20
330
1F
100
AcDbEntity
  8
0
100
AcDbBlockBegin
  2
*MODEL_SPACE
 70
     0
 10
0.0
 20
0.0
 30
0.0
  3
*MODEL_SPACE
  1

  0
ENDBLK
  5
21
330
1F
100
AcDbEntity
  8
0
100
AcDbBlockEnd
  0
BLOCK
  5
1C
330
1B
100
AcDbEntity
 67
     1
  8
0
100
AcDbBlockBegin
  2
*PAPER_SPACE
  1

  0
ENDBLK
  5
1D
330
1B
100
AcDbEntity
 67
     1
  8
0
100
AcDbBlockEnd
  0
ENDSEC
  0
SECTION
  2
ENTITIES
  0
SPLINE
  5
100
100
AcDbEntity
  8
0
 62
1
100
AcDbSpline
 70
8
 71
3
 72
8
 73
4
 74
0
 40
0
 40
0
 40
0
 40
0
 40
1
 40
1
 40
1
 40
1
 10
971.749073
 20
107.480624
 30
0.0
 10
971.752405
 20
108.250034
 30
0.0
 10
971.342573
 20
108.962423
 30
0.0
 10
970.674734
 20
109.348090
 30
0.0
  0
SPLINE
  5
101
100
AcDbEntity
  8
0
 62
1
100
AcDbSpline
 70
8
 71
3
 72
8
 73
4
 74
0
 40
0
 40
0
 40
0
 40
0
 40
1
 40
1
 40
1
 40
1
 10
970.674734
 20
109.348090
 30
0.0
 10
970.006895
 20
109.733757
 30
0.0
 10
969.183119
 20
109.733757
 30
0.0
 10
968.515280
 20
109.348090
 30
0.0
  0
SPLINE
  5
102
100
AcDbEntity
  8
0
 62
1
100
AcDbSpline
 70
8
 71
3
 72
8
 73
4
 74
0
 40
0
 40
0
 40
0
 40
0
 40
1
 40
1
 40
1
 40
1
 10
968.515280
 20
109.348090
 30
0.0
 10
967.847441
 20
108.962423
 30
0.0
 10
967.437609
 20
108.250034
 30
0.0
 10
967.440941
 20
107.480624
 30
0.0
  0
SPLINE
  5
103
100
AcDbEntity
  8
0
 62
1
100
AcDbSpline
 70
8
 71
3
 72
8
 73
4
 74
0
 40
0
 40
0
 40
0
 40
0
 40
1
 40
1
 40
1
 40
1
 10
967.440941
 20
107.480624
 30
0.0
 10
967.437609
 20
106.711214
 30
0.0
 10
967.847441
 20
105.998825
 30
0.0
 10
968.515280
 20
105.613157
 30
0.0
  0
SPLINE
  5
104
100
AcDbEntity
  8
0
 62
1
100
AcDbSpline
 70
8
 71
3
 72
8
 73
4
 74
0
 40
0
 40
0
 40
0
 40
0
 40
1
 40
1
 40
1
 40
1
 10
968.515280
 20
105.613157
 30
0.0
 10
969.183119
 20
105.227490
 30
0.0
 10
970.006895
 20
105.227490
 30
0.0
 10
970.674734
 20
105.613157
 30
0.0
  0
SPLINE
  5
105
100
AcDbEntity
  8
0
 62
1
100
AcDbSpline
 70
8
 71
3
 72
8
 73
4
 74
0
 40
0
 40
0
 40
0
 40
0
 40
1
 40
1
 40
1
 40
1
 10
970.674734
 20
105.613157
 30
0.0
 10
971.342573
 20
105.998825
 30
0.0
 10
971.752405
 20
106.711214
 30
0.0
 10
971.749073
 20
107.480624
 30
0.0
  0
SPLINE
  5
106
100
AcDbEntity
  8
0
 62
1
100
AcDbSpline
 70
8
 71
3
 72
8
 73
4
 74
0
 40
0
 40
0
 40
0
 40
0
 40
1
 40
1
 40
1
 40
1
 10
553.785061
 20
318.405624
 30
0.0
 10
553.788394
 20
319.175034
 30
0.0
 10
553.378562
 20
319.887423
 30
0.0
 10
552.710722
 20
320.273090
 30
0.0
  0
SPLINE
  5
107
100
AcDbEntity
  8
0
 62
1
100
AcDbSpline
 70
8
 71
3
 72
8
 73
4
 74
0
 40
0
 40
0
 40
0
 40
0
 40
1
 40
1
 40
1
 40
1
 10
552.710722
 20
320.273090
 30
0.0
 10
552.042883
 20
320.658758
 30
0.0
 10
551.219108
 20
320.658758
 30
0.0
 10
550.551269
 20
320.273090
 30
0.0
  0
SPLINE
  5
108
100
AcDbEntity
  8
0
 62
1
100
AcDbSpline
 70
8
 71
3
 72
8
 73
4
 74
0
 40
0
 40
0
 40
0
 40
0
 40
1
 40
1
 40
1
 40
1
 10
550.551269
 20
320.273090
 30
0.0
 10
549.883430
 20
319.887423
 30
0.0
 10
549.473597
 20
319.175034
 30
0.0
 10
549.476930
 20
318.405624
 30
0.0
  0
SPLINE
  5
109
100
AcDbEntity
  8
0
 62
1
100
AcDbSpline
 70
8
 71
3
 72
8
 73
4
 74
0
 40
0
 40
0
 40
0
 40
0
 40
1
 40
1
 40
1
 40
1
 10
549.476930
 20
318.405624
 30
0.0
 10
549.473597
 20
317.636214
 30
0.0
 10
549.883430
 20
316.923825
 30
0.0
 10
550.551269
 20
316.538158
 30
0.0
  0
SPLINE
  5
10a
100
AcDbEntity
  8
0
 62
1
100
AcDbSpline
 70
8
 71
3
 72
8
 73
4
 74
0
 40
0
 40
0
 40
0
 40
0
 40
1
 40
1
 40
1
 40
1
 10
550.551269
 20
316.538158
 30
0.0
 10
551.219108
 20
316.152490
 30
0.0
 10
552.042883
 20
316.152490
 30
0.0
 10
552.710722
 20
316.538158
 30
0.0
  0
SPLINE
  5
10b
100
AcDbEntity
  8
0
 62
1
100
AcDbSpline
 70
8
 71
3
 72
8
 73
4
 74
0
 40
0
 40
0
 40
0
 40
0
 40
1
 40
1
 40
1
 40
1
 10
552.710722
 20
316.538158
 30
0.0
 10
553.378562
 20
316.923825
 30
0.0
 10
553.788394
 20
317.636214
 30
0.0
 10
553.785061
 20
318.405624
 30
0.0
  0
LWPOLYLINE
  5
10c
100
AcDbEntity
  8
0
 62
1
100
AcDbPolyline
 90
1
 70
1
 10
971.749073
 20
107.480624
 30
0.0
  0
SPLINE
  5
10d
100
AcDbEntity
  8
0
 62
1
100
AcDbSpline
 70
8
 71
3
 72
8
 73
4
 74
0
 40
0
 40
0
 40
0
 40
0
 40
1
 40
1
 40
1
 40
1
 10
533.853072
 20
5.872612
 30
0.0
 10
533.856405
 20
6.642022
 30
0.0
 10
533.446573
 20
7.354412
 30
0.0
 10
532.778734
 20
7.740079
 30
0.0
  0
SPLINE
  5
10e
100
AcDbEntity
  8
0
 62
1
100
AcDbSpline
 70
8
 71
3
 72
8
 73
4
 74
0
 40
0
 40
0
 40
0
 40
0
 40
1
 40
1
 40
1
 40
1
 10
532.778734
 20
7.740079
 30
0.0
 10
532.110895
 20
8.125746
 30
0.0
 10
531.287119
 20
8.125746
 30
0.0
 10
530.619280
 20
7.740079
 30
0.0
  0
SPLINE
  5
10f
100
AcDbEntity
  8
0
 62
1
100
AcDbSpline
 70
8
 71
3
 72
8
 73
4
 74
0
 40
0
 40
0
 40
0
 40
0
 40
1
 40
1
 40
1
 40
1
 10
530.619280
 20
7.740079
 30
0.0
 10
529.951441
 20
7.354412
 30
0.0
 10
529.541609
 20
6.642022
 30
0.0
 10
529.544941
 20
5.872612
 30
0.0
  0
SPLINE
  5
110
100
AcDbEntity
  8
0
 62
1
100
AcDbSpline
 70
8
 71
3
 72
8
 73
4
 74
0
 40
0
 40
0
 40
0
 40
0
 40
1
 40
1
 40
1
 40
1
 10
529.544941
 20
5.872612
 30
0.0
 10
529.541609
 20
5.103203
 30
0.0
 10
529.951441
 20
4.390813
 30
0.0
 10
530.619280
 20
4.005146
 30
0.0
  0
SPLINE
  5
111
100
AcDbEntity
  8
0
 62
1
100
AcDbSpline
 70
8
 71
3
 72
8
 73
4
 74
0
 40
0
 40
0
 40
0
 40
0
 40
1
 40
1
 40
1
 40
1
 10
530.619280
 20
4.005146
 30
0.0
 10
531.287119
 20
3.619479
 30
0.0
 10
532.110895
 20
3.619479
 30
0.0
 10
532.778734
 20
4.005146
 30
0.0
  0
SPLINE
  5
112
100
AcDbEntity
  8
0
 62
1
100
AcDbSpline
 70
8
 71
3
 72
8
 73
4
 74
0
 40
0
 40
0
 40
0
 40
0
 40
1
 40
1
 40
1
 40
1
 10
532.778734
 20
4.005146
 30
0.0
 10
533.446573
 20
4.390813
 30
0.0
 10
533.856405
 20
5.103203
 30
0.0
 10
533.853072
 20
5.872612
 30
0.0
  0
LWPOLYLINE
  5
113
100
AcDbEntity
  8
0
 62
1
100
AcDbPolyline
 90
1
 70
1
 10
553.785061
 20
318.405624
 30
0.0
  0
SPLINE
  5
114
100
AcDbEntity
  8
0
 62
1
100
AcDbSpline
 70
8
 71
3
 72
8
 73
4
 74
0
 40
0
 40
0
 40
0
 40
0
 40
1
 40
1
 40
1
 40
1
 10
601.522059
 20
38.650624
 30
0.0
 10
601.525392
 20
39.420034
 30
0.0
 10
601.115560
 20
40.132424
 30
0.0
 10
600.447720
 20
40.518091
 30
0.0
  0
SPLINE
  5
115
100
AcDbEntity
  8
0
 62
1
100
AcDbSpline
 70
8
 71
3
 72
8
 73
4
 74
0
 40
0
 40
0
 40
0
 40
0
 40
1
 40
1
 40
1
 40
1
 10
600.447720
 20
40.518091
 30
0.0
 10
599.779881
 20
40.903758
 30
0.0
 10
598.956106
 20
40.903758
 30
0.0
 10
598.288267
 20
40.518091
 30
0.0
  0
SPLINE
  5
116
100
AcDbEntity
  8
0
 62
1
100
AcDbSpline
 70
8
 71
3
 72
8
 73
4
 74
0
 40
0
 40
0
 40
0
 40
0
 40
1
 40
1
 40
1
 40
1
 10
598.288267
 20
40.518091
 30
0.0
 10
597.620428
 20
40.132424
 30
0.0
 10
597.210595
 20
39.420034
 30
0.0
 10
597.213928
 20
38.650624
 30
0.0
  0
SPLINE
  5
117
100
AcDbEntity
  8
0
 62
1
100
AcDbSpline
 70
8
 71
3
 72
8
 73
4
 74
0
 40
0
 40
0
 40
0
 40
0
 40
1
 40
1
 40
1
 40
1
 10
597.213928
 20
38.650624
 30
0.0
 10
597.210595
 20
37.881215
 30
0.0
 10
597.620428
 20
37.168825
 30
0.0
 10
598.288267
 20
36.783158
 30
0.0
  0
SPLINE
  5
118
100
AcDbEntity
  8
0
 62
1
100
AcDbSpline
 70
8
 71
3
 72
8
 73
4
 74
0
 40
0
 40
0
 40
0
 40
0
 40
1
 40
1
 40
1
 40
1
 10
598.288267
 20
36.783158
 30
0.0
 10
598.956106
 20
36.397491
 30
0.0
 10
599.779881
 20
36.397491
 30
0.0
 10
600.447720
 20
36.783158
 30
0.0
  0
SPLINE
  5
119
100
AcDbEntity
  8
0
 62
1
100
AcDbSpline
 70
8
 71
3
 72
8
 73
4
 74
0
 40
0
 40
0
 40
0
 40
0
 40
1
 40
1
 40
1
 40
1
 10
600.447720
 20
36.783158
 30
0.0
 10
601.115560
 20
37.168825
 30
0.0
 10
601.525392
 20
37.881215
 30
0.0
 10
601.522059
 20
38.650624
 30
0.0
  0
LWPOLYLINE
  5
11a
100
AcDbEntity
  8
0
 62
1
100
AcDbPolyline
 90
1
 70
1
 10
533.853072
 20
5.872612
 30
0.0
  0
SPLINE
  5
11b
100
AcDbEntity
  8
0
 62
1
100
AcDbSpline
 70
8
 71
3
 72
8
 73
4
 74
0
 40
0
 40
0
 40
0
 40
0
 40
1
 40
1
 40
1
 40
1
 10
759.155068
 20
40.061621
 30
0.0
 10
759.158400
 20
40.831031
 30
0.0
 10
758.748568
 20
41.543420
 30
0.0
 10
758.080729
 20
41.929087
 30
0.0
  0
SPLINE
  5
11c
100
AcDbEntity
  8
0
 62
1
100
AcDbSpline
 70
8
 71
3
 72
8
 73
4
 74
0
 40
0
 40
0
 40
0
 40
0
 40
1
 40
1
 40
1
 40
1
 10
758.080729
 20
41.929087
 30
0.0
 10
757.412890
 20
42.314754
 30
0.0
 10
756.589115
 20
42.314754
 30
0.0
 10
755.921275
 20
41.929087
 30
0.0
  0
SPLINE
  5
11d
100
AcDbEntity
  8
0
 62
1
100
AcDbSpline
 70
8
 71
3
 72
8
 73
4
 74
0
 40
0
 40
0
 40
0
 40
0
 40
1
 40
1
 40
1
 40
1
 10
755.921275
 20
41.929087
 30
0.0
 10
755.253436
 20
41.543420
 30
0.0
 10
754.843604
 20
40.831031
 30
0.0
 10
754.846937
 20
40.061621
 30
0.0
  0
SPLINE
  5
11e
100
AcDbEntity
  8
0
 62
1
100
AcDbSpline
 70
8
 71
3
 72
8
 73
4
 74
0
 40
0
 40
0
 40
0
 40
0
 40
1
 40
1
 40
1
 40
1
 10
754.846937
 20
40.061621
 30
0.0
 10
754.843604
 20
39.292211
 30
0.0
 10
755.253436
 20
38.579821
 30
0.0
 10
755.921275
 20
38.194154
 30
0.0
  0
SPLINE
  5
11f
100
AcDbEntity
  8
0
 62
1
100
AcDbSpline
 70
8
 71
3
 72
8
 73
4
 74
0
 40
0
 40
0
 40
0
 40
0
 40
1
 40
1
 40
1
 40
1
 10
755.921275
 20
38.194154
 30
0.0
 10
756.589115
 20
37.808487
 30
0.0
 10
757.412890
 20
37.808487
 30
0.0
 10
758.080729
 20
38.194154
 30
0.0
  0
SPLINE
  5
120
100
AcDbEntity
  8
0
 62
1
100
AcDbSpline
 70
8
 71
3
 72
8
 73
4
 74
0
 40
0
 40
0
 40
0
 40
0
 40
1
 40
1
 40
1
 40
1
 10
758.080729
 20
38.194154
 30
0.0
 10
758.748568
 20
38.579821
 30
0.0
 10
759.158400
 20
39.292211
 30
0.0
 10
759.155068
 20
40.061621
 30
0.0
  0
LWPOLYLINE
  5
121
100
AcDbEntity
  8
0
 62
1
100
AcDbPolyline
 90
1
 70
1
 10
601.522059
 20
38.650624
 30
0.0
  0
SPLINE
  5
122
100
AcDbEntity
  8
0
 62
1
100
AcDbSpline
 70
8
 71
3
 72
8
 73
4
 74
0
 40
0
 40
0
 40
0
 40
0
 40
1
 40
1
 40
1
 40
1
 10
307.176196
 20
294.013760
 30
0.0
 10
307.178851
 20
294.788490
 30
0.0
 10
306.766177
 20
295.505505
 30
0.0
 10
306.094245
 20
295.893636
 30
0.0
  0
SPLINE
  5
123
100
AcDbEntity
  8
0
 62
1
100
AcDbSpline
 70
8
 71
3
 72
8
 73
4
 74
0
 40
0
 40
0
 40
0
 40
0
 40
1
 40
1
 40
1
 40
1
 10
306.094245
 20
295.893636
 30
0.0
 10
305.422313
 20
296.281768
 30
0.0
 10
304.593691
 20
296.281768
 30
0.0
 10
303.921759
 20
295.893636
 30
0.0
  0
SPLINE
  5
124
100
AcDbEntity
  8
0
 62
1
100
AcDbSpline
 70
8
 71
3
 72
8
 73
4
 74
0
 40
0
 40
0
 40
0
 40
0
 40
1
 40
1
 40
1
 40
1
 10
303.921759
 20
295.893636
 30
0.0
 10
303.249827
 20
295.505505
 30
0.0
 10
302.837153
 20
294.788490
 30
0.0
 10
302.839808
 20
294.013760
 30
0.0
  0
SPLINE
  5
125
100
AcDbEntity
  8
0
 62
1
100
AcDbSpline
 70
8
 71
3
 72
8
 73
4
 74
0
 40
0
 40
0
 40
0
 40
0
 40
1
 40
1
 40
1
 40
1
 10
302.839808
 20
294.013760
 30
0.0
 10
302.837153
 20
293.239031
 30
0.0
 10
303.249827
 20
292.522016
 30
0.0
 10
303.921759
 20
292.133884
 30
0.0
  0
SPLINE
  5
126
100
AcDbEntity
  8
0
 62
1
100
AcDbSpline
 70
8
 71
3
 72
8
 73
4
 74
0
 40
0
 40
0
 40
0
 40
0
 40
1
 40
1
 40
1
 40
1
 10
303.921759
 20
292.133884
 30
0.0
 10
304.593691
 20
291.745753
 30
0.0
 10
305.422313
 20
291.745753
 30
0.0
 10
306.094245
 20
292.133884
 30
0.0
  0
SPLINE
  5
127
100
AcDbEntity
  8
0
 62
1
100
AcDbSpline
 70
8
 71
3
 72
8
 73
4
 74
0
 40
0
 40
0
 40
0
 40
0
 40
1
 40
1
 40
1
 40
1
 10
306.094245
 20
292.133884
 30
0.0
 10
306.766177
 20
292.522016
 30
0.0
 10
307.178851
 20
293.239031
 30
0.0
 10
307.176196
 20
294.013760
 30
0.0
  0
LWPOLYLINE
  5
128
100
AcDbEntity
  8
0
 62
1
100
AcDbPolyline
 90
1
 70
1
 10
759.155068
 20
40.061621
 30
0.0
  0
SPLINE
  5
129
100
AcDbEntity
  8
0
 62
1
100
AcDbSpline
 70
8
 71
3
 72
8
 73
4
 74
0
 40
0
 40
0
 40
0
 40
0
 40
1
 40
1
 40
1
 40
1
 10
221.906904
 20
40.072998
 30
0.0
 10
221.906904
 20
40.842514
 30
0.0
 10
221.496372
 20
41.553576
 30
0.0
 10
220.829952
 20
41.938334
 30
0.0
  0
SPLINE
  5
12a
100
AcDbEntity
  8
0
 62
1
100
AcDbSpline
 70
8
 71
3
 72
8
 73
4
 74
0
 40
0
 40
0
 40
0
 40
0
 40
1
 40
1
 40
1
 40
1
 10
220.829952
 20
41.938334
 30
0.0
 10
220.163532
 20
42.323092
 30
0.0
 10
219.342468
 20
42.323092
 30
0.0
 10
218.676048
 20
41.938334
 30
0.0
  0
SPLINE
  5
12b
100
AcDbEntity
  8
0
 62
1
100
AcDbSpline
 70
8
 71
3
 72
8
 73
4
 74
0
 40
0
 40
0
 40
0
 40
0
 40
1
 40
1
 40
1
 40
1
 10
218.676048
 20
41.938334
 30
0.0
 10
218.009628
 20
41.553576
 30
0.0
 10
217.599096
 20
40.842514
 30
0.0
 10
217.599096
 20
40.072998
 30
0.0
  0
SPLINE
  5
12c
100
AcDbEntity
  8
0
 62
1
100
AcDbSpline
 70
8
 71
3
 72
8
 73
4
 74
0
 40
0
 40
0
 40
0
 40
0
 40
1
 40
1
 40
1
 40
1
 10
217.599096
 20
40.072998
 30
0.0
 10
217.599096
 20
39.303482
 30
0.0
 10
218.009628
 20
38.592420
 30
0.0
 10
218.676048
 20
38.207662
 30
0.0
  0
SPLINE
  5
12d
100
AcDbEntity
  8
0
 62
1
100
AcDbSpline
 70
8
 71
3
 72
8
 73
4
 74
0
 40
0
 40
0
 40
0
 40
0
 40
1
 40
1
 40
1
 40
1
 10
218.676048
 20
38.207662
 30
0.0
 10
219.342468
 20
37.822904
 30
0.0
 10
220.163532
 20
37.822904
 30
0.0
 10
220.829952
 20
38.207662
 30
0.0
  0
SPLINE
  5
12e
100
AcDbEntity
  8
0
 62
1
100
AcDbSpline
 70
8
 71
3
 72
8
 73
4
 74
0
 40
0
 40
0
 40
0
 40
0
 40
1
 40
1
 40
1
 40
1
 10
220.829952
 20
38.207662
 30
0.0
 10
221.496372
 20
38.592420
 30
0.0
 10
221.906904
 20
39.303482
 30
0.0
 10
221.906904
 20
40.072998
 30
0.0
  0
LWPOLYLINE
  5
12f
100
AcDbEntity
  8
0
 62
1
100
AcDbPolyline
 90
1
 70
1
 10
307.176196
 20
294.013760
 30
0.0
  0
SPLINE
  5
130
100
AcDbEntity
  8
0
 62
1
100
AcDbSpline
 70
8
 71
3
 72
8
 73
4
 74
0
 40
0
 40
0
 40
0
 40
0
 40
1
 40
1
 40
1
 40
1
 10
673.905286
 20
293.996623
 30
0.0
 10
673.908618
 20
294.766033
 30
0.0
 10
673.498786
 20
295.478423
 30
0.0
 10
672.830947
 20
295.864090
 30
0.0
  0
SPLINE
  5
131
100
AcDbEntity
  8
0
 62
1
100
AcDbSpline
 70
8
 71
3
 72
8
 73
4
 74
0
 40
0
 40
0
 40
0
 40
0
 40
1
 40
1
 40
1
 40
1
 10
672.830947
 20
295.864090
 30
0.0
 10
672.163108
 20
296.249757
 30
0.0
 10
671.339333
 20
296.249757
 30
0.0
 10
670.671494
 20
295.864090
 30
0.0
  0
SPLINE
  5
132
100
AcDbEntity
  8
0
 62
1
100
AcDbSpline
 70
8
 71
3
 72
8
 73
4
 74
0
 40
0
 40
0
 40
0
 40
0
 40
1
 40
1
 40
1
 40
1
 10
670.671494
 20
295.864090
 30
0.0
 10
670.003654
 20
295.478423
 30
0.0
 10
669.593822
 20
294.766033
 30
0.0
 10
669.597155
 20
293.996623
 30
0.0
  0
SPLINE
  5
133
100
AcDbEntity
  8
0
 62
1
100
AcDbSpline
 70
8
 71
3
 72
8
 73
4
 74
0
 40
0
 40
0
 40
0
 40
0
 40
1
 40
1
 40
1
 40
1
 10
669.597155
 20
293.996623
 30
0.0
 10
669.593822
 20
293.227214
 30
0.0
 10
670.003654
 20
292.514824
 30
0.0
 10
670.671494
 20
292.129157
 30
0.0
  0
SPLINE
  5
134
100
AcDbEntity
  8
0
 62
1
100
AcDbSpline
 70
8
 71
3
 72
8
 73
4
 74
0
 40
0
 40
0
 40
0
 40
0
 40
1
 40
1
 40
1
 40
1
 10
670.671494
 20
292.129157
 30
0.0
 10
671.339333
 20
291.743490
 30
0.0
 10
672.163108
 20
291.743490
 30
0.0
 10
672.830947
 20
292.129157
 30
0.0
  0
SPLINE
  5
135
100
AcDbEntity
  8
0
 62
1
100
AcDbSpline
 70
8
 71
3
 72
8
 73
4
 74
0
 40
0
 40
0
 40
0
 40
0
 40
1
 40
1
 40
1
 40
1
 10
672.830947
 20
292.129157
 30
0.0
 10
673.498786
 20
292.514824
 30
0.0
 10
673.908618
 20
293.227214
 30
0.0
 10
673.905286
 20
293.996623
 30
0.0
  0
LWPOLYLINE
  5
136
100
AcDbEntity
  8
0
 62
1
100
AcDbPolyline
 90
1
 70
1
 10
221.906904
 20
40.072998
 30
0.0
  0
SPLINE
  5
137
100
AcDbEntity
  8
0
 62
1
100
AcDbSpline
 70
8
 71
3
 72
8
 73
4
 74
0
 40
0
 40
0
 40
0
 40
0
 40
1
 40
1
 40
1
 40
1
 10
379.541061
 20
38.650677
 30
0.0
 10
379.544394
 20
39.420087
 30
0.0
 10
379.134562
 20
40.132477
 30
0.0
 10
378.466722
 20
40.518144
 30
0.0
  0
SPLINE
  5
138
100
AcDbEntity
  8
0
 62
1
100
AcDbSpline
 70
8
 71
3
 72
8
 73
4
 74
0
 40
0
 40
0
 40
0
 40
0
 40
1
 40
1
 40
1
 40
1
 10
378.466722
 20
40.518144
 30
0.0
 10
377.798883
 20
40.903811
 30
0.0
 10
376.975108
 20
40.903811
 30
0.0
 10
376.307269
 20
40.518144
 30
0.0
  0
SPLINE
  5
139
100
AcDbEntity
  8
0
 62
1
100
AcDbSpline
 70
8
 71
3
 72
8
 73
4
 74
0
 40
0
 40
0
 40
0
 40
0
 40
1
 40
1
 40
1
 40
1
 10
376.307269
 20
40.518144
 30
0.0
 10
375.639430
 20
40.132477
 30
0.0
 10
375.229597
 20
39.420087
 30
0.0
 10
375.232930
 20
38.650677
 30
0.0
  0
SPLINE
  5
13a
100
AcDbEntity
  8
0
 62
1
100
AcDbSpline
 70
8
 71
3
 72
8
 73
4
 74
0
 40
0
 40
0
 40
0
 40
0
 40
1
 40
1
 40
1
 40
1
 10
375.232930
 20
38.650677
 30
0.0
 10
375.229597
 20
37.881268
 30
0.0
 10
375.639430
 20
37.168878
 30
0.0
 10
376.307269
 20
36.783211
 30
0.0
  0
SPLINE
  5
13b
100
AcDbEntity
  8
0
 62
1
100
AcDbSpline
 70
8
 71
3
 72
8
 73
4
 74
0
 40
0
 40
0
 40
0
 40
0
 40
1
 40
1
 40
1
 40
1
 10
376.307269
 20
36.783211
 30
0.0
 10
376.975108
 20
36.397544
 30
0.0
 10
377.798883
 20
36.397544
 30
0.0
 10
378.466722
 20
36.783211
 30
0.0
  0
SPLINE
  5
13c
100
AcDbEntity
  8
0
 62
1
100
AcDbSpline
 70
8
 71
3
 72
8
 73
4
 74
0
 40
0
 40
0
 40
0
 40
0
 40
1
 40
1
 40
1
 40
1
 10
378.466722
 20
36.783211
 30
0.0
 10
379.134562
 20
37.168878
 30
0.0
 10
379.544394
 20
37.881268
 30
0.0
 10
379.541061
 20
38.650677
 30
0.0
  0
LWPOLYLINE
  5
13d
100
AcDbEntity
  8
0
 62
1
100
AcDbPolyline
 90
1
 70
1
 10
673.905286
 20
293.996623
 30
0.0
  0
SPLINE
  5
13e
100
AcDbEntity
  8
0
 62
1
100
AcDbSpline
 70
8
 71
3
 72
8
 73
4
 74
0
 40
0
 40
0
 40
0
 40
0
 40
1
 40
1
 40
1
 40
1
 10
427.306184
 20
318.422761
 30
0.0
 10
427.308839
 20
319.197490
 30
0.0
 10
426.896165
 20
319.914505
 30
0.0
 10
426.224233
 20
320.302637
 30
0.0
  0
SPLINE
  5
13f
100
AcDbEntity
  8
0
 62
1
100
AcDbSpline
 70
8
 71
3
 72
8
 73
4
 74
0
 40
0
 40
0
 40
0
 40
0
 40
1
 40
1
 40
1
 40
1
 10
426.224233
 20
320.302637
 30
0.0
 10
425.552301
 20
320.690768
 30
0.0
 10
424.723679
 20
320.690768
 30
0.0
 10
424.051747
 20
320.302637
 30
0.0
  0
SPLINE
  5
140
100
AcDbEntity
  8
0
 62
1
100
AcDbSpline
 70
8
 71
3
 72
8
 73
4
 74
0
 40
0
 40
0
 40
0
 40
0
 40
1
 40
1
 40
1
 40
1
 10
424.051747
 20
320.302637
 30
0.0
 10
423.379815
 20
319.914505
 30
0.0
 10
422.967141
 20
319.197490
 30
0.0
 10
422.969796
 20
318.422761
 30
0.0
  0
SPLINE
  5
141
100
AcDbEntity
  8
0
 62
1
100
AcDbSpline
 70
8
 71
3
 72
8
 73
4
 74
0
 40
0
 40
0
 40
0
 40
0
 40
1
 40
1
 40
1
 40
1
 10
422.969796
 20
318.422761
 30
0.0
 10
422.967141
 20
317.648031
 30
0.0
 10
423.379815
 20
316.931016
 30
0.0
 10
424.051747
 20
316.542885
 30
0.0
  0
SPLINE
  5
142
100
AcDbEntity
  8
0
 62
1
100
AcDbSpline
 70
8
 71
3
 72
8
 73
4
 74
0
 40
0
 40
0
 40
0
 40
0
 40
1
 40
1
 40
1
 40
1
 10
424.051747
 20
316.542885
 30
0.0
 10
424.723679
 20
316.154753
 30
0.0
 10
425.552301
 20
316.154753
 30
0.0
 10
426.224233
 20
316.542885
 30
0.0
  0
SPLINE
  5
143
100
AcDbEntity
  8
0
 62
1
100
AcDbSpline
 70
8
 71
3
 72
8
 73
4
 74
0
 40
0
 40
0
 40
0
 40
0
 40
1
 40
1
 40
1
 40
1
 10
426.224233
 20
316.542885
 30
0.0
 10
426.896165
 20
316.931016
 30
0.0
 10
427.308839
 20
317.648031
 30
0.0
 10
427.306184
 20
318.422761
 30
0.0
  0
LWPOLYLINE
  5
144
100
AcDbEntity
  8
0
 62
1
100
AcDbPolyline
 90
1
 70
1
 10
379.541061
 20
38.650677
 30
0.0
  0
SPLINE
  5
145
100
AcDbEntity
  8
0
 62
1
100
AcDbSpline
 70
8
 71
3
 72
8
 73
4
 74
0
 40
0
 40
0
 40
0
 40
0
 40
1
 40
1
 40
1
 40
1
 10
447.210074
 20
5.872983
 30
0.0
 10
447.212948
 20
6.642151
 30
0.0
 10
446.803016
 20
7.354121
 30
0.0
 10
446.135365
 20
7.739535
 30
0.0
  0
SPLINE
  5
146
100
AcDbEntity
  8
0
 62
1
100
AcDbSpline
 70
8
 71
3
 72
8
 73
4
 74
0
 40
0
 40
0
 40
0
 40
0
 40
1
 40
1
 40
1
 40
1
 10
446.135365
 20
7.739535
 30
0.0
 10
445.467714
 20
8.124948
 30
0.0
 10
444.644303
 20
8.124948
 30
0.0
 10
443.976653
 20
7.739535
 30
0.0
  0
SPLINE
  5
147
100
AcDbEntity
  8
0
 62
1
100
AcDbSpline
 70
8
 71
3
 72
8
 73
4
 74
0
 40
0
 40
0
 40
0
 40
0
 40
1
 40
1
 40
1
 40
1
 10
443.976653
 20
7.739535
 30
0.0
 10
443.309002
 20
7.354121
 30
0.0
 10
442.899069
 20
6.642151
 30
0.0
 10
442.901943
 20
5.872983
 30
0.0
  0
SPLINE
  5
148
100
AcDbEntity
  8
0
 62
1
100
AcDbSpline
 70
8
 71
3
 72
8
 73
4
 74
0
 40
0
 40
0
 40
0
 40
0
 40
1
 40
1
 40
1
 40
1
 10
442.901943
 20
5.872983
 30
0.0
 10
442.899069
 20
5.103814
 30
0.0
 10
443.309002
 20
4.391845
 30
0.0
 10
443.976653
 20
4.006431
 30
0.0
  0
SPLINE
  5
149
100
AcDbEntity
  8
0
 62
1
100
AcDbSpline
 70
8
 71
3
 72
8
 73
4
 74
0
 40
0
 40
0
 40
0
 40
0
 40
1
 40
1
 40
1
 40
1
 10
443.976653
 20
4.006431
 30
0.0
 10
444.644303
 20
3.621017
 30
0.0
 10
445.467714
 20
3.621017
 30
0.0
 10
446.135365
 20
4.006431
 30
0.0
  0
SPLINE
  5
14a
100
AcDbEntity
  8
0
 62
1
100
AcDbSpline
 70
8
 71
3
 72
8
 73
4
 74
0
 40
0
 40
0
 40
0
 40
0
 40
1
 40
1
 40
1
 40
1
 10
446.135365
 20
4.006431
 30
0.0
 10
446.803016
 20
4.391845
 30
0.0
 10
447.212948
 20
5.103814
 30
0.0
 10
447.210074
 20
5.872983
 30
0.0
  0
LWPOLYLINE
  5
14b
100
AcDbEntity
  8
0
 62
1
100
AcDbPolyline
 90
1
 70
1
 10
427.306184
 20
318.422761
 30
0.0
  0
SPLINE
  5
14c
100
AcDbEntity
  8
0
 62
1
100
AcDbSpline
 70
8
 71
3
 72
8
 73
4
 74
0
 40
0
 40
0
 40
0
 40
0
 40
1
 40
1
 40
1
 40
1
 10
803.399010
 20
283.789625
 30
0.0
 10
803.402343
 20
284.559035
 30
0.0
 10
802.992511
 20
285.271425
 30
0.0
 10
802.324671
 20
285.657092
 30
0.0
  0
SPLINE
  5
14d
100
AcDbEntity
  8
0
 62
1
100
AcDbSpline
 70
8
 71
3
 72
8
 73
4
 74
0
 40
0
 40
0
 40
0
 40
0
 40
1
 40
1
 40
1
 40
1
 10
802.324671
 20
285.657092
 30
0.0
 10
801.656832
 20
286.042759
 30
0.0
 10
800.833057
 20
286.042759
 30
0.0
 10
800.165218
 20
285.657092
 30
0.0
  0
SPLINE
  5
14e
100
AcDbEntity
  8
0
 62
1
100
AcDbSpline
 70
8
 71
3
 72
8
 73
4
 74
0
 40
0
 40
0
 40
0
 40
0
 40
1
 40
1
 40
1
 40
1
 10
800.165218
 20
285.657092
 30
0.0
 10
799.497379
 20
285.271425
 30
0.0
 10
799.087547
 20
284.559035
 30
0.0
 10
799.090879
 20
283.789625
 30
0.0
  0
SPLINE
  5
14f
100
AcDbEntity
  8
0
 62
1
100
AcDbSpline
 70
8
 71
3
 72
8
 73
4
 74
0
 40
0
 40
0
 40
0
 40
0
 40
1
 40
1
 40
1
 40
1
 10
799.090879
 20
283.789625
 30
0.0
 10
799.087547
 20
283.020216
 30
0.0
 10
799.497379
 20
282.307826
 30
0.0
 10
800.165218
 20
281.922159
 30
0.0
  0
SPLINE
  5
150
100
AcDbEntity
  8
0
 62
1
100
AcDbSpline
 70
8
 71
3
 72
8
 73
4
 74
0
 40
0
 40
0
 40
0
 40
0
 40
1
 40
1
 40
1
 40
1
 10
800.165218
 20
281.922159
 30
0.0
 10
800.833057
 20
281.536492
 30
0.0
 10
801.656832
 20
281.536492
 30
0.0
 10
802.324671
 20
281.922159
 30
0.0
  0
SPLINE
  5
151
100
AcDbEntity
  8
0
 62
1
100
AcDbSpline
 70
8
 71
3
 72
8
 73
4
 74
0
 40
0
 40
0
 40
0
 40
0
 40
1
 40
1
 40
1
 40
1
 10
802.324671
 20
281.922159
 30
0.0
 10
802.992511
 20
282.307826
 30
0.0
 10
803.402343
 20
283.020216
 30
0.0
 10
803.399010
 20
283.789625
 30
0.0
  0
LWPOLYLINE
  5
152
100
AcDbEntity
  8
0
 62
1
100
AcDbPolyline
 90
1
 70
1
 10
447.210074
 20
5.872983
 30
0.0
  0
SPLINE
  5
153
100
AcDbEntity
  8
0
 62
1
100
AcDbSpline
 70
8
 71
3
 72
8
 73
4
 74
0
 40
0
 40
0
 40
0
 40
0
 40
1
 40
1
 40
1
 40
1
 10
177.842098
 20
283.811342
 30
0.0
 10
177.842824
 20
284.586170
 30
0.0
 10
177.429746
 20
285.302450
 30
0.0
 10
176.758636
 20
285.690074
 30
0.0
  0
SPLINE
  5
154
100
AcDbEntity
  8
0
 62
1
100
AcDbSpline
 70
8
 71
3
 72
8
 73
4
 74
0
 40
0
 40
0
 40
0
 40
0
 40
1
 40
1
 40
1
 40
1
 10
176.758636
 20
285.690074
 30
0.0
 10
176.087526
 20
286.077697
 30
0.0
 10
175.260474
 20
286.077697
 30
0.0
 10
174.589364
 20
285.690074
 30
0.0
  0
SPLINE
  5
155
100
AcDbEntity
  8
0
 62
1
100
AcDbSpline
 70
8
 71
3
 72
8
 73
4
 74
0
 40
0
 40
0
 40
0
 40
0
 40
1
 40
1
 40
1
 40
1
 10
174.589364
 20
285.690074
 30
0.0
 10
173.918254
 20
285.302450
 30
0.0
 10
173.505176
 20
284.586170
 30
0.0
 10
173.505902
 20
283.811342
 30
0.0
  0
SPLINE
  5
156
100
AcDbEntity
  8
0
 62
1
100
AcDbSpline
 70
8
 71
3
 72
8
 73
4
 74
0
 40
0
 40
0
 40
0
 40
0
 40
1
 40
1
 40
1
 40
1
 10
173.505902
 20
283.811342
 30
0.0
 10
173.505176
 20
283.036515
 30
0.0
 10
173.918254
 20
282.320234
 30
0.0
 10
174.589364
 20
281.932611
 30
0.0
  0
SPLINE
  5
157
100
AcDbEntity
  8
0
 62
1
100
AcDbSpline
 70
8
 71
3
 72
8
 73
4
 74
0
 40
0
 40
0
 40
0
 40
0
 40
1
 40
1
 40
1
 40
1
 10
174.589364
 20
281.932611
 30
0.0
 10
175.260474
 20
281.544988
 30
0.0
 10
176.087526
 20
281.544988
 30
0.0
 10
176.758636
 20
281.932611
 30
0.0
  0
SPLINE
  5
158
100
AcDbEntity
  8
0
 62
1
100
AcDbSpline
 70
8
 71
3
 72
8
 73
4
 74
0
 40
0
 40
0
 40
0
 40
0
 40
1
 40
1
 40
1
 40
1
 10
176.758636
 20
281.932611
 30
0.0
 10
177.429746
 20
282.320234
 30
0.0
 10
177.842824
 20
283.036515
 30
0.0
 10
177.842098
 20
283.811342
 30
0.0
  0
LWPOLYLINE
  5
159
100
AcDbEntity
  8
0
 62
1
100
AcDbPolyline
 90
1
 70
1
 10
803.399010
 20
283.789625
 30
0.0
  0
SPLINE
  5
15a
100
AcDbEntity
  8
0
 62
1
100
AcDbSpline
 70
8
 71
3
 72
8
 73
4
 74
0
 40
0
 40
0
 40
0
 40
0
 40
1
 40
1
 40
1
 40
1
 10
910.687076
 20
44.266353
 30
0.0
 10
910.690292
 20
45.035703
 30
0.0
 10
910.280434
 20
45.747988
 30
0.0
 10
909.612643
 20
46.133592
 30
0.0
  0
SPLINE
  5
15b
100
AcDbEntity
  8
0
 62
1
100
AcDbSpline
 70
8
 71
3
 72
8
 73
4
 74
0
 40
0
 40
0
 40
0
 40
0
 40
1
 40
1
 40
1
 40
1
 10
909.612643
 20
46.133592
 30
0.0
 10
908.944851
 20
46.519196
 30
0.0
 10
908.121169
 20
46.519196
 30
0.0
 10
907.453378
 20
46.133592
 30
0.0
  0
SPLINE
  5
15c
100
AcDbEntity
  8
0
 62
1
100
AcDbSpline
 70
8
 71
3
 72
8
 73
4
 74
0
 40
0
 40
0
 40
0
 40
0
 40
1
 40
1
 40
1
 40
1
 10
907.453378
 20
46.133592
 30
0.0
 10
906.785586
 20
45.747988
 30
0.0
 10
906.375728
 20
45.035703
 30
0.0
 10
906.378945
 20
44.266353
 30
0.0
  0
SPLINE
  5
15d
100
AcDbEntity
  8
0
 62
1
100
AcDbSpline
 70
8
 71
3
 72
8
 73
4
 74
0
 40
0
 40
0
 40
0
 40
0
 40
1
 40
1
 40
1
 40
1
 10
906.378945
 20
44.266353
 30
0.0
 10
906.375728
 20
43.497002
 30
0.0
 10
906.785586
 20
42.784717
 30
0.0
 10
907.453378
 20
42.399113
 30
0.0
  0
SPLINE
  5
15e
100
AcDbEntity
  8
0
 62
1
100
AcDbSpline
 70
8
 71
3
 72
8
 73
4
 74
0
 40
0
 40
0
 40
0
 40
0
 40
1
 40
1
 40
1
 40
1
 10
907.453378
 20
42.399113
 30
0.0
 10
908.121169
 20
42.013510
 30
0.0
 10
908.944851
 20
42.013510
 30
0.0
 10
909.612643
 20
42.399113
 30
0.0
  0
SPLINE
  5
15f
100
AcDbEntity
  8
0
 62
1
100
AcDbSpline
 70
8
 71
3
 72
8
 73
4
 74
0
 40
0
 40
0
 40
0
 40
0
 40
1
 40
1
 40
1
 40
1
 10
909.612643
 20
42.399113
 30
0.0
 10
910.280434
 20
42.784717
 30
0.0
 10
910.690292
 20
43.497002
 30
0.0
 10
910.687076
 20
44.266353
 30
0.0
  0
LWPOLYLINE
  5
160
100
AcDbEntity
  8
0
 62
1
100
AcDbPolyline
 90
1
 70
1
 10
177.842098
 20
283.811342
 30
0.0
  0
SPLINE
  5
161
100
AcDbEntity
  8
0
 62
1
100
AcDbSpline
 70
8
 71
3
 72
8
 73
4
 74
0
 40
0
 40
0
 40
0
 40
0
 40
1
 40
1
 40
1
 40
1
 10
70.375904
 20
44.173008
 30
0.0
 10
70.375904
 20
44.942524
 30
0.0
 10
69.965373
 20
45.653586
 30
0.0
 10
69.298952
 20
46.038344
 30
0.0
  0
SPLINE
  5
162
100
AcDbEntity
  8
0
 62
1
100
AcDbSpline
 70
8
 71
3
 72
8
 73
4
 74
0
 40
0
 40
0
 40
0
 40
0
 40
1
 40
1
 40
1
 40
1
 10
69.298952
 20
46.038344
 30
0.0
 10
68.632532
 20
46.423102
 30
0.0
 10
67.811468
 20
46.423102
 30
0.0
 10
67.145048
 20
46.038344
 30
0.0
  0
SPLINE
  5
163
100
AcDbEntity
  8
0
 62
1
100
AcDbSpline
 70
8
 71
3
 72
8
 73
4
 74
0
 40
0
 40
0
 40
0
 40
0
 40
1
 40
1
 40
1
 40
1
 10
67.145048
 20
46.038344
 30
0.0
 10
66.478628
 20
45.653586
 30
0.0
 10
66.068096
 20
44.942524
 30
0.0
 10
66.068096
 20
44.173008
 30
0.0
  0
SPLINE
  5
164
100
AcDbEntity
  8
0
 62
1
100
AcDbSpline
 70
8
 71
3
 72
8
 73
4
 74
0
 40
0
 40
0
 40
0
 40
0
 40
1
 40
1
 40
1
 40
1
 10
66.068096
 20
44.173008
 30
0.0
 10
66.068096
 20
43.403492
 30
0.0
 10
66.478628
 20
42.692430
 30
0.0
 10
67.145048
 20
42.307672
 30
0.0
  0
SPLINE
  5
165
100
AcDbEntity
  8
0
 62
1
100
AcDbSpline
 70
8
 71
3
 72
8
 73
4
 74
0
 40
0
 40
0
 40
0
 40
0
 40
1
 40
1
 40
1
 40
1
 10
67.145048
 20
42.307672
 30
0.0
 10
67.811468
 20
41.922914
 30
0.0
 10
68.632532
 20
41.922914
 30
0.0
 10
69.298952
 20
42.307672
 30
0.0
  0
SPLINE
  5
166
100
AcDbEntity
  8
0
 62
1
100
AcDbSpline
 70
8
 71
3
 72
8
 73
4
 74
0
 40
0
 40
0
 40
0
 40
0
 40
1
 40
1
 40
1
 40
1
 10
69.298952
 20
42.307672
 30
0.0
 10
69.965373
 20
42.692430
 30
0.0
 10
70.375904
 20
43.403492
 30
0.0
 10
70.375904
 20
44.173008
 30
0.0
  0
LWPOLYLINE
  5
167
100
AcDbEntity
  8
0
 62
1
100
AcDbPolyline
 90
1
 70
1
 10
910.687076
 20
44.266353
 30
0.0
  0
SPLINE
  5
168
100
AcDbEntity
  8
0
 62
1
100
AcDbSpline
 70
8
 71
3
 72
8
 73
4
 74
0
 40
0
 40
0
 40
0
 40
0
 40
1
 40
1
 40
1
 40
1
 10
9.342080
 20
107.500994
 30
0.0
 10
9.342080
 20
108.275575
 30
0.0
 10
8.928846
 20
108.991317
 30
0.0
 10
8.258040
 20
109.378607
 30
0.0
  0
SPLINE
  5
169
100
AcDbEntity
  8
0
 62
1
100
AcDbSpline
 70
8
 71
3
 72
8
 73
4
 74
0
 40
0
 40
0
 40
0
 40
0
 40
1
 40
1
 40
1
 40
1
 10
8.258040
 20
109.378607
 30
0.0
 10
7.587234
 20
109.765898
 30
0.0
 10
6.760766
 20
109.765898
 30
0.0
 10
6.089960
 20
109.378607
 30
0.0
  0
SPLINE
  5
16a
100
AcDbEntity
  8
0
 62
1
100
AcDbSpline
 70
8
 71
3
 72
8
 73
4
 74
0
 40
0
 40
0
 40
0
 40
0
 40
1
 40
1
 40
1
 40
1
 10
6.089960
 20
109.378607
 30
0.0
 10
5.419154
 20
108.991317
 30
0.0
 10
5.005920
 20
108.275575
 30
0.0
 10
5.005920
 20
107.500994
 30
0.0
  0
SPLINE
  5
16b
100
AcDbEntity
  8
0
 62
1
100
AcDbSpline
 70
8
 71
3
 72
8
 73
4
 74
0
 40
0
 40
0
 40
0
 40
0
 40
1
 40
1
 40
1
 40
1
 10
5.005920
 20
107.500994
 30
0.0
 10
5.005920
 20
106.726413
 30
0.0
 10
5.419154
 20
106.010671
 30
0.0
 10
6.089960
 20
105.623381
 30
0.0
  0
SPLINE
  5
16c
100
AcDbEntity
  8
0
 62
1
100
AcDbSpline
 70
8
 71
3
 72
8
 73
4
 74
0
 40
0
 40
0
 40
0
 40
0
 40
1
 40
1
 40
1
 40
1
 10
6.089960
 20
105.623381
 30
0.0
 10
6.760766
 20
105.236091
 30
0.0
 10
7.587234
 20
105.236091
 30
0.0
 10
8.258040
 20
105.623381
 30
0.0
  0
SPLINE
  5
16d
100
AcDbEntity
  8
0
 62
1
100
AcDbSpline
 70
8
 71
3
 72
8
 73
4
 74
0
 40
0
 40
0
 40
0
 40
0
 40
1
 40
1
 40
1
 40
1
 10
8.258040
 20
105.623381
 30
0.0
 10
8.928846
 20
106.010671
 30
0.0
 10
9.342080
 20
106.726413
 30
0.0
 10
9.342080
 20
107.500994
 30
0.0
  0
LWPOLYLINE
  5
16e
100
AcDbEntity
  8
0
 62
1
100
AcDbPolyline
 90
1
 70
1
 10
70.375904
 20
44.173008
 30
0.0
  0
SPLINE
  5
16f
100
AcDbEntity
  8
0
 62
1
100
AcDbSpline
 70
8
 71
3
 72
8
 73
4
 74
0
 40
0
 40
0
 40
0
 40
0
 40
1
 40
1
 40
1
 40
1
 10
26.005080
 20
226.902994
 30
0.0
 10
26.005080
 20
227.677575
 30
0.0
 10
25.591846
 20
228.393317
 30
0.0
 10
24.921040
 20
228.780607
 30
0.0
  0
SPLINE
  5
170
100
AcDbEntity
  8
0
 62
1
100
AcDbSpline
 70
8
 71
3
 72
8
 73
4
 74
0
 40
0
 40
0
 40
0
 40
0
 40
1
 40
1
 40
1
 40
1
 10
24.921040
 20
228.780607
 30
0.0
 10
24.250234
 20
229.167898
 30
0.0
 10
23.423766
 20
229.167898
 30
0.0
 10
22.752960
 20
228.780607
 30
0.0
  0
SPLINE
  5
171
100
AcDbEntity
  8
0
 62
1
100
AcDbSpline
 70
8
 71
3
 72
8
 73
4
 74
0
 40
0
 40
0
 40
0
 40
0
 40
1
 40
1
 40
1
 40
1
 10
22.752960
 20
228.780607
 30
0.0
 10
22.082154
 20
228.393317
 30
0.0
 10
21.668920
 20
227.677575
 30
0.0
 10
21.668920
 20
226.902994
 30
0.0
  0
SPLINE
  5
172
100
AcDbEntity
  8
0
 62
1
100
AcDbSpline
 70
8
 71
3
 72
8
 73
4
 74
0
 40
0
 40
0
 40
0
 40
0
 40
1
 40
1
 40
1
 40
1
 10
21.668920
 20
226.902994
 30
0.0
 10
21.668920
 20
226.128414
 30
0.0
 10
22.082154
 20
225.412672
 30
0.0
 10
22.752960
 20
225.025381
 30
0.0
  0
SPLINE
  5
173
100
AcDbEntity
  8
0
 62
1
100
AcDbSpline
 70
8
 71
3
 72
8
 73
4
 74
0
 40
0
 40
0
 40
0
 40
0
 40
1
 40
1
 40
1
 40
1
 10
22.752960
 20
225.025381
 30
0.0
 10
23.423766
 20
224.638091
 30
0.0
 10
24.250234
 20
224.638091
 30
0.0
 10
24.921040
 20
225.025381
 30
0.0
  0
SPLINE
  5
174
100
AcDbEntity
  8
0
 62
1
100
AcDbSpline
 70
8
 71
3
 72
8
 73
4
 74
0
 40
0
 40
0
 40
0
 40
0
 40
1
 40
1
 40
1
 40
1
 10
24.921040
 20
225.025381
 30
0.0
 10
25.591846
 20
225.412672
 30
0.0
 10
26.005080
 20
226.128414
 30
0.0
 10
26.005080
 20
226.902994
 30
0.0
  0
LWPOLYLINE
  5
175
100
AcDbEntity
  8
0
 62
1
100
AcDbPolyline
 90
1
 70
1
 10
9.342080
 20
107.500994
 30
0.0
  0
SPLINE
  5
176
100
AcDbEntity
  8
0
 62
1
100
AcDbSpline
 70
8
 71
3
 72
8
 73
4
 74
0
 40
0
 40
0
 40
0
 40
0
 40
1
 40
1
 40
1
 40
1
 10
955.086064
 20
226.881624
 30
0.0
 10
955.089397
 20
227.651034
 30
0.0
 10
954.679564
 20
228.363423
 30
0.0
 10
954.011725
 20
228.749090
 30
0.0
  0
SPLINE
  5
177
100
AcDbEntity
  8
0
 62
1
100
AcDbSpline
 70
8
 71
3
 72
8
 73
4
 74
0
 40
0
 40
0
 40
0
 40
0
 40
1
 40
1
 40
1
 40
1
 10
954.011725
 20
228.749090
 30
0.0
 10
953.343886
 20
229.134757
 30
0.0
 10
952.520111
 20
229.134757
 30
0.0
 10
951.852272
 20
228.749090
 30
0.0
  0
SPLINE
  5
178
100
AcDbEntity
  8
0
 62
1
100
AcDbSpline
 70
8
 71
3
 72
8
 73
4
 74
0
 40
0
 40
0
 40
0
 40
0
 40
1
 40
1
 40
1
 40
1
 10
951.852272
 20
228.749090
 30
0.0
 10
951.184432
 20
228.363423
 30
0.0
 10
950.774600
 20
227.651034
 30
0.0
 10
950.777933
 20
226.881624
 30
0.0
  0
SPLINE
  5
179
100
AcDbEntity
  8
0
 62
1
100
AcDbSpline
 70
8
 71
3
 72
8
 73
4
 74
0
 40
0
 40
0
 40
0
 40
0
 40
1
 40
1
 40
1
 40
1
 10
950.777933
 20
226.881624
 30
0.0
 10
950.774600
 20
226.112214
 30
0.0
 10
951.184432
 20
225.399825
 30
0.0
 10
951.852272
 20
225.014157
 30
0.0
  0
SPLINE
  5
17a
100
AcDbEntity
  8
0
 62
1
100
AcDbSpline
 70
8
 71
3
 72
8
 73
4
 74
0
 40
0
 40
0
 40
0
 40
0
 40
1
 40
1
 40
1
 40
1
 10
951.852272
 20
225.014157
 30
0.0
 10
952.520111
 20
224.628490
 30
0.0
 10
953.343886
 20
224.628490
 30
0.0
 10
954.011725
 20
225.014157
 30
0.0
  0
SPLINE
  5
17b
100
AcDbEntity
  8
0
 62
1
100
AcDbSpline
 70
8
 71
3
 72
8
 73
4
 74
0
 40
0
 40
0
 40
0
 40
0
 40
1
 40
1
 40
1
 40
1
 10
954.011725
 20
225.014157
 30
0.0
 10
954.679564
 20
225.399825
 30
0.0
 10
955.089397
 20
226.112214
 30
0.0
 10
955.086064
 20
226.881624
 30
0.0
  0
LWPOLYLINE
  5
17c
100
AcDbEntity
  8
0
 62
1
100
AcDbPolyline
 90
1
 70
1
 10
26.005080
 20
226.902994
 30
0.0
  0
SPLINE
  5
17d
100
AcDbEntity
  8
0
 62
7
100
AcDbSpline
 70
8
 71
3
 72
8
 73
4
 74
0
 40
0
 40
0
 40
0
 40
0
 40
1
 40
1
 40
1
 40
1
 10
544.116948
 20
6.056868
 30
0.0
 10
568.666074
 20
26.275903
 30
0.0
 10
591.570921
 20
35.083115
 30
0.0
 10
615.377653
 20
35.083115
 30
0.0
  0
SPLINE
  5
17e
100
AcDbEntity
  8
0
 62
7
100
AcDbSpline
 70
8
 71
3
 72
8
 73
4
 74
0
 40
0
 40
0
 40
0
 40
0
 40
1
 40
1
 40
1
 40
1
 10
361.396809
 20
35.083115
 30
0.0
 10
385.203541
 20
35.083115
 30
0.0
 10
408.108388
 20
26.275903
 30
0.0
 10
432.657515
 20
6.056868
 30
0.0
  0
LWPOLYLINE
  5
17f
100
AcDbEntity
  8
0
 62
1
100
AcDbPolyline
 90
1
 70
1
 10
955.086064
 20
226.881624
 30
0.0
  0
LWPOLYLINE
  5
180
100
AcDbEntity
  8
0
 62
7
100
AcDbPolyline
 90
2
 70
0
 10
59.131782
 20
64.877865
 30
0.0
 10
59.131782
 20
54.080886
 30
0.0
  0
LWPOLYLINE
  5
181
100
AcDbEntity
  8
0
 62
7
100
AcDbPolyline
 90
2
 70
0
 10
12.119054
 20
100.446295
 30
0.0
 10
23.563368
 20
100.446295
 30
0.0
  0
LWPOLYLINE
  5
182
100
AcDbEntity
  8
0
 62
7
100
AcDbPolyline
 90
2
 70
0
 10
0.119063
 20
162.945635
 30
0.0
 10
0.119063
 20
112.446295
 30
0.0
  0
LWPOLYLINE
  5
183
100
AcDbEntity
  8
0
 62
7
100
AcDbPolyline
 90
2
 70
0
 10
225.639458
 20
288.805988
 30
0.0
 10
119.332904
 20
288.805988
 30
0.0
  0
LWPOLYLINE
  5
184
100
AcDbEntity
  8
0
 62
7
100
AcDbPolyline
 90
2
 70
0
 10
581.641294
 20
323.411786
 30
0.0
 10
395.133169
 20
323.411786
 30
0.0
  0
LWPOLYLINE
  5
185
100
AcDbEntity
  8
0
 62
7
100
AcDbPolyline
 90
2
 70
0
 10
857.441558
 20
288.805988
 30
0.0
 10
751.135018
 20
288.805988
 30
0.0
  0
LWPOLYLINE
  5
186
100
AcDbEntity
  8
0
 62
7
100
AcDbPolyline
 90
2
 70
0
 10
976.655400
 20
112.446295
 30
0.0
 10
976.655400
 20
162.945635
 30
0.0
  0
LWPOLYLINE
  5
187
100
AcDbEntity
  8
0
 62
7
100
AcDbPolyline
 90
2
 70
0
 10
953.211094
 20
100.446295
 30
0.0
 10
964.655408
 20
100.446295
 30
0.0
  0
LWPOLYLINE
  5
188
100
AcDbEntity
  8
0
 62
7
100
AcDbPolyline
 90
2
 70
0
 10
917.642680
 20
54.080886
 30
0.0
 10
917.642680
 20
64.877865
 30
0.0
  0
LWPOLYLINE
  5
189
100
AcDbEntity
  8
0
 62
7
100
AcDbPolyline
 90
2
 70
0
 10
615.377653
 20
35.083115
 30
0.0
 10
898.644909
 20
35.083115
 30
0.0
  0
LWPOLYLINE
  5
18a
100
AcDbEntity
  8
0
 62
7
100
AcDbPolyline
 90
2
 70
0
 10
449.206779
 20
0.119089
 30
0.0
 10
527.567710
 20
0.119089
 30
0.0
  0
SPLINE
  5
18b
100
AcDbEntity
  8
0
 62
7
100
AcDbSpline
 70
8
 71
3
 72
8
 73
4
 74
0
 40
0
 40
0
 40
0
 40
0
 40
1
 40
1
 40
1
 40
1
 10
59.131782
 20
54.080886
 30
0.0
 10
59.131779
 20
49.042363
 30
0.0
 10
61.133323
 20
44.210204
 30
0.0
 10
64.696097
 20
40.647430
 30
0.0
  0
SPLINE
  5
18c
100
AcDbEntity
  8
0
 62
7
100
AcDbSpline
 70
8
 71
3
 72
8
 73
4
 74
0
 40
0
 40
0
 40
0
 40
0
 40
1
 40
1
 40
1
 40
1
 10
64.696097
 20
40.647430
 30
0.0
 10
68.258871
 20
37.084656
 30
0.0
 10
73.091030
 20
35.083112
 30
0.0
 10
78.129553
 20
35.083115
 30
0.0
  0
SPLINE
  5
18d
100
AcDbEntity
  8
0
 62
7
100
AcDbSpline
 70
8
 71
3
 72
8
 73
4
 74
0
 40
0
 40
0
 40
0
 40
0
 40
1
 40
1
 40
1
 40
1
 10
59.131782
 20
64.877865
 30
0.0
 10
59.131785
 20
84.521762
 30
0.0
 10
43.207265
 20
100.446289
 30
0.0
 10
23.563368
 20
100.446295
 30
0.0
  0
SPLINE
  5
18e
100
AcDbEntity
  8
0
 62
7
100
AcDbSpline
 70
8
 71
3
 72
8
 73
4
 74
0
 40
0
 40
0
 40
0
 40
0
 40
1
 40
1
 40
1
 40
1
 10
0.119062
 20
112.446295
 30
0.0
 10
0.119063
 20
105.818881
 30
0.0
 10
5.491641
 20
100.446299
 30
0.0
 10
12.119054
 20
100.446295
 30
0.0
  0
SPLINE
  5
18f
100
AcDbEntity
  8
0
 62
7
100
AcDbSpline
 70
8
 71
3
 72
8
 73
4
 74
0
 40
0
 40
0
 40
0
 40
0
 40
1
 40
1
 40
1
 40
1
 10
119.332904
 20
288.805988
 30
0.0
 10
52.472794
 20
285.176772
 30
0.0
 10
0.119062
 20
229.904171
 30
0.0
 10
0.119062
 20
162.945634
 30
0.0
  0
SPLINE
  5
190
100
AcDbEntity
  8
0
 62
7
100
AcDbSpline
 70
8
 71
3
 72
8
 73
4
 74
0
 40
0
 40
0
 40
0
 40
0
 40
1
 40
1
 40
1
 40
1
 10
225.639458
 20
288.805988
 30
0.0
 10
267.357030
 20
288.805988
 30
0.0
 10
308.644457
 20
297.235707
 30
0.0
 10
347.023134
 20
313.589083
 30
0.0
  0
SPLINE
  5
191
100
AcDbEntity
  8
0
 62
7
100
AcDbSpline
 70
8
 71
3
 72
8
 73
4
 74
0
 40
0
 40
0
 40
0
 40
0
 40
1
 40
1
 40
1
 40
1
 10
395.133169
 20
323.411786
 30
0.0
 10
378.598541
 20
323.411785
 30
0.0
 10
362.234401
 20
320.070692
 30
0.0
 10
347.023134
 20
313.589083
 30
0.0
  0
SPLINE
  5
192
100
AcDbEntity
  8
0
 62
7
100
AcDbSpline
 70
8
 71
3
 72
8
 73
4
 74
0
 40
0
 40
0
 40
0
 40
0
 40
1
 40
1
 40
1
 40
1
 10
629.751328
 20
313.589083
 30
0.0
 10
614.540061
 20
320.070692
 30
0.0
 10
598.175921
 20
323.411785
 30
0.0
 10
581.641294
 20
323.411786
 30
0.0
  0
SPLINE
  5
193
100
AcDbEntity
  8
0
 62
7
100
AcDbSpline
 70
8
 71
3
 72
8
 73
4
 74
0
 40
0
 40
0
 40
0
 40
0
 40
1
 40
1
 40
1
 40
1
 10
629.751328
 20
313.589083
 30
0.0
 10
668.130010
 20
297.235705
 30
0.0
 10
709.417441
 20
288.805987
 30
0.0
 10
751.135018
 20
288.805988
 30
0.0
  0
SPLINE
  5
194
100
AcDbEntity
  8
0
 62
7
100
AcDbSpline
 70
8
 71
3
 72
8
 73
4
 74
0
 40
0
 40
0
 40
0
 40
0
 40
1
 40
1
 40
1
 40
1
 10
976.655400
 20
162.945634
 30
0.0
 10
976.655400
 20
229.904171
 30
0.0
 10
924.301669
 20
285.176772
 30
0.0
 10
857.441558
 20
288.805988
 30
0.0
  0
SPLINE
  5
195
100
AcDbEntity
  8
0
 62
7
100
AcDbSpline
 70
8
 71
3
 72
8
 73
4
 74
0
 40
0
 40
0
 40
0
 40
0
 40
1
 40
1
 40
1
 40
1
 10
964.655408
 20
100.446295
 30
0.0
 10
971.282822
 20
100.446299
 30
0.0
 10
976.655400
 20
105.818881
 30
0.0
 10
976.655400
 20
112.446295
 30
0.0
  0
SPLINE
  5
196
100
AcDbEntity
  8
0
 62
7
100
AcDbSpline
 70
8
 71
3
 72
8
 73
4
 74
0
 40
0
 40
0
 40
0
 40
0
 40
1
 40
1
 40
1
 40
1
 10
953.211094
 20
100.446295
 30
0.0
 10
933.567198
 20
100.446289
 30
0.0
 10
917.642677
 20
84.521762
 30
0.0
 10
917.642680
 20
64.877865
 30
0.0
  0
SPLINE
  5
197
100
AcDbEntity
  8
0
 62
7
100
AcDbSpline
 70
8
 71
3
 72
8
 73
4
 74
0
 40
0
 40
0
 40
0
 40
0
 40
1
 40
1
 40
1
 40
1
 10
898.644909
 20
35.083115
 30
0.0
 10
903.683432
 20
35.083112
 30
0.0
 10
908.515592
 20
37.084656
 30
0.0
 10
912.078366
 20
40.647430
 30
0.0
  0
SPLINE
  5
198
100
AcDbEntity
  8
0
 62
7
100
AcDbSpline
 70
8
 71
3
 72
8
 73
4
 74
0
 40
0
 40
0
 40
0
 40
0
 40
1
 40
1
 40
1
 40
1
 10
912.078366
 20
40.647430
 30
0.0
 10
915.641140
 20
44.210204
 30
0.0
 10
917.642684
 20
49.042363
 30
0.0
 10
917.642680
 20
54.080886
 30
0.0
  0
SPLINE
  5
199
100
AcDbEntity
  8
0
 62
7
100
AcDbSpline
 70
8
 71
3
 72
8
 73
4
 74
0
 40
0
 40
0
 40
0
 40
0
 40
1
 40
1
 40
1
 40
1
 10
527.567710
 20
0.119089
 30
0.0
 10
533.605824
 20
0.119092
 30
0.0
 10
539.456143
 20
2.218155
 30
0.0
 10
544.116948
 20
6.056868
 30
0.0
  0
SPLINE
  5
19a
100
AcDbEntity
  8
0
 62
7
100
AcDbSpline
 70
8
 71
3
 72
8
 73
4
 74
0
 40
0
 40
0
 40
0
 40
0
 40
1
 40
1
 40
1
 40
1
 10
432.657515
 20
6.056868
 30
0.0
 10
437.318327
 20
2.218150
 30
0.0
 10
443.168656
 20
0.119086
 30
0.0
 10
449.206779
 20
0.119089
 30
0.0
  0
SPLINE
  5
19b
100
AcDbEntity
  8
0
 62
1
100
AcDbSpline
 70
8
 71
3
 72
8
 73
4
 74
0
 40
0
 40
0
 40
0
 40
0
 40
1
 40
1
 40
1
 40
1
 10
241.847476
 20
55.083895
 30
0.0
 10
241.847476
 20
52.949267
 30
0.0
 10
240.708665
 20
50.976789
 30
0.0
 10
238.860023
 20
49.909475
 30
0.0
  0
SPLINE
  5
19c
100
AcDbEntity
  8
0
 62
1
100
AcDbSpline
 70
8
 71
3
 72
8
 73
4
 74
0
 40
0
 40
0
 40
0
 40
0
 40
1
 40
1
 40
1
 40
1
 10
238.860023
 20
49.909475
 30
0.0
 10
237.011381
 20
48.842161
 30
0.0
 10
234.733760
 20
48.842161
 30
0.0
 10
232.885117
 20
49.909475
 30
0.0
  0
SPLINE
  5
19d
100
AcDbEntity
  8
0
 62
1
100
AcDbSpline
 70
8
 71
3
 72
8
 73
4
 74
0
 40
0
 40
0
 40
0
 40
0
 40
1
 40
1
 40
1
 40
1
 10
232.885117
 20
49.909475
 30
0.0
 10
231.036475
 20
50.976789
 30
0.0
 10
229.897665
 20
52.949267
 30
0.0
 10
229.897665
 20
55.083895
 30
0.0
  0
SPLINE
  5
19e
100
AcDbEntity
  8
0
 62
1
100
AcDbSpline
 70
8
 71
3
 72
8
 73
4
 74
0
 40
0
 40
0
 40
0
 40
0
 40
1
 40
1
 40
1
 40
1
 10
229.897665
 20
55.083895
 30
0.0
 10
229.897665
 20
57.218523
 30
0.0
 10
231.036475
 20
59.191001
 30
0.0
 10
232.885117
 20
60.258315
 30
0.0
  0
SPLINE
  5
19f
100
AcDbEntity
  8
0
 62
1
100
AcDbSpline
 70
8
 71
3
 72
8
 73
4
 74
0
 40
0
 40
0
 40
0
 40
0
 40
1
 40
1
 40
1
 40
1
 10
232.885117
 20
60.258315
 30
0.0
 10
234.733760
 20
61.325630
 30
0.0
 10
237.011381
 20
61.325630
 30
0.0
 10
238.860023
 20
60.258315
 30
0.0
  0
SPLINE
  5
1a0
100
AcDbEntity
  8
0
 62
1
100
AcDbSpline
 70
8
 71
3
 72
8
 73
4
 74
0
 40
0
 40
0
 40
0
 40
0
 40
1
 40
1
 40
1
 40
1
 10
238.860023
 20
60.258315
 30
0.0
 10
240.708665
 20
59.191001
 30
0.0
 10
241.847476
 20
57.218523
 30
0.0
 10
241.847476
 20
55.083895
 30
0.0
  0
LWPOLYLINE
  5
1a1
100
AcDbEntity
  8
0
 62
7
100
AcDbPolyline
 90
2
 70
0
 10
78.129553
 20
35.083115
 30
0.0
 10
361.396809
 20
35.083115
 30
0.0
  0
SPLINE
  5
1a2
100
AcDbEntity
  8
0
 62
1
100
AcDbSpline
 70
8
 71
3
 72
8
 73
4
 74
0
 40
0
 40
0
 40
0
 40
0
 40
1
 40
1
 40
1
 40
1
 10
319.732533
 20
55.083895
 30
0.0
 10
319.732533
 20
51.784046
 30
0.0
 10
317.057477
 20
49.108990
 30
0.0
 10
313.757628
 20
49.108990
 30
0.0
  0
SPLINE
  5
1a3
100
AcDbEntity
  8
0
 62
1
100
AcDbSpline
 70
8
 71
3
 72
8
 73
4
 74
0
 40
0
 40
0
 40
0
 40
0
 40
1
 40
1
 40
1
 40
1
 10
313.757628
 20
49.108990
 30
0.0
 10
310.457778
 20
49.108990
 30
0.0
 10
307.782722
 20
51.784046
 30
0.0
 10
307.782722
 20
55.083895
 30
0.0
  0
SPLINE
  5
1a4
100
AcDbEntity
  8
0
 62
1
100
AcDbSpline
 70
8
 71
3
 72
8
 73
4
 74
0
 40
0
 40
0
 40
0
 40
0
 40
1
 40
1
 40
1
 40
1
 10
307.782722
 20
55.083895
 30
0.0
 10
307.782722
 20
58.383744
 30
0.0
 10
310.457778
 20
61.058800
 30
0.0
 10
313.757628
 20
61.058800
 30
0.0
  0
SPLINE
  5
1a5
100
AcDbEntity
  8
0
 62
1
100
AcDbSpline
 70
8
 71
3
 72
8
 73
4
 74
0
 40
0
 40
0
 40
0
 40
0
 40
1
 40
1
 40
1
 40
1
 10
313.757628
 20
61.058800
 30
0.0
 10
317.057477
 20
61.058800
 30
0.0
 10
319.732533
 20
58.383744
 30
0.0
 10
319.732533
 20
55.083895
 30
0.0
  0
LWPOLYLINE
  5
1a6
100
AcDbEntity
  8
0
 62
1
100
AcDbPolyline
 90
1
 70
1
 10
241.847476
 20
55.083895
 30
0.0
  0
SPLINE
  5
1a7
100
AcDbEntity
  8
0
 62
1
100
AcDbSpline
 70
8
 71
3
 72
8
 73
4
 74
0
 40
0
 40
0
 40
0
 40
0
 40
1
 40
1
 40
1
 40
1
 10
669.116995
 20
55.083895
 30
0.0
 10
669.116995
 20
52.949267
 30
0.0
 10
667.978184
 20
50.976789
 30
0.0
 10
666.129542
 20
49.909475
 30
0.0
  0
SPLINE
  5
1a8
100
AcDbEntity
  8
0
 62
1
100
AcDbSpline
 70
8
 71
3
 72
8
 73
4
 74
0
 40
0
 40
0
 40
0
 40
0
 40
1
 40
1
 40
1
 40
1
 10
666.129542
 20
49.909475
 30
0.0
 10
664.280899
 20
48.842161
 30
0.0
 10
662.003278
 20
48.842161
 30
0.0
 10
660.154636
 20
49.909475
 30
0.0
  0
SPLINE
  5
1a9
100
AcDbEntity
  8
0
 62
1
100
AcDbSpline
 70
8
 71
3
 72
8
 73
4
 74
0
 40
0
 40
0
 40
0
 40
0
 40
1
 40
1
 40
1
 40
1
 10
660.154636
 20
49.909475
 30
0.0
 10
658.305994
 20
50.976789
 30
0.0
 10
657.167183
 20
52.949267
 30
0.0
 10
657.167183
 20
55.083895
 30
0.0
  0
SPLINE
  5
1aa
100
AcDbEntity
  8
0
 62
1
100
AcDbSpline
 70
8
 71
3
 72
8
 73
4
 74
0
 40
0
 40
0
 40
0
 40
0
 40
1
 40
1
 40
1
 40
1
 10
657.167183
 20
55.083895
 30
0.0
 10
657.167183
 20
57.218523
 30
0.0
 10
658.305994
 20
59.191001
 30
0.0
 10
660.154636
 20
60.258315
 30
0.0
  0
SPLINE
  5
1ab
100
AcDbEntity
  8
0
 62
1
100
AcDbSpline
 70
8
 71
3
 72
8
 73
4
 74
0
 40
0
 40
0
 40
0
 40
0
 40
1
 40
1
 40
1
 40
1
 10
660.154636
 20
60.258315
 30
0.0
 10
662.003278
 20
61.325630
 30
0.0
 10
664.280899
 20
61.325630
 30
0.0
 10
666.129542
 20
60.258315
 30
0.0
  0
SPLINE
  5
1ac
100
AcDbEntity
  8
0
 62
1
100
AcDbSpline
 70
8
 71
3
 72
8
 73
4
 74
0
 40
0
 40
0
 40
0
 40
0
 40
1
 40
1
 40
1
 40
1
 10
666.129542
 20
60.258315
 30
0.0
 10
667.978184
 20
59.191001
 30
0.0
 10
669.116995
 20
57.218523
 30
0.0
 10
669.116995
 20
55.083895
 30
0.0
  0
LWPOLYLINE
  5
1ad
100
AcDbEntity
  8
0
 62
1
100
AcDbPolyline
 90
1
 70
1
 10
319.732533
 20
55.083895
 30
0.0
  0
SPLINE
  5
1ae
100
AcDbEntity
  8
0
 62
1
100
AcDbSpline
 70
8
 71
3
 72
8
 73
4
 74
0
 40
0
 40
0
 40
0
 40
0
 40
1
 40
1
 40
1
 40
1
 10
630.207925
 20
55.083895
 30
0.0
 10
630.207925
 20
52.949267
 30
0.0
 10
629.069115
 20
50.976789
 30
0.0
 10
627.220472
 20
49.909475
 30
0.0
  0
SPLINE
  5
1af
100
AcDbEntity
  8
0
 62
1
100
AcDbSpline
 70
8
 71
3
 72
8
 73
4
 74
0
 40
0
 40
0
 40
0
 40
0
 40
1
 40
1
 40
1
 40
1
 10
627.220472
 20
49.909475
 30
0.0
 10
625.371830
 20
48.842161
 30
0.0
 10
623.094209
 20
48.842161
 30
0.0
 10
621.245566
 20
49.909475
 30
0.0
  0
SPLINE
  5
1b0
100
AcDbEntity
  8
0
 62
1
100
AcDbSpline
 70
8
 71
3
 72
8
 73
4
 74
0
 40
0
 40
0
 40
0
 40
0
 40
1
 40
1
 40
1
 40
1
 10
621.245566
 20
49.909475
 30
0.0
 10
619.396924
 20
50.976789
 30
0.0
 10
618.258114
 20
52.949267
 30
0.0
 10
618.258114
 20
55.083895
 30
0.0
  0
SPLINE
  5
1b1
100
AcDbEntity
  8
0
 62
1
100
AcDbSpline
 70
8
 71
3
 72
8
 73
4
 74
0
 40
0
 40
0
 40
0
 40
0
 40
1
 40
1
 40
1
 40
1
 10
618.258114
 20
55.083895
 30
0.0
 10
618.258114
 20
57.218523
 30
0.0
 10
619.396924
 20
59.191001
 30
0.0
 10
621.245566
 20
60.258315
 30
0.0
  0
SPLINE
  5
1b2
100
AcDbEntity
  8
0
 62
1
100
AcDbSpline
 70
8
 71
3
 72
8
 73
4
 74
0
 40
0
 40
0
 40
0
 40
0
 40
1
 40
1
 40
1
 40
1
 10
621.245566
 20
60.258315
 30
0.0
 10
623.094209
 20
61.325630
 30
0.0
 10
625.371830
 20
61.325630
 30
0.0
 10
627.220472
 20
60.258315
 30
0.0
  0
SPLINE
  5
1b3
100
AcDbEntity
  8
0
 62
1
100
AcDbSpline
 70
8
 71
3
 72
8
 73
4
 74
0
 40
0
 40
0
 40
0
 40
0
 40
1
 40
1
 40
1
 40
1
 10
627.220472
 20
60.258315
 30
0.0
 10
629.069115
 20
59.191001
 30
0.0
 10
630.207925
 20
57.218523
 30
0.0
 10
630.207925
 20
55.083895
 30
0.0
  0
LWPOLYLINE
  5
1b4
100
AcDbEntity
  8
0
 62
1
100
AcDbPolyline
 90
1
 70
1
 10
669.116995
 20
55.083895
 30
0.0
  0
SPLINE
  5
1b5
100
AcDbEntity
  8
0
 62
1
100
AcDbSpline
 70
8
 71
3
 72
8
 73
4
 74
0
 40
0
 40
0
 40
0
 40
0
 40
1
 40
1
 40
1
 40
1
 10
358.675046
 20
55.083895
 30
0.0
 10
358.675046
 20
52.949267
 30
0.0
 10
357.536235
 20
50.976789
 30
0.0
 10
355.687593
 20
49.909475
 30
0.0
  0
SPLINE
  5
1b6
100
AcDbEntity
  8
0
 62
1
100
AcDbSpline
 70
8
 71
3
 72
8
 73
4
 74
0
 40
0
 40
0
 40
0
 40
0
 40
1
 40
1
 40
1
 40
1
 10
355.687593
 20
49.909475
 30
0.0
 10
353.838951
 20
48.842161
 30
0.0
 10
351.561330
 20
48.842161
 30
0.0
 10
349.712687
 20
49.909475
 30
0.0
  0
SPLINE
  5
1b7
100
AcDbEntity
  8
0
 62
1
100
AcDbSpline
 70
8
 71
3
 72
8
 73
4
 74
0
 40
0
 40
0
 40
0
 40
0
 40
1
 40
1
 40
1
 40
1
 10
349.712687
 20
49.909475
 30
0.0
 10
347.864045
 20
50.976789
 30
0.0
 10
346.725234
 20
52.949267
 30
0.0
 10
346.725234
 20
55.083895
 30
0.0
  0
SPLINE
  5
1b8
100
AcDbEntity
  8
0
 62
1
100
AcDbSpline
 70
8
 71
3
 72
8
 73
4
 74
0
 40
0
 40
0
 40
0
 40
0
 40
1
 40
1
 40
1
 40
1
 10
346.725234
 20
55.083895
 30
0.0
 10
346.725234
 20
57.218523
 30
0.0
 10
347.864045
 20
59.191001
 30
0.0
 10
349.712687
 20
60.258315
 30
0.0
  0
SPLINE
  5
1b9
100
AcDbEntity
  8
0
 62
1
100
AcDbSpline
 70
8
 71
3
 72
8
 73
4
 74
0
 40
0
 40
0
 40
0
 40
0
 40
1
 40
1
 40
1
 40
1
 10
349.712687
 20
60.258315
 30
0.0
 10
351.561330
 20
61.325630
 30
0.0
 10
353.838951
 20
61.325630
 30
0.0
 10
355.687593
 20
60.258315
 30
0.0
  0
SPLINE
  5
1ba
100
AcDbEntity
  8
0
 62
1
100
AcDbSpline
 70
8
 71
3
 72
8
 73
4
 74
0
 40
0
 40
0
 40
0
 40
0
 40
1
 40
1
 40
1
 40
1
 10
355.687593
 20
60.258315
 30
0.0
 10
357.536235
 20
59.191001
 30
0.0
 10
358.675046
 20
57.218523
 30
0.0
 10
358.675046
 20
55.083895
 30
0.0
  0
LWPOLYLINE
  5
1bb
100
AcDbEntity
  8
0
 62
1
100
AcDbPolyline
 90
1
 70
1
 10
630.207925
 20
55.083895
 30
0.0
  0
SPLINE
  5
1bc
100
AcDbEntity
  8
0
 62
1
100
AcDbSpline
 70
8
 71
3
 72
8
 73
4
 74
0
 40
0
 40
0
 40
0
 40
0
 40
1
 40
1
 40
1
 40
1
 10
746.935160
 20
55.083895
 30
0.0
 10
746.935160
 20
52.949267
 30
0.0
 10
745.796349
 20
50.976789
 30
0.0
 10
743.947707
 20
49.909475
 30
0.0
  0
SPLINE
  5
1bd
100
AcDbEntity
  8
0
 62
1
100
AcDbSpline
 70
8
 71
3
 72
8
 73
4
 74
0
 40
0
 40
0
 40
0
 40
0
 40
1
 40
1
 40
1
 40
1
 10
743.947707
 20
49.909475
 30
0.0
 10
742.099065
 20
48.842161
 30
0.0
 10
739.821443
 20
48.842161
 30
0.0
 10
737.972801
 20
49.909475
 30
0.0
  0
SPLINE
  5
1be
100
AcDbEntity
  8
0
 62
1
100
AcDbSpline
 70
8
 71
3
 72
8
 73
4
 74
0
 40
0
 40
0
 40
0
 40
0
 40
1
 40
1
 40
1
 40
1
 10
737.972801
 20
49.909475
 30
0.0
 10
736.124159
 20
50.976789
 30
0.0
 10
734.985348
 20
52.949267
 30
0.0
 10
734.985348
 20
55.083895
 30
0.0
  0
SPLINE
  5
1bf
100
AcDbEntity
  8
0
 62
1
100
AcDbSpline
 70
8
 71
3
 72
8
 73
4
 74
0
 40
0
 40
0
 40
0
 40
0
 40
1
 40
1
 40
1
 40
1
 10
734.985348
 20
55.083895
 30
0.0
 10
734.985348
 20
57.218523
 30
0.0
 10
736.124159
 20
59.191001
 30
0.0
 10
737.972801
 20
60.258315
 30
0.0
  0
SPLINE
  5
1c0
100
AcDbEntity
  8
0
 62
1
100
AcDbSpline
 70
8
 71
3
 72
8
 73
4
 74
0
 40
0
 40
0
 40
0
 40
0
 40
1
 40
1
 40
1
 40
1
 10
737.972801
 20
60.258315
 30
0.0
 10
739.821443
 20
61.325630
 30
0.0
 10
742.099065
 20
61.325630
 30
0.0
 10
743.947707
 20
60.258315
 30
0.0
  0
SPLINE
  5
1c1
100
AcDbEntity
  8
0
 62
1
100
AcDbSpline
 70
8
 71
3
 72
8
 73
4
 74
0
 40
0
 40
0
 40
0
 40
0
 40
1
 40
1
 40
1
 40
1
 10
743.947707
 20
60.258315
 30
0.0
 10
745.796349
 20
59.191001
 30
0.0
 10
746.935160
 20
57.218523
 30
0.0
 10
746.935160
 20
55.083895
 30
0.0
  0
LWPOLYLINE
  5
1c2
100
AcDbEntity
  8
0
 62
1
100
AcDbPolyline
 90
1
 70
1
 10
358.675046
 20
55.083895
 30
0.0
  0
SPLINE
  5
1c3
100
AcDbEntity
  8
0
 62
1
100
AcDbSpline
 70
8
 71
3
 72
8
 73
4
 74
0
 40
0
 40
0
 40
0
 40
0
 40
1
 40
1
 40
1
 40
1
 10
280.790021
 20
55.083895
 30
0.0
 10
280.790020
 20
51.784046
 30
0.0
 10
278.114964
 20
49.108990
 30
0.0
 10
274.815115
 20
49.108990
 30
0.0
  0
SPLINE
  5
1c4
100
AcDbEntity
  8
0
 62
1
100
AcDbSpline
 70
8
 71
3
 72
8
 73
4
 74
0
 40
0
 40
0
 40
0
 40
0
 40
1
 40
1
 40
1
 40
1
 10
274.815115
 20
49.108990
 30
0.0
 10
271.515266
 20
49.108990
 30
0.0
 10
268.840209
 20
51.784046
 30
0.0
 10
268.840209
 20
55.083895
 30
0.0
  0
SPLINE
  5
1c5
100
AcDbEntity
  8
0
 62
1
100
AcDbSpline
 70
8
 71
3
 72
8
 73
4
 74
0
 40
0
 40
0
 40
0
 40
0
 40
1
 40
1
 40
1
 40
1
 10
268.840209
 20
55.083895
 30
0.0
 10
268.840209
 20
57.218523
 30
0.0
 10
269.979020
 20
59.191001
 30
0.0
 10
271.827662
 20
60.258315
 30
0.0
  0
SPLINE
  5
1c6
100
AcDbEntity
  8
0
 62
1
100
AcDbSpline
 70
8
 71
3
 72
8
 73
4
 74
0
 40
0
 40
0
 40
0
 40
0
 40
1
 40
1
 40
1
 40
1
 10
271.827662
 20
60.258315
 30
0.0
 10
273.676304
 20
61.325630
 30
0.0
 10
275.953925
 20
61.325630
 30
0.0
 10
277.802568
 20
60.258315
 30
0.0
  0
SPLINE
  5
1c7
100
AcDbEntity
  8
0
 62
1
100
AcDbSpline
 70
8
 71
3
 72
8
 73
4
 74
0
 40
0
 40
0
 40
0
 40
0
 40
1
 40
1
 40
1
 40
1
 10
277.802568
 20
60.258315
 30
0.0
 10
279.651210
 20
59.191001
 30
0.0
 10
280.790021
 20
57.218523
 30
0.0
 10
280.790021
 20
55.083895
 30
0.0
  0
LWPOLYLINE
  5
1c8
100
AcDbEntity
  8
0
 62
1
100
AcDbPolyline
 90
1
 70
1
 10
746.935160
 20
55.083895
 30
0.0
  0
SPLINE
  5
1c9
100
AcDbEntity
  8
0
 62
1
100
AcDbSpline
 70
8
 71
3
 72
8
 73
4
 74
0
 40
0
 40
0
 40
0
 40
0
 40
1
 40
1
 40
1
 40
1
 10
708.026117
 20
55.083895
 30
0.0
 10
708.026117
 20
52.949267
 30
0.0
 10
706.887306
 20
50.976789
 30
0.0
 10
705.038664
 20
49.909475
 30
0.0
  0
SPLINE
  5
1ca
100
AcDbEntity
  8
0
 62
1
100
AcDbSpline
 70
8
 71
3
 72
8
 73
4
 74
0
 40
0
 40
0
 40
0
 40
0
 40
1
 40
1
 40
1
 40
1
 10
705.038664
 20
49.909475
 30
0.0
 10
703.190022
 20
48.842161
 30
0.0
 10
700.912400
 20
48.842161
 30
0.0
 10
699.063758
 20
49.909475
 30
0.0
  0
SPLINE
  5
1cb
100
AcDbEntity
  8
0
 62
1
100
AcDbSpline
 70
8
 71
3
 72
8
 73
4
 74
0
 40
0
 40
0
 40
0
 40
0
 40
1
 40
1
 40
1
 40
1
 10
699.063758
 20
49.909475
 30
0.0
 10
697.215116
 20
50.976789
 30
0.0
 10
696.076305
 20
52.949267
 30
0.0
 10
696.076305
 20
55.083895
 30
0.0
  0
SPLINE
  5
1cc
100
AcDbEntity
  8
0
 62
1
100
AcDbSpline
 70
8
 71
3
 72
8
 73
4
 74
0
 40
0
 40
0
 40
0
 40
0
 40
1
 40
1
 40
1
 40
1
 10
696.076305
 20
55.083895
 30
0.0
 10
696.076305
 20
57.218523
 30
0.0
 10
697.215116
 20
59.191001
 30
0.0
 10
699.063758
 20
60.258315
 30
0.0
  0
SPLINE
  5
1cd
100
AcDbEntity
  8
0
 62
1
100
AcDbSpline
 70
8
 71
3
 72
8
 73
4
 74
0
 40
0
 40
0
 40
0
 40
0
 40
1
 40
1
 40
1
 40
1
 10
699.063758
 20
60.258315
 30
0.0
 10
700.912400
 20
61.325630
 30
0.0
 10
703.190022
 20
61.325630
 30
0.0
 10
705.038664
 20
60.258315
 30
0.0
  0
SPLINE
  5
1ce
100
AcDbEntity
  8
0
 62
1
100
AcDbSpline
 70
8
 71
3
 72
8
 73
4
 74
0
 40
0
 40
0
 40
0
 40
0
 40
1
 40
1
 40
1
 40
1
 10
705.038664
 20
60.258315
 30
0.0
 10
706.887306
 20
59.191001
 30
0.0
 10
708.026117
 20
57.218523
 30
0.0
 10
708.026117
 20
55.083895
 30
0.0
  0
LWPOLYLINE
  5
1cf
100
AcDbEntity
  8
0
 62
1
100
AcDbPolyline
 90
1
 70
1
 10
280.790021
 20
55.083895
 30
0.0
  0
SPLINE
  5
1d0
100
AcDbEntity
  8
0
 62
1
100
AcDbSpline
 70
8
 71
3
 72
8
 73
4
 74
0
 40
0
 40
0
 40
0
 40
0
 40
1
 40
1
 40
1
 40
1
 10
391.375032
 20
146.698613
 30
0.0
 10
391.375032
 20
143.398764
 30
0.0
 10
388.699976
 20
140.723708
 30
0.0
 10
385.400127
 20
140.723708
 30
0.0
  0
SPLINE
  5
1d1
100
AcDbEntity
  8
0
 62
1
100
AcDbSpline
 70
8
 71
3
 72
8
 73
4
 74
0
 40
0
 40
0
 40
0
 40
0
 40
1
 40
1
 40
1
 40
1
 10
385.400127
 20
140.723708
 30
0.0
 10
382.100278
 20
140.723708
 30
0.0
 10
379.425221
 20
143.398764
 30
0.0
 10
379.425221
 20
146.698613
 30
0.0
  0
SPLINE
  5
1d2
100
AcDbEntity
  8
0
 62
1
100
AcDbSpline
 70
8
 71
3
 72
8
 73
4
 74
0
 40
0
 40
0
 40
0
 40
0
 40
1
 40
1
 40
1
 40
1
 10
379.425221
 20
146.698613
 30
0.0
 10
379.425221
 20
148.833241
 30
0.0
 10
380.564032
 20
150.805719
 30
0.0
 10
382.412674
 20
151.873033
 30
0.0
  0
SPLINE
  5
1d3
100
AcDbEntity
  8
0
 62
1
100
AcDbSpline
 70
8
 71
3
 72
8
 73
4
 74
0
 40
0
 40
0
 40
0
 40
0
 40
1
 40
1
 40
1
 40
1
 10
382.412674
 20
151.873033
 30
0.0
 10
384.261316
 20
152.940347
 30
0.0
 10
386.538937
 20
152.940347
 30
0.0
 10
388.387580
 20
151.873033
 30
0.0
  0
SPLINE
  5
1d4
100
AcDbEntity
  8
0
 62
1
100
AcDbSpline
 70
8
 71
3
 72
8
 73
4
 74
0
 40
0
 40
0
 40
0
 40
0
 40
1
 40
1
 40
1
 40
1
 10
388.387580
 20
151.873033
 30
0.0
 10
390.236222
 20
150.805719
 30
0.0
 10
391.375032
 20
148.833241
 30
0.0
 10
391.375032
 20
146.698613
 30
0.0
  0
LWPOLYLINE
  5
1d5
100
AcDbEntity
  8
0
 62
1
100
AcDbPolyline
 90
1
 70
1
 10
708.026117
 20
55.083895
 30
0.0
  0
SPLINE
  5
1d6
100
AcDbEntity
  8
0
 62
1
100
AcDbSpline
 70
8
 71
3
 72
8
 73
4
 74
0
 40
0
 40
0
 40
0
 40
0
 40
1
 40
1
 40
1
 40
1
 10
58.548440
 20
189.504286
 30
0.0
 10
58.548440
 20
187.369657
 30
0.0
 10
57.409629
 20
185.397180
 30
0.0
 10
55.560987
 20
184.329865
 30
0.0
  0
SPLINE
  5
1d7
100
AcDbEntity
  8
0
 62
1
100
AcDbSpline
 70
8
 71
3
 72
8
 73
4
 74
0
 40
0
 40
0
 40
0
 40
0
 40
1
 40
1
 40
1
 40
1
 10
55.560987
 20
184.329865
 30
0.0
 10
53.712344
 20
183.262551
 30
0.0
 10
51.434723
 20
183.262551
 30
0.0
 10
49.586081
 20
184.329865
 30
0.0
  0
SPLINE
  5
1d8
100
AcDbEntity
  8
0
 62
1
100
AcDbSpline
 70
8
 71
3
 72
8
 73
4
 74
0
 40
0
 40
0
 40
0
 40
0
 40
1
 40
1
 40
1
 40
1
 10
49.586081
 20
184.329865
 30
0.0
 10
47.737439
 20
185.397180
 30
0.0
 10
46.598628
 20
187.369657
 30
0.0
 10
46.598628
 20
189.504286
 30
0.0
  0
SPLINE
  5
1d9
100
AcDbEntity
  8
0
 62
1
100
AcDbSpline
 70
8
 71
3
 72
8
 73
4
 74
0
 40
0
 40
0
 40
0
 40
0
 40
1
 40
1
 40
1
 40
1
 10
46.598628
 20
189.504286
 30
0.0
 10
46.598628
 20
191.638914
 30
0.0
 10
47.737439
 20
193.611392
 30
0.0
 10
49.586081
 20
194.678706
 30
0.0
  0
SPLINE
  5
1da
100
AcDbEntity
  8
0
 62
1
100
AcDbSpline
 70
8
 71
3
 72
8
 73
4
 74
0
 40
0
 40
0
 40
0
 40
0
 40
1
 40
1
 40
1
 40
1
 10
49.586081
 20
194.678706
 30
0.0
 10
51.434723
 20
195.746020
 30
0.0
 10
53.712344
 20
195.746020
 30
0.0
 10
55.560987
 20
194.678706
 30
0.0
  0
SPLINE
  5
1db
100
AcDbEntity
  8
0
 62
1
100
AcDbSpline
 70
8
 71
3
 72
8
 73
4
 74
0
 40
0
 40
0
 40
0
 40
0
 40
1
 40
1
 40
1
 40
1
 10
55.560987
 20
194.678706
 30
0.0
 10
57.409629
 20
193.611392
 30
0.0
 10
58.548440
 20
191.638914
 30
0.0
 10
58.548440
 20
189.504286
 30
0.0
  0
LWPOLYLINE
  5
1dc
100
AcDbEntity
  8
0
 62
1
100
AcDbPolyline
 90
1
 70
1
 10
391.375032
 20
146.698613
 30
0.0
  0
SPLINE
  5
1dd
100
AcDbEntity
  8
0
 62
1
100
AcDbSpline
 70
8
 71
3
 72
8
 73
4
 74
0
 40
0
 40
0
 40
0
 40
0
 40
1
 40
1
 40
1
 40
1
 10
391.363020
 20
107.846495
 30
0.0
 10
391.363020
 20
104.546646
 30
0.0
 10
388.687964
 20
101.871590
 30
0.0
 10
385.388115
 20
101.871590
 30
0.0
  0
SPLINE
  5
1de
100
AcDbEntity
  8
0
 62
1
100
AcDbSpline
 70
8
 71
3
 72
8
 73
4
 74
0
 40
0
 40
0
 40
0
 40
0
 40
1
 40
1
 40
1
 40
1
 10
385.388115
 20
101.871590
 30
0.0
 10
382.088265
 20
101.871590
 30
0.0
 10
379.413209
 20
104.546646
 30
0.0
 10
379.413209
 20
107.846495
 30
0.0
  0
SPLINE
  5
1df
100
AcDbEntity
  8
0
 62
1
100
AcDbSpline
 70
8
 71
3
 72
8
 73
4
 74
0
 40
0
 40
0
 40
0
 40
0
 40
1
 40
1
 40
1
 40
1
 10
379.413209
 20
107.846495
 30
0.0
 10
379.413209
 20
109.981123
 30
0.0
 10
380.552019
 20
111.953601
 30
0.0
 10
382.400662
 20
113.020915
 30
0.0
  0
SPLINE
  5
1e0
100
AcDbEntity
  8
0
 62
1
100
AcDbSpline
 70
8
 71
3
 72
8
 73
4
 74
0
 40
0
 40
0
 40
0
 40
0
 40
1
 40
1
 40
1
 40
1
 10
382.400662
 20
113.020915
 30
0.0
 10
384.249304
 20
114.088229
 30
0.0
 10
386.526925
 20
114.088229
 30
0.0
 10
388.375567
 20
113.020915
 30
0.0
  0
SPLINE
  5
1e1
100
AcDbEntity
  8
0
 62
1
100
AcDbSpline
 70
8
 71
3
 72
8
 73
4
 74
0
 40
0
 40
0
 40
0
 40
0
 40
1
 40
1
 40
1
 40
1
 10
388.375567
 20
113.020915
 30
0.0
 10
390.224210
 20
111.953601
 30
0.0
 10
391.363020
 20
109.981123
 30
0.0
 10
391.363020
 20
107.846495
 30
0.0
  0
LWPOLYLINE
  5
1e2
100
AcDbEntity
  8
0
 62
1
100
AcDbPolyline
 90
1
 70
1
 10
58.548440
 20
189.504286
 30
0.0
  0
SPLINE
  5
1e3
100
AcDbEntity
  8
0
 62
1
100
AcDbSpline
 70
8
 71
3
 72
8
 73
4
 74
0
 40
0
 40
0
 40
0
 40
0
 40
1
 40
1
 40
1
 40
1
 10
87.132139
 20
227.981999
 30
0.0
 10
87.132139
 20
225.891294
 30
0.0
 10
86.016762
 20
223.959402
 30
0.0
 10
84.206160
 20
222.914049
 30
0.0
  0
SPLINE
  5
1e4
100
AcDbEntity
  8
0
 62
1
100
AcDbSpline
 70
8
 71
3
 72
8
 73
4
 74
0
 40
0
 40
0
 40
0
 40
0
 40
1
 40
1
 40
1
 40
1
 10
84.206160
 20
222.914049
 30
0.0
 10
82.395557
 20
221.868696
 30
0.0
 10
80.164803
 20
221.868696
 30
0.0
 10
78.354200
 20
222.914049
 30
0.0
  0
SPLINE
  5
1e5
100
AcDbEntity
  8
0
 62
1
100
AcDbSpline
 70
8
 71
3
 72
8
 73
4
 74
0
 40
0
 40
0
 40
0
 40
0
 40
1
 40
1
 40
1
 40
1
 10
78.354200
 20
222.914049
 30
0.0
 10
76.543598
 20
223.959402
 30
0.0
 10
75.428221
 20
225.891294
 30
0.0
 10
75.428221
 20
227.981999
 30
0.0
  0
SPLINE
  5
1e6
100
AcDbEntity
  8
0
 62
1
100
AcDbSpline
 70
8
 71
3
 72
8
 73
4
 74
0
 40
0
 40
0
 40
0
 40
0
 40
1
 40
1
 40
1
 40
1
 10
75.428221
 20
227.981999
 30
0.0
 10
75.428221
 20
230.072705
 30
0.0
 10
76.543598
 20
232.004597
 30
0.0
 10
78.354200
 20
233.049950
 30
0.0
  0
SPLINE
  5
1e7
100
AcDbEntity
  8
0
 62
1
100
AcDbSpline
 70
8
 71
3
 72
8
 73
4
 74
0
 40
0
 40
0
 40
0
 40
0
 40
1
 40
1
 40
1
 40
1
 10
78.354200
 20
233.049950
 30
0.0
 10
80.164803
 20
234.095303
 30
0.0
 10
82.395557
 20
234.095303
 30
0.0
 10
84.206160
 20
233.049950
 30
0.0
  0
SPLINE
  5
1e8
100
AcDbEntity
  8
0
 62
1
100
AcDbSpline
 70
8
 71
3
 72
8
 73
4
 74
0
 40
0
 40
0
 40
0
 40
0
 40
1
 40
1
 40
1
 40
1
 10
84.206160
 20
233.049950
 30
0.0
 10
86.016762
 20
232.004597
 30
0.0
 10
87.132139
 20
230.072705
 30
0.0
 10
87.132139
 20
227.981999
 30
0.0
  0
LWPOLYLINE
  5
1e9
100
AcDbEntity
  8
0
 62
1
100
AcDbPolyline
 90
1
 70
1
 10
391.363020
 20
107.846495
 30
0.0
  0
SPLINE
  5
1ea
100
AcDbEntity
  8
0
 62
1
100
AcDbSpline
 70
8
 71
3
 72
8
 73
4
 74
0
 40
0
 40
0
 40
0
 40
0
 40
1
 40
1
 40
1
 40
1
 10
58.548440
 20
228.107002
 30
0.0
 10
58.548440
 20
225.972374
 30
0.0
 10
57.409629
 20
223.999896
 30
0.0
 10
55.560987
 20
222.932582
 30
0.0
  0
SPLINE
  5
1eb
100
AcDbEntity
  8
0
 62
1
100
AcDbSpline
 70
8
 71
3
 72
8
 73
4
 74
0
 40
0
 40
0
 40
0
 40
0
 40
1
 40
1
 40
1
 40
1
 10
55.560987
 20
222.932582
 30
0.0
 10
53.712344
 20
221.865268
 30
0.0
 10
51.434723
 20
221.865268
 30
0.0
 10
49.586081
 20
222.932582
 30
0.0
  0
SPLINE
  5
1ec
100
AcDbEntity
  8
0
 62
1
100
AcDbSpline
 70
8
 71
3
 72
8
 73
4
 74
0
 40
0
 40
0
 40
0
 40
0
 40
1
 40
1
 40
1
 40
1
 10
49.586081
 20
222.932582
 30
0.0
 10
47.737439
 20
223.999896
 30
0.0
 10
46.598628
 20
225.972374
 30
0.0
 10
46.598628
 20
228.107002
 30
0.0
  0
SPLINE
  5
1ed
100
AcDbEntity
  8
0
 62
1
100
AcDbSpline
 70
8
 71
3
 72
8
 73
4
 74
0
 40
0
 40
0
 40
0
 40
0
 40
1
 40
1
 40
1
 40
1
 10
46.598628
 20
228.107002
 30
0.0
 10
46.598628
 20
230.241630
 30
0.0
 10
47.737439
 20
232.214108
 30
0.0
 10
49.586081
 20
233.281422
 30
0.0
  0
SPLINE
  5
1ee
100
AcDbEntity
  8
0
 62
1
100
AcDbSpline
 70
8
 71
3
 72
8
 73
4
 74
0
 40
0
 40
0
 40
0
 40
0
 40
1
 40
1
 40
1
 40
1
 10
49.586081
 20
233.281422
 30
0.0
 10
51.434723
 20
234.348736
 30
0.0
 10
53.712344
 20
234.348736
 30
0.0
 10
55.560987
 20
233.281422
 30
0.0
  0
SPLINE
  5
1ef
100
AcDbEntity
  8
0
 62
1
100
AcDbSpline
 70
8
 71
3
 72
8
 73
4
 74
0
 40
0
 40
0
 40
0
 40
0
 40
1
 40
1
 40
1
 40
1
 10
55.560987
 20
233.281422
 30
0.0
 10
57.409629
 20
232.214108
 30
0.0
 10
58.548440
 20
230.241630
 30
0.0
 10
58.548440
 20
228.107002
 30
0.0
  0
LWPOLYLINE
  5
1f0
100
AcDbEntity
  8
0
 62
1
100
AcDbPolyline
 90
1
 70
1
 10
87.132139
 20
227.981999
 30
0.0
  0
SPLINE
  5
1f1
100
AcDbEntity
  8
0
 62
1
100
AcDbSpline
 70
8
 71
3
 72
8
 73
4
 74
0
 40
0
 40
0
 40
0
 40
0
 40
1
 40
1
 40
1
 40
1
 10
80.474656
 20
195.675673
 30
0.0
 10
77.377443
 20
195.271054
 30
0.0
 10
75.060395
 20
192.631658
 30
0.0
 10
75.059416
 20
189.507064
 30
0.0
  0
SPLINE
  5
1f2
100
AcDbEntity
  8
0
 62
1
100
AcDbSpline
 70
8
 71
3
 72
8
 73
4
 74
0
 40
0
 40
0
 40
0
 40
0
 40
1
 40
1
 40
1
 40
1
 10
75.059416
 20
189.507064
 30
0.0
 10
75.059431
 20
186.070249
 30
0.0
 10
77.844547
 20
183.284161
 30
0.0
 10
81.280172
 20
183.284135
 30
0.0
  0
SPLINE
  5
1f3
100
AcDbEntity
  8
0
 62
1
100
AcDbSpline
 70
8
 71
3
 72
8
 73
4
 74
0
 40
0
 40
0
 40
0
 40
0
 40
1
 40
1
 40
1
 40
1
 10
81.280172
 20
183.284135
 30
0.0
 10
84.715807
 20
183.284148
 30
0.0
 10
87.500937
 20
186.070240
 30
0.0
 10
87.500952
 20
189.507064
 30
0.0
  0
SPLINE
  5
1f4
100
AcDbEntity
  8
0
 62
1
100
AcDbSpline
 70
8
 71
3
 72
8
 73
4
 74
0
 40
0
 40
0
 40
0
 40
0
 40
1
 40
1
 40
1
 40
1
 10
87.500952
 20
189.507064
 30
0.0
 10
87.499778
 20
192.631105
 30
0.0
 10
85.183363
 20
195.270069
 30
0.0
 10
82.086768
 20
195.675147
 30
0.0
  0
LWPOLYLINE
  5
1f5
100
AcDbEntity
  8
0
 62
1
100
AcDbPolyline
 90
1
 70
1
 10
58.548440
 20
228.107002
 30
0.0
  0
SPLINE
  5
1f6
100
AcDbEntity
  8
0
 62
1
100
AcDbSpline
 70
8
 71
3
 72
8
 73
4
 74
0
 40
0
 40
0
 40
0
 40
0
 40
1
 40
1
 40
1
 40
1
 10
87.255086
 20
150.402779
 30
0.0
 10
87.255086
 20
148.268151
 30
0.0
 10
86.116275
 20
146.295673
 30
0.0
 10
84.267633
 20
145.228359
 30
0.0
  0
SPLINE
  5
1f7
100
AcDbEntity
  8
0
 62
1
100
AcDbSpline
 70
8
 71
3
 72
8
 73
4
 74
0
 40
0
 40
0
 40
0
 40
0
 40
1
 40
1
 40
1
 40
1
 10
84.267633
 20
145.228359
 30
0.0
 10
82.418991
 20
144.161045
 30
0.0
 10
80.141369
 20
144.161045
 30
0.0
 10
78.292727
 20
145.228359
 30
0.0
  0
SPLINE
  5
1f8
100
AcDbEntity
  8
0
 62
1
100
AcDbSpline
 70
8
 71
3
 72
8
 73
4
 74
0
 40
0
 40
0
 40
0
 40
0
 40
1
 40
1
 40
1
 40
1
 10
78.292727
 20
145.228359
 30
0.0
 10
76.444085
 20
146.295673
 30
0.0
 10
75.305274
 20
148.268151
 30
0.0
 10
75.305274
 20
150.402779
 30
0.0
  0
SPLINE
  5
1f9
100
AcDbEntity
  8
0
 62
1
100
AcDbSpline
 70
8
 71
3
 72
8
 73
4
 74
0
 40
0
 40
0
 40
0
 40
0
 40
1
 40
1
 40
1
 40
1
 10
75.305274
 20
150.402779
 30
0.0
 10
75.305274
 20
152.537408
 30
0.0
 10
76.444085
 20
154.509886
 30
0.0
 10
78.292727
 20
155.577200
 30
0.0
  0
SPLINE
  5
1fa
100
AcDbEntity
  8
0
 62
1
100
AcDbSpline
 70
8
 71
3
 72
8
 73
4
 74
0
 40
0
 40
0
 40
0
 40
0
 40
1
 40
1
 40
1
 40
1
 10
78.292727
 20
155.577200
 30
0.0
 10
80.141369
 20
156.644514
 30
0.0
 10
82.418991
 20
156.644514
 30
0.0
 10
84.267633
 20
155.577200
 30
0.0
  0
SPLINE
  5
1fb
100
AcDbEntity
  8
0
 62
1
100
AcDbSpline
 70
8
 71
3
 72
8
 73
4
 74
0
 40
0
 40
0
 40
0
 40
0
 40
1
 40
1
 40
1
 40
1
 10
84.267633
 20
155.577200
 30
0.0
 10
86.116275
 20
154.509886
 30
0.0
 10
87.255086
 20
152.537408
 30
0.0
 10
87.255086
 20
150.402779
 30
0.0
  0
LWPOLYLINE
  5
1fc
100
AcDbEntity
  8
0
 62
1
100
AcDbPolyline
 90
4
 70
0
 10
82.086768
 20
195.675147
 30
0.0
 10
82.086768
 20
194.722192
 30
0.0
 10
80.474656
 20
194.722192
 30
0.0
 10
80.474656
 20
195.675673
 30
0.0
  0
SPLINE
  5
1fd
100
AcDbEntity
  8
0
 62
1
100
AcDbSpline
 70
8
 71
3
 72
8
 73
4
 74
0
 40
0
 40
0
 40
0
 40
0
 40
1
 40
1
 40
1
 40
1
 10
37.246300
 20
152.907876
 30
0.0
 10
37.246300
 20
150.101622
 30
0.0
 10
35.749181
 20
147.508536
 30
0.0
 10
33.318894
 20
146.105409
 30
0.0
  0
SPLINE
  5
1fe
100
AcDbEntity
  8
0
 62
1
100
AcDbSpline
 70
8
 71
3
 72
8
 73
4
 74
0
 40
0
 40
0
 40
0
 40
0
 40
1
 40
1
 40
1
 40
1
 10
33.318894
 20
146.105409
 30
0.0
 10
30.888607
 20
144.702282
 30
0.0
 10
27.894370
 20
144.702282
 30
0.0
 10
25.464082
 20
146.105409
 30
0.0
  0
SPLINE
  5
1ff
100
AcDbEntity
  8
0
 62
1
100
AcDbSpline
 70
8
 71
3
 72
8
 73
4
 74
0
 40
0
 40
0
 40
0
 40
0
 40
1
 40
1
 40
1
 40
1
 10
25.464082
 20
146.105409
 30
0.0
 10
23.033795
 20
147.508536
 30
0.0
 10
21.536677
 20
150.101622
 30
0.0
 10
21.536677
 20
152.907876
 30
0.0
  0
SPLINE
  5
200
100
AcDbEntity
  8
0
 62
1
100
AcDbSpline
 70
8
 71
3
 72
8
 73
4
 74
0
 40
0
 40
0
 40
0
 40
0
 40
1
 40
1
 40
1
 40
1
 10
21.536677
 20
152.907876
 30
0.0
 10
21.536677
 20
155.714130
 30
0.0
 10
23.033795
 20
158.307215
 30
0.0
 10
25.464082
 20
159.710342
 30
0.0
  0
SPLINE
  5
201
100
AcDbEntity
  8
0
 62
1
100
AcDbSpline
 70
8
 71
3
 72
8
 73
4
 74
0
 40
0
 40
0
 40
0
 40
0
 40
1
 40
1
 40
1
 40
1
 10
25.464082
 20
159.710342
 30
0.0
 10
27.894370
 20
161.113469
 30
0.0
 10
30.888607
 20
161.113469
 30
0.0
 10
33.318894
 20
159.710342
 30
0.0
  0
SPLINE
  5
202
100
AcDbEntity
  8
0
 62
1
100
AcDbSpline
 70
8
 71
3
 72
8
 73
4
 74
0
 40
0
 40
0
 40
0
 40
0
 40
1
 40
1
 40
1
 40
1
 10
33.318894
 20
159.710342
 30
0.0
 10
35.749181
 20
158.307215
 30
0.0
 10
37.246300
 20
155.714130
 30
0.0
 10
37.246300
 20
152.907876
 30
0.0
  0
LWPOLYLINE
  5
203
100
AcDbEntity
  8
0
 62
1
100
AcDbPolyline
 90
1
 70
1
 10
87.255086
 20
150.402779
 30
0.0
  0
SPLINE
  5
204
100
AcDbEntity
  8
0
 62
1
100
AcDbSpline
 70
8
 71
3
 72
8
 73
4
 74
0
 40
0
 40
0
 40
0
 40
0
 40
1
 40
1
 40
1
 40
1
 10
391.256208
 20
185.550733
 30
0.0
 10
391.256208
 20
182.250884
 30
0.0
 10
388.581151
 20
179.575828
 30
0.0
 10
385.281302
 20
179.575828
 30
0.0
  0
SPLINE
  5
205
100
AcDbEntity
  8
0
 62
1
100
AcDbSpline
 70
8
 71
3
 72
8
 73
4
 74
0
 40
0
 40
0
 40
0
 40
0
 40
1
 40
1
 40
1
 40
1
 10
385.281302
 20
179.575828
 30
0.0
 10
381.981453
 20
179.575828
 30
0.0
 10
379.306397
 20
182.250884
 30
0.0
 10
379.306397
 20
185.550733
 30
0.0
  0
SPLINE
  5
206
100
AcDbEntity
  8
0
 62
1
100
AcDbSpline
 70
8
 71
3
 72
8
 73
4
 74
0
 40
0
 40
0
 40
0
 40
0
 40
1
 40
1
 40
1
 40
1
 10
379.306397
 20
185.550733
 30
0.0
 10
379.306397
 20
187.685362
 30
0.0
 10
380.445207
 20
189.657839
 30
0.0
 10
382.293849
 20
190.725153
 30
0.0
  0
SPLINE
  5
207
100
AcDbEntity
  8
0
 62
1
100
AcDbSpline
 70
8
 71
3
 72
8
 73
4
 74
0
 40
0
 40
0
 40
0
 40
0
 40
1
 40
1
 40
1
 40
1
 10
382.293849
 20
190.725153
 30
0.0
 10
384.142492
 20
191.792468
 30
0.0
 10
386.420113
 20
191.792468
 30
0.0
 10
388.268755
 20
190.725153
 30
0.0
  0
SPLINE
  5
208
100
AcDbEntity
  8
0
 62
1
100
AcDbSpline
 70
8
 71
3
 72
8
 73
4
 74
0
 40
0
 40
0
 40
0
 40
0
 40
1
 40
1
 40
1
 40
1
 10
388.268755
 20
190.725153
 30
0.0
 10
390.117397
 20
189.657839
 30
0.0
 10
391.256208
 20
187.685362
 30
0.0
 10
391.256208
 20
185.550733
 30
0.0
  0
LWPOLYLINE
  5
209
100
AcDbEntity
  8
0
 62
1
100
AcDbPolyline
 90
1
 70
1
 10
37.246300
 20
152.907876
 30
0.0
  0
LWPOLYLINE
  5
20a
100
AcDbEntity
  8
0
 62
1
100
AcDbPolyline
 90
1
 70
1
 10
391.256208
 20
185.550733
 30
0.0
  0
LWPOLYLINE
  5
20b
100
AcDbEntity
  8
0
 62
1
100
AcDbPolyline
 90
4
 70
1
 10
101.754223
 20
265.088772
 30
0.0
 10
363.977769
 20
265.088772
 30
0.0
 10
363.977769
 20
79.765215
 30
0.0
 10
101.754223
 20
79.765215
 30
0.0
  0
SPLINE
  5
20c
100
AcDbEntity
  8
0
 62
1
100
AcDbSpline
 70
8
 71
3
 72
8
 73
4
 74
0
 40
0
 40
0
 40
0
 40
0
 40
1
 40
1
 40
1
 40
1
 10
897.582371
 20
194.721991
 30
0.0
 10
897.582371
 20
194.128798
 30
0.0
 10
897.265907
 20
193.580665
 30
0.0
 10
896.752187
 20
193.284069
 30
0.0
  0
SPLINE
  5
20d
100
AcDbEntity
  8
0
 62
1
100
AcDbSpline
 70
8
 71
3
 72
8
 73
4
 74
0
 40
0
 40
0
 40
0
 40
0
 40
1
 40
1
 40
1
 40
1
 10
896.752187
 20
193.284069
 30
0.0
 10
896.238467
 20
192.987473
 30
0.0
 10
895.605538
 20
192.987473
 30
0.0
 10
895.091818
 20
193.284069
 30
0.0
  0
SPLINE
  5
20e
100
AcDbEntity
  8
0
 62
1
100
AcDbSpline
 70
8
 71
3
 72
8
 73
4
 74
0
 40
0
 40
0
 40
0
 40
0
 40
1
 40
1
 40
1
 40
1
 10
895.091818
 20
193.284069
 30
0.0
 10
894.578099
 20
193.580665
 30
0.0
 10
894.261634
 20
194.128798
 30
0.0
 10
894.261634
 20
194.721991
 30
0.0
  0
SPLINE
  5
20f
100
AcDbEntity
  8
0
 62
1
100
AcDbSpline
 70
8
 71
3
 72
8
 73
4
 74
0
 40
0
 40
0
 40
0
 40
0
 40
1
 40
1
 40
1
 40
1
 10
894.261634
 20
194.721991
 30
0.0
 10
894.261634
 20
195.315183
 30
0.0
 10
894.578099
 20
195.863316
 30
0.0
 10
895.091818
 20
196.159912
 30
0.0
  0
SPLINE
  5
210
100
AcDbEntity
  8
0
 62
1
100
AcDbSpline
 70
8
 71
3
 72
8
 73
4
 74
0
 40
0
 40
0
 40
0
 40
0
 40
1
 40
1
 40
1
 40
1
 10
895.091818
 20
196.159912
 30
0.0
 10
895.605538
 20
196.456509
 30
0.0
 10
896.238467
 20
196.456509
 30
0.0
 10
896.752187
 20
196.159912
 30
0.0
  0
SPLINE
  5
211
100
AcDbEntity
  8
0
 62
1
100
AcDbSpline
 70
8
 71
3
 72
8
 73
4
 74
0
 40
0
 40
0
 40
0
 40
0
 40
1
 40
1
 40
1
 40
1
 10
896.752187
 20
196.159912
 30
0.0
 10
897.265907
 20
195.863316
 30
0.0
 10
897.582371
 20
195.315183
 30
0.0
 10
897.582371
 20
194.721991
 30
0.0
  0
LWPOLYLINE
  5
212
100
AcDbEntity
  8
0
 62
1
100
AcDbPolyline
 90
4
 70
1
 10
897.305747
 20
191.517204
 30
0.0
 10
923.910170
 20
191.517204
 30
0.0
 10
923.910170
 20
155.006778
 30
0.0
 10
897.305747
 20
155.006778
 30
0.0
  0
SPLINE
  5
213
100
AcDbEntity
  8
0
 62
1
100
AcDbSpline
 70
8
 71
3
 72
8
 73
4
 74
0
 40
0
 40
0
 40
0
 40
0
 40
1
 40
1
 40
1
 40
1
 10
923.582393
 20
194.721991
 30
0.0
 10
923.582393
 20
194.128798
 30
0.0
 10
923.265929
 20
193.580665
 30
0.0
 10
922.752209
 20
193.284069
 30
0.0
  0
SPLINE
  5
214
100
AcDbEntity
  8
0
 62
1
100
AcDbSpline
 70
8
 71
3
 72
8
 73
4
 74
0
 40
0
 40
0
 40
0
 40
0
 40
1
 40
1
 40
1
 40
1
 10
922.752209
 20
193.284069
 30
0.0
 10
922.238489
 20
192.987473
 30
0.0
 10
921.605560
 20
192.987473
 30
0.0
 10
921.091840
 20
193.284069
 30
0.0
  0
SPLINE
  5
215
100
AcDbEntity
  8
0
 62
1
100
AcDbSpline
 70
8
 71
3
 72
8
 73
4
 74
0
 40
0
 40
0
 40
0
 40
0
 40
1
 40
1
 40
1
 40
1
 10
921.091840
 20
193.284069
 30
0.0
 10
920.578121
 20
193.580665
 30
0.0
 10
920.261656
 20
194.128798
 30
0.0
 10
920.261656
 20
194.721991
 30
0.0
  0
SPLINE
  5
216
100
AcDbEntity
  8
0
 62
1
100
AcDbSpline
 70
8
 71
3
 72
8
 73
4
 74
0
 40
0
 40
0
 40
0
 40
0
 40
1
 40
1
 40
1
 40
1
 10
920.261656
 20
194.721991
 30
0.0
 10
920.261656
 20
195.315183
 30
0.0
 10
920.578121
 20
195.863316
 30
0.0
 10
921.091840
 20
196.159912
 30
0.0
  0
SPLINE
  5
217
100
AcDbEntity
  8
0
 62
1
100
AcDbSpline
 70
8
 71
3
 72
8
 73
4
 74
0
 40
0
 40
0
 40
0
 40
0
 40
1
 40
1
 40
1
 40
1
 10
921.091840
 20
196.159912
 30
0.0
 10
921.605560
 20
196.456509
 30
0.0
 10
922.238489
 20
196.456509
 30
0.0
 10
922.752209
 20
196.159912
 30
0.0
  0
SPLINE
  5
218
100
AcDbEntity
  8
0
 62
1
100
AcDbSpline
 70
8
 71
3
 72
8
 73
4
 74
0
 40
0
 40
0
 40
0
 40
0
 40
1
 40
1
 40
1
 40
1
 10
922.752209
 20
196.159912
 30
0.0
 10
923.265929
 20
195.863316
 30
0.0
 10
923.582393
 20
195.315183
 30
0.0
 10
923.582393
 20
194.721991
 30
0.0
  0
LWPOLYLINE
  5
219
100
AcDbEntity
  8
0
 62
1
100
AcDbPolyline
 90
1
 70
1
 10
897.582371
 20
194.721991
 30
0.0
  0
SPLINE
  5
21a
100
AcDbEntity
  8
0
 62
1
100
AcDbSpline
 70
8
 71
3
 72
8
 73
4
 74
0
 40
0
 40
0
 40
0
 40
0
 40
1
 40
1
 40
1
 40
1
 10
897.582371
 20
150.721997
 30
0.0
 10
897.582371
 20
150.128804
 30
0.0
 10
897.265907
 20
149.580671
 30
0.0
 10
896.752187
 20
149.284075
 30
0.0
  0
SPLINE
  5
21b
100
AcDbEntity
  8
0
 62
1
100
AcDbSpline
 70
8
 71
3
 72
8
 73
4
 74
0
 40
0
 40
0
 40
0
 40
0
 40
1
 40
1
 40
1
 40
1
 10
896.752187
 20
149.284075
 30
0.0
 10
896.238467
 20
148.987479
 30
0.0
 10
895.605538
 20
148.987479
 30
0.0
 10
895.091818
 20
149.284075
 30
0.0
  0
SPLINE
  5
21c
100
AcDbEntity
  8
0
 62
1
100
AcDbSpline
 70
8
 71
3
 72
8
 73
4
 74
0
 40
0
 40
0
 40
0
 40
0
 40
1
 40
1
 40
1
 40
1
 10
895.091818
 20
149.284075
 30
0.0
 10
894.578099
 20
149.580671
 30
0.0
 10
894.261634
 20
150.128804
 30
0.0
 10
894.261634
 20
150.721997
 30
0.0
  0
SPLINE
  5
21d
100
AcDbEntity
  8
0
 62
1
100
AcDbSpline
 70
8
 71
3
 72
8
 73
4
 74
0
 40
0
 40
0
 40
0
 40
0
 40
1
 40
1
 40
1
 40
1
 10
894.261634
 20
150.721997
 30
0.0
 10
894.261634
 20
151.315189
 30
0.0
 10
894.578099
 20
151.863322
 30
0.0
 10
895.091818
 20
152.159918
 30
0.0
  0
SPLINE
  5
21e
100
AcDbEntity
  8
0
 62
1
100
AcDbSpline
 70
8
 71
3
 72
8
 73
4
 74
0
 40
0
 40
0
 40
0
 40
0
 40
1
 40
1
 40
1
 40
1
 10
895.091818
 20
152.159918
 30
0.0
 10
895.605538
 20
152.456515
 30
0.0
 10
896.238467
 20
152.456515
 30
0.0
 10
896.752187
 20
152.159918
 30
0.0
  0
SPLINE
  5
21f
100
AcDbEntity
  8
0
 62
1
100
AcDbSpline
 70
8
 71
3
 72
8
 73
4
 74
0
 40
0
 40
0
 40
0
 40
0
 40
1
 40
1
 40
1
 40
1
 10
896.752187
 20
152.159918
 30
0.0
 10
897.265907
 20
151.863322
 30
0.0
 10
897.582371
 20
151.315189
 30
0.0
 10
897.582371
 20
150.721997
 30
0.0
  0
LWPOLYLINE
  5
220
100
AcDbEntity
  8
0
 62
1
100
AcDbPolyline
 90
1
 70
1
 10
923.582393
 20
194.721991
 30
0.0
  0
SPLINE
  5
221
100
AcDbEntity
  8
0
 62
1
100
AcDbSpline
 70
8
 71
3
 72
8
 73
4
 74
0
 40
0
 40
0
 40
0
 40
0
 40
1
 40
1
 40
1
 40
1
 10
923.942304
 20
150.846988
 30
0.0
 10
923.942304
 20
150.212602
 30
0.0
 10
923.603863
 20
149.626405
 30
0.0
 10
923.054468
 20
149.309211
 30
0.0
  0
SPLINE
  5
222
100
AcDbEntity
  8
0
 62
1
100
AcDbSpline
 70
8
 71
3
 72
8
 73
4
 74
0
 40
0
 40
0
 40
0
 40
0
 40
1
 40
1
 40
1
 40
1
 10
923.054468
 20
149.309211
 30
0.0
 10
922.505073
 20
148.992018
 30
0.0
 10
921.828191
 20
148.992018
 30
0.0
 10
921.278796
 20
149.309211
 30
0.0
  0
SPLINE
  5
223
100
AcDbEntity
  8
0
 62
1
100
AcDbSpline
 70
8
 71
3
 72
8
 73
4
 74
0
 40
0
 40
0
 40
0
 40
0
 40
1
 40
1
 40
1
 40
1
 10
921.278796
 20
149.309211
 30
0.0
 10
920.729401
 20
149.626405
 30
0.0
 10
920.390960
 20
150.212602
 30
0.0
 10
920.390960
 20
150.846988
 30
0.0
  0
SPLINE
  5
224
100
AcDbEntity
  8
0
 62
1
100
AcDbSpline
 70
8
 71
3
 72
8
 73
4
 74
0
 40
0
 40
0
 40
0
 40
0
 40
1
 40
1
 40
1
 40
1
 10
920.390960
 20
150.846988
 30
0.0
 10
920.390960
 20
151.481375
 30
0.0
 10
920.729401
 20
152.067572
 30
0.0
 10
921.278796
 20
152.384766
 30
0.0
  0
SPLINE
  5
225
100
AcDbEntity
  8
0
 62
1
100
AcDbSpline
 70
8
 71
3
 72
8
 73
4
 74
0
 40
0
 40
0
 40
0
 40
0
 40
1
 40
1
 40
1
 40
1
 10
921.278796
 20
152.384766
 30
0.0
 10
921.828191
 20
152.701959
 30
0.0
 10
922.505073
 20
152.701959
 30
0.0
 10
923.054468
 20
152.384766
 30
0.0
  0
SPLINE
  5
226
100
AcDbEntity
  8
0
 62
1
100
AcDbSpline
 70
8
 71
3
 72
8
 73
4
 74
0
 40
0
 40
0
 40
0
 40
0
 40
1
 40
1
 40
1
 40
1
 10
923.054468
 20
152.384766
 30
0.0
 10
923.603863
 20
152.067572
 30
0.0
 10
923.942304
 20
151.481375
 30
0.0
 10
923.942304
 20
150.846988
 30
0.0
  0
LWPOLYLINE
  5
227
100
AcDbEntity
  8
0
 62
1
100
AcDbPolyline
 90
1
 70
1
 10
897.582371
 20
150.721997
 30
0.0
  0
LWPOLYLINE
  5
228
100
AcDbEntity
  8
0
 62
1
100
AcDbPolyline
 90
1
 70
1
 10
923.942304
 20
150.846988
 30
0.0
  0
LWPOLYLINE
  5
229
100
AcDbEntity
  8
0
 62
7
100
AcDbPolyline
 90
1
 70
1
 10
906.505442
 20
194.882810
 30
0.0
  0
LWPOLYLINE
  5
22a
100
AcDbEntity
  8
0
 62
7
100
AcDbPolyline
 90
3
 70
0
 10
1007.716795
 20
121.664592
 30
0.0
 10
1008.510545
 20
121.664592
 30
0.0
 10
1009.304295
 20
121.664592
 30
0.0
  0
LWPOLYLINE
  5
22b
100
AcDbEntity
  8
0
 62
7
100
AcDbPolyline
 90
3
 70
0
 10
1008.510545
 20
122.458342
 30
0.0
 10
1008.510545
 20
121.664592
 30
0.0
 10
1008.510545
 20
120.870842
 30
0.0
  0
LWPOLYLINE
  5
22c
100
AcDbEntity
  8
0
 62
7
100
AcDbPolyline
 90
3
 70
0
 10
1007.716795
 20
121.664592
 30
0.0
 10
1008.510545
 20
121.664592
 30
0.0
 10
1009.304295
 20
121.664592
 30
0.0
  0
LWPOLYLINE
  5
22d
100
AcDbEntity
  8
0
 62
7
100
AcDbPolyline
 90
3
 70
0
 10
1008.510545
 20
122.458342
 30
0.0
 10
1008.510545
 20
121.664592
 30
0.0
 10
1008.510545
 20
120.870842
 30
0.0
  0
LWPOLYLINE
  5
22e
100
AcDbEntity
  8
0
 62
7
100
AcDbPolyline
 90
3
 70
0
 10
1007.716795
 20
121.664592
 30
0.0
 10
1008.510545
 20
121.664592
 30
0.0
 10
1009.304295
 20
121.664592
 30
0.0
  0
LWPOLYLINE
  5
22f
100
AcDbEntity
  8
0
 62
7
100
AcDbPolyline
 90
3
 70
0
 10
1008.510545
 20
122.458342
 30
0.0
 10
1008.510545
 20
121.664592
 30
0.0
 10
1008.510545
 20
120.870842
 30
0.0
  0
LWPOLYLINE
  5
230
100
AcDbEntity
  8
0
 62
7
100
AcDbPolyline
 90
3
 70
0
 10
1007.716795
 20
121.664592
 30
0.0
 10
1008.510545
 20
121.664592
 30
0.0
 10
1009.304295
 20
121.664592
 30
0.0
  0
LWPOLYLINE
  5
231
100
AcDbEntity
  8
0
 62
7
100
AcDbPolyline
 90
3
 70
0
 10
1008.510545
 20
122.458342
 30
0.0
 10
1008.510545
 20
121.664592
 30
0.0
 10
1008.510545
 20
120.870842
 30
0.0
  0
SPLINE
  5
232
100
AcDbEntity
  8
0
 62
1
100
AcDbSpline
 70
8
 71
3
 72
8
 73
4
 74
0
 40
0
 40
0
 40
0
 40
0
 40
1
 40
1
 40
1
 40
1
 10
614.098637
 20
265.843635
 30
0.0
 10
614.098635
 20
264.762617
 30
0.0
 10
613.223036
 20
263.886279
 30
0.0
 10
612.142931
 20
263.886279
 30
0.0
  0
SPLINE
  5
233
100
AcDbEntity
  8
0
 62
1
100
AcDbSpline
 70
8
 71
3
 72
8
 73
4
 74
0
 40
0
 40
0
 40
0
 40
0
 40
1
 40
1
 40
1
 40
1
 10
612.142931
 20
263.886279
 30
0.0
 10
611.624245
 20
263.886278
 30
0.0
 10
611.126804
 20
264.092499
 30
0.0
 10
610.760037
 20
264.459574
 30
0.0
  0
SPLINE
  5
234
100
AcDbEntity
  8
0
 62
1
100
AcDbSpline
 70
8
 71
3
 72
8
 73
4
 74
0
 40
0
 40
0
 40
0
 40
0
 40
1
 40
1
 40
1
 40
1
 10
610.760037
 20
264.459574
 30
0.0
 10
610.393271
 20
264.826650
 30
0.0
 10
610.187223
 20
265.324511
 30
0.0
 10
610.187222
 20
265.843635
 30
0.0
  0
SPLINE
  5
235
100
AcDbEntity
  8
0
 62
1
100
AcDbSpline
 70
8
 71
3
 72
8
 73
4
 74
0
 40
0
 40
0
 40
0
 40
0
 40
1
 40
1
 40
1
 40
1
 10
610.187222
 20
265.843635
 30
0.0
 10
610.187221
 20
266.362760
 30
0.0
 10
610.393268
 20
266.860623
 30
0.0
 10
610.760035
 20
267.227700
 30
0.0
  0
SPLINE
  5
236
100
AcDbEntity
  8
0
 62
1
100
AcDbSpline
 70
8
 71
3
 72
8
 73
4
 74
0
 40
0
 40
0
 40
0
 40
0
 40
1
 40
1
 40
1
 40
1
 10
610.760035
 20
267.227700
 30
0.0
 10
611.126802
 20
267.594777
 30
0.0
 10
611.624244
 20
267.800998
 30
0.0
 10
612.142931
 20
267.800997
 30
0.0
  0
SPLINE
  5
237
100
AcDbEntity
  8
0
 62
1
100
AcDbSpline
 70
8
 71
3
 72
8
 73
4
 74
0
 40
0
 40
0
 40
0
 40
0
 40
1
 40
1
 40
1
 40
1
 10
612.142931
 20
267.800997
 30
0.0
 10
612.661617
 20
267.800997
 30
0.0
 10
613.159059
 20
267.594776
 30
0.0
 10
613.525825
 20
267.227699
 30
0.0
  0
SPLINE
  5
238
100
AcDbEntity
  8
0
 62
1
100
AcDbSpline
 70
8
 71
3
 72
8
 73
4
 74
0
 40
0
 40
0
 40
0
 40
0
 40
1
 40
1
 40
1
 40
1
 10
613.525825
 20
267.227699
 30
0.0
 10
613.892591
 20
266.860622
 30
0.0
 10
614.098637
 20
266.362760
 30
0.0
 10
614.098637
 20
265.843635
 30
0.0
  0
LWPOLYLINE
  5
239
100
AcDbEntity
  8
0
 62
1
100
AcDbPolyline
 90
4
 70
1
 10
612.966214
 20
265.088772
 30
0.0
 10
875.189761
 20
265.088772
 30
0.0
 10
875.189761
 20
79.765215
 30
0.0
 10
612.966214
 20
79.765215
 30
0.0
  0
LWPOLYLINE
  5
23a
100
AcDbEntity
  8
0
 62
1
100
AcDbPolyline
 90
1
 70
1
 10
614.098637
 20
265.843635
 30
0.0
  0
LWPOLYLINE
  5
23b
100
AcDbEntity
  8
0
 62
1
100
AcDbPolyline
 90
1
 70
1
 10
612.028299
 20
265.081573
 30
0.0
  0
LWPOLYLINE
  5
23c
100
AcDbEntity
  8
0
 62
1
100
AcDbPolyline
 90
1
 70
1
 10
612.115606
 20
265.023316
 30
0.0
  0
LWPOLYLINE
  5
23d
100
AcDbEntity
  8
0
 62
1
100
AcDbPolyline
 90
1
 70
1
 10
612.086504
 20
265.081573
 30
0.0
  0
LWPOLYLINE
  5
23e
100
AcDbEntity
  8
0
 62
1
100
AcDbPolyline
 90
1
 70
1
 10
611.911872
 20
265.023316
 30
0.0
  0
SPLINE
  5
23f
100
AcDbEntity
  8
0
 62
1
100
AcDbSpline
 70
8
 71
3
 72
8
 73
4
 74
0
 40
0
 40
0
 40
0
 40
0
 40
1
 40
1
 40
1
 40
1
 10
614.098637
 20
78.943643
 30
0.0
 10
614.098635
 20
77.862625
 30
0.0
 10
613.223036
 20
76.986287
 30
0.0
 10
612.142931
 20
76.986287
 30
0.0
  0
SPLINE
  5
240
100
AcDbEntity
  8
0
 62
1
100
AcDbSpline
 70
8
 71
3
 72
8
 73
4
 74
0
 40
0
 40
0
 40
0
 40
0
 40
1
 40
1
 40
1
 40
1
 10
612.142931
 20
76.986287
 30
0.0
 10
611.624245
 20
76.986286
 30
0.0
 10
611.126804
 20
77.192507
 30
0.0
 10
610.760037
 20
77.559582
 30
0.0
  0
SPLINE
  5
241
100
AcDbEntity
  8
0
 62
1
100
AcDbSpline
 70
8
 71
3
 72
8
 73
4
 74
0
 40
0
 40
0
 40
0
 40
0
 40
1
 40
1
 40
1
 40
1
 10
610.760037
 20
77.559582
 30
0.0
 10
610.393271
 20
77.926658
 30
0.0
 10
610.187223
 20
78.424520
 30
0.0
 10
610.187222
 20
78.943643
 30
0.0
  0
SPLINE
  5
242
100
AcDbEntity
  8
0
 62
1
100
AcDbSpline
 70
8
 71
3
 72
8
 73
4
 74
0
 40
0
 40
0
 40
0
 40
0
 40
1
 40
1
 40
1
 40
1
 10
610.187222
 20
78.943643
 30
0.0
 10
610.187221
 20
79.462768
 30
0.0
 10
610.393268
 20
79.960631
 30
0.0
 10
610.760035
 20
80.327708
 30
0.0
  0
SPLINE
  5
243
100
AcDbEntity
  8
0
 62
1
100
AcDbSpline
 70
8
 71
3
 72
8
 73
4
 74
0
 40
0
 40
0
 40
0
 40
0
 40
1
 40
1
 40
1
 40
1
 10
610.760035
 20
80.327708
 30
0.0
 10
611.126802
 20
80.694785
 30
0.0
 10
611.624244
 20
80.901006
 30
0.0
 10
612.142931
 20
80.901005
 30
0.0
  0
SPLINE
  5
244
100
AcDbEntity
  8
0
 62
1
100
AcDbSpline
 70
8
 71
3
 72
8
 73
4
 74
0
 40
0
 40
0
 40
0
 40
0
 40
1
 40
1
 40
1
 40
1
 10
612.142931
 20
80.901005
 30
0.0
 10
612.661617
 20
80.901005
 30
0.0
 10
613.159059
 20
80.694784
 30
0.0
 10
613.525825
 20
80.327707
 30
0.0
  0
SPLINE
  5
245
100
AcDbEntity
  8
0
 62
1
100
AcDbSpline
 70
8
 71
3
 72
8
 73
4
 74
0
 40
0
 40
0
 40
0
 40
0
 40
1
 40
1
 40
1
 40
1
 10
613.525825
 20
80.327707
 30
0.0
 10
613.892591
 20
79.960630
 30
0.0
 10
614.098637
 20
79.462768
 30
0.0
 10
614.098637
 20
78.943643
 30
0.0
  0
LWPOLYLINE
  5
246
100
AcDbEntity
  8
0
 62
1
100
AcDbPolyline
 90
2
 70
0
 10
612.144695
 20
265.846182
 30
0.0
 10
612.137412
 20
265.846182
 30
0.0
  0
LWPOLYLINE
  5
247
100
AcDbEntity
  8
0
 62
1
100
AcDbPolyline
 90
1
 70
1
 10
614.098637
 20
78.943643
 30
0.0
  0
LWPOLYLINE
  5
248
100
AcDbEntity
  8
0
 62
1
100
AcDbPolyline
 90
1
 70
1
 10
612.028299
 20
78.181581
 30
0.0
  0
LWPOLYLINE
  5
249
100
AcDbEntity
  8
0
 62
1
100
AcDbPolyline
 90
1
 70
1
 10
612.115606
 20
78.123324
 30
0.0
  0
LWPOLYLINE
  5
24a
100
AcDbEntity
  8
0
 62
1
100
AcDbPolyline
 90
1
 70
1
 10
612.086504
 20
78.181581
 30
0.0
  0
LWPOLYLINE
  5
24b
100
AcDbEntity
  8
0
 62
1
100
AcDbPolyline
 90
1
 70
1
 10
611.911872
 20
78.123324
 30
0.0
  0
SPLINE
  5
24c
100
AcDbEntity
  8
0
 62
1
100
AcDbSpline
 70
8
 71
3
 72
8
 73
4
 74
0
 40
0
 40
0
 40
0
 40
0
 40
1
 40
1
 40
1
 40
1
 10
877.898644
 20
265.843635
 30
0.0
 10
877.898643
 20
264.762617
 30
0.0
 10
877.023044
 20
263.886279
 30
0.0
 10
875.942939
 20
263.886279
 30
0.0
  0
SPLINE
  5
24d
100
AcDbEntity
  8
0
 62
1
100
AcDbSpline
 70
8
 71
3
 72
8
 73
4
 74
0
 40
0
 40
0
 40
0
 40
0
 40
1
 40
1
 40
1
 40
1
 10
875.942939
 20
263.886279
 30
0.0
 10
875.424253
 20
263.886278
 30
0.0
 10
874.926811
 20
264.092499
 30
0.0
 10
874.560045
 20
264.459574
 30
0.0
  0
SPLINE
  5
24e
100
AcDbEntity
  8
0
 62
1
100
AcDbSpline
 70
8
 71
3
 72
8
 73
4
 74
0
 40
0
 40
0
 40
0
 40
0
 40
1
 40
1
 40
1
 40
1
 10
874.560045
 20
264.459574
 30
0.0
 10
874.193278
 20
264.826650
 30
0.0
 10
873.987231
 20
265.324511
 30
0.0
 10
873.987230
 20
265.843635
 30
0.0
  0
SPLINE
  5
24f
100
AcDbEntity
  8
0
 62
1
100
AcDbSpline
 70
8
 71
3
 72
8
 73
4
 74
0
 40
0
 40
0
 40
0
 40
0
 40
1
 40
1
 40
1
 40
1
 10
873.987230
 20
265.843635
 30
0.0
 10
873.987229
 20
266.362760
 30
0.0
 10
874.193276
 20
266.860623
 30
0.0
 10
874.560043
 20
267.227700
 30
0.0
  0
SPLINE
  5
250
100
AcDbEntity
  8
0
 62
1
100
AcDbSpline
 70
8
 71
3
 72
8
 73
4
 74
0
 40
0
 40
0
 40
0
 40
0
 40
1
 40
1
 40
1
 40
1
 10
874.560043
 20
267.227700
 30
0.0
 10
874.926810
 20
267.594777
 30
0.0
 10
875.424252
 20
267.800998
 30
0.0
 10
875.942939
 20
267.800997
 30
0.0
  0
SPLINE
  5
251
100
AcDbEntity
  8
0
 62
1
100
AcDbSpline
 70
8
 71
3
 72
8
 73
4
 74
0
 40
0
 40
0
 40
0
 40
0
 40
1
 40
1
 40
1
 40
1
 10
875.942939
 20
267.800997
 30
0.0
 10
876.461625
 20
267.800997
 30
0.0
 10
876.959067
 20
267.594776
 30
0.0
 10
877.325833
 20
267.227699
 30
0.0
  0
SPLINE
  5
252
100
AcDbEntity
  8
0
 62
1
100
AcDbSpline
 70
8
 71
3
 72
8
 73
4
 74
0
 40
0
 40
0
 40
0
 40
0
 40
1
 40
1
 40
1
 40
1
 10
877.325833
 20
267.227699
 30
0.0
 10
877.692599
 20
266.860622
 30
0.0
 10
877.898645
 20
266.362760
 30
0.0
 10
877.898644
 20
265.843635
 30
0.0
  0
LWPOLYLINE
  5
253
100
AcDbEntity
  8
0
 62
1
100
AcDbPolyline
 90
2
 70
0
 10
612.144695
 20
78.946190
 30
0.0
 10
612.137412
 20
78.946190
 30
0.0
  0
LWPOLYLINE
  5
254
100
AcDbEntity
  8
0
 62
1
100
AcDbPolyline
 90
1
 70
1
 10
877.898644
 20
265.843635
 30
0.0
  0
LWPOLYLINE
  5
255
100
AcDbEntity
  8
0
 62
1
100
AcDbPolyline
 90
1
 70
1
 10
875.828306
 20
265.081573
 30
0.0
  0
LWPOLYLINE
  5
256
100
AcDbEntity
  8
0
 62
1
100
AcDbPolyline
 90
1
 70
1
 10
875.915614
 20
265.023316
 30
0.0
  0
LWPOLYLINE
  5
257
100
AcDbEntity
  8
0
 62
1
100
AcDbPolyline
 90
1
 70
1
 10
875.886511
 20
265.081573
 30
0.0
  0
LWPOLYLINE
  5
258
100
AcDbEntity
  8
0
 62
1
100
AcDbPolyline
 90
1
 70
1
 10
875.711880
 20
265.023316
 30
0.0
  0
SPLINE
  5
259
100
AcDbEntity
  8
0
 62
1
100
AcDbSpline
 70
8
 71
3
 72
8
 73
4
 74
0
 40
0
 40
0
 40
0
 40
0
 40
1
 40
1
 40
1
 40
1
 10
877.898697
 20
78.943643
 30
0.0
 10
877.898696
 20
77.862625
 30
0.0
 10
877.023097
 20
76.986287
 30
0.0
 10
875.942992
 20
76.986287
 30
0.0
  0
SPLINE
  5
25a
100
AcDbEntity
  8
0
 62
1
100
AcDbSpline
 70
8
 71
3
 72
8
 73
4
 74
0
 40
0
 40
0
 40
0
 40
0
 40
1
 40
1
 40
1
 40
1
 10
875.942992
 20
76.986287
 30
0.0
 10
875.424306
 20
76.986286
 30
0.0
 10
874.926864
 20
77.192507
 30
0.0
 10
874.560098
 20
77.559582
 30
0.0
  0
SPLINE
  5
25b
100
AcDbEntity
  8
0
 62
1
100
AcDbSpline
 70
8
 71
3
 72
8
 73
4
 74
0
 40
0
 40
0
 40
0
 40
0
 40
1
 40
1
 40
1
 40
1
 10
874.560098
 20
77.559582
 30
0.0
 10
874.193331
 20
77.926658
 30
0.0
 10
873.987284
 20
78.424520
 30
0.0
 10
873.987283
 20
78.943643
 30
0.0
  0
SPLINE
  5
25c
100
AcDbEntity
  8
0
 62
1
100
AcDbSpline
 70
8
 71
3
 72
8
 73
4
 74
0
 40
0
 40
0
 40
0
 40
0
 40
1
 40
1
 40
1
 40
1
 10
873.987283
 20
78.943643
 30
0.0
 10
873.987282
 20
79.462768
 30
0.0
 10
874.193329
 20
79.960631
 30
0.0
 10
874.560096
 20
80.327708
 30
0.0
  0
SPLINE
  5
25d
100
AcDbEntity
  8
0
 62
1
100
AcDbSpline
 70
8
 71
3
 72
8
 73
4
 74
0
 40
0
 40
0
 40
0
 40
0
 40
1
 40
1
 40
1
 40
1
 10
874.560096
 20
80.327708
 30
0.0
 10
874.926863
 20
80.694785
 30
0.0
 10
875.424305
 20
80.901006
 30
0.0
 10
875.942992
 20
80.901005
 30
0.0
  0
SPLINE
  5
25e
100
AcDbEntity
  8
0
 62
1
100
AcDbSpline
 70
8
 71
3
 72
8
 73
4
 74
0
 40
0
 40
0
 40
0
 40
0
 40
1
 40
1
 40
1
 40
1
 10
875.942992
 20
80.901005
 30
0.0
 10
876.461678
 20
80.901005
 30
0.0
 10
876.959120
 20
80.694784
 30
0.0
 10
877.325886
 20
80.327707
 30
0.0
  0
SPLINE
  5
25f
100
AcDbEntity
  8
0
 62
1
100
AcDbSpline
 70
8
 71
3
 72
8
 73
4
 74
0
 40
0
 40
0
 40
0
 40
0
 40
1
 40
1
 40
1
 40
1
 10
877.325886
 20
80.327707
 30
0.0
 10
877.692652
 20
79.960630
 30
0.0
 10
877.898698
 20
79.462768
 30
0.0
 10
877.898697
 20
78.943643
 30
0.0
  0
LWPOLYLINE
  5
260
100
AcDbEntity
  8
0
 62
1
100
AcDbPolyline
 90
2
 70
0
 10
875.944703
 20
265.846182
 30
0.0
 10
875.937420
 20
265.846182
 30
0.0
  0
LWPOLYLINE
  5
261
100
AcDbEntity
  8
0
 62
1
100
AcDbPolyline
 90
1
 70
1
 10
877.898697
 20
78.943643
 30
0.0
  0
LWPOLYLINE
  5
262
100
AcDbEntity
  8
0
 62
1
100
AcDbPolyline
 90
1
 70
1
 10
875.828359
 20
78.181581
 30
0.0
  0
LWPOLYLINE
  5
263
100
AcDbEntity
  8
0
 62
1
100
AcDbPolyline
 90
1
 70
1
 10
875.915667
 20
78.123324
 30
0.0
  0
LWPOLYLINE
  5
264
100
AcDbEntity
  8
0
 62
1
100
AcDbPolyline
 90
1
 70
1
 10
875.886564
 20
78.181581
 30
0.0
  0
LWPOLYLINE
  5
265
100
AcDbEntity
  8
0
 62
1
100
AcDbPolyline
 90
1
 70
1
 10
875.711933
 20
78.123324
 30
0.0
  0
SPLINE
  5
266
100
AcDbEntity
  8
0
 62
1
100
AcDbSpline
 70
8
 71
3
 72
8
 73
4
 74
0
 40
0
 40
0
 40
0
 40
0
 40
1
 40
1
 40
1
 40
1
 10
102.958764
 20
265.876946
 30
0.0
 10
102.958763
 20
264.777022
 30
0.0
 10
102.066606
 20
263.885357
 30
0.0
 10
100.966075
 20
263.885357
 30
0.0
  0
SPLINE
  5
267
100
AcDbEntity
  8
0
 62
1
100
AcDbSpline
 70
8
 71
3
 72
8
 73
4
 74
0
 40
0
 40
0
 40
0
 40
0
 40
1
 40
1
 40
1
 40
1
 10
100.966075
 20
263.885357
 30
0.0
 10
100.437581
 20
263.885356
 30
0.0
 10
99.930732
 20
264.095183
 30
0.0
 10
99.557030
 20
264.468679
 30
0.0
  0
SPLINE
  5
268
100
AcDbEntity
  8
0
 62
1
100
AcDbSpline
 70
8
 71
3
 72
8
 73
4
 74
0
 40
0
 40
0
 40
0
 40
0
 40
1
 40
1
 40
1
 40
1
 10
99.557030
 20
264.468679
 30
0.0
 10
99.183328
 20
264.842174
 30
0.0
 10
98.973384
 20
265.348743
 30
0.0
 10
98.973383
 20
265.876946
 30
0.0
  0
SPLINE
  5
269
100
AcDbEntity
  8
0
 62
1
100
AcDbSpline
 70
8
 71
3
 72
8
 73
4
 74
0
 40
0
 40
0
 40
0
 40
0
 40
1
 40
1
 40
1
 40
1
 10
98.973383
 20
265.876946
 30
0.0
 10
98.973382
 20
266.405150
 30
0.0
 10
99.183326
 20
266.911721
 30
0.0
 10
99.557028
 20
267.285218
 30
0.0
  0
SPLINE
  5
26a
100
AcDbEntity
  8
0
 62
1
100
AcDbSpline
 70
8
 71
3
 72
8
 73
4
 74
0
 40
0
 40
0
 40
0
 40
0
 40
1
 40
1
 40
1
 40
1
 10
99.557028
 20
267.285218
 30
0.0
 10
99.930731
 20
267.658714
 30
0.0
 10
100.437580
 20
267.868542
 30
0.0
 10
100.966075
 20
267.868541
 30
0.0
  0
SPLINE
  5
26b
100
AcDbEntity
  8
0
 62
1
100
AcDbSpline
 70
8
 71
3
 72
8
 73
4
 74
0
 40
0
 40
0
 40
0
 40
0
 40
1
 40
1
 40
1
 40
1
 10
100.966075
 20
267.868541
 30
0.0
 10
101.494570
 20
267.868541
 30
0.0
 10
102.001419
 20
267.658713
 30
0.0
 10
102.375120
 20
267.285217
 30
0.0
  0
SPLINE
  5
26c
100
AcDbEntity
  8
0
 62
1
100
AcDbSpline
 70
8
 71
3
 72
8
 73
4
 74
0
 40
0
 40
0
 40
0
 40
0
 40
1
 40
1
 40
1
 40
1
 10
102.375120
 20
267.285217
 30
0.0
 10
102.748822
 20
266.911720
 30
0.0
 10
102.958765
 20
266.405150
 30
0.0
 10
102.958764
 20
265.876946
 30
0.0
  0
LWPOLYLINE
  5
26d
100
AcDbEntity
  8
0
 62
1
100
AcDbPolyline
 90
2
 70
0
 10
875.944756
 20
78.946190
 30
0.0
 10
875.937473
 20
78.946190
 30
0.0
  0
LWPOLYLINE
  5
26e
100
AcDbEntity
  8
0
 62
1
100
AcDbPolyline
 90
1
 70
1
 10
102.958764
 20
265.876946
 30
0.0
  0
LWPOLYLINE
  5
26f
100
AcDbEntity
  8
0
 62
1
100
AcDbPolyline
 90
1
 70
1
 10
100.849275
 20
265.101556
 30
0.0
  0
LWPOLYLINE
  5
270
100
AcDbEntity
  8
0
 62
1
100
AcDbPolyline
 90
1
 70
1
 10
100.938234
 20
265.042280
 30
0.0
  0
LWPOLYLINE
  5
271
100
AcDbEntity
  8
0
 62
1
100
AcDbPolyline
 90
1
 70
1
 10
100.908581
 20
265.101556
 30
0.0
  0
LWPOLYLINE
  5
272
100
AcDbEntity
  8
0
 62
1
100
AcDbPolyline
 90
1
 70
1
 10
100.730647
 20
265.042280
 30
0.0
  0
SPLINE
  5
273
100
AcDbEntity
  8
0
 62
1
100
AcDbSpline
 70
8
 71
3
 72
8
 73
4
 74
0
 40
0
 40
0
 40
0
 40
0
 40
1
 40
1
 40
1
 40
1
 10
102.951548
 20
78.978070
 30
0.0
 10
102.951547
 20
77.877539
 30
0.0
 10
102.059882
 20
76.985382
 30
0.0
 10
100.959957
 20
76.985383
 30
0.0
  0
SPLINE
  5
274
100
AcDbEntity
  8
0
 62
1
100
AcDbSpline
 70
8
 71
3
 72
8
 73
4
 74
0
 40
0
 40
0
 40
0
 40
0
 40
1
 40
1
 40
1
 40
1
 10
100.959957
 20
76.985383
 30
0.0
 10
100.431755
 20
76.985382
 30
0.0
 10
99.925185
 20
77.195325
 30
0.0
 10
99.551689
 20
77.569026
 30
0.0
  0
SPLINE
  5
275
100
AcDbEntity
  8
0
 62
1
100
AcDbSpline
 70
8
 71
3
 72
8
 73
4
 74
0
 40
0
 40
0
 40
0
 40
0
 40
1
 40
1
 40
1
 40
1
 10
99.551689
 20
77.569026
 30
0.0
 10
99.178193
 20
77.942727
 30
0.0
 10
98.968365
 20
78.449576
 30
0.0
 10
98.968364
 20
78.978070
 30
0.0
  0
SPLINE
  5
276
100
AcDbEntity
  8
0
 62
1
100
AcDbSpline
 70
8
 71
3
 72
8
 73
4
 74
0
 40
0
 40
0
 40
0
 40
0
 40
1
 40
1
 40
1
 40
1
 10
98.968364
 20
78.978070
 30
0.0
 10
98.968363
 20
79.506566
 30
0.0
 10
99.178191
 20
80.013415
 30
0.0
 10
99.551687
 20
80.387118
 30
0.0
  0
SPLINE
  5
277
100
AcDbEntity
  8
0
 62
1
100
AcDbSpline
 70
8
 71
3
 72
8
 73
4
 74
0
 40
0
 40
0
 40
0
 40
0
 40
1
 40
1
 40
1
 40
1
 10
99.551687
 20
80.387118
 30
0.0
 10
99.925184
 20
80.760821
 30
0.0
 10
100.431754
 20
80.970764
 30
0.0
 10
100.959957
 20
80.970764
 30
0.0
  0
SPLINE
  5
278
100
AcDbEntity
  8
0
 62
1
100
AcDbSpline
 70
8
 71
3
 72
8
 73
4
 74
0
 40
0
 40
0
 40
0
 40
0
 40
1
 40
1
 40
1
 40
1
 10
100.959957
 20
80.970764
 30
0.0
 10
101.488161
 20
80.970764
 30
0.0
 10
101.994730
 20
80.760820
 30
0.0
 10
102.368226
 20
80.387117
 30
0.0
  0
SPLINE
  5
279
100
AcDbEntity
  8
0
 62
1
100
AcDbSpline
 70
8
 71
3
 72
8
 73
4
 74
0
 40
0
 40
0
 40
0
 40
0
 40
1
 40
1
 40
1
 40
1
 10
102.368226
 20
80.387117
 30
0.0
 10
102.741722
 20
80.013414
 30
0.0
 10
102.951549
 20
79.506565
 30
0.0
 10
102.951548
 20
78.978070
 30
0.0
  0
LWPOLYLINE
  5
27a
100
AcDbEntity
  8
0
 62
1
100
AcDbPolyline
 90
2
 70
0
 10
100.967872
 20
265.879538
 30
0.0
 10
100.960452
 20
265.879538
 30
0.0
  0
LWPOLYLINE
  5
27b
100
AcDbEntity
  8
0
 62
1
100
AcDbPolyline
 90
1
 70
1
 10
102.951548
 20
78.978070
 30
0.0
  0
LWPOLYLINE
  5
27c
100
AcDbEntity
  8
0
 62
1
100
AcDbPolyline
 90
1
 70
1
 10
100.843222
 20
78.202252
 30
0.0
  0
LWPOLYLINE
  5
27d
100
AcDbEntity
  8
0
 62
1
100
AcDbPolyline
 90
1
 70
1
 10
100.932131
 20
78.142944
 30
0.0
  0
LWPOLYLINE
  5
27e
100
AcDbEntity
  8
0
 62
1
100
AcDbPolyline
 90
1
 70
1
 10
100.902495
 20
78.202252
 30
0.0
  0
LWPOLYLINE
  5
27f
100
AcDbEntity
  8
0
 62
1
100
AcDbPolyline
 90
1
 70
1
 10
100.724659
 20
78.142944
 30
0.0
  0
SPLINE
  5
280
100
AcDbEntity
  8
0
 62
1
100
AcDbSpline
 70
8
 71
3
 72
8
 73
4
 74
0
 40
0
 40
0
 40
0
 40
0
 40
1
 40
1
 40
1
 40
1
 10
366.756588
 20
265.878025
 30
0.0
 10
366.756587
 20
264.777494
 30
0.0
 10
365.864922
 20
263.885337
 30
0.0
 10
364.764998
 20
263.885337
 30
0.0
  0
SPLINE
  5
281
100
AcDbEntity
  8
0
 62
1
100
AcDbSpline
 70
8
 71
3
 72
8
 73
4
 74
0
 40
0
 40
0
 40
0
 40
0
 40
1
 40
1
 40
1
 40
1
 10
364.764998
 20
263.885337
 30
0.0
 10
364.236795
 20
263.885337
 30
0.0
 10
363.730226
 20
264.095279
 30
0.0
 10
363.356729
 20
264.468981
 30
0.0
  0
SPLINE
  5
282
100
AcDbEntity
  8
0
 62
1
100
AcDbSpline
 70
8
 71
3
 72
8
 73
4
 74
0
 40
0
 40
0
 40
0
 40
0
 40
1
 40
1
 40
1
 40
1
 10
363.356729
 20
264.468981
 30
0.0
 10
362.983233
 20
264.842682
 30
0.0
 10
362.773405
 20
265.349531
 30
0.0
 10
362.773404
 20
265.878025
 30
0.0
  0
SPLINE
  5
283
100
AcDbEntity
  8
0
 62
1
100
AcDbSpline
 70
8
 71
3
 72
8
 73
4
 74
0
 40
0
 40
0
 40
0
 40
0
 40
1
 40
1
 40
1
 40
1
 10
362.773404
 20
265.878025
 30
0.0
 10
362.773403
 20
266.406520
 30
0.0
 10
362.983231
 20
266.913370
 30
0.0
 10
363.356727
 20
267.287073
 30
0.0
  0
SPLINE
  5
284
100
AcDbEntity
  8
0
 62
1
100
AcDbSpline
 70
8
 71
3
 72
8
 73
4
 74
0
 40
0
 40
0
 40
0
 40
0
 40
1
 40
1
 40
1
 40
1
 10
363.356727
 20
267.287073
 30
0.0
 10
363.730224
 20
267.660776
 30
0.0
 10
364.236794
 20
267.870719
 30
0.0
 10
364.764998
 20
267.870718
 30
0.0
  0
SPLINE
  5
285
100
AcDbEntity
  8
0
 62
1
100
AcDbSpline
 70
8
 71
3
 72
8
 73
4
 74
0
 40
0
 40
0
 40
0
 40
0
 40
1
 40
1
 40
1
 40
1
 10
364.764998
 20
267.870718
 30
0.0
 10
365.293201
 20
267.870718
 30
0.0
 10
365.799770
 20
267.660775
 30
0.0
 10
366.173266
 20
267.287072
 30
0.0
  0
SPLINE
  5
286
100
AcDbEntity
  8
0
 62
1
100
AcDbSpline
 70
8
 71
3
 72
8
 73
4
 74
0
 40
0
 40
0
 40
0
 40
0
 40
1
 40
1
 40
1
 40
1
 10
366.173266
 20
267.287072
 30
0.0
 10
366.546762
 20
266.913369
 30
0.0
 10
366.756589
 20
266.406520
 30
0.0
 10
366.756588
 20
265.878025
 30
0.0
  0
LWPOLYLINE
  5
287
100
AcDbEntity
  8
0
 62
1
100
AcDbPolyline
 90
2
 70
0
 10
100.961754
 20
78.980663
 30
0.0
 10
100.954338
 20
78.980663
 30
0.0
  0
LWPOLYLINE
  5
288
100
AcDbEntity
  8
0
 62
1
100
AcDbPolyline
 90
1
 70
1
 10
366.756588
 20
265.878025
 30
0.0
  0
LWPOLYLINE
  5
289
100
AcDbEntity
  8
0
 62
1
100
AcDbPolyline
 90
1
 70
1
 10
364.648262
 20
265.102207
 30
0.0
  0
LWPOLYLINE
  5
28a
100
AcDbEntity
  8
0
 62
1
100
AcDbPolyline
 90
1
 70
1
 10
364.737172
 20
265.042898
 30
0.0
  0
LWPOLYLINE
  5
28b
100
AcDbEntity
  8
0
 62
1
100
AcDbPolyline
 90
1
 70
1
 10
364.707535
 20
265.102207
 30
0.0
  0
LWPOLYLINE
  5
28c
100
AcDbEntity
  8
0
 62
1
100
AcDbPolyline
 90
1
 70
1
 10
364.529699
 20
265.042898
 30
0.0
  0
SPLINE
  5
28d
100
AcDbEntity
  8
0
 62
1
100
AcDbSpline
 70
8
 71
3
 72
8
 73
4
 74
0
 40
0
 40
0
 40
0
 40
0
 40
1
 40
1
 40
1
 40
1
 10
366.756549
 20
78.978070
 30
0.0
 10
366.756548
 20
77.877539
 30
0.0
 10
365.864882
 20
76.985382
 30
0.0
 10
364.764958
 20
76.985383
 30
0.0
  0
SPLINE
  5
28e
100
AcDbEntity
  8
0
 62
1
100
AcDbSpline
 70
8
 71
3
 72
8
 73
4
 74
0
 40
0
 40
0
 40
0
 40
0
 40
1
 40
1
 40
1
 40
1
 10
364.764958
 20
76.985383
 30
0.0
 10
364.236755
 20
76.985382
 30
0.0
 10
363.730186
 20
77.195325
 30
0.0
 10
363.356690
 20
77.569026
 30
0.0
  0
SPLINE
  5
28f
100
AcDbEntity
  8
0
 62
1
100
AcDbSpline
 70
8
 71
3
 72
8
 73
4
 74
0
 40
0
 40
0
 40
0
 40
0
 40
1
 40
1
 40
1
 40
1
 10
363.356690
 20
77.569026
 30
0.0
 10
362.983194
 20
77.942727
 30
0.0
 10
362.773365
 20
78.449576
 30
0.0
 10
362.773365
 20
78.978070
 30
0.0
  0
SPLINE
  5
290
100
AcDbEntity
  8
0
 62
1
100
AcDbSpline
 70
8
 71
3
 72
8
 73
4
 74
0
 40
0
 40
0
 40
0
 40
0
 40
1
 40
1
 40
1
 40
1
 10
362.773365
 20
78.978070
 30
0.0
 10
362.773364
 20
79.506566
 30
0.0
 10
362.983191
 20
80.013415
 30
0.0
 10
363.356688
 20
80.387118
 30
0.0
  0
SPLINE
  5
291
100
AcDbEntity
  8
0
 62
1
100
AcDbSpline
 70
8
 71
3
 72
8
 73
4
 74
0
 40
0
 40
0
 40
0
 40
0
 40
1
 40
1
 40
1
 40
1
 10
363.356688
 20
80.387118
 30
0.0
 10
363.730184
 20
80.760821
 30
0.0
 10
364.236754
 20
80.970764
 30
0.0
 10
364.764958
 20
80.970764
 30
0.0
  0
SPLINE
  5
292
100
AcDbEntity
  8
0
 62
1
100
AcDbSpline
 70
8
 71
3
 72
8
 73
4
 74
0
 40
0
 40
0
 40
0
 40
0
 40
1
 40
1
 40
1
 40
1
 10
364.764958
 20
80.970764
 30
0.0
 10
365.293161
 20
80.970764
 30
0.0
 10
365.799731
 20
80.760820
 30
0.0
 10
366.173227
 20
80.387117
 30
0.0
  0
SPLINE
  5
293
100
AcDbEntity
  8
0
 62
1
100
AcDbSpline
 70
8
 71
3
 72
8
 73
4
 74
0
 40
0
 40
0
 40
0
 40
0
 40
1
 40
1
 40
1
 40
1
 10
366.173227
 20
80.387117
 30
0.0
 10
366.546722
 20
80.013414
 30
0.0
 10
366.756550
 20
79.506565
 30
0.0
 10
366.756549
 20
78.978070
 30
0.0
  0
LWPOLYLINE
  5
294
100
AcDbEntity
  8
0
 62
1
100
AcDbPolyline
 90
2
 70
0
 10
364.766794
 20
265.880618
 30
0.0
 10
364.759378
 20
265.880618
 30
0.0
  0
LWPOLYLINE
  5
295
100
AcDbEntity
  8
0
 62
1
100
AcDbPolyline
 90
1
 70
1
 10
366.756549
 20
78.978070
 30
0.0
  0
LWPOLYLINE
  5
296
100
AcDbEntity
  8
0
 62
1
100
AcDbPolyline
 90
1
 70
1
 10
364.648222
 20
78.202252
 30
0.0
  0
LWPOLYLINE
  5
297
100
AcDbEntity
  8
0
 62
1
100
AcDbPolyline
 90
1
 70
1
 10
364.737132
 20
78.142944
 30
0.0
  0
LWPOLYLINE
  5
298
100
AcDbEntity
  8
0
 62
1
100
AcDbPolyline
 90
1
 70
1
 10
364.707495
 20
78.202252
 30
0.0
  0
LWPOLYLINE
  5
299
100
AcDbEntity
  8
0
 62
1
100
AcDbPolyline
 90
1
 70
1
 10
364.529659
 20
78.142944
 30
0.0
  0
LWPOLYLINE
  5
29a
100
AcDbEntity
  8
0
 62
1
100
AcDbPolyline
 90
2
 70
0
 10
364.766754
 20
78.980663
 30
0.0
 10
364.759338
 20
78.980663
 30
0.0
  0
SPLINE
  5
29b
100
AcDbEntity
  8
0
 62
1
100
AcDbSpline
 70
8
 71
3
 72
8
 73
4
 74
0
 40
0
 40
0
 40
0
 40
0
 40
1
 40
1
 40
1
 40
1
 10
491.470857
 20
266.746995
 30
0.0
 10
491.470857
 20
252.500728
 30
0.0
 10
483.870565
 20
239.336635
 30
0.0
 10
471.532936
 20
232.213502
 30
0.0
  0
SPLINE
  5
29c
100
AcDbEntity
  8
0
 62
1
100
AcDbSpline
 70
8
 71
3
 72
8
 73
4
 74
0
 40
0
 40
0
 40
0
 40
0
 40
1
 40
1
 40
1
 40
1
 10
471.532936
 20
232.213502
 30
0.0
 10
459.195307
 20
225.090368
 30
0.0
 10
443.994721
 20
225.090368
 30
0.0
 10
431.657092
 20
232.213502
 30
0.0
  0
SPLINE
  5
29d
100
AcDbEntity
  8
0
 62
1
100
AcDbSpline
 70
8
 71
3
 72
8
 73
4
 74
0
 40
0
 40
0
 40
0
 40
0
 40
1
 40
1
 40
1
 40
1
 10
431.657092
 20
232.213502
 30
0.0
 10
419.319463
 20
239.336635
 30
0.0
 10
411.719170
 20
252.500728
 30
0.0
 10
411.719170
 20
266.746995
 30
0.0
  0
SPLINE
  5
29e
100
AcDbEntity
  8
0
 62
1
100
AcDbSpline
 70
8
 71
3
 72
8
 73
4
 74
0
 40
0
 40
0
 40
0
 40
0
 40
1
 40
1
 40
1
 40
1
 10
411.719170
 20
266.746995
 30
0.0
 10
411.719170
 20
280.993262
 30
0.0
 10
419.319463
 20
294.157355
 30
0.0
 10
431.657092
 20
301.280489
 30
0.0
  0
SPLINE
  5
29f
100
AcDbEntity
  8
0
 62
1
100
AcDbSpline
 70
8
 71
3
 72
8
 73
4
 74
0
 40
0
 40
0
 40
0
 40
0
 40
1
 40
1
 40
1
 40
1
 10
431.657092
 20
301.280489
 30
0.0
 10
443.994721
 20
308.403622
 30
0.0
 10
459.195307
 20
308.403622
 30
0.0
 10
471.532936
 20
301.280489
 30
0.0
  0
SPLINE
  5
2a0
100
AcDbEntity
  8
0
 62
1
100
AcDbSpline
 70
8
 71
3
 72
8
 73
4
 74
0
 40
0
 40
0
 40
0
 40
0
 40
1
 40
1
 40
1
 40
1
 10
471.532936
 20
301.280489
 30
0.0
 10
483.870565
 20
294.157355
 30
0.0
 10
491.470857
 20
280.993262
 30
0.0
 10
491.470857
 20
266.746995
 30
0.0
  0
LWPOLYLINE
  5
2a1
100
AcDbEntity
  8
0
 62
7
100
AcDbPolyline
 90
4
 70
1
 10
405.286766
 20
220.702124
 30
0.0
 10
565.775499
 20
220.702124
 30
0.0
 10
565.775499
 20
108.741387
 30
0.0
 10
405.286766
 20
108.741387
 30
0.0
  0
SPLINE
  5
2a2
100
AcDbEntity
  8
0
 62
1
100
AcDbSpline
 70
8
 71
3
 72
8
 73
4
 74
0
 40
0
 40
0
 40
0
 40
0
 40
1
 40
1
 40
1
 40
1
 10
422.110890
 20
298.235993
 30
0.0
 10
422.110890
 20
297.513636
 30
0.0
 10
421.725517
 20
296.846151
 30
0.0
 10
421.099938
 20
296.484973
 30
0.0
  0
SPLINE
  5
2a3
100
AcDbEntity
  8
0
 62
1
100
AcDbSpline
 70
8
 71
3
 72
8
 73
4
 74
0
 40
0
 40
0
 40
0
 40
0
 40
1
 40
1
 40
1
 40
1
 10
421.099938
 20
296.484973
 30
0.0
 10
420.474359
 20
296.123795
 30
0.0
 10
419.703613
 20
296.123795
 30
0.0
 10
419.078034
 20
296.484973
 30
0.0
  0
SPLINE
  5
2a4
100
AcDbEntity
  8
0
 62
1
100
AcDbSpline
 70
8
 71
3
 72
8
 73
4
 74
0
 40
0
 40
0
 40
0
 40
0
 40
1
 40
1
 40
1
 40
1
 10
419.078034
 20
296.484973
 30
0.0
 10
418.452455
 20
296.846151
 30
0.0
 10
418.067082
 20
297.513636
 30
0.0
 10
418.067082
 20
298.235993
 30
0.0
  0
SPLINE
  5
2a5
100
AcDbEntity
  8
0
 62
1
100
AcDbSpline
 70
8
 71
3
 72
8
 73
4
 74
0
 40
0
 40
0
 40
0
 40
0
 40
1
 40
1
 40
1
 40
1
 10
418.067082
 20
298.235993
 30
0.0
 10
418.067082
 20
298.958349
 30
0.0
 10
418.452455
 20
299.625835
 30
0.0
 10
419.078034
 20
299.987013
 30
0.0
  0
SPLINE
  5
2a6
100
AcDbEntity
  8
0
 62
1
100
AcDbSpline
 70
8
 71
3
 72
8
 73
4
 74
0
 40
0
 40
0
 40
0
 40
0
 40
1
 40
1
 40
1
 40
1
 10
419.078034
 20
299.987013
 30
0.0
 10
419.703613
 20
300.348191
 30
0.0
 10
420.474359
 20
300.348191
 30
0.0
 10
421.099938
 20
299.987013
 30
0.0
  0
SPLINE
  5
2a7
100
AcDbEntity
  8
0
 62
1
100
AcDbSpline
 70
8
 71
3
 72
8
 73
4
 74
0
 40
0
 40
0
 40
0
 40
0
 40
1
 40
1
 40
1
 40
1
 10
421.099938
 20
299.987013
 30
0.0
 10
421.725517
 20
299.625835
 30
0.0
 10
422.110890
 20
298.958349
 30
0.0
 10
422.110890
 20
298.235993
 30
0.0
  0
LWPOLYLINE
  5
2a8
100
AcDbEntity
  8
0
 62
1
100
AcDbPolyline
 90
1
 70
1
 10
491.470857
 20
266.746995
 30
0.0
  0
SPLINE
  5
2a9
100
AcDbEntity
  8
0
 62
1
100
AcDbSpline
 70
8
 71
3
 72
8
 73
4
 74
0
 40
0
 40
0
 40
0
 40
0
 40
1
 40
1
 40
1
 40
1
 10
485.107890
 20
298.234994
 30
0.0
 10
485.107890
 20
297.512637
 30
0.0
 10
484.722518
 20
296.845152
 30
0.0
 10
484.096939
 20
296.483974
 30
0.0
  0
SPLINE
  5
2aa
100
AcDbEntity
  8
0
 62
1
100
AcDbSpline
 70
8
 71
3
 72
8
 73
4
 74
0
 40
0
 40
0
 40
0
 40
0
 40
1
 40
1
 40
1
 40
1
 10
484.096939
 20
296.483974
 30
0.0
 10
483.471359
 20
296.122795
 30
0.0
 10
482.700614
 20
296.122795
 30
0.0
 10
482.075035
 20
296.483974
 30
0.0
  0
SPLINE
  5
2ab
100
AcDbEntity
  8
0
 62
1
100
AcDbSpline
 70
8
 71
3
 72
8
 73
4
 74
0
 40
0
 40
0
 40
0
 40
0
 40
1
 40
1
 40
1
 40
1
 10
482.075035
 20
296.483974
 30
0.0
 10
481.449456
 20
296.845152
 30
0.0
 10
481.064083
 20
297.512637
 30
0.0
 10
481.064083
 20
298.234994
 30
0.0
  0
SPLINE
  5
2ac
100
AcDbEntity
  8
0
 62
1
100
AcDbSpline
 70
8
 71
3
 72
8
 73
4
 74
0
 40
0
 40
0
 40
0
 40
0
 40
1
 40
1
 40
1
 40
1
 10
481.064083
 20
298.234994
 30
0.0
 10
481.064083
 20
298.957350
 30
0.0
 10
481.449456
 20
299.624835
 30
0.0
 10
482.075035
 20
299.986014
 30
0.0
  0
SPLINE
  5
2ad
100
AcDbEntity
  8
0
 62
1
100
AcDbSpline
 70
8
 71
3
 72
8
 73
4
 74
0
 40
0
 40
0
 40
0
 40
0
 40
1
 40
1
 40
1
 40
1
 10
482.075035
 20
299.986014
 30
0.0
 10
482.700614
 20
300.347192
 30
0.0
 10
483.471359
 20
300.347192
 30
0.0
 10
484.096939
 20
299.986014
 30
0.0
  0
SPLINE
  5
2ae
100
AcDbEntity
  8
0
 62
1
100
AcDbSpline
 70
8
 71
3
 72
8
 73
4
 74
0
 40
0
 40
0
 40
0
 40
0
 40
1
 40
1
 40
1
 40
1
 10
484.096939
 20
299.986014
 30
0.0
 10
484.722518
 20
299.624835
 30
0.0
 10
485.107890
 20
298.957350
 30
0.0
 10
485.107890
 20
298.234994
 30
0.0
  0
LWPOLYLINE
  5
2af
100
AcDbEntity
  8
0
 62
1
100
AcDbPolyline
 90
1
 70
1
 10
422.110890
 20
298.235993
 30
0.0
  0
SPLINE
  5
2b0
100
AcDbEntity
  8
0
 62
1
100
AcDbSpline
 70
8
 71
3
 72
8
 73
4
 74
0
 40
0
 40
0
 40
0
 40
0
 40
1
 40
1
 40
1
 40
1
 10
422.110890
 20
235.242992
 30
0.0
 10
422.110890
 20
234.520635
 30
0.0
 10
421.725517
 20
233.853150
 30
0.0
 10
421.099938
 20
233.491972
 30
0.0
  0
SPLINE
  5
2b1
100
AcDbEntity
  8
0
 62
1
100
AcDbSpline
 70
8
 71
3
 72
8
 73
4
 74
0
 40
0
 40
0
 40
0
 40
0
 40
1
 40
1
 40
1
 40
1
 10
421.099938
 20
233.491972
 30
0.0
 10
420.474359
 20
233.130793
 30
0.0
 10
419.703613
 20
233.130793
 30
0.0
 10
419.078034
 20
233.491972
 30
0.0
  0
SPLINE
  5
2b2
100
AcDbEntity
  8
0
 62
1
100
AcDbSpline
 70
8
 71
3
 72
8
 73
4
 74
0
 40
0
 40
0
 40
0
 40
0
 40
1
 40
1
 40
1
 40
1
 10
419.078034
 20
233.491972
 30
0.0
 10
418.452455
 20
233.853150
 30
0.0
 10
418.067082
 20
234.520635
 30
0.0
 10
418.067082
 20
235.242992
 30
0.0
  0
SPLINE
  5
2b3
100
AcDbEntity
  8
0
 62
1
100
AcDbSpline
 70
8
 71
3
 72
8
 73
4
 74
0
 40
0
 40
0
 40
0
 40
0
 40
1
 40
1
 40
1
 40
1
 10
418.067082
 20
235.242992
 30
0.0
 10
418.067082
 20
235.965348
 30
0.0
 10
418.452455
 20
236.632833
 30
0.0
 10
419.078034
 20
236.994012
 30
0.0
  0
SPLINE
  5
2b4
100
AcDbEntity
  8
0
 62
1
100
AcDbSpline
 70
8
 71
3
 72
8
 73
4
 74
0
 40
0
 40
0
 40
0
 40
0
 40
1
 40
1
 40
1
 40
1
 10
419.078034
 20
236.994012
 30
0.0
 10
419.703613
 20
237.355190
 30
0.0
 10
420.474359
 20
237.355190
 30
0.0
 10
421.099938
 20
236.994012
 30
0.0
  0
SPLINE
  5
2b5
100
AcDbEntity
  8
0
 62
1
100
AcDbSpline
 70
8
 71
3
 72
8
 73
4
 74
0
 40
0
 40
0
 40
0
 40
0
 40
1
 40
1
 40
1
 40
1
 10
421.099938
 20
236.994012
 30
0.0
 10
421.725517
 20
236.632833
 30
0.0
 10
422.110890
 20
235.965348
 30
0.0
 10
422.110890
 20
235.242992
 30
0.0
  0
LWPOLYLINE
  5
2b6
100
AcDbEntity
  8
0
 62
1
100
AcDbPolyline
 90
1
 70
1
 10
485.107890
 20
298.234994
 30
0.0
  0
SPLINE
  5
2b7
100
AcDbEntity
  8
0
 62
1
100
AcDbSpline
 70
8
 71
3
 72
8
 73
4
 74
0
 40
0
 40
0
 40
0
 40
0
 40
1
 40
1
 40
1
 40
1
 10
562.099783
 20
254.738992
 30
0.0
 10
562.099783
 20
244.485547
 30
0.0
 10
556.629635
 20
235.010973
 30
0.0
 10
547.749891
 20
229.884251
 30
0.0
  0
SPLINE
  5
2b8
100
AcDbEntity
  8
0
 62
1
100
AcDbSpline
 70
8
 71
3
 72
8
 73
4
 74
0
 40
0
 40
0
 40
0
 40
0
 40
1
 40
1
 40
1
 40
1
 10
547.749891
 20
229.884251
 30
0.0
 10
538.870148
 20
224.757528
 30
0.0
 10
527.929852
 20
224.757528
 30
0.0
 10
519.050109
 20
229.884251
 30
0.0
  0
SPLINE
  5
2b9
100
AcDbEntity
  8
0
 62
1
100
AcDbSpline
 70
8
 71
3
 72
8
 73
4
 74
0
 40
0
 40
0
 40
0
 40
0
 40
1
 40
1
 40
1
 40
1
 10
519.050109
 20
229.884251
 30
0.0
 10
510.170365
 20
235.010973
 30
0.0
 10
504.700217
 20
244.485547
 30
0.0
 10
504.700217
 20
254.738992
 30
0.0
  0
SPLINE
  5
2ba
100
AcDbEntity
  8
0
 62
1
100
AcDbSpline
 70
8
 71
3
 72
8
 73
4
 74
0
 40
0
 40
0
 40
0
 40
0
 40
1
 40
1
 40
1
 40
1
 10
504.700217
 20
254.738992
 30
0.0
 10
504.700217
 20
264.992437
 30
0.0
 10
510.170365
 20
274.467010
 30
0.0
 10
519.050109
 20
279.593733
 30
0.0
  0
SPLINE
  5
2bb
100
AcDbEntity
  8
0
 62
1
100
AcDbSpline
 70
8
 71
3
 72
8
 73
4
 74
0
 40
0
 40
0
 40
0
 40
0
 40
1
 40
1
 40
1
 40
1
 10
519.050109
 20
279.593733
 30
0.0
 10
527.929852
 20
284.720455
 30
0.0
 10
538.870148
 20
284.720455
 30
0.0
 10
547.749891
 20
279.593733
 30
0.0
  0
SPLINE
  5
2bc
100
AcDbEntity
  8
0
 62
1
100
AcDbSpline
 70
8
 71
3
 72
8
 73
4
 74
0
 40
0
 40
0
 40
0
 40
0
 40
1
 40
1
 40
1
 40
1
 10
547.749891
 20
279.593733
 30
0.0
 10
556.629635
 20
274.467010
 30
0.0
 10
562.099783
 20
264.992437
 30
0.0
 10
562.099783
 20
254.738992
 30
0.0
  0
LWPOLYLINE
  5
2bd
100
AcDbEntity
  8
0
 62
1
100
AcDbPolyline
 90
1
 70
1
 10
422.110890
 20
235.242992
 30
0.0
  0
SPLINE
  5
2be
100
AcDbEntity
  8
0
 62
1
100
AcDbSpline
 70
8
 71
3
 72
8
 73
4
 74
0
 40
0
 40
0
 40
0
 40
0
 40
1
 40
1
 40
1
 40
1
 10
511.726505
 20
278.289991
 30
0.0
 10
511.726505
 20
277.620287
 30
0.0
 10
511.369222
 20
277.001454
 30
0.0
 10
510.789241
 20
276.666602
 30
0.0
  0
SPLINE
  5
2bf
100
AcDbEntity
  8
0
 62
1
100
AcDbSpline
 70
8
 71
3
 72
8
 73
4
 74
0
 40
0
 40
0
 40
0
 40
0
 40
1
 40
1
 40
1
 40
1
 10
510.789241
 20
276.666602
 30
0.0
 10
510.209260
 20
276.331750
 30
0.0
 10
509.494695
 20
276.331750
 30
0.0
 10
508.914714
 20
276.666602
 30
0.0
  0
SPLINE
  5
2c0
100
AcDbEntity
  8
0
 62
1
100
AcDbSpline
 70
8
 71
3
 72
8
 73
4
 74
0
 40
0
 40
0
 40
0
 40
0
 40
1
 40
1
 40
1
 40
1
 10
508.914714
 20
276.666602
 30
0.0
 10
508.334733
 20
277.001454
 30
0.0
 10
507.977450
 20
277.620287
 30
0.0
 10
507.977450
 20
278.289991
 30
0.0
  0
SPLINE
  5
2c1
100
AcDbEntity
  8
0
 62
1
100
AcDbSpline
 70
8
 71
3
 72
8
 73
4
 74
0
 40
0
 40
0
 40
0
 40
0
 40
1
 40
1
 40
1
 40
1
 10
507.977450
 20
278.289991
 30
0.0
 10
507.977450
 20
278.959695
 30
0.0
 10
508.334733
 20
279.578527
 30
0.0
 10
508.914714
 20
279.913379
 30
0.0
  0
SPLINE
  5
2c2
100
AcDbEntity
  8
0
 62
1
100
AcDbSpline
 70
8
 71
3
 72
8
 73
4
 74
0
 40
0
 40
0
 40
0
 40
0
 40
1
 40
1
 40
1
 40
1
 10
508.914714
 20
279.913379
 30
0.0
 10
509.494695
 20
280.248232
 30
0.0
 10
510.209260
 20
280.248232
 30
0.0
 10
510.789241
 20
279.913379
 30
0.0
  0
SPLINE
  5
2c3
100
AcDbEntity
  8
0
 62
1
100
AcDbSpline
 70
8
 71
3
 72
8
 73
4
 74
0
 40
0
 40
0
 40
0
 40
0
 40
1
 40
1
 40
1
 40
1
 10
510.789241
 20
279.913379
 30
0.0
 10
511.369222
 20
279.578527
 30
0.0
 10
511.726505
 20
278.959695
 30
0.0
 10
511.726505
 20
278.289991
 30
0.0
  0
LWPOLYLINE
  5
2c4
100
AcDbEntity
  8
0
 62
1
100
AcDbPolyline
 90
1
 70
1
 10
562.099783
 20
254.738992
 30
0.0
  0
SPLINE
  5
2c5
100
AcDbEntity
  8
0
 62
1
100
AcDbSpline
 70
8
 71
3
 72
8
 73
4
 74
0
 40
0
 40
0
 40
0
 40
0
 40
1
 40
1
 40
1
 40
1
 10
511.726505
 20
231.069991
 30
0.0
 10
511.726505
 20
230.400287
 30
0.0
 10
511.369222
 20
229.781455
 30
0.0
 10
510.789241
 20
229.446603
 30
0.0
  0
SPLINE
  5
2c6
100
AcDbEntity
  8
0
 62
1
100
AcDbSpline
 70
8
 71
3
 72
8
 73
4
 74
0
 40
0
 40
0
 40
0
 40
0
 40
1
 40
1
 40
1
 40
1
 10
510.789241
 20
229.446603
 30
0.0
 10
510.209260
 20
229.111751
 30
0.0
 10
509.494695
 20
229.111751
 30
0.0
 10
508.914714
 20
229.446603
 30
0.0
  0
SPLINE
  5
2c7
100
AcDbEntity
  8
0
 62
1
100
AcDbSpline
 70
8
 71
3
 72
8
 73
4
 74
0
 40
0
 40
0
 40
0
 40
0
 40
1
 40
1
 40
1
 40
1
 10
508.914714
 20
229.446603
 30
0.0
 10
508.334733
 20
229.781455
 30
0.0
 10
507.977450
 20
230.400287
 30
0.0
 10
507.977450
 20
231.069991
 30
0.0
  0
SPLINE
  5
2c8
100
AcDbEntity
  8
0
 62
1
100
AcDbSpline
 70
8
 71
3
 72
8
 73
4
 74
0
 40
0
 40
0
 40
0
 40
0
 40
1
 40
1
 40
1
 40
1
 10
507.977450
 20
231.069991
 30
0.0
 10
507.977450
 20
231.739695
 30
0.0
 10
508.334733
 20
232.358528
 30
0.0
 10
508.914714
 20
232.693380
 30
0.0
  0
SPLINE
  5
2c9
100
AcDbEntity
  8
0
 62
1
100
AcDbSpline
 70
8
 71
3
 72
8
 73
4
 74
0
 40
0
 40
0
 40
0
 40
0
 40
1
 40
1
 40
1
 40
1
 10
508.914714
 20
232.693380
 30
0.0
 10
509.494695
 20
233.028232
 30
0.0
 10
510.209260
 20
233.028232
 30
0.0
 10
510.789241
 20
232.693380
 30
0.0
  0
SPLINE
  5
2ca
100
AcDbEntity
  8
0
 62
1
100
AcDbSpline
 70
8
 71
3
 72
8
 73
4
 74
0
 40
0
 40
0
 40
0
 40
0
 40
1
 40
1
 40
1
 40
1
 10
510.789241
 20
232.693380
 30
0.0
 10
511.369222
 20
232.358528
 30
0.0
 10
511.726505
 20
231.739695
 30
0.0
 10
511.726505
 20
231.069991
 30
0.0
  0
LWPOLYLINE
  5
2cb
100
AcDbEntity
  8
0
 62
1
100
AcDbPolyline
 90
1
 70
1
 10
511.726505
 20
278.289991
 30
0.0
  0
SPLINE
  5
2cc
100
AcDbEntity
  8
0
 62
1
100
AcDbSpline
 70
8
 71
3
 72
8
 73
4
 74
0
 40
0
 40
0
 40
0
 40
0
 40
1
 40
1
 40
1
 40
1
 10
558.824508
 20
278.289991
 30
0.0
 10
558.824508
 20
277.620287
 30
0.0
 10
558.467225
 20
277.001454
 30
0.0
 10
557.887244
 20
276.666602
 30
0.0
  0
SPLINE
  5
2cd
100
AcDbEntity
  8
0
 62
1
100
AcDbSpline
 70
8
 71
3
 72
8
 73
4
 74
0
 40
0
 40
0
 40
0
 40
0
 40
1
 40
1
 40
1
 40
1
 10
557.887244
 20
276.666602
 30
0.0
 10
557.307263
 20
276.331750
 30
0.0
 10
556.592697
 20
276.331750
 30
0.0
 10
556.012717
 20
276.666602
 30
0.0
  0
SPLINE
  5
2ce
100
AcDbEntity
  8
0
 62
1
100
AcDbSpline
 70
8
 71
3
 72
8
 73
4
 74
0
 40
0
 40
0
 40
0
 40
0
 40
1
 40
1
 40
1
 40
1
 10
556.012717
 20
276.666602
 30
0.0
 10
555.432736
 20
277.001454
 30
0.0
 10
555.075453
 20
277.620287
 30
0.0
 10
555.075453
 20
278.289991
 30
0.0
  0
SPLINE
  5
2cf
100
AcDbEntity
  8
0
 62
1
100
AcDbSpline
 70
8
 71
3
 72
8
 73
4
 74
0
 40
0
 40
0
 40
0
 40
0
 40
1
 40
1
 40
1
 40
1
 10
555.075453
 20
278.289991
 30
0.0
 10
555.075453
 20
278.959695
 30
0.0
 10
555.432736
 20
279.578527
 30
0.0
 10
556.012717
 20
279.913379
 30
0.0
  0
SPLINE
  5
2d0
100
AcDbEntity
  8
0
 62
1
100
AcDbSpline
 70
8
 71
3
 72
8
 73
4
 74
0
 40
0
 40
0
 40
0
 40
0
 40
1
 40
1
 40
1
 40
1
 10
556.012717
 20
279.913379
 30
0.0
 10
556.592697
 20
280.248232
 30
0.0
 10
557.307263
 20
280.248232
 30
0.0
 10
557.887244
 20
279.913379
 30
0.0
  0
SPLINE
  5
2d1
100
AcDbEntity
  8
0
 62
1
100
AcDbSpline
 70
8
 71
3
 72
8
 73
4
 74
0
 40
0
 40
0
 40
0
 40
0
 40
1
 40
1
 40
1
 40
1
 10
557.887244
 20
279.913379
 30
0.0
 10
558.467225
 20
279.578527
 30
0.0
 10
558.824508
 20
278.959695
 30
0.0
 10
558.824508
 20
278.289991
 30
0.0
  0
LWPOLYLINE
  5
2d2
100
AcDbEntity
  8
0
 62
1
100
AcDbPolyline
 90
1
 70
1
 10
511.726505
 20
231.069991
 30
0.0
  0
SPLINE
  5
2d3
100
AcDbEntity
  8
0
 62
1
100
AcDbSpline
 70
8
 71
3
 72
8
 73
4
 74
0
 40
0
 40
0
 40
0
 40
0
 40
1
 40
1
 40
1
 40
1
 10
558.824508
 20
231.190001
 30
0.0
 10
558.824508
 20
230.520297
 30
0.0
 10
558.467225
 20
229.901465
 30
0.0
 10
557.887244
 20
229.566613
 30
0.0
  0
SPLINE
  5
2d4
100
AcDbEntity
  8
0
 62
1
100
AcDbSpline
 70
8
 71
3
 72
8
 73
4
 74
0
 40
0
 40
0
 40
0
 40
0
 40
1
 40
1
 40
1
 40
1
 10
557.887244
 20
229.566613
 30
0.0
 10
557.307263
 20
229.231760
 30
0.0
 10
556.592697
 20
229.231760
 30
0.0
 10
556.012717
 20
229.566613
 30
0.0
  0
SPLINE
  5
2d5
100
AcDbEntity
  8
0
 62
1
100
AcDbSpline
 70
8
 71
3
 72
8
 73
4
 74
0
 40
0
 40
0
 40
0
 40
0
 40
1
 40
1
 40
1
 40
1
 10
556.012717
 20
229.566613
 30
0.0
 10
555.432736
 20
229.901465
 30
0.0
 10
555.075453
 20
230.520297
 30
0.0
 10
555.075453
 20
231.190001
 30
0.0
  0
SPLINE
  5
2d6
100
AcDbEntity
  8
0
 62
1
100
AcDbSpline
 70
8
 71
3
 72
8
 73
4
 74
0
 40
0
 40
0
 40
0
 40
0
 40
1
 40
1
 40
1
 40
1
 10
555.075453
 20
231.190001
 30
0.0
 10
555.075453
 20
231.859705
 30
0.0
 10
555.432736
 20
232.478537
 30
0.0
 10
556.012717
 20
232.813389
 30
0.0
  0
SPLINE
  5
2d7
100
AcDbEntity
  8
0
 62
1
100
AcDbSpline
 70
8
 71
3
 72
8
 73
4
 74
0
 40
0
 40
0
 40
0
 40
0
 40
1
 40
1
 40
1
 40
1
 10
556.012717
 20
232.813389
 30
0.0
 10
556.592697
 20
233.148241
 30
0.0
 10
557.307263
 20
233.148241
 30
0.0
 10
557.887244
 20
232.813389
 30
0.0
  0
SPLINE
  5
2d8
100
AcDbEntity
  8
0
 62
1
100
AcDbSpline
 70
8
 71
3
 72
8
 73
4
 74
0
 40
0
 40
0
 40
0
 40
0
 40
1
 40
1
 40
1
 40
1
 10
557.887244
 20
232.813389
 30
0.0
 10
558.467225
 20
232.478537
 30
0.0
 10
558.824508
 20
231.859705
 30
0.0
 10
558.824508
 20
231.190001
 30
0.0
  0
LWPOLYLINE
  5
2d9
100
AcDbEntity
  8
0
 62
1
100
AcDbPolyline
 90
1
 70
1
 10
558.824508
 20
278.289991
 30
0.0
  0
SPLINE
  5
2da
100
AcDbEntity
  8
0
 62
1
100
AcDbSpline
 70
8
 71
3
 72
8
 73
4
 74
0
 40
0
 40
0
 40
0
 40
0
 40
1
 40
1
 40
1
 40
1
 10
580.959334
 20
278.295994
 30
0.0
 10
580.959334
 20
277.626726
 30
0.0
 10
580.602284
 20
277.008297
 30
0.0
 10
580.022681
 20
276.673663
 30
0.0
  0
SPLINE
  5
2db
100
AcDbEntity
  8
0
 62
1
100
AcDbSpline
 70
8
 71
3
 72
8
 73
4
 74
0
 40
0
 40
0
 40
0
 40
0
 40
1
 40
1
 40
1
 40
1
 10
580.022681
 20
276.673663
 30
0.0
 10
579.443078
 20
276.339029
 30
0.0
 10
578.728977
 20
276.339029
 30
0.0
 10
578.149374
 20
276.673663
 30
0.0
  0
SPLINE
  5
2dc
100
AcDbEntity
  8
0
 62
1
100
AcDbSpline
 70
8
 71
3
 72
8
 73
4
 74
0
 40
0
 40
0
 40
0
 40
0
 40
1
 40
1
 40
1
 40
1
 10
578.149374
 20
276.673663
 30
0.0
 10
577.569771
 20
277.008297
 30
0.0
 10
577.212721
 20
277.626726
 30
0.0
 10
577.212721
 20
278.295994
 30
0.0
  0
SPLINE
  5
2dd
100
AcDbEntity
  8
0
 62
1
100
AcDbSpline
 70
8
 71
3
 72
8
 73
4
 74
0
 40
0
 40
0
 40
0
 40
0
 40
1
 40
1
 40
1
 40
1
 10
577.212721
 20
278.295994
 30
0.0
 10
577.212721
 20
278.965262
 30
0.0
 10
577.569771
 20
279.583691
 30
0.0
 10
578.149374
 20
279.918325
 30
0.0
  0
SPLINE
  5
2de
100
AcDbEntity
  8
0
 62
1
100
AcDbSpline
 70
8
 71
3
 72
8
 73
4
 74
0
 40
0
 40
0
 40
0
 40
0
 40
1
 40
1
 40
1
 40
1
 10
578.149374
 20
279.918325
 30
0.0
 10
578.728977
 20
280.252959
 30
0.0
 10
579.443078
 20
280.252959
 30
0.0
 10
580.022681
 20
279.918325
 30
0.0
  0
SPLINE
  5
2df
100
AcDbEntity
  8
0
 62
1
100
AcDbSpline
 70
8
 71
3
 72
8
 73
4
 74
0
 40
0
 40
0
 40
0
 40
0
 40
1
 40
1
 40
1
 40
1
 10
580.022681
 20
279.918325
 30
0.0
 10
580.602284
 20
279.583691
 30
0.0
 10
580.959334
 20
278.965262
 30
0.0
 10
580.959334
 20
278.295994
 30
0.0
  0
LWPOLYLINE
  5
2e0
100
AcDbEntity
  8
0
 62
1
100
AcDbPolyline
 90
1
 70
1
 10
558.824508
 20
231.190001
 30
0.0
  0
SPLINE
  5
2e1
100
AcDbEntity
  8
0
 62
1
100
AcDbSpline
 70
8
 71
3
 72
8
 73
4
 74
0
 40
0
 40
0
 40
0
 40
0
 40
1
 40
1
 40
1
 40
1
 10
580.959281
 20
231.195991
 30
0.0
 10
580.959281
 20
230.526723
 30
0.0
 10
580.602231
 20
229.908294
 30
0.0
 10
580.022628
 20
229.573660
 30
0.0
  0
SPLINE
  5
2e2
100
AcDbEntity
  8
0
 62
1
100
AcDbSpline
 70
8
 71
3
 72
8
 73
4
 74
0
 40
0
 40
0
 40
0
 40
0
 40
1
 40
1
 40
1
 40
1
 10
580.022628
 20
229.573660
 30
0.0
 10
579.443025
 20
229.239026
 30
0.0
 10
578.728924
 20
229.239026
 30
0.0
 10
578.149321
 20
229.573660
 30
0.0
  0
SPLINE
  5
2e3
100
AcDbEntity
  8
0
 62
1
100
AcDbSpline
 70
8
 71
3
 72
8
 73
4
 74
0
 40
0
 40
0
 40
0
 40
0
 40
1
 40
1
 40
1
 40
1
 10
578.149321
 20
229.573660
 30
0.0
 10
577.569718
 20
229.908294
 30
0.0
 10
577.212668
 20
230.526723
 30
0.0
 10
577.212668
 20
231.195991
 30
0.0
  0
SPLINE
  5
2e4
100
AcDbEntity
  8
0
 62
1
100
AcDbSpline
 70
8
 71
3
 72
8
 73
4
 74
0
 40
0
 40
0
 40
0
 40
0
 40
1
 40
1
 40
1
 40
1
 10
577.212668
 20
231.195991
 30
0.0
 10
577.212668
 20
231.865259
 30
0.0
 10
577.569718
 20
232.483688
 30
0.0
 10
578.149321
 20
232.818322
 30
0.0
  0
SPLINE
  5
2e5
100
AcDbEntity
  8
0
 62
1
100
AcDbSpline
 70
8
 71
3
 72
8
 73
4
 74
0
 40
0
 40
0
 40
0
 40
0
 40
1
 40
1
 40
1
 40
1
 10
578.149321
 20
232.818322
 30
0.0
 10
578.728924
 20
233.152956
 30
0.0
 10
579.443025
 20
233.152956
 30
0.0
 10
580.022628
 20
232.818322
 30
0.0
  0
SPLINE
  5
2e6
100
AcDbEntity
  8
0
 62
1
100
AcDbSpline
 70
8
 71
3
 72
8
 73
4
 74
0
 40
0
 40
0
 40
0
 40
0
 40
1
 40
1
 40
1
 40
1
 10
580.022628
 20
232.818322
 30
0.0
 10
580.602231
 20
232.483688
 30
0.0
 10
580.959281
 20
231.865259
 30
0.0
 10
580.959281
 20
231.195991
 30
0.0
  0
LWPOLYLINE
  5
2e7
100
AcDbEntity
  8
0
 62
1
100
AcDbPolyline
 90
1
 70
1
 10
580.959334
 20
278.295994
 30
0.0
  0
LWPOLYLINE
  5
2e8
100
AcDbEntity
  8
0
 62
1
100
AcDbPolyline
 90
1
 70
1
 10
580.959281
 20
231.195991
 30
0.0
  0
SPLINE
  5
2e9
100
AcDbEntity
  8
0
 62
1
100
AcDbSpline
 70
8
 71
3
 72
8
 73
4
 74
0
 40
0
 40
0
 40
0
 40
0
 40
1
 40
1
 40
1
 40
1
 10
588.016425
 20
268.736236
 30
0.0
 10
588.016425
 20
267.664439
 30
0.0
 10
587.444628
 20
266.674058
 30
0.0
 10
586.516425
 20
266.138160
 30
0.0
  0
SPLINE
  5
2ea
100
AcDbEntity
  8
0
 62
1
100
AcDbSpline
 70
8
 71
3
 72
8
 73
4
 74
0
 40
0
 40
0
 40
0
 40
0
 40
1
 40
1
 40
1
 40
1
 10
586.516425
 20
266.138160
 30
0.0
 10
585.588222
 20
265.602261
 30
0.0
 10
584.444628
 20
265.602261
 30
0.0
 10
583.516425
 20
266.138160
 30
0.0
  0
SPLINE
  5
2eb
100
AcDbEntity
  8
0
 62
1
100
AcDbSpline
 70
8
 71
3
 72
8
 73
4
 74
0
 40
0
 40
0
 40
0
 40
0
 40
1
 40
1
 40
1
 40
1
 10
583.516425
 20
266.138160
 30
0.0
 10
582.588221
 20
266.674058
 30
0.0
 10
582.016425
 20
267.664439
 30
0.0
 10
582.016425
 20
268.736236
 30
0.0
  0
SPLINE
  5
2ec
100
AcDbEntity
  8
0
 62
1
100
AcDbSpline
 70
8
 71
3
 72
8
 73
4
 74
0
 40
0
 40
0
 40
0
 40
0
 40
1
 40
1
 40
1
 40
1
 10
582.016425
 20
268.736236
 30
0.0
 10
582.016425
 20
269.808033
 30
0.0
 10
582.588221
 20
270.798414
 30
0.0
 10
583.516425
 20
271.334312
 30
0.0
  0
SPLINE
  5
2ed
100
AcDbEntity
  8
0
 62
1
100
AcDbSpline
 70
8
 71
3
 72
8
 73
4
 74
0
 40
0
 40
0
 40
0
 40
0
 40
1
 40
1
 40
1
 40
1
 10
583.516425
 20
271.334312
 30
0.0
 10
584.444628
 20
271.870211
 30
0.0
 10
585.588222
 20
271.870211
 30
0.0
 10
586.516425
 20
271.334312
 30
0.0
  0
SPLINE
  5
2ee
100
AcDbEntity
  8
0
 62
1
100
AcDbSpline
 70
8
 71
3
 72
8
 73
4
 74
0
 40
0
 40
0
 40
0
 40
0
 40
1
 40
1
 40
1
 40
1
 10
586.516425
 20
271.334312
 30
0.0
 10
587.444628
 20
270.798414
 30
0.0
 10
588.016425
 20
269.808033
 30
0.0
 10
588.016425
 20
268.736236
 30
0.0
  0
LWPOLYLINE
  5
2ef
100
AcDbEntity
  8
0
 62
1
100
AcDbPolyline
 90
4
 70
1
 10
569.947822
 20
271.908151
 30
0.0
 10
588.170131
 20
271.908151
 30
0.0
 10
588.170131
 20
237.685842
 30
0.0
 10
569.947822
 20
237.685842
 30
0.0
  0
SPLINE
  5
2f0
100
AcDbEntity
  8
0
 62
1
100
AcDbSpline
 70
8
 71
3
 72
8
 73
4
 74
0
 40
0
 40
0
 40
0
 40
0
 40
1
 40
1
 40
1
 40
1
 10
414.251625
 20
55.099982
 30
0.0
 10
414.251625
 20
52.929064
 30
0.0
 10
413.093454
 20
50.923053
 30
0.0
 10
411.213384
 20
49.837594
 30
0.0
  0
SPLINE
  5
2f1
100
AcDbEntity
  8
0
 62
1
100
AcDbSpline
 70
8
 71
3
 72
8
 73
4
 74
0
 40
0
 40
0
 40
0
 40
0
 40
1
 40
1
 40
1
 40
1
 10
411.213384
 20
49.837594
 30
0.0
 10
409.333313
 20
48.752135
 30
0.0
 10
407.016972
 20
48.752135
 30
0.0
 10
405.136901
 20
49.837594
 30
0.0
  0
SPLINE
  5
2f2
100
AcDbEntity
  8
0
 62
1
100
AcDbSpline
 70
8
 71
3
 72
8
 73
4
 74
0
 40
0
 40
0
 40
0
 40
0
 40
1
 40
1
 40
1
 40
1
 10
405.136901
 20
49.837594
 30
0.0
 10
403.256831
 20
50.923053
 30
0.0
 10
402.098660
 20
52.929064
 30
0.0
 10
402.098660
 20
55.099982
 30
0.0
  0
SPLINE
  5
2f3
100
AcDbEntity
  8
0
 62
1
100
AcDbSpline
 70
8
 71
3
 72
8
 73
4
 74
0
 40
0
 40
0
 40
0
 40
0
 40
1
 40
1
 40
1
 40
1
 10
402.098660
 20
55.099982
 30
0.0
 10
402.098660
 20
57.270900
 30
0.0
 10
403.256831
 20
59.276911
 30
0.0
 10
405.136901
 20
60.362370
 30
0.0
  0
SPLINE
  5
2f4
100
AcDbEntity
  8
0
 62
1
100
AcDbSpline
 70
8
 71
3
 72
8
 73
4
 74
0
 40
0
 40
0
 40
0
 40
0
 40
1
 40
1
 40
1
 40
1
 10
405.136901
 20
60.362370
 30
0.0
 10
407.016972
 20
61.447829
 30
0.0
 10
409.333313
 20
61.447829
 30
0.0
 10
411.213384
 20
60.362370
 30
0.0
  0
SPLINE
  5
2f5
100
AcDbEntity
  8
0
 62
1
100
AcDbSpline
 70
8
 71
3
 72
8
 73
4
 74
0
 40
0
 40
0
 40
0
 40
0
 40
1
 40
1
 40
1
 40
1
 10
411.213384
 20
60.362370
 30
0.0
 10
413.093454
 20
59.276911
 30
0.0
 10
414.251625
 20
57.270900
 30
0.0
 10
414.251625
 20
55.099982
 30
0.0
  0
LWPOLYLINE
  5
2f6
100
AcDbEntity
  8
0
 62
1
100
AcDbPolyline
 90
1
 70
1
 10
588.016425
 20
268.736236
 30
0.0
  0
SPLINE
  5
2f7
100
AcDbEntity
  8
0
 62
1
100
AcDbSpline
 70
8
 71
3
 72
8
 73
4
 74
0
 40
0
 40
0
 40
0
 40
0
 40
1
 40
1
 40
1
 40
1
 10
268.018069
 20
279.668840
 30
0.0
 10
268.018069
 20
278.049601
 30
0.0
 10
267.154215
 20
276.553363
 30
0.0
 10
265.751913
 20
275.743743
 30
0.0
  0
SPLINE
  5
2f8
100
AcDbEntity
  8
0
 62
1
100
AcDbSpline
 70
8
 71
3
 72
8
 73
4
 74
0
 40
0
 40
0
 40
0
 40
0
 40
1
 40
1
 40
1
 40
1
 10
265.751913
 20
275.743743
 30
0.0
 10
264.349611
 20
274.934123
 30
0.0
 10
262.621903
 20
274.934123
 30
0.0
 10
261.219601
 20
275.743743
 30
0.0
  0
SPLINE
  5
2f9
100
AcDbEntity
  8
0
 62
1
100
AcDbSpline
 70
8
 71
3
 72
8
 73
4
 74
0
 40
0
 40
0
 40
0
 40
0
 40
1
 40
1
 40
1
 40
1
 10
261.219601
 20
275.743743
 30
0.0
 10
259.817299
 20
276.553363
 30
0.0
 10
258.953445
 20
278.049601
 30
0.0
 10
258.953445
 20
279.668840
 30
0.0
  0
SPLINE
  5
2fa
100
AcDbEntity
  8
0
 62
1
100
AcDbSpline
 70
8
 71
3
 72
8
 73
4
 74
0
 40
0
 40
0
 40
0
 40
0
 40
1
 40
1
 40
1
 40
1
 10
258.953445
 20
279.668840
 30
0.0
 10
258.953445
 20
282.171967
 30
0.0
 10
260.982630
 20
284.201152
 30
0.0
 10
263.485757
 20
284.201152
 30
0.0
  0
SPLINE
  5
2fb
100
AcDbEntity
  8
0
 62
1
100
AcDbSpline
 70
8
 71
3
 72
8
 73
4
 74
0
 40
0
 40
0
 40
0
 40
0
 40
1
 40
1
 40
1
 40
1
 10
263.485757
 20
284.201152
 30
0.0
 10
265.988884
 20
284.201152
 30
0.0
 10
268.018069
 20
282.171967
 30
0.0
 10
268.018069
 20
279.668840
 30
0.0
  0
LWPOLYLINE
  5
2fc
100
AcDbEntity
  8
0
 62
1
100
AcDbPolyline
 90
1
 70
1
 10
414.251625
 20
55.099982
 30
0.0
  0
SPLINE
  5
2fd
100
AcDbEntity
  8
0
 62
1
100
AcDbSpline
 70
8
 71
3
 72
8
 73
4
 74
0
 40
0
 40
0
 40
0
 40
0
 40
1
 40
1
 40
1
 40
1
 10
333.113411
 20
279.668840
 30
0.0
 10
333.113411
 20
278.018273
 30
0.0
 10
332.232844
 20
276.493087
 30
0.0
 10
330.803411
 20
275.667803
 30
0.0
  0
SPLINE
  5
2fe
100
AcDbEntity
  8
0
 62
1
100
AcDbSpline
 70
8
 71
3
 72
8
 73
4
 74
0
 40
0
 40
0
 40
0
 40
0
 40
1
 40
1
 40
1
 40
1
 10
330.803411
 20
275.667803
 30
0.0
 10
329.373978
 20
274.842519
 30
0.0
 10
327.612844
 20
274.842519
 30
0.0
 10
326.183411
 20
275.667803
 30
0.0
  0
SPLINE
  5
2ff
100
AcDbEntity
  8
0
 62
1
100
AcDbSpline
 70
8
 71
3
 72
8
 73
4
 74
0
 40
0
 40
0
 40
0
 40
0
 40
1
 40
1
 40
1
 40
1
 10
326.183411
 20
275.667803
 30
0.0
 10
324.753978
 20
276.493087
 30
0.0
 10
323.873411
 20
278.018273
 30
0.0
 10
323.873411
 20
279.668840
 30
0.0
  0
SPLINE
  5
300
100
AcDbEntity
  8
0
 62
1
100
AcDbSpline
 70
8
 71
3
 72
8
 73
4
 74
0
 40
0
 40
0
 40
0
 40
0
 40
1
 40
1
 40
1
 40
1
 10
323.873411
 20
279.668840
 30
0.0
 10
323.873411
 20
281.319408
 30
0.0
 10
324.753978
 20
282.844594
 30
0.0
 10
326.183411
 20
283.669878
 30
0.0
  0
SPLINE
  5
301
100
AcDbEntity
  8
0
 62
1
100
AcDbSpline
 70
8
 71
3
 72
8
 73
4
 74
0
 40
0
 40
0
 40
0
 40
0
 40
1
 40
1
 40
1
 40
1
 10
326.183411
 20
283.669878
 30
0.0
 10
327.612844
 20
284.495162
 30
0.0
 10
329.373978
 20
284.495162
 30
0.0
 10
330.803411
 20
283.669878
 30
0.0
  0
SPLINE
  5
302
100
AcDbEntity
  8
0
 62
1
100
AcDbSpline
 70
8
 71
3
 72
8
 73
4
 74
0
 40
0
 40
0
 40
0
 40
0
 40
1
 40
1
 40
1
 40
1
 10
330.803411
 20
283.669878
 30
0.0
 10
332.232844
 20
282.844594
 30
0.0
 10
333.113411
 20
281.319408
 30
0.0
 10
333.113411
 20
279.668840
 30
0.0
  0
LWPOLYLINE
  5
303
100
AcDbEntity
  8
0
 62
1
100
AcDbPolyline
 90
1
 70
1
 10
268.018069
 20
279.668840
 30
0.0
  0
LWPOLYLINE
  5
304
100
AcDbEntity
  8
0
 62
1
100
AcDbPolyline
 90
1
 70
1
 10
333.113411
 20
279.668840
 30
0.0
  0
SPLINE
  5
305
100
AcDbEntity
  8
0
 62
1
100
AcDbSpline
 70
8
 71
3
 72
8
 73
4
 74
0
 40
0
 40
0
 40
0
 40
0
 40
1
 40
1
 40
1
 40
1
 10
56.901128
 20
124.581005
 30
0.0
 10
56.901128
 20
123.849789
 30
0.0
 10
56.511029
 20
123.174118
 30
0.0
 10
55.877778
 20
122.808510
 30
0.0
  0
SPLINE
  5
306
100
AcDbEntity
  8
0
 62
1
100
AcDbSpline
 70
8
 71
3
 72
8
 73
4
 74
0
 40
0
 40
0
 40
0
 40
0
 40
1
 40
1
 40
1
 40
1
 10
55.877778
 20
122.808510
 30
0.0
 10
55.244526
 20
122.442902
 30
0.0
 10
54.464328
 20
122.442902
 30
0.0
 10
53.831077
 20
122.808510
 30
0.0
  0
SPLINE
  5
307
100
AcDbEntity
  8
0
 62
1
100
AcDbSpline
 70
8
 71
3
 72
8
 73
4
 74
0
 40
0
 40
0
 40
0
 40
0
 40
1
 40
1
 40
1
 40
1
 10
53.831077
 20
122.808510
 30
0.0
 10
53.197826
 20
123.174118
 30
0.0
 10
52.807727
 20
123.849789
 30
0.0
 10
52.807727
 20
124.581005
 30
0.0
  0
SPLINE
  5
308
100
AcDbEntity
  8
0
 62
1
100
AcDbSpline
 70
8
 71
3
 72
8
 73
4
 74
0
 40
0
 40
0
 40
0
 40
0
 40
1
 40
1
 40
1
 40
1
 10
52.807727
 20
124.581005
 30
0.0
 10
52.807727
 20
125.312220
 30
0.0
 10
53.197826
 20
125.987891
 30
0.0
 10
53.831077
 20
126.353499
 30
0.0
  0
SPLINE
  5
309
100
AcDbEntity
  8
0
 62
1
100
AcDbSpline
 70
8
 71
3
 72
8
 73
4
 74
0
 40
0
 40
0
 40
0
 40
0
 40
1
 40
1
 40
1
 40
1
 10
53.831077
 20
126.353499
 30
0.0
 10
54.464328
 20
126.719107
 30
0.0
 10
55.244526
 20
126.719107
 30
0.0
 10
55.877778
 20
126.353499
 30
0.0
  0
SPLINE
  5
30a
100
AcDbEntity
  8
0
 62
1
100
AcDbSpline
 70
8
 71
3
 72
8
 73
4
 74
0
 40
0
 40
0
 40
0
 40
0
 40
1
 40
1
 40
1
 40
1
 10
55.877778
 20
126.353499
 30
0.0
 10
56.511029
 20
125.987891
 30
0.0
 10
56.901128
 20
125.312220
 30
0.0
 10
56.901128
 20
124.581005
 30
0.0
  0
LWPOLYLINE
  5
30b
100
AcDbEntity
  8
0
 62
1
100
AcDbPolyline
 90
4
 70
1
 10
42.131787
 20
117.185768
 30
0.0
 10
72.222873
 20
117.185768
 30
0.0
 10
72.222873
 20
114.934680
 30
0.0
 10
42.131787
 20
114.934680
 30
0.0
  0
SPLINE
  5
30c
100
AcDbEntity
  8
0
 62
1
100
AcDbSpline
 70
8
 71
3
 72
8
 73
4
 74
0
 40
0
 40
0
 40
0
 40
0
 40
1
 40
1
 40
1
 40
1
 10
56.918537
 20
107.539457
 30
0.0
 10
56.918537
 20
106.409095
 30
0.0
 10
56.002198
 20
105.492756
 30
0.0
 10
54.871837
 20
105.492756
 30
0.0
  0
SPLINE
  5
30d
100
AcDbEntity
  8
0
 62
1
100
AcDbSpline
 70
8
 71
3
 72
8
 73
4
 74
0
 40
0
 40
0
 40
0
 40
0
 40
1
 40
1
 40
1
 40
1
 10
54.871837
 20
105.492756
 30
0.0
 10
53.741476
 20
105.492756
 30
0.0
 10
52.825137
 20
106.409095
 30
0.0
 10
52.825136
 20
107.539457
 30
0.0
  0
SPLINE
  5
30e
100
AcDbEntity
  8
0
 62
1
100
AcDbSpline
 70
8
 71
3
 72
8
 73
4
 74
0
 40
0
 40
0
 40
0
 40
0
 40
1
 40
1
 40
1
 40
1
 10
52.825136
 20
107.539457
 30
0.0
 10
52.825137
 20
108.669818
 30
0.0
 10
53.741476
 20
109.586157
 30
0.0
 10
54.871837
 20
109.586157
 30
0.0
  0
SPLINE
  5
30f
100
AcDbEntity
  8
0
 62
1
100
AcDbSpline
 70
8
 71
3
 72
8
 73
4
 74
0
 40
0
 40
0
 40
0
 40
0
 40
1
 40
1
 40
1
 40
1
 10
54.871837
 20
109.586157
 30
0.0
 10
56.002198
 20
109.586157
 30
0.0
 10
56.918537
 20
108.669818
 30
0.0
 10
56.918537
 20
107.539457
 30
0.0
  0
LWPOLYLINE
  5
310
100
AcDbEntity
  8
0
 62
1
100
AcDbPolyline
 90
1
 70
1
 10
56.901128
 20
124.581005
 30
0.0
  0
LWPOLYLINE
  5
311
100
AcDbEntity
  8
0
 62
1
100
AcDbPolyline
 90
1
 70
1
 10
56.918537
 20
107.539457
 30
0.0
  0
SPLINE
  5
312
100
AcDbEntity
  8
0
 62
1
100
AcDbSpline
 70
8
 71
3
 72
8
 73
4
 74
0
 40
0
 40
0
 40
0
 40
0
 40
1
 40
1
 40
1
 40
1
 10
920.132552
 20
124.581198
 30
0.0
 10
920.132552
 20
123.849982
 30
0.0
 10
920.522651
 20
123.174311
 30
0.0
 10
921.155902
 20
122.808703
 30
0.0
  0
SPLINE
  5
313
100
AcDbEntity
  8
0
 62
1
100
AcDbSpline
 70
8
 71
3
 72
8
 73
4
 74
0
 40
0
 40
0
 40
0
 40
0
 40
1
 40
1
 40
1
 40
1
 10
921.155902
 20
122.808703
 30
0.0
 10
921.789154
 20
122.443095
 30
0.0
 10
922.569352
 20
122.443095
 30
0.0
 10
923.202603
 20
122.808703
 30
0.0
  0
SPLINE
  5
314
100
AcDbEntity
  8
0
 62
1
100
AcDbSpline
 70
8
 71
3
 72
8
 73
4
 74
0
 40
0
 40
0
 40
0
 40
0
 40
1
 40
1
 40
1
 40
1
 10
923.202603
 20
122.808703
 30
0.0
 10
923.835854
 20
123.174311
 30
0.0
 10
924.225953
 20
123.849982
 30
0.0
 10
924.225953
 20
124.581198
 30
0.0
  0
SPLINE
  5
315
100
AcDbEntity
  8
0
 62
1
100
AcDbSpline
 70
8
 71
3
 72
8
 73
4
 74
0
 40
0
 40
0
 40
0
 40
0
 40
1
 40
1
 40
1
 40
1
 10
924.225953
 20
124.581198
 30
0.0
 10
924.225953
 20
125.312413
 30
0.0
 10
923.835854
 20
125.988084
 30
0.0
 10
923.202603
 20
126.353692
 30
0.0
  0
SPLINE
  5
316
100
AcDbEntity
  8
0
 62
1
100
AcDbSpline
 70
8
 71
3
 72
8
 73
4
 74
0
 40
0
 40
0
 40
0
 40
0
 40
1
 40
1
 40
1
 40
1
 10
923.202603
 20
126.353692
 30
0.0
 10
922.569352
 20
126.719300
 30
0.0
 10
921.789154
 20
126.719300
 30
0.0
 10
921.155902
 20
126.353692
 30
0.0
  0
SPLINE
  5
317
100
AcDbEntity
  8
0
 62
1
100
AcDbSpline
 70
8
 71
3
 72
8
 73
4
 74
0
 40
0
 40
0
 40
0
 40
0
 40
1
 40
1
 40
1
 40
1
 10
921.155902
 20
126.353692
 30
0.0
 10
920.522651
 20
125.988084
 30
0.0
 10
920.132552
 20
125.312413
 30
0.0
 10
920.132552
 20
124.581198
 30
0.0
  0
LWPOLYLINE
  5
318
100
AcDbEntity
  8
0
 62
1
100
AcDbPolyline
 90
4
 70
1
 10
934.761751
 20
117.200624
 30
0.0
 10
904.671332
 20
117.200624
 30
0.0
 10
904.671332
 20
114.920204
 30
0.0
 10
934.761751
 20
114.920204
 30
0.0
  0
SPLINE
  5
319
100
AcDbEntity
  8
0
 62
1
100
AcDbSpline
 70
8
 71
3
 72
8
 73
4
 74
0
 40
0
 40
0
 40
0
 40
0
 40
1
 40
1
 40
1
 40
1
 10
920.115169
 20
107.539650
 30
0.0
 10
920.115169
 20
106.808434
 30
0.0
 10
920.505268
 20
106.132763
 30
0.0
 10
921.138519
 20
105.767155
 30
0.0
  0
SPLINE
  5
31a
100
AcDbEntity
  8
0
 62
1
100
AcDbSpline
 70
8
 71
3
 72
8
 73
4
 74
0
 40
0
 40
0
 40
0
 40
0
 40
1
 40
1
 40
1
 40
1
 10
921.138519
 20
105.767155
 30
0.0
 10
921.771771
 20
105.401547
 30
0.0
 10
922.551968
 20
105.401547
 30
0.0
 10
923.185220
 20
105.767155
 30
0.0
  0
SPLINE
  5
31b
100
AcDbEntity
  8
0
 62
1
100
AcDbSpline
 70
8
 71
3
 72
8
 73
4
 74
0
 40
0
 40
0
 40
0
 40
0
 40
1
 40
1
 40
1
 40
1
 10
923.185220
 20
105.767155
 30
0.0
 10
923.818471
 20
106.132763
 30
0.0
 10
924.208570
 20
106.808434
 30
0.0
 10
924.208570
 20
107.539650
 30
0.0
  0
SPLINE
  5
31c
100
AcDbEntity
  8
0
 62
1
100
AcDbSpline
 70
8
 71
3
 72
8
 73
4
 74
0
 40
0
 40
0
 40
0
 40
0
 40
1
 40
1
 40
1
 40
1
 10
924.208570
 20
107.539650
 30
0.0
 10
924.208570
 20
108.270865
 30
0.0
 10
923.818471
 20
108.946537
 30
0.0
 10
923.185220
 20
109.312144
 30
0.0
  0
SPLINE
  5
31d
100
AcDbEntity
  8
0
 62
1
100
AcDbSpline
 70
8
 71
3
 72
8
 73
4
 74
0
 40
0
 40
0
 40
0
 40
0
 40
1
 40
1
 40
1
 40
1
 10
923.185220
 20
109.312144
 30
0.0
 10
922.551968
 20
109.677752
 30
0.0
 10
921.771771
 20
109.677752
 30
0.0
 10
921.138519
 20
109.312144
 30
0.0
  0
SPLINE
  5
31e
100
AcDbEntity
  8
0
 62
1
100
AcDbSpline
 70
8
 71
3
 72
8
 73
4
 74
0
 40
0
 40
0
 40
0
 40
0
 40
1
 40
1
 40
1
 40
1
 10
921.138519
 20
109.312144
 30
0.0
 10
920.505268
 20
108.946537
 30
0.0
 10
920.115169
 20
108.270865
 30
0.0
 10
920.115169
 20
107.539650
 30
0.0
  0
LWPOLYLINE
  5
31f
100
AcDbEntity
  8
0
 62
1
100
AcDbPolyline
 90
1
 70
1
 10
920.132552
 20
124.581198
 30
0.0
  0
LWPOLYLINE
  5
320
100
AcDbEntity
  8
0
 62
1
100
AcDbPolyline
 90
1
 70
1
 10
920.115169
 20
107.539650
 30
0.0
  0
SPLINE
  5
321
100
AcDbEntity
  8
0
 62
1
100
AcDbSpline
 70
8
 71
3
 72
8
 73
4
 74
0
 40
0
 40
0
 40
0
 40
0
 40
1
 40
1
 40
1
 40
1
 10
925.865957
 20
218.603997
 30
0.0
 10
925.865957
 20
216.416114
 30
0.0
 10
924.698735
 20
214.394427
 30
0.0
 10
922.803974
 20
213.300486
 30
0.0
  0
SPLINE
  5
322
100
AcDbEntity
  8
0
 62
1
100
AcDbSpline
 70
8
 71
3
 72
8
 73
4
 74
0
 40
0
 40
0
 40
0
 40
0
 40
1
 40
1
 40
1
 40
1
 10
922.803974
 20
213.300486
 30
0.0
 10
920.909212
 20
212.206544
 30
0.0
 10
918.574769
 20
212.206544
 30
0.0
 10
916.680007
 20
213.300486
 30
0.0
  0
SPLINE
  5
323
100
AcDbEntity
  8
0
 62
1
100
AcDbSpline
 70
8
 71
3
 72
8
 73
4
 74
0
 40
0
 40
0
 40
0
 40
0
 40
1
 40
1
 40
1
 40
1
 10
916.680007
 20
213.300486
 30
0.0
 10
914.785245
 20
214.394427
 30
0.0
 10
913.618024
 20
216.416114
 30
0.0
 10
913.618024
 20
218.603997
 30
0.0
  0
SPLINE
  5
324
100
AcDbEntity
  8
0
 62
1
100
AcDbSpline
 70
8
 71
3
 72
8
 73
4
 74
0
 40
0
 40
0
 40
0
 40
0
 40
1
 40
1
 40
1
 40
1
 10
913.618024
 20
218.603997
 30
0.0
 10
913.618024
 20
220.791879
 30
0.0
 10
914.785245
 20
222.813566
 30
0.0
 10
916.680007
 20
223.907508
 30
0.0
  0
SPLINE
  5
325
100
AcDbEntity
  8
0
 62
1
100
AcDbSpline
 70
8
 71
3
 72
8
 73
4
 74
0
 40
0
 40
0
 40
0
 40
0
 40
1
 40
1
 40
1
 40
1
 10
916.680007
 20
223.907508
 30
0.0
 10
918.574769
 20
225.001449
 30
0.0
 10
920.909212
 20
225.001449
 30
0.0
 10
922.803974
 20
223.907508
 30
0.0
  0
SPLINE
  5
326
100
AcDbEntity
  8
0
 62
1
100
AcDbSpline
 70
8
 71
3
 72
8
 73
4
 74
0
 40
0
 40
0
 40
0
 40
0
 40
1
 40
1
 40
1
 40
1
 10
922.803974
 20
223.907508
 30
0.0
 10
924.698735
 20
222.813566
 30
0.0
 10
925.865957
 20
220.791879
 30
0.0
 10
925.865957
 20
218.603997
 30
0.0
  0
LWPOLYLINE
  5
327
100
AcDbEntity
  8
0
 62
7
100
AcDbPolyline
 90
6
 70
1
 10
956.001866
 20
161.668113
 30
0.0
 10
956.001866
 20
161.668113
 30
0.0
 10
956.001866
 20
161.668113
 30
0.0
 10
956.001866
 20
161.668113
 30
0.0
 10
956.001866
 20
161.668113
 30
0.0
 10
956.001866
 20
161.668113
 30
0.0
  0
SPLINE
  5
328
100
AcDbEntity
  8
0
 62
1
100
AcDbSpline
 70
8
 71
3
 72
8
 73
4
 74
0
 40
0
 40
0
 40
0
 40
0
 40
1
 40
1
 40
1
 40
1
 10
127.844771
 20
50.855324
 30
0.0
 10
127.844771
 20
49.058788
 30
0.0
 10
126.886368
 20
47.398721
 30
0.0
 10
125.330584
 20
46.500453
 30
0.0
  0
SPLINE
  5
329
100
AcDbEntity
  8
0
 62
1
100
AcDbSpline
 70
8
 71
3
 72
8
 73
4
 74
0
 40
0
 40
0
 40
0
 40
0
 40
1
 40
1
 40
1
 40
1
 10
125.330584
 20
46.500453
 30
0.0
 10
123.774800
 20
45.602185
 30
0.0
 10
121.857995
 20
45.602185
 30
0.0
 10
120.302211
 20
46.500453
 30
0.0
  0
SPLINE
  5
32a
100
AcDbEntity
  8
0
 62
1
100
AcDbSpline
 70
8
 71
3
 72
8
 73
4
 74
0
 40
0
 40
0
 40
0
 40
0
 40
1
 40
1
 40
1
 40
1
 10
120.302211
 20
46.500453
 30
0.0
 10
118.746427
 20
47.398721
 30
0.0
 10
117.788025
 20
49.058788
 30
0.0
 10
117.788025
 20
50.855324
 30
0.0
  0
SPLINE
  5
32b
100
AcDbEntity
  8
0
 62
1
100
AcDbSpline
 70
8
 71
3
 72
8
 73
4
 74
0
 40
0
 40
0
 40
0
 40
0
 40
1
 40
1
 40
1
 40
1
 10
117.788025
 20
50.855324
 30
0.0
 10
117.788025
 20
52.651860
 30
0.0
 10
118.746427
 20
54.311928
 30
0.0
 10
120.302211
 20
55.210196
 30
0.0
  0
SPLINE
  5
32c
100
AcDbEntity
  8
0
 62
1
100
AcDbSpline
 70
8
 71
3
 72
8
 73
4
 74
0
 40
0
 40
0
 40
0
 40
0
 40
1
 40
1
 40
1
 40
1
 10
120.302211
 20
55.210196
 30
0.0
 10
121.857995
 20
56.108464
 30
0.0
 10
123.774800
 20
56.108464
 30
0.0
 10
125.330584
 20
55.210196
 30
0.0
  0
SPLINE
  5
32d
100
AcDbEntity
  8
0
 62
1
100
AcDbSpline
 70
8
 71
3
 72
8
 73
4
 74
0
 40
0
 40
0
 40
0
 40
0
 40
1
 40
1
 40
1
 40
1
 10
125.330584
 20
55.210196
 30
0.0
 10
126.886368
 20
54.311928
 30
0.0
 10
127.844771
 20
52.651860
 30
0.0
 10
127.844771
 20
50.855324
 30
0.0
  0
LWPOLYLINE
  5
32e
100
AcDbEntity
  8
0
 62
1
100
AcDbPolyline
 90
1
 70
1
 10
925.865957
 20
218.603997
 30
0.0
  0
SPLINE
  5
32f
100
AcDbEntity
  8
0
 62
1
100
AcDbSpline
 70
8
 71
3
 72
8
 73
4
 74
0
 40
0
 40
0
 40
0
 40
0
 40
1
 40
1
 40
1
 40
1
 10
105.327507
 20
50.855086
 30
0.0
 10
105.327507
 20
49.058550
 30
0.0
 10
104.369104
 20
47.398483
 30
0.0
 10
102.813320
 20
46.500215
 30
0.0
  0
SPLINE
  5
330
100
AcDbEntity
  8
0
 62
1
100
AcDbSpline
 70
8
 71
3
 72
8
 73
4
 74
0
 40
0
 40
0
 40
0
 40
0
 40
1
 40
1
 40
1
 40
1
 10
102.813320
 20
46.500215
 30
0.0
 10
101.257536
 20
45.601947
 30
0.0
 10
99.340731
 20
45.601947
 30
0.0
 10
97.784947
 20
46.500215
 30
0.0
  0
SPLINE
  5
331
100
AcDbEntity
  8
0
 62
1
100
AcDbSpline
 70
8
 71
3
 72
8
 73
4
 74
0
 40
0
 40
0
 40
0
 40
0
 40
1
 40
1
 40
1
 40
1
 10
97.784947
 20
46.500215
 30
0.0
 10
96.229163
 20
47.398483
 30
0.0
 10
95.270761
 20
49.058550
 30
0.0
 10
95.270761
 20
50.855086
 30
0.0
  0
SPLINE
  5
332
100
AcDbEntity
  8
0
 62
1
100
AcDbSpline
 70
8
 71
3
 72
8
 73
4
 74
0
 40
0
 40
0
 40
0
 40
0
 40
1
 40
1
 40
1
 40
1
 10
95.270761
 20
50.855086
 30
0.0
 10
95.270761
 20
52.651622
 30
0.0
 10
96.229163
 20
54.311690
 30
0.0
 10
97.784947
 20
55.209958
 30
0.0
  0
SPLINE
  5
333
100
AcDbEntity
  8
0
 62
1
100
AcDbSpline
 70
8
 71
3
 72
8
 73
4
 74
0
 40
0
 40
0
 40
0
 40
0
 40
1
 40
1
 40
1
 40
1
 10
97.784947
 20
55.209958
 30
0.0
 10
99.340731
 20
56.108226
 30
0.0
 10
101.257536
 20
56.108226
 30
0.0
 10
102.813320
 20
55.209958
 30
0.0
  0
SPLINE
  5
334
100
AcDbEntity
  8
0
 62
1
100
AcDbSpline
 70
8
 71
3
 72
8
 73
4
 74
0
 40
0
 40
0
 40
0
 40
0
 40
1
 40
1
 40
1
 40
1
 10
102.813320
 20
55.209958
 30
0.0
 10
104.369104
 20
54.311690
 30
0.0
 10
105.327507
 20
52.651622
 30
0.0
 10
105.327507
 20
50.855086
 30
0.0
  0
LWPOLYLINE
  5
335
100
AcDbEntity
  8
0
 62
1
100
AcDbPolyline
 90
1
 70
1
 10
127.844771
 20
50.855324
 30
0.0
  0
SPLINE
  5
336
100
AcDbEntity
  8
0
 62
1
100
AcDbSpline
 70
8
 71
3
 72
8
 73
4
 74
0
 40
0
 40
0
 40
0
 40
0
 40
1
 40
1
 40
1
 40
1
 10
881.441812
 20
50.839820
 30
0.0
 10
881.441812
 20
49.043285
 30
0.0
 10
880.483372
 20
47.383218
 30
0.0
 10
878.927527
 20
46.484950
 30
0.0
  0
SPLINE
  5
337
100
AcDbEntity
  8
0
 62
1
100
AcDbSpline
 70
8
 71
3
 72
8
 73
4
 74
0
 40
0
 40
0
 40
0
 40
0
 40
1
 40
1
 40
1
 40
1
 10
878.927527
 20
46.484950
 30
0.0
 10
877.371682
 20
45.586682
 30
0.0
 10
875.454802
 20
45.586682
 30
0.0
 10
873.898956
 20
46.484950
 30
0.0
  0
SPLINE
  5
338
100
AcDbEntity
  8
0
 62
1
100
AcDbSpline
 70
8
 71
3
 72
8
 73
4
 74
0
 40
0
 40
0
 40
0
 40
0
 40
1
 40
1
 40
1
 40
1
 10
873.898956
 20
46.484950
 30
0.0
 10
872.343111
 20
47.383218
 30
0.0
 10
871.384671
 20
49.043285
 30
0.0
 10
871.384671
 20
50.839820
 30
0.0
  0
SPLINE
  5
339
100
AcDbEntity
  8
0
 62
1
100
AcDbSpline
 70
8
 71
3
 72
8
 73
4
 74
0
 40
0
 40
0
 40
0
 40
0
 40
1
 40
1
 40
1
 40
1
 10
871.384671
 20
50.839820
 30
0.0
 10
871.384671
 20
52.636355
 30
0.0
 10
872.343111
 20
54.296422
 30
0.0
 10
873.898956
 20
55.194690
 30
0.0
  0
SPLINE
  5
33a
100
AcDbEntity
  8
0
 62
1
100
AcDbSpline
 70
8
 71
3
 72
8
 73
4
 74
0
 40
0
 40
0
 40
0
 40
0
 40
1
 40
1
 40
1
 40
1
 10
873.898956
 20
55.194690
 30
0.0
 10
875.454802
 20
56.092957
 30
0.0
 10
877.371682
 20
56.092957
 30
0.0
 10
878.927527
 20
55.194690
 30
0.0
  0
SPLINE
  5
33b
100
AcDbEntity
  8
0
 62
1
100
AcDbSpline
 70
8
 71
3
 72
8
 73
4
 74
0
 40
0
 40
0
 40
0
 40
0
 40
1
 40
1
 40
1
 40
1
 10
878.927527
 20
55.194690
 30
0.0
 10
880.483372
 20
54.296422
 30
0.0
 10
881.441812
 20
52.636355
 30
0.0
 10
881.441812
 20
50.839820
 30
0.0
  0
LWPOLYLINE
  5
33c
100
AcDbEntity
  8
0
 62
1
100
AcDbPolyline
 90
1
 70
1
 10
105.327507
 20
50.855086
 30
0.0
  0
SPLINE
  5
33d
100
AcDbEntity
  8
0
 62
1
100
AcDbSpline
 70
8
 71
3
 72
8
 73
4
 74
0
 40
0
 40
0
 40
0
 40
0
 40
1
 40
1
 40
1
 40
1
 10
858.924202
 20
50.839105
 30
0.0
 10
858.924202
 20
48.062175
 30
0.0
 10
856.672920
 20
45.811029
 30
0.0
 10
853.895824
 20
45.811029
 30
0.0
  0
SPLINE
  5
33e
100
AcDbEntity
  8
0
 62
1
100
AcDbSpline
 70
8
 71
3
 72
8
 73
4
 74
0
 40
0
 40
0
 40
0
 40
0
 40
1
 40
1
 40
1
 40
1
 10
853.895824
 20
45.811029
 30
0.0
 10
851.118728
 20
45.811029
 30
0.0
 10
848.867446
 20
48.062175
 30
0.0
 10
848.867446
 20
50.839105
 30
0.0
  0
SPLINE
  5
33f
100
AcDbEntity
  8
0
 62
1
100
AcDbSpline
 70
8
 71
3
 72
8
 73
4
 74
0
 40
0
 40
0
 40
0
 40
0
 40
1
 40
1
 40
1
 40
1
 10
848.867446
 20
50.839105
 30
0.0
 10
848.867446
 20
52.635464
 30
0.0
 10
849.825849
 20
54.295369
 30
0.0
 10
851.381635
 20
55.193548
 30
0.0
  0
SPLINE
  5
340
100
AcDbEntity
  8
0
 62
1
100
AcDbSpline
 70
8
 71
3
 72
8
 73
4
 74
0
 40
0
 40
0
 40
0
 40
0
 40
1
 40
1
 40
1
 40
1
 10
851.381635
 20
55.193548
 30
0.0
 10
852.937421
 20
56.091728
 30
0.0
 10
854.854228
 20
56.091728
 30
0.0
 10
856.410013
 20
55.193548
 30
0.0
  0
SPLINE
  5
341
100
AcDbEntity
  8
0
 62
1
100
AcDbSpline
 70
8
 71
3
 72
8
 73
4
 74
0
 40
0
 40
0
 40
0
 40
0
 40
1
 40
1
 40
1
 40
1
 10
856.410013
 20
55.193548
 30
0.0
 10
857.965799
 20
54.295369
 30
0.0
 10
858.924202
 20
52.635464
 30
0.0
 10
858.924202
 20
50.839105
 30
0.0
  0
LWPOLYLINE
  5
342
100
AcDbEntity
  8
0
 62
1
100
AcDbPolyline
 90
1
 70
1
 10
881.441812
 20
50.839820
 30
0.0
  0
SPLINE
  5
343
100
AcDbEntity
  8
0
 62
1
100
AcDbSpline
 70
8
 71
3
 72
8
 73
4
 74
0
 40
0
 40
0
 40
0
 40
0
 40
1
 40
1
 40
1
 40
1
 10
472.501039
 20
75.182733
 30
0.0
 10
470.786772
 20
75.181245
 30
0.0
 10
469.164258
 20
74.410230
 30
0.0
 10
468.083265
 20
73.083417
 30
0.0
  0
SPLINE
  5
344
100
AcDbEntity
  8
0
 62
1
100
AcDbSpline
 70
8
 71
3
 72
8
 73
4
 74
0
 40
0
 40
0
 40
0
 40
0
 40
1
 40
1
 40
1
 40
1
 10
468.083265
 20
73.083417
 30
0.0
 10
468.083265
 20
73.083417
 30
0.0
 10
468.083265
 20
65.914947
 30
0.0
 10
468.083265
 20
65.914947
 30
0.0
  0
SPLINE
  5
345
100
AcDbEntity
  8
0
 62
1
100
AcDbSpline
 70
8
 71
3
 72
8
 73
4
 74
0
 40
0
 40
0
 40
0
 40
0
 40
1
 40
1
 40
1
 40
1
 10
468.083265
 20
65.914947
 30
0.0
 10
469.164577
 20
64.588741
 30
0.0
 10
470.787043
 20
63.818345
 30
0.0
 10
472.501039
 20
63.817254
 30
0.0
  0
SPLINE
  5
346
100
AcDbEntity
  8
0
 62
1
100
AcDbSpline
 70
8
 71
3
 72
8
 73
4
 74
0
 40
0
 40
0
 40
0
 40
0
 40
1
 40
1
 40
1
 40
1
 10
472.501039
 20
63.817254
 30
0.0
 10
475.648175
 20
63.817155
 30
0.0
 10
478.199541
 20
66.361254
 30
0.0
 10
478.199741
 20
69.499723
 30
0.0
  0
SPLINE
  5
347
100
AcDbEntity
  8
0
 62
1
100
AcDbSpline
 70
8
 71
3
 72
8
 73
4
 74
0
 40
0
 40
0
 40
0
 40
0
 40
1
 40
1
 40
1
 40
1
 10
478.199741
 20
69.499723
 30
0.0
 10
478.199788
 20
71.006966
 30
0.0
 10
477.599406
 20
72.452489
 30
0.0
 10
476.530682
 20
73.518270
 30
0.0
  0
SPLINE
  5
348
100
AcDbEntity
  8
0
 62
1
100
AcDbSpline
 70
8
 71
3
 72
8
 73
4
 74
0
 40
0
 40
0
 40
0
 40
0
 40
1
 40
1
 40
1
 40
1
 10
476.530682
 20
73.518270
 30
0.0
 10
475.461958
 20
74.584052
 30
0.0
 10
474.012443
 20
75.182780
 30
0.0
 10
472.501039
 20
75.182733
 30
0.0
  0
LWPOLYLINE
  5
349
100
AcDbEntity
  8
0
 62
1
100
AcDbPolyline
 90
1
 70
1
 10
858.924202
 20
50.839105
 30
0.0
  0
SPLINE
  5
34a
100
AcDbEntity
  8
0
 62
1
100
AcDbSpline
 70
8
 71
3
 72
8
 73
4
 74
0
 40
0
 40
0
 40
0
 40
0
 40
1
 40
1
 40
1
 40
1
 10
475.053077
 20
86.494988
 30
0.0
 10
475.053077
 20
85.586437
 30
0.0
 10
474.568371
 20
84.746902
 30
0.0
 10
473.781543
 20
84.292626
 30
0.0
  0
SPLINE
  5
34b
100
AcDbEntity
  8
0
 62
1
100
AcDbSpline
 70
8
 71
3
 72
8
 73
4
 74
0
 40
0
 40
0
 40
0
 40
0
 40
1
 40
1
 40
1
 40
1
 10
473.781543
 20
84.292626
 30
0.0
 10
472.994715
 20
83.838351
 30
0.0
 10
472.025303
 20
83.838351
 30
0.0
 10
471.238475
 20
84.292626
 30
0.0
  0
SPLINE
  5
34c
100
AcDbEntity
  8
0
 62
1
100
AcDbSpline
 70
8
 71
3
 72
8
 73
4
 74
0
 40
0
 40
0
 40
0
 40
0
 40
1
 40
1
 40
1
 40
1
 10
471.238475
 20
84.292626
 30
0.0
 10
470.451647
 20
84.746902
 30
0.0
 10
469.966941
 20
85.586437
 30
0.0
 10
469.966941
 20
86.494988
 30
0.0
  0
SPLINE
  5
34d
100
AcDbEntity
  8
0
 62
1
100
AcDbSpline
 70
8
 71
3
 72
8
 73
4
 74
0
 40
0
 40
0
 40
0
 40
0
 40
1
 40
1
 40
1
 40
1
 10
469.966941
 20
86.494988
 30
0.0
 10
469.966941
 20
87.403538
 30
0.0
 10
470.451647
 20
88.243074
 30
0.0
 10
471.238475
 20
88.697349
 30
0.0
  0
SPLINE
  5
34e
100
AcDbEntity
  8
0
 62
1
100
AcDbSpline
 70
8
 71
3
 72
8
 73
4
 74
0
 40
0
 40
0
 40
0
 40
0
 40
1
 40
1
 40
1
 40
1
 10
471.238475
 20
88.697349
 30
0.0
 10
472.025303
 20
89.151624
 30
0.0
 10
472.994715
 20
89.151624
 30
0.0
 10
473.781543
 20
88.697349
 30
0.0
  0
SPLINE
  5
34f
100
AcDbEntity
  8
0
 62
1
100
AcDbSpline
 70
8
 71
3
 72
8
 73
4
 74
0
 40
0
 40
0
 40
0
 40
0
 40
1
 40
1
 40
1
 40
1
 10
473.781543
 20
88.697349
 30
0.0
 10
474.568371
 20
88.243074
 30
0.0
 10
475.053077
 20
87.403538
 30
0.0
 10
475.053077
 20
86.494988
 30
0.0
  0
LWPOLYLINE
  5
350
100
AcDbEntity
  8
0
 62
1
100
AcDbPolyline
 90
1
 70
1
 10
472.501039
 20
75.182733
 30
0.0
  0
SPLINE
  5
351
100
AcDbEntity
  8
0
 62
1
100
AcDbSpline
 70
8
 71
3
 72
8
 73
4
 74
0
 40
0
 40
0
 40
0
 40
0
 40
1
 40
1
 40
1
 40
1
 10
541.742048
 20
75.182733
 30
0.0
 10
540.027781
 20
75.181247
 30
0.0
 10
538.405267
 20
74.410233
 30
0.0
 10
537.324274
 20
73.083420
 30
0.0
  0
LWPOLYLINE
  5
352
100
AcDbEntity
  8
0
 62
1
100
AcDbPolyline
 90
1
 70
1
 10
475.053077
 20
86.494988
 30
0.0
  0
SPLINE
  5
353
100
AcDbEntity
  8
0
 62
1
100
AcDbSpline
 70
8
 71
3
 72
8
 73
4
 74
0
 40
0
 40
0
 40
0
 40
0
 40
1
 40
1
 40
1
 40
1
 10
537.324274
 20
65.914950
 30
0.0
 10
538.405585
 20
64.588743
 30
0.0
 10
540.028052
 20
63.818346
 30
0.0
 10
541.742048
 20
63.817257
 30
0.0
  0
SPLINE
  5
354
100
AcDbEntity
  8
0
 62
1
100
AcDbSpline
 70
8
 71
3
 72
8
 73
4
 74
0
 40
0
 40
0
 40
0
 40
0
 40
1
 40
1
 40
1
 40
1
 10
541.742048
 20
63.817257
 30
0.0
 10
544.889171
 20
63.817170
 30
0.0
 10
547.440522
 20
66.361263
 30
0.0
 10
547.440723
 20
69.499723
 30
0.0
  0
SPLINE
  5
355
100
AcDbEntity
  8
0
 62
1
100
AcDbSpline
 70
8
 71
3
 72
8
 73
4
 74
0
 40
0
 40
0
 40
0
 40
0
 40
1
 40
1
 40
1
 40
1
 10
547.440723
 20
69.499723
 30
0.0
 10
547.440771
 20
71.006962
 30
0.0
 10
546.840392
 20
72.452482
 30
0.0
 10
545.771674
 20
73.518263
 30
0.0
  0
SPLINE
  5
356
100
AcDbEntity
  8
0
 62
1
100
AcDbSpline
 70
8
 71
3
 72
8
 73
4
 74
0
 40
0
 40
0
 40
0
 40
0
 40
1
 40
1
 40
1
 40
1
 10
545.771674
 20
73.518263
 30
0.0
 10
544.702955
 20
74.584043
 30
0.0
 10
543.253447
 20
75.182774
 30
0.0
 10
541.742048
 20
75.182733
 30
0.0
  0
LWPOLYLINE
  5
357
100
AcDbEntity
  8
0
 62
1
100
AcDbPolyline
 90
2
 70
0
 10
537.324274
 20
73.083420
 30
0.0
 10
537.324274
 20
65.914950
 30
0.0
  0
SPLINE
  5
358
100
AcDbEntity
  8
0
 62
1
100
AcDbSpline
 70
8
 71
3
 72
8
 73
4
 74
0
 40
0
 40
0
 40
0
 40
0
 40
1
 40
1
 40
1
 40
1
 10
544.293080
 20
86.494988
 30
0.0
 10
544.293080
 20
85.586437
 30
0.0
 10
543.808374
 20
84.746902
 30
0.0
 10
543.021546
 20
84.292626
 30
0.0
  0
SPLINE
  5
359
100
AcDbEntity
  8
0
 62
1
100
AcDbSpline
 70
8
 71
3
 72
8
 73
4
 74
0
 40
0
 40
0
 40
0
 40
0
 40
1
 40
1
 40
1
 40
1
 10
543.021546
 20
84.292626
 30
0.0
 10
542.234718
 20
83.838351
 30
0.0
 10
541.265306
 20
83.838351
 30
0.0
 10
540.478478
 20
84.292626
 30
0.0
  0
SPLINE
  5
35a
100
AcDbEntity
  8
0
 62
1
100
AcDbSpline
 70
8
 71
3
 72
8
 73
4
 74
0
 40
0
 40
0
 40
0
 40
0
 40
1
 40
1
 40
1
 40
1
 10
540.478478
 20
84.292626
 30
0.0
 10
539.691650
 20
84.746902
 30
0.0
 10
539.206944
 20
85.586437
 30
0.0
 10
539.206944
 20
86.494988
 30
0.0
  0
SPLINE
  5
35b
100
AcDbEntity
  8
0
 62
1
100
AcDbSpline
 70
8
 71
3
 72
8
 73
4
 74
0
 40
0
 40
0
 40
0
 40
0
 40
1
 40
1
 40
1
 40
1
 10
539.206944
 20
86.494988
 30
0.0
 10
539.206944
 20
87.403538
 30
0.0
 10
539.691650
 20
88.243074
 30
0.0
 10
540.478478
 20
88.697349
 30
0.0
  0
SPLINE
  5
35c
100
AcDbEntity
  8
0
 62
1
100
AcDbSpline
 70
8
 71
3
 72
8
 73
4
 74
0
 40
0
 40
0
 40
0
 40
0
 40
1
 40
1
 40
1
 40
1
 10
540.478478
 20
88.697349
 30
0.0
 10
541.265306
 20
89.151624
 30
0.0
 10
542.234718
 20
89.151624
 30
0.0
 10
543.021546
 20
88.697349
 30
0.0
  0
SPLINE
  5
35d
100
AcDbEntity
  8
0
 62
1
100
AcDbSpline
 70
8
 71
3
 72
8
 73
4
 74
0
 40
0
 40
0
 40
0
 40
0
 40
1
 40
1
 40
1
 40
1
 10
543.021546
 20
88.697349
 30
0.0
 10
543.808374
 20
88.243074
 30
0.0
 10
544.293080
 20
87.403538
 30
0.0
 10
544.293080
 20
86.494988
 30
0.0
  0
LWPOLYLINE
  5
35e
100
AcDbEntity
  8
0
 62
1
100
AcDbPolyline
 90
1
 70
1
 10
541.742048
 20
75.182733
 30
0.0
  0
SPLINE
  5
35f
100
AcDbEntity
  8
0
 62
1
100
AcDbSpline
 70
8
 71
3
 72
8
 73
4
 74
0
 40
0
 40
0
 40
0
 40
0
 40
1
 40
1
 40
1
 40
1
 10
57.196580
 20
252.412074
 30
0.0
 10
57.196580
 20
250.760419
 30
0.0
 10
56.315432
 20
249.234227
 30
0.0
 10
54.885057
 20
248.408399
 30
0.0
  0
SPLINE
  5
360
100
AcDbEntity
  8
0
 62
1
100
AcDbSpline
 70
8
 71
3
 72
8
 73
4
 74
0
 40
0
 40
0
 40
0
 40
0
 40
1
 40
1
 40
1
 40
1
 10
54.885057
 20
248.408399
 30
0.0
 10
53.454681
 20
247.582572
 30
0.0
 10
51.692386
 20
247.582572
 30
0.0
 10
50.262011
 20
248.408399
 30
0.0
  0
SPLINE
  5
361
100
AcDbEntity
  8
0
 62
1
100
AcDbSpline
 70
8
 71
3
 72
8
 73
4
 74
0
 40
0
 40
0
 40
0
 40
0
 40
1
 40
1
 40
1
 40
1
 10
50.262011
 20
248.408399
 30
0.0
 10
48.831636
 20
249.234227
 30
0.0
 10
47.950488
 20
250.760419
 30
0.0
 10
47.950488
 20
252.412074
 30
0.0
  0
SPLINE
  5
362
100
AcDbEntity
  8
0
 62
1
100
AcDbSpline
 70
8
 71
3
 72
8
 73
4
 74
0
 40
0
 40
0
 40
0
 40
0
 40
1
 40
1
 40
1
 40
1
 10
47.950488
 20
252.412074
 30
0.0
 10
47.950488
 20
254.965311
 30
0.0
 10
50.020296
 20
257.035119
 30
0.0
 10
52.573534
 20
257.035119
 30
0.0
  0
SPLINE
  5
363
100
AcDbEntity
  8
0
 62
1
100
AcDbSpline
 70
8
 71
3
 72
8
 73
4
 74
0
 40
0
 40
0
 40
0
 40
0
 40
1
 40
1
 40
1
 40
1
 10
52.573534
 20
257.035119
 30
0.0
 10
55.126771
 20
257.035119
 30
0.0
 10
57.196579
 20
254.965311
 30
0.0
 10
57.196580
 20
252.412074
 30
0.0
  0
LWPOLYLINE
  5
364
100
AcDbEntity
  8
0
 62
1
100
AcDbPolyline
 90
1
 70
1
 10
544.293080
 20
86.494988
 30
0.0
  0
SPLINE
  5
365
100
AcDbEntity
  8
0
 62
1
100
AcDbSpline
 70
8
 71
3
 72
8
 73
4
 74
0
 40
0
 40
0
 40
0
 40
0
 40
1
 40
1
 40
1
 40
1
 10
85.903226
 20
252.325775
 30
0.0
 10
85.903226
 20
250.674120
 30
0.0
 10
85.022078
 20
249.147928
 30
0.0
 10
83.591703
 20
248.322100
 30
0.0
  0
SPLINE
  5
366
100
AcDbEntity
  8
0
 62
1
100
AcDbSpline
 70
8
 71
3
 72
8
 73
4
 74
0
 40
0
 40
0
 40
0
 40
0
 40
1
 40
1
 40
1
 40
1
 10
83.591703
 20
248.322100
 30
0.0
 10
82.161327
 20
247.496273
 30
0.0
 10
80.399032
 20
247.496273
 30
0.0
 10
78.968657
 20
248.322100
 30
0.0
  0
SPLINE
  5
367
100
AcDbEntity
  8
0
 62
1
100
AcDbSpline
 70
8
 71
3
 72
8
 73
4
 74
0
 40
0
 40
0
 40
0
 40
0
 40
1
 40
1
 40
1
 40
1
 10
78.968657
 20
248.322100
 30
0.0
 10
77.538282
 20
249.147928
 30
0.0
 10
76.657134
 20
250.674120
 30
0.0
 10
76.657134
 20
252.325775
 30
0.0
  0
SPLINE
  5
368
100
AcDbEntity
  8
0
 62
1
100
AcDbSpline
 70
8
 71
3
 72
8
 73
4
 74
0
 40
0
 40
0
 40
0
 40
0
 40
1
 40
1
 40
1
 40
1
 10
76.657134
 20
252.325775
 30
0.0
 10
76.657134
 20
253.977430
 30
0.0
 10
77.538282
 20
255.503622
 30
0.0
 10
78.968657
 20
256.329450
 30
0.0
  0
SPLINE
  5
369
100
AcDbEntity
  8
0
 62
1
100
AcDbSpline
 70
8
 71
3
 72
8
 73
4
 74
0
 40
0
 40
0
 40
0
 40
0
 40
1
 40
1
 40
1
 40
1
 10
78.968657
 20
256.329450
 30
0.0
 10
80.399032
 20
257.155277
 30
0.0
 10
82.161327
 20
257.155277
 30
0.0
 10
83.591703
 20
256.329450
 30
0.0
  0
SPLINE
  5
36a
100
AcDbEntity
  8
0
 62
1
100
AcDbSpline
 70
8
 71
3
 72
8
 73
4
 74
0
 40
0
 40
0
 40
0
 40
0
 40
1
 40
1
 40
1
 40
1
 10
83.591703
 20
256.329450
 30
0.0
 10
85.022078
 20
255.503622
 30
0.0
 10
85.903226
 20
253.977430
 30
0.0
 10
85.903226
 20
252.325775
 30
0.0
  0
LWPOLYLINE
  5
36b
100
AcDbEntity
  8
0
 62
1
100
AcDbPolyline
 90
1
 70
1
 10
57.196580
 20
252.412074
 30
0.0
  0
LWPOLYLINE
  5
36c
100
AcDbEntity
  8
0
 62
1
100
AcDbPolyline
 90
1
 70
1
 10
85.903226
 20
252.325775
 30
0.0
  0
SPLINE
  5
36d
100
AcDbEntity
  8
0
 62
1
100
AcDbSpline
 70
8
 71
3
 72
8
 73
4
 74
0
 40
0
 40
0
 40
0
 40
0
 40
1
 40
1
 40
1
 40
1
 10
959.637876
 20
181.816888
 30
0.0
 10
952.496243
 20
181.038008
 30
0.0
 10
942.600244
 20
182.556769
 30
0.0
 10
941.596468
 20
172.976577
 30
0.0
  0
SPLINE
  5
36e
100
AcDbEntity
  8
0
 62
1
100
AcDbSpline
 70
8
 71
3
 72
8
 73
4
 74
0
 40
0
 40
0
 40
0
 40
0
 40
1
 40
1
 40
1
 40
1
 10
941.596468
 20
172.976577
 30
0.0
 10
942.989737
 20
164.054457
 30
0.0
 10
951.827059
 20
165.248495
 30
0.0
 10
959.798769
 20
164.899324
 30
0.0
  0
LWPOLYLINE
  5
36f
100
AcDbEntity
  8
0
 62
1
100
AcDbPolyline
 90
2
 70
0
 10
959.798769
 20
164.899324
 30
0.0
 10
959.637876
 20
181.816888
 30
0.0
  0
SPLINE
  5
370
100
AcDbEntity
  8
0
 62
1
100
AcDbSpline
 70
8
 71
3
 72
8
 73
4
 74
0
 40
0
 40
0
 40
0
 40
0
 40
1
 40
1
 40
1
 40
1
 10
942.194611
 20
160.243107
 30
0.0
 10
943.409638
 20
160.243107
 30
0.0
 10
944.394611
 20
159.258134
 30
0.0
 10
944.394611
 20
158.043107
 30
0.0
  0
SPLINE
  5
371
100
AcDbEntity
  8
0
 62
1
100
AcDbSpline
 70
8
 71
3
 72
8
 73
4
 74
0
 40
0
 40
0
 40
0
 40
0
 40
1
 40
1
 40
1
 40
1
 10
944.394611
 20
158.043107
 30
0.0
 10
944.394611
 20
156.828081
 30
0.0
 10
943.409638
 20
155.843108
 30
0.0
 10
942.194611
 20
155.843107
 30
0.0
  0
SPLINE
  5
372
100
AcDbEntity
  8
0
 62
1
100
AcDbSpline
 70
8
 71
3
 72
8
 73
4
 74
0
 40
0
 40
0
 40
0
 40
0
 40
1
 40
1
 40
1
 40
1
 10
942.194611
 20
155.843107
 30
0.0
 10
940.979585
 20
155.843108
 30
0.0
 10
939.994612
 20
156.828081
 30
0.0
 10
939.994612
 20
158.043107
 30
0.0
  0
SPLINE
  5
373
100
AcDbEntity
  8
0
 62
1
100
AcDbSpline
 70
8
 71
3
 72
8
 73
4
 74
0
 40
0
 40
0
 40
0
 40
0
 40
1
 40
1
 40
1
 40
1
 10
939.994612
 20
158.043107
 30
0.0
 10
939.994612
 20
159.258134
 30
0.0
 10
940.979585
 20
160.243107
 30
0.0
 10
942.194611
 20
160.243107
 30
0.0
  0
LWPOLYLINE
  5
374
100
AcDbEntity
  8
0
 62
1
100
AcDbPolyline
 90
1
 70
1
 10
959.798769
 20
164.899324
 30
0.0
  0
SPLINE
  5
375
100
AcDbEntity
  8
0
 62
1
100
AcDbSpline
 70
8
 71
3
 72
8
 73
4
 74
0
 40
0
 40
0
 40
0
 40
0
 40
1
 40
1
 40
1
 40
1
 10
942.194611
 20
190.684597
 30
0.0
 10
942.980596
 20
190.684597
 30
0.0
 10
943.706875
 20
190.265280
 30
0.0
 10
944.099867
 20
189.584597
 30
0.0
  0
SPLINE
  5
376
100
AcDbEntity
  8
0
 62
1
100
AcDbSpline
 70
8
 71
3
 72
8
 73
4
 74
0
 40
0
 40
0
 40
0
 40
0
 40
1
 40
1
 40
1
 40
1
 10
944.099867
 20
189.584597
 30
0.0
 10
944.492859
 20
188.903915
 30
0.0
 10
944.492859
 20
188.065280
 30
0.0
 10
944.099867
 20
187.384597
 30
0.0
  0
SPLINE
  5
377
100
AcDbEntity
  8
0
 62
1
100
AcDbSpline
 70
8
 71
3
 72
8
 73
4
 74
0
 40
0
 40
0
 40
0
 40
0
 40
1
 40
1
 40
1
 40
1
 10
944.099867
 20
187.384597
 30
0.0
 10
943.706875
 20
186.703915
 30
0.0
 10
942.980596
 20
186.284597
 30
0.0
 10
942.194611
 20
186.284597
 30
0.0
  0
SPLINE
  5
378
100
AcDbEntity
  8
0
 62
1
100
AcDbSpline
 70
8
 71
3
 72
8
 73
4
 74
0
 40
0
 40
0
 40
0
 40
0
 40
1
 40
1
 40
1
 40
1
 10
942.194611
 20
186.284597
 30
0.0
 10
941.408627
 20
186.284597
 30
0.0
 10
940.682348
 20
186.703915
 30
0.0
 10
940.289356
 20
187.384597
 30
0.0
  0
SPLINE
  5
379
100
AcDbEntity
  8
0
 62
1
100
AcDbSpline
 70
8
 71
3
 72
8
 73
4
 74
0
 40
0
 40
0
 40
0
 40
0
 40
1
 40
1
 40
1
 40
1
 10
940.289356
 20
187.384597
 30
0.0
 10
939.896363
 20
188.065280
 30
0.0
 10
939.896363
 20
188.903915
 30
0.0
 10
940.289356
 20
189.584597
 30
0.0
  0
SPLINE
  5
37a
100
AcDbEntity
  8
0
 62
1
100
AcDbSpline
 70
8
 71
3
 72
8
 73
4
 74
0
 40
0
 40
0
 40
0
 40
0
 40
1
 40
1
 40
1
 40
1
 10
940.289356
 20
189.584597
 30
0.0
 10
940.682348
 20
190.265280
 30
0.0
 10
941.408627
 20
190.684597
 30
0.0
 10
942.194611
 20
190.684597
 30
0.0
  0
LWPOLYLINE
  5
37b
100
AcDbEntity
  8
0
 62
1
100
AcDbPolyline
 90
1
 70
1
 10
942.194611
 20
160.243107
 30
0.0
  0
LWPOLYLINE
  5
37c
100
AcDbEntity
  8
0
 62
1
100
AcDbPolyline
 90
1
 70
1
 10
942.194611
 20
190.684597
 30
0.0
  0
ENDSEC
  0
SECTION
  2
OBJECTS
  0
DICTIONARY
  5
C
330
0
100
AcDbDictionary
  3
ACAD_GROUP
350
D
  3
ACAD_MLINESTYLE
350
17
  0
DICTIONARY
  5
D
330
C
100
AcDbDictionary
  0
DICTIONARY
  5
1A
330
C
100
AcDbDictionary
  0
DICTIONARY
  5
17
330
C
100
AcDbDictionary
  3
STANDARD
350
18
  0
DICTIONARY
  5
19
330
C
100
AcDbDictionary
  0
ENDSEC
  0
EOF
