  0
SECTION
  2
HEADER
  9
$ACADVER
  1
AC1014
  9
$HANDSEED
  5
FFFF
  9
$MEASUREMENT
 70
     1
  0
ENDSEC
  0
SECTION
  2
TABLES
  0
TABLE
  2
VPORT
  5
8
330
0
100
AcDbSymbolTable
 70
     4
  0
VPORT
  5
2E
330
8
100
AcDbSymbolTableRecord
100
AcDbViewportTableRecord
  2
*ACTIVE
 70
     0
 10
0.0
 20
0.0
 11
1.0
 21
1.0
 12
210.0
 22
148.5
 13
0.0
 23
0.0
 14
10.0
 24
10.0
 15
10.0
 25
10.0
 16
0.0
 26
0.0
 36
1.0
 17
0.0
 27
0.0
 37
0.0
 40
341.0
 41
1.24
 42
50.0
 43
0.0
 44
0.0
 50
0.0
 51
0.0
 71
     0
 72
   100
 73
     1
 74
     3
 75
     0
 76
     0
 77
     0
 78
     0
  0
ENDTAB
  0
TABLE
  2
LTYPE
  5
5
330
0
100
AcDbSymbolTable
 70
     1
  0
LTYPE
  5
14
330
5
100
AcDbSymbolTableRecord
100
AcDbLinetypeTableRecord
  2
BYBLOCK
 70
     0
  3

 72
    65
 73
     0
 40
0.0
  0
LTYPE
  5
15
330
5
100
AcDbSymbolTableRecord
100
AcDbLinetypeTableRecord
  2
BYLAYER
 70
     0
  3

 72
    65
 73
     0
 40
0.0
  0
LTYPE
  5
16
330
5
100
AcDbSymbolTableRecord
100
AcDbLinetypeTableRecord
  2
CONTINUOUS
 70
     0
  3
Solid line
 72
    65
 73
     0
 40
0.0
  0
ENDTAB
  0
TABLE
  2
LAYER
  5
2
100
AcDbSymbolTable
 70
1
  0
LAYER
  5
50
100
AcDbSymbolTableRecord
100
AcDbLayerTableRecord
  2
0
 70
0
  6
CONTINUOUS
  0
ENDTAB
  0
TABLE
  2
STYLE
  5
3
330
0
100
AcDbSymbolTable
 70
     1
  0
STYLE
  5
11
330
3
100
AcDbSymbolTableRecord
100
AcDbTextStyleTableRecord
  2
STANDARD
 70
     0
 40
0.0
 41
1.0
 50
0.0
 71
     0
 42
2.5
  3
txt
  4

  0
ENDTAB
  0
TABLE
  2
VIEW
  5
6
330
0
100
AcDbSymbolTable
 70
     0
  0
ENDTAB
  0
TABLE
  2
UCS
  5
7
330
0
100
AcDbSymbolTable
 70
     0
  0
ENDTAB
  0
TABLE
  2
APPID
  5
9
330
0
100
AcDbSymbolTable
 70
     2
  0
APPID
  5
12
330
9
100
AcDbSymbolTableRecord
100
AcDbRegAppTableRecord
  2
ACAD
 70
     0
  0
ENDTAB
  0
TABLE
  2
DIMSTYLE
  5
A
330
0
100
AcDbSymbolTable
 70
     1
  0
DIMSTYLE
105
27
330
A
100
AcDbSymbolTableRecord
100
AcDbDimStyleTableRecord
  2
ISO-25
 70
     0
  3

  4

  5

  6

  7

 40
1.0
 41
2.5
 42
0.625
 43
3.75
 44
1.25
 45
0.0
 46
0.0
 47
0.0
 48
0.0
140
2.5
141
2.5
142
0.0
143
0.03937007874016
144
1.0
145
0.0
146
1.0
147
0.625
 71
     0
 72
     0
 73
     0
 74
     0
 75
     0
 76
     0
 77
     1
 78
     8
170
     0
171
     3
172
     1
173
     0
174
     0
175
     0
176
     0
177
     0
178
     0
270
     2
271
     2
272
     2
273
     2
274
     3
340
11
275
     0
280
     0
281
     0
282
     0
283
     0
284
     8
285
     0
286
     0
287
     3
288
     0
  0
ENDTAB
  0
TABLE
  2
BLOCK_RECORD
  5
1
330
0
100
AcDbSymbolTable
 70
     1
  0
BLOCK_RECORD
  5
1F
330
1
100
AcDbSymbolTableRecord
100
AcDbBlockTableRecord
  2
*MODEL_SPACE
  0
BLOCK_RECORD
  5
1B
330
1
100
AcDbSymbolTableRecord
100
AcDbBlockTableRecord
  2
*PAPER_SPACE
  0
ENDTAB
  0
ENDSEC
  0
SECTION
  2
BLOCKS
  0
BLOCK
  5
20
330
1F
100
AcDbEntity
  8
0
100
AcDbBlockBegin
  2
*MODEL_SPACE
 70
     0
 10
0.0
 20
0.0
 30
0.0
  3
*MODEL_SPACE
  1

  0
ENDBLK
  5
21
330
1F
100
AcDbEntity
  8
0
100
AcDbBlockEnd
  0
BLOCK
  5
1C
330
1B
100
AcDbEntity
 67
     1
  8
0
100
AcDbBlockBegin
  2
*PAPER_SPACE
  1

  0
ENDBLK
  5
1D
330
1B
100
AcDbEntity
 67
     1
  8
0
100
AcDbBlockEnd
  0
ENDSEC
  0
SECTION
  2
ENTITIES
  0
SPLINE
  5
100
100
AcDbEntity
  8
0
 62
7
100
AcDbSpline
 70
8
 71
3
 72
8
 73
4
 74
0
 40
0
 40
0
 40
0
 40
0
 40
1
 40
1
 40
1
 40
1
 10
2754.298065
 20
304.714627
 30
0.0
 10
2754.298065
 20
306.790711
 30
0.0
 10
2753.190488
 20
308.709092
 30
0.0
 10
2751.392546
 20
309.747134
 30
0.0
  0
SPLINE
  5
101
100
AcDbEntity
  8
0
 62
7
100
AcDbSpline
 70
8
 71
3
 72
8
 73
4
 74
0
 40
0
 40
0
 40
0
 40
0
 40
1
 40
1
 40
1
 40
1
 10
2751.392546
 20
309.747134
 30
0.0
 10
2749.594605
 20
310.785175
 30
0.0
 10
2747.379450
 20
310.785175
 30
0.0
 10
2745.581509
 20
309.747134
 30
0.0
  0
SPLINE
  5
102
100
AcDbEntity
  8
0
 62
7
100
AcDbSpline
 70
8
 71
3
 72
8
 73
4
 74
0
 40
0
 40
0
 40
0
 40
0
 40
1
 40
1
 40
1
 40
1
 10
2745.581509
 20
309.747134
 30
0.0
 10
2743.783567
 20
308.709092
 30
0.0
 10
2742.675990
 20
306.790711
 30
0.0
 10
2742.675990
 20
304.714627
 30
0.0
  0
SPLINE
  5
103
100
AcDbEntity
  8
0
 62
7
100
AcDbSpline
 70
8
 71
3
 72
8
 73
4
 74
0
 40
0
 40
0
 40
0
 40
0
 40
1
 40
1
 40
1
 40
1
 10
2742.675990
 20
304.714627
 30
0.0
 10
2742.675990
 20
302.638544
 30
0.0
 10
2743.783567
 20
300.720163
 30
0.0
 10
2745.581509
 20
299.682121
 30
0.0
  0
SPLINE
  5
104
100
AcDbEntity
  8
0
 62
7
100
AcDbSpline
 70
8
 71
3
 72
8
 73
4
 74
0
 40
0
 40
0
 40
0
 40
0
 40
1
 40
1
 40
1
 40
1
 10
2745.581509
 20
299.682121
 30
0.0
 10
2747.379450
 20
298.644080
 30
0.0
 10
2749.594605
 20
298.644080
 30
0.0
 10
2751.392546
 20
299.682121
 30
0.0
  0
SPLINE
  5
105
100
AcDbEntity
  8
0
 62
7
100
AcDbSpline
 70
8
 71
3
 72
8
 73
4
 74
0
 40
0
 40
0
 40
0
 40
0
 40
1
 40
1
 40
1
 40
1
 10
2751.392546
 20
299.682121
 30
0.0
 10
2753.190488
 20
300.720163
 30
0.0
 10
2754.298065
 20
302.638544
 30
0.0
 10
2754.298065
 20
304.714627
 30
0.0
  0
SPLINE
  5
106
100
AcDbEntity
  8
0
 62
7
100
AcDbSpline
 70
8
 71
3
 72
8
 73
4
 74
0
 40
0
 40
0
 40
0
 40
0
 40
1
 40
1
 40
1
 40
1
 10
1569.518610
 20
902.584591
 30
0.0
 10
1569.519902
 20
904.661530
 30
0.0
 10
1568.412610
 20
906.581255
 30
0.0
 10
1566.614143
 20
907.620098
 30
0.0
  0
SPLINE
  5
107
100
AcDbEntity
  8
0
 62
7
100
AcDbSpline
 70
8
 71
3
 72
8
 73
4
 74
0
 40
0
 40
0
 40
0
 40
0
 40
1
 40
1
 40
1
 40
1
 10
1566.614143
 20
907.620098
 30
0.0
 10
1564.815676
 20
908.658941
 30
0.0
 10
1562.599499
 20
908.658941
 30
0.0
 10
1560.801032
 20
907.620098
 30
0.0
  0
SPLINE
  5
108
100
AcDbEntity
  8
0
 62
7
100
AcDbSpline
 70
8
 71
3
 72
8
 73
4
 74
0
 40
0
 40
0
 40
0
 40
0
 40
1
 40
1
 40
1
 40
1
 10
1560.801032
 20
907.620098
 30
0.0
 10
1559.002565
 20
906.581255
 30
0.0
 10
1557.895273
 20
904.661530
 30
0.0
 10
1557.896565
 20
902.584591
 30
0.0
  0
SPLINE
  5
109
100
AcDbEntity
  8
0
 62
7
100
AcDbSpline
 70
8
 71
3
 72
8
 73
4
 74
0
 40
0
 40
0
 40
0
 40
0
 40
1
 40
1
 40
1
 40
1
 10
1557.896565
 20
902.584591
 30
0.0
 10
1557.895273
 20
900.507651
 30
0.0
 10
1559.002565
 20
898.587927
 30
0.0
 10
1560.801032
 20
897.549084
 30
0.0
  0
SPLINE
  5
10a
100
AcDbEntity
  8
0
 62
7
100
AcDbSpline
 70
8
 71
3
 72
8
 73
4
 74
0
 40
0
 40
0
 40
0
 40
0
 40
1
 40
1
 40
1
 40
1
 10
1560.801032
 20
897.549084
 30
0.0
 10
1562.599499
 20
896.510240
 30
0.0
 10
1564.815676
 20
896.510240
 30
0.0
 10
1566.614143
 20
897.549084
 30
0.0
  0
SPLINE
  5
10b
100
AcDbEntity
  8
0
 62
7
100
AcDbSpline
 70
8
 71
3
 72
8
 73
4
 74
0
 40
0
 40
0
 40
0
 40
0
 40
1
 40
1
 40
1
 40
1
 10
1566.614143
 20
897.549084
 30
0.0
 10
1568.412610
 20
898.587927
 30
0.0
 10
1569.519902
 20
900.507651
 30
0.0
 10
1569.518610
 20
902.584591
 30
0.0
  0
LWPOLYLINE
  5
10c
100
AcDbEntity
  8
0
 62
7
100
AcDbPolyline
 90
1
 70
1
 10
2754.298065
 20
304.714627
 30
0.0
  0
SPLINE
  5
10d
100
AcDbEntity
  8
0
 62
7
100
AcDbSpline
 70
8
 71
3
 72
8
 73
4
 74
0
 40
0
 40
0
 40
0
 40
0
 40
1
 40
1
 40
1
 40
1
 10
1513.017052
 20
16.694085
 30
0.0
 10
1513.017052
 20
18.770165
 30
0.0
 10
1511.909477
 20
20.688541
 30
0.0
 10
1510.111539
 20
21.726581
 30
0.0
  0
SPLINE
  5
10e
100
AcDbEntity
  8
0
 62
7
100
AcDbSpline
 70
8
 71
3
 72
8
 73
4
 74
0
 40
0
 40
0
 40
0
 40
0
 40
1
 40
1
 40
1
 40
1
 10
1510.111539
 20
21.726581
 30
0.0
 10
1508.313602
 20
22.764621
 30
0.0
 10
1506.098451
 20
22.764621
 30
0.0
 10
1504.300513
 20
21.726581
 30
0.0
  0
SPLINE
  5
10f
100
AcDbEntity
  8
0
 62
7
100
AcDbSpline
 70
8
 71
3
 72
8
 73
4
 74
0
 40
0
 40
0
 40
0
 40
0
 40
1
 40
1
 40
1
 40
1
 10
1504.300513
 20
21.726581
 30
0.0
 10
1502.502575
 20
20.688541
 30
0.0
 10
1501.395000
 20
18.770165
 30
0.0
 10
1501.395000
 20
16.694085
 30
0.0
  0
SPLINE
  5
110
100
AcDbEntity
  8
0
 62
7
100
AcDbSpline
 70
8
 71
3
 72
8
 73
4
 74
0
 40
0
 40
0
 40
0
 40
0
 40
1
 40
1
 40
1
 40
1
 10
1501.395000
 20
16.694085
 30
0.0
 10
1501.395000
 20
14.618005
 30
0.0
 10
1502.502575
 20
12.699628
 30
0.0
 10
1504.300513
 20
11.661588
 30
0.0
  0
SPLINE
  5
111
100
AcDbEntity
  8
0
 62
7
100
AcDbSpline
 70
8
 71
3
 72
8
 73
4
 74
0
 40
0
 40
0
 40
0
 40
0
 40
1
 40
1
 40
1
 40
1
 10
1504.300513
 20
11.661588
 30
0.0
 10
1506.098451
 20
10.623548
 30
0.0
 10
1508.313602
 20
10.623548
 30
0.0
 10
1510.111539
 20
11.661588
 30
0.0
  0
SPLINE
  5
112
100
AcDbEntity
  8
0
 62
7
100
AcDbSpline
 70
8
 71
3
 72
8
 73
4
 74
0
 40
0
 40
0
 40
0
 40
0
 40
1
 40
1
 40
1
 40
1
 10
1510.111539
 20
11.661588
 30
0.0
 10
1511.909477
 20
12.699628
 30
0.0
 10
1513.017053
 20
14.618005
 30
0.0
 10
1513.017052
 20
16.694085
 30
0.0
  0
LWPOLYLINE
  5
113
100
AcDbEntity
  8
0
 62
7
100
AcDbPolyline
 90
1
 70
1
 10
1569.518610
 20
902.584591
 30
0.0
  0
SPLINE
  5
114
100
AcDbEntity
  8
0
 62
7
100
AcDbSpline
 70
8
 71
3
 72
8
 73
4
 74
0
 40
0
 40
0
 40
0
 40
0
 40
1
 40
1
 40
1
 40
1
 10
1704.834315
 20
109.607085
 30
0.0
 10
1704.835607
 20
111.684025
 30
0.0
 10
1703.728315
 20
113.603749
 30
0.0
 10
1701.929848
 20
114.642592
 30
0.0
  0
SPLINE
  5
115
100
AcDbEntity
  8
0
 62
7
100
AcDbSpline
 70
8
 71
3
 72
8
 73
4
 74
0
 40
0
 40
0
 40
0
 40
0
 40
1
 40
1
 40
1
 40
1
 10
1701.929848
 20
114.642592
 30
0.0
 10
1700.131381
 20
115.681435
 30
0.0
 10
1697.915204
 20
115.681435
 30
0.0
 10
1696.116737
 20
114.642592
 30
0.0
  0
SPLINE
  5
116
100
AcDbEntity
  8
0
 62
7
100
AcDbSpline
 70
8
 71
3
 72
8
 73
4
 74
0
 40
0
 40
0
 40
0
 40
0
 40
1
 40
1
 40
1
 40
1
 10
1696.116737
 20
114.642592
 30
0.0
 10
1694.318270
 20
113.603749
 30
0.0
 10
1693.210978
 20
111.684025
 30
0.0
 10
1693.212270
 20
109.607085
 30
0.0
  0
SPLINE
  5
117
100
AcDbEntity
  8
0
 62
7
100
AcDbSpline
 70
8
 71
3
 72
8
 73
4
 74
0
 40
0
 40
0
 40
0
 40
0
 40
1
 40
1
 40
1
 40
1
 10
1693.212270
 20
109.607085
 30
0.0
 10
1693.210978
 20
107.530145
 30
0.0
 10
1694.318270
 20
105.610421
 30
0.0
 10
1696.116737
 20
104.571578
 30
0.0
  0
SPLINE
  5
118
100
AcDbEntity
  8
0
 62
7
100
AcDbSpline
 70
8
 71
3
 72
8
 73
4
 74
0
 40
0
 40
0
 40
0
 40
0
 40
1
 40
1
 40
1
 40
1
 10
1696.116737
 20
104.571578
 30
0.0
 10
1697.915204
 20
103.532735
 30
0.0
 10
1700.131381
 20
103.532735
 30
0.0
 10
1701.929848
 20
104.571578
 30
0.0
  0
SPLINE
  5
119
100
AcDbEntity
  8
0
 62
7
100
AcDbSpline
 70
8
 71
3
 72
8
 73
4
 74
0
 40
0
 40
0
 40
0
 40
0
 40
1
 40
1
 40
1
 40
1
 10
1701.929848
 20
104.571578
 30
0.0
 10
1703.728315
 20
105.610421
 30
0.0
 10
1704.835607
 20
107.530145
 30
0.0
 10
1704.834315
 20
109.607085
 30
0.0
  0
LWPOLYLINE
  5
11a
100
AcDbEntity
  8
0
 62
7
100
AcDbPolyline
 90
1
 70
1
 10
1513.017052
 20
16.694085
 30
0.0
  0
SPLINE
  5
11b
100
AcDbEntity
  8
0
 62
7
100
AcDbSpline
 70
8
 71
3
 72
8
 73
4
 74
0
 40
0
 40
0
 40
0
 40
0
 40
1
 40
1
 40
1
 40
1
 10
2151.669840
 20
113.621460
 30
0.0
 10
2151.669840
 20
115.697544
 30
0.0
 10
2150.562263
 20
117.615924
 30
0.0
 10
2148.764321
 20
118.653966
 30
0.0
  0
SPLINE
  5
11c
100
AcDbEntity
  8
0
 62
7
100
AcDbSpline
 70
8
 71
3
 72
8
 73
4
 74
0
 40
0
 40
0
 40
0
 40
0
 40
1
 40
1
 40
1
 40
1
 10
2148.764321
 20
118.653966
 30
0.0
 10
2146.966380
 20
119.692008
 30
0.0
 10
2144.751225
 20
119.692008
 30
0.0
 10
2142.953284
 20
118.653966
 30
0.0
  0
SPLINE
  5
11d
100
AcDbEntity
  8
0
 62
7
100
AcDbSpline
 70
8
 71
3
 72
8
 73
4
 74
0
 40
0
 40
0
 40
0
 40
0
 40
1
 40
1
 40
1
 40
1
 10
2142.953284
 20
118.653966
 30
0.0
 10
2141.155342
 20
117.615924
 30
0.0
 10
2140.047765
 20
115.697544
 30
0.0
 10
2140.047765
 20
113.621460
 30
0.0
  0
SPLINE
  5
11e
100
AcDbEntity
  8
0
 62
7
100
AcDbSpline
 70
8
 71
3
 72
8
 73
4
 74
0
 40
0
 40
0
 40
0
 40
0
 40
1
 40
1
 40
1
 40
1
 10
2140.047765
 20
113.621460
 30
0.0
 10
2140.047765
 20
111.545376
 30
0.0
 10
2141.155342
 20
109.626996
 30
0.0
 10
2142.953284
 20
108.588954
 30
0.0
  0
SPLINE
  5
11f
100
AcDbEntity
  8
0
 62
7
100
AcDbSpline
 70
8
 71
3
 72
8
 73
4
 74
0
 40
0
 40
0
 40
0
 40
0
 40
1
 40
1
 40
1
 40
1
 10
2142.953284
 20
108.588954
 30
0.0
 10
2144.751225
 20
107.550912
 30
0.0
 10
2146.966380
 20
107.550912
 30
0.0
 10
2148.764321
 20
108.588954
 30
0.0
  0
SPLINE
  5
120
100
AcDbEntity
  8
0
 62
7
100
AcDbSpline
 70
8
 71
3
 72
8
 73
4
 74
0
 40
0
 40
0
 40
0
 40
0
 40
1
 40
1
 40
1
 40
1
 10
2148.764321
 20
108.588954
 30
0.0
 10
2150.562263
 20
109.626996
 30
0.0
 10
2151.669840
 20
111.545376
 30
0.0
 10
2151.669840
 20
113.621460
 30
0.0
  0
LWPOLYLINE
  5
121
100
AcDbEntity
  8
0
 62
7
100
AcDbPolyline
 90
1
 70
1
 10
1704.834315
 20
109.607085
 30
0.0
  0
SPLINE
  5
122
100
AcDbEntity
  8
0
 62
7
100
AcDbSpline
 70
8
 71
3
 72
8
 73
4
 74
0
 40
0
 40
0
 40
0
 40
0
 40
1
 40
1
 40
1
 40
1
 10
870.755482
 20
833.423377
 30
0.0
 10
870.756775
 20
835.500317
 30
0.0
 10
869.649483
 20
837.420042
 30
0.0
 10
867.851016
 20
838.458885
 30
0.0
  0
SPLINE
  5
123
100
AcDbEntity
  8
0
 62
7
100
AcDbSpline
 70
8
 71
3
 72
8
 73
4
 74
0
 40
0
 40
0
 40
0
 40
0
 40
1
 40
1
 40
1
 40
1
 10
867.851016
 20
838.458885
 30
0.0
 10
866.052548
 20
839.497728
 30
0.0
 10
863.836372
 20
839.497728
 30
0.0
 10
862.037904
 20
838.458885
 30
0.0
  0
SPLINE
  5
124
100
AcDbEntity
  8
0
 62
7
100
AcDbSpline
 70
8
 71
3
 72
8
 73
4
 74
0
 40
0
 40
0
 40
0
 40
0
 40
1
 40
1
 40
1
 40
1
 10
862.037904
 20
838.458885
 30
0.0
 10
860.239437
 20
837.420042
 30
0.0
 10
859.132145
 20
835.500317
 30
0.0
 10
859.133437
 20
833.423377
 30
0.0
  0
SPLINE
  5
125
100
AcDbEntity
  8
0
 62
7
100
AcDbSpline
 70
8
 71
3
 72
8
 73
4
 74
0
 40
0
 40
0
 40
0
 40
0
 40
1
 40
1
 40
1
 40
1
 10
859.133437
 20
833.423377
 30
0.0
 10
859.132145
 20
831.346438
 30
0.0
 10
860.239437
 20
829.426713
 30
0.0
 10
862.037904
 20
828.387870
 30
0.0
  0
SPLINE
  5
126
100
AcDbEntity
  8
0
 62
7
100
AcDbSpline
 70
8
 71
3
 72
8
 73
4
 74
0
 40
0
 40
0
 40
0
 40
0
 40
1
 40
1
 40
1
 40
1
 10
862.037904
 20
828.387870
 30
0.0
 10
863.836372
 20
827.349027
 30
0.0
 10
866.052548
 20
827.349027
 30
0.0
 10
867.851016
 20
828.387870
 30
0.0
  0
SPLINE
  5
127
100
AcDbEntity
  8
0
 62
7
100
AcDbSpline
 70
8
 71
3
 72
8
 73
4
 74
0
 40
0
 40
0
 40
0
 40
0
 40
1
 40
1
 40
1
 40
1
 10
867.851016
 20
828.387870
 30
0.0
 10
869.649483
 20
829.426713
 30
0.0
 10
870.756775
 20
831.346438
 30
0.0
 10
870.755482
 20
833.423377
 30
0.0
  0
LWPOLYLINE
  5
128
100
AcDbEntity
  8
0
 62
7
100
AcDbPolyline
 90
1
 70
1
 10
2151.669840
 20
113.621460
 30
0.0
  0
SPLINE
  5
129
100
AcDbEntity
  8
0
 62
7
100
AcDbSpline
 70
8
 71
3
 72
8
 73
4
 74
0
 40
0
 40
0
 40
0
 40
0
 40
1
 40
1
 40
1
 40
1
 10
628.761765
 20
113.621460
 30
0.0
 10
628.761765
 20
115.697544
 30
0.0
 10
627.654188
 20
117.615924
 30
0.0
 10
625.856246
 20
118.653966
 30
0.0
  0
SPLINE
  5
12a
100
AcDbEntity
  8
0
 62
7
100
AcDbSpline
 70
8
 71
3
 72
8
 73
4
 74
0
 40
0
 40
0
 40
0
 40
0
 40
1
 40
1
 40
1
 40
1
 10
625.856246
 20
118.653966
 30
0.0
 10
624.058305
 20
119.692008
 30
0.0
 10
621.843150
 20
119.692008
 30
0.0
 10
620.045209
 20
118.653966
 30
0.0
  0
SPLINE
  5
12b
100
AcDbEntity
  8
0
 62
7
100
AcDbSpline
 70
8
 71
3
 72
8
 73
4
 74
0
 40
0
 40
0
 40
0
 40
0
 40
1
 40
1
 40
1
 40
1
 10
620.045209
 20
118.653966
 30
0.0
 10
618.247267
 20
117.615924
 30
0.0
 10
617.139690
 20
115.697544
 30
0.0
 10
617.139690
 20
113.621460
 30
0.0
  0
SPLINE
  5
12c
100
AcDbEntity
  8
0
 62
7
100
AcDbSpline
 70
8
 71
3
 72
8
 73
4
 74
0
 40
0
 40
0
 40
0
 40
0
 40
1
 40
1
 40
1
 40
1
 10
617.139690
 20
113.621460
 30
0.0
 10
617.139690
 20
111.545376
 30
0.0
 10
618.247267
 20
109.626996
 30
0.0
 10
620.045209
 20
108.588954
 30
0.0
  0
SPLINE
  5
12d
100
AcDbEntity
  8
0
 62
7
100
AcDbSpline
 70
8
 71
3
 72
8
 73
4
 74
0
 40
0
 40
0
 40
0
 40
0
 40
1
 40
1
 40
1
 40
1
 10
620.045209
 20
108.588954
 30
0.0
 10
621.843150
 20
107.550912
 30
0.0
 10
624.058305
 20
107.550912
 30
0.0
 10
625.856246
 20
108.588954
 30
0.0
  0
SPLINE
  5
12e
100
AcDbEntity
  8
0
 62
7
100
AcDbSpline
 70
8
 71
3
 72
8
 73
4
 74
0
 40
0
 40
0
 40
0
 40
0
 40
1
 40
1
 40
1
 40
1
 10
625.856246
 20
108.588954
 30
0.0
 10
627.654188
 20
109.626996
 30
0.0
 10
628.761765
 20
111.545376
 30
0.0
 10
628.761765
 20
113.621460
 30
0.0
  0
LWPOLYLINE
  5
12f
100
AcDbEntity
  8
0
 62
7
100
AcDbPolyline
 90
1
 70
1
 10
870.755482
 20
833.423377
 30
0.0
  0
SPLINE
  5
130
100
AcDbEntity
  8
0
 62
7
100
AcDbSpline
 70
8
 71
3
 72
8
 73
4
 74
0
 40
0
 40
0
 40
0
 40
0
 40
1
 40
1
 40
1
 40
1
 10
1909.676092
 20
833.423377
 30
0.0
 10
1909.677385
 20
835.500317
 30
0.0
 10
1908.570093
 20
837.420042
 30
0.0
 10
1906.771626
 20
838.458885
 30
0.0
  0
SPLINE
  5
131
100
AcDbEntity
  8
0
 62
7
100
AcDbSpline
 70
8
 71
3
 72
8
 73
4
 74
0
 40
0
 40
0
 40
0
 40
0
 40
1
 40
1
 40
1
 40
1
 10
1906.771626
 20
838.458885
 30
0.0
 10
1904.973158
 20
839.497728
 30
0.0
 10
1902.756982
 20
839.497728
 30
0.0
 10
1900.958514
 20
838.458885
 30
0.0
  0
SPLINE
  5
132
100
AcDbEntity
  8
0
 62
7
100
AcDbSpline
 70
8
 71
3
 72
8
 73
4
 74
0
 40
0
 40
0
 40
0
 40
0
 40
1
 40
1
 40
1
 40
1
 10
1900.958514
 20
838.458885
 30
0.0
 10
1899.160047
 20
837.420042
 30
0.0
 10
1898.052755
 20
835.500317
 30
0.0
 10
1898.054047
 20
833.423377
 30
0.0
  0
SPLINE
  5
133
100
AcDbEntity
  8
0
 62
7
100
AcDbSpline
 70
8
 71
3
 72
8
 73
4
 74
0
 40
0
 40
0
 40
0
 40
0
 40
1
 40
1
 40
1
 40
1
 10
1898.054047
 20
833.423377
 30
0.0
 10
1898.052755
 20
831.346438
 30
0.0
 10
1899.160047
 20
829.426713
 30
0.0
 10
1900.958514
 20
828.387870
 30
0.0
  0
SPLINE
  5
134
100
AcDbEntity
  8
0
 62
7
100
AcDbSpline
 70
8
 71
3
 72
8
 73
4
 74
0
 40
0
 40
0
 40
0
 40
0
 40
1
 40
1
 40
1
 40
1
 10
1900.958514
 20
828.387870
 30
0.0
 10
1902.756982
 20
827.349027
 30
0.0
 10
1904.973158
 20
827.349027
 30
0.0
 10
1906.771626
 20
828.387870
 30
0.0
  0
SPLINE
  5
135
100
AcDbEntity
  8
0
 62
7
100
AcDbSpline
 70
8
 71
3
 72
8
 73
4
 74
0
 40
0
 40
0
 40
0
 40
0
 40
1
 40
1
 40
1
 40
1
 10
1906.771626
 20
828.387870
 30
0.0
 10
1908.570093
 20
829.426713
 30
0.0
 10
1909.677385
 20
831.346438
 30
0.0
 10
1909.676092
 20
833.423377
 30
0.0
  0
LWPOLYLINE
  5
136
100
AcDbEntity
  8
0
 62
7
100
AcDbPolyline
 90
1
 70
1
 10
628.761765
 20
113.621460
 30
0.0
  0
SPLINE
  5
137
100
AcDbEntity
  8
0
 62
7
100
AcDbSpline
 70
8
 71
3
 72
8
 73
4
 74
0
 40
0
 40
0
 40
0
 40
0
 40
1
 40
1
 40
1
 40
1
 10
1075.597260
 20
109.607085
 30
0.0
 10
1075.598552
 20
111.684025
 30
0.0
 10
1074.491260
 20
113.603749
 30
0.0
 10
1072.692793
 20
114.642592
 30
0.0
  0
SPLINE
  5
138
100
AcDbEntity
  8
0
 62
7
100
AcDbSpline
 70
8
 71
3
 72
8
 73
4
 74
0
 40
0
 40
0
 40
0
 40
0
 40
1
 40
1
 40
1
 40
1
 10
1072.692793
 20
114.642592
 30
0.0
 10
1070.894326
 20
115.681435
 30
0.0
 10
1068.678149
 20
115.681435
 30
0.0
 10
1066.879682
 20
114.642592
 30
0.0
  0
SPLINE
  5
139
100
AcDbEntity
  8
0
 62
7
100
AcDbSpline
 70
8
 71
3
 72
8
 73
4
 74
0
 40
0
 40
0
 40
0
 40
0
 40
1
 40
1
 40
1
 40
1
 10
1066.879682
 20
114.642592
 30
0.0
 10
1065.081215
 20
113.603749
 30
0.0
 10
1063.973923
 20
111.684025
 30
0.0
 10
1063.975215
 20
109.607085
 30
0.0
  0
SPLINE
  5
13a
100
AcDbEntity
  8
0
 62
7
100
AcDbSpline
 70
8
 71
3
 72
8
 73
4
 74
0
 40
0
 40
0
 40
0
 40
0
 40
1
 40
1
 40
1
 40
1
 10
1063.975215
 20
109.607085
 30
0.0
 10
1063.973923
 20
107.530145
 30
0.0
 10
1065.081215
 20
105.610421
 30
0.0
 10
1066.879682
 20
104.571578
 30
0.0
  0
SPLINE
  5
13b
100
AcDbEntity
  8
0
 62
7
100
AcDbSpline
 70
8
 71
3
 72
8
 73
4
 74
0
 40
0
 40
0
 40
0
 40
0
 40
1
 40
1
 40
1
 40
1
 10
1066.879682
 20
104.571578
 30
0.0
 10
1068.678149
 20
103.532735
 30
0.0
 10
1070.894326
 20
103.532735
 30
0.0
 10
1072.692793
 20
104.571578
 30
0.0
  0
SPLINE
  5
13c
100
AcDbEntity
  8
0
 62
7
100
AcDbSpline
 70
8
 71
3
 72
8
 73
4
 74
0
 40
0
 40
0
 40
0
 40
0
 40
1
 40
1
 40
1
 40
1
 10
1072.692793
 20
104.571578
 30
0.0
 10
1074.491260
 20
105.610421
 30
0.0
 10
1075.598552
 20
107.530145
 30
0.0
 10
1075.597260
 20
109.607085
 30
0.0
  0
LWPOLYLINE
  5
13d
100
AcDbEntity
  8
0
 62
7
100
AcDbPolyline
 90
1
 70
1
 10
1909.676092
 20
833.423377
 30
0.0
  0
SPLINE
  5
13e
100
AcDbEntity
  8
0
 62
7
100
AcDbSpline
 70
8
 71
3
 72
8
 73
4
 74
0
 40
0
 40
0
 40
0
 40
0
 40
1
 40
1
 40
1
 40
1
 10
1210.912965
 20
902.584591
 30
0.0
 10
1210.914257
 20
904.661530
 30
0.0
 10
1209.806965
 20
906.581255
 30
0.0
 10
1208.008498
 20
907.620098
 30
0.0
  0
SPLINE
  5
13f
100
AcDbEntity
  8
0
 62
7
100
AcDbSpline
 70
8
 71
3
 72
8
 73
4
 74
0
 40
0
 40
0
 40
0
 40
0
 40
1
 40
1
 40
1
 40
1
 10
1208.008498
 20
907.620098
 30
0.0
 10
1206.210031
 20
908.658941
 30
0.0
 10
1203.993854
 20
908.658941
 30
0.0
 10
1202.195387
 20
907.620098
 30
0.0
  0
SPLINE
  5
140
100
AcDbEntity
  8
0
 62
7
100
AcDbSpline
 70
8
 71
3
 72
8
 73
4
 74
0
 40
0
 40
0
 40
0
 40
0
 40
1
 40
1
 40
1
 40
1
 10
1202.195387
 20
907.620098
 30
0.0
 10
1200.396920
 20
906.581255
 30
0.0
 10
1199.289628
 20
904.661530
 30
0.0
 10
1199.290920
 20
902.584591
 30
0.0
  0
SPLINE
  5
141
100
AcDbEntity
  8
0
 62
7
100
AcDbSpline
 70
8
 71
3
 72
8
 73
4
 74
0
 40
0
 40
0
 40
0
 40
0
 40
1
 40
1
 40
1
 40
1
 10
1199.290920
 20
902.584591
 30
0.0
 10
1199.289628
 20
900.507651
 30
0.0
 10
1200.396920
 20
898.587927
 30
0.0
 10
1202.195387
 20
897.549084
 30
0.0
  0
SPLINE
  5
142
100
AcDbEntity
  8
0
 62
7
100
AcDbSpline
 70
8
 71
3
 72
8
 73
4
 74
0
 40
0
 40
0
 40
0
 40
0
 40
1
 40
1
 40
1
 40
1
 10
1202.195387
 20
897.549084
 30
0.0
 10
1203.993854
 20
896.510240
 30
0.0
 10
1206.210031
 20
896.510240
 30
0.0
 10
1208.008498
 20
897.549084
 30
0.0
  0
SPLINE
  5
143
100
AcDbEntity
  8
0
 62
7
100
AcDbSpline
 70
8
 71
3
 72
8
 73
4
 74
0
 40
0
 40
0
 40
0
 40
0
 40
1
 40
1
 40
1
 40
1
 10
1208.008498
 20
897.549084
 30
0.0
 10
1209.806965
 20
898.587927
 30
0.0
 10
1210.914257
 20
900.507651
 30
0.0
 10
1210.912965
 20
902.584591
 30
0.0
  0
LWPOLYLINE
  5
144
100
AcDbEntity
  8
0
 62
7
100
AcDbPolyline
 90
1
 70
1
 10
1075.597260
 20
109.607085
 30
0.0
  0
SPLINE
  5
145
100
AcDbEntity
  8
0
 62
7
100
AcDbSpline
 70
8
 71
3
 72
8
 73
4
 74
0
 40
0
 40
0
 40
0
 40
0
 40
1
 40
1
 40
1
 40
1
 10
1267.414530
 20
16.694085
 30
0.0
 10
1267.414530
 20
18.770165
 30
0.0
 10
1266.306955
 20
20.688541
 30
0.0
 10
1264.509017
 20
21.726581
 30
0.0
  0
SPLINE
  5
146
100
AcDbEntity
  8
0
 62
7
100
AcDbSpline
 70
8
 71
3
 72
8
 73
4
 74
0
 40
0
 40
0
 40
0
 40
0
 40
1
 40
1
 40
1
 40
1
 10
1264.509017
 20
21.726581
 30
0.0
 10
1262.711079
 20
22.764621
 30
0.0
 10
1260.495928
 20
22.764621
 30
0.0
 10
1258.697991
 20
21.726581
 30
0.0
  0
SPLINE
  5
147
100
AcDbEntity
  8
0
 62
7
100
AcDbSpline
 70
8
 71
3
 72
8
 73
4
 74
0
 40
0
 40
0
 40
0
 40
0
 40
1
 40
1
 40
1
 40
1
 10
1258.697991
 20
21.726581
 30
0.0
 10
1256.900053
 20
20.688541
 30
0.0
 10
1255.792477
 20
18.770165
 30
0.0
 10
1255.792477
 20
16.694085
 30
0.0
  0
SPLINE
  5
148
100
AcDbEntity
  8
0
 62
7
100
AcDbSpline
 70
8
 71
3
 72
8
 73
4
 74
0
 40
0
 40
0
 40
0
 40
0
 40
1
 40
1
 40
1
 40
1
 10
1255.792477
 20
16.694085
 30
0.0
 10
1255.792477
 20
14.618005
 30
0.0
 10
1256.900053
 20
12.699629
 30
0.0
 10
1258.697991
 20
11.661589
 30
0.0
  0
SPLINE
  5
149
100
AcDbEntity
  8
0
 62
7
100
AcDbSpline
 70
8
 71
3
 72
8
 73
4
 74
0
 40
0
 40
0
 40
0
 40
0
 40
1
 40
1
 40
1
 40
1
 10
1258.697991
 20
11.661589
 30
0.0
 10
1260.495928
 20
10.623549
 30
0.0
 10
1262.711079
 20
10.623549
 30
0.0
 10
1264.509017
 20
11.661589
 30
0.0
  0
SPLINE
  5
14a
100
AcDbEntity
  8
0
 62
7
100
AcDbSpline
 70
8
 71
3
 72
8
 73
4
 74
0
 40
0
 40
0
 40
0
 40
0
 40
1
 40
1
 40
1
 40
1
 10
1264.509017
 20
11.661589
 30
0.0
 10
1266.306955
 20
12.699629
 30
0.0
 10
1267.414530
 20
14.618005
 30
0.0
 10
1267.414530
 20
16.694085
 30
0.0
  0
LWPOLYLINE
  5
14b
100
AcDbEntity
  8
0
 62
7
100
AcDbPolyline
 90
1
 70
1
 10
1210.912965
 20
902.584591
 30
0.0
  0
SPLINE
  5
14c
100
AcDbEntity
  8
0
 62
7
100
AcDbSpline
 70
8
 71
3
 72
8
 73
4
 74
0
 40
0
 40
0
 40
0
 40
0
 40
1
 40
1
 40
1
 40
1
 10
2276.744940
 20
804.489412
 30
0.0
 10
2276.744940
 20
806.565496
 30
0.0
 10
2275.637363
 20
808.483877
 30
0.0
 10
2273.839421
 20
809.521919
 30
0.0
  0
SPLINE
  5
14d
100
AcDbEntity
  8
0
 62
7
100
AcDbSpline
 70
8
 71
3
 72
8
 73
4
 74
0
 40
0
 40
0
 40
0
 40
0
 40
1
 40
1
 40
1
 40
1
 10
2273.839421
 20
809.521919
 30
0.0
 10
2272.041480
 20
810.559960
 30
0.0
 10
2269.826325
 20
810.559960
 30
0.0
 10
2268.028384
 20
809.521919
 30
0.0
  0
SPLINE
  5
14e
100
AcDbEntity
  8
0
 62
7
100
AcDbSpline
 70
8
 71
3
 72
8
 73
4
 74
0
 40
0
 40
0
 40
0
 40
0
 40
1
 40
1
 40
1
 40
1
 10
2268.028384
 20
809.521919
 30
0.0
 10
2266.230442
 20
808.483877
 30
0.0
 10
2265.122865
 20
806.565496
 30
0.0
 10
2265.122865
 20
804.489412
 30
0.0
  0
SPLINE
  5
14f
100
AcDbEntity
  8
0
 62
7
100
AcDbSpline
 70
8
 71
3
 72
8
 73
4
 74
0
 40
0
 40
0
 40
0
 40
0
 40
1
 40
1
 40
1
 40
1
 10
2265.122865
 20
804.489412
 30
0.0
 10
2265.122865
 20
802.413329
 30
0.0
 10
2266.230442
 20
800.494948
 30
0.0
 10
2268.028384
 20
799.456906
 30
0.0
  0
SPLINE
  5
150
100
AcDbEntity
  8
0
 62
7
100
AcDbSpline
 70
8
 71
3
 72
8
 73
4
 74
0
 40
0
 40
0
 40
0
 40
0
 40
1
 40
1
 40
1
 40
1
 10
2268.028384
 20
799.456906
 30
0.0
 10
2269.826325
 20
798.418865
 30
0.0
 10
2272.041480
 20
798.418865
 30
0.0
 10
2273.839421
 20
799.456906
 30
0.0
  0
SPLINE
  5
151
100
AcDbEntity
  8
0
 62
7
100
AcDbSpline
 70
8
 71
3
 72
8
 73
4
 74
0
 40
0
 40
0
 40
0
 40
0
 40
1
 40
1
 40
1
 40
1
 10
2273.839421
 20
799.456906
 30
0.0
 10
2275.637363
 20
800.494948
 30
0.0
 10
2276.744940
 20
802.413329
 30
0.0
 10
2276.744940
 20
804.489412
 30
0.0
  0
LWPOLYLINE
  5
152
100
AcDbEntity
  8
0
 62
7
100
AcDbPolyline
 90
1
 70
1
 10
1267.414530
 20
16.694085
 30
0.0
  0
SPLINE
  5
153
100
AcDbEntity
  8
0
 62
7
100
AcDbSpline
 70
8
 71
3
 72
8
 73
4
 74
0
 40
0
 40
0
 40
0
 40
0
 40
1
 40
1
 40
1
 40
1
 10
503.686665
 20
804.489412
 30
0.0
 10
503.686665
 20
806.565496
 30
0.0
 10
502.579088
 20
808.483877
 30
0.0
 10
500.781146
 20
809.521919
 30
0.0
  0
SPLINE
  5
154
100
AcDbEntity
  8
0
 62
7
100
AcDbSpline
 70
8
 71
3
 72
8
 73
4
 74
0
 40
0
 40
0
 40
0
 40
0
 40
1
 40
1
 40
1
 40
1
 10
500.781146
 20
809.521919
 30
0.0
 10
498.983205
 20
810.559960
 30
0.0
 10
496.768050
 20
810.559960
 30
0.0
 10
494.970109
 20
809.521919
 30
0.0
  0
SPLINE
  5
155
100
AcDbEntity
  8
0
 62
7
100
AcDbSpline
 70
8
 71
3
 72
8
 73
4
 74
0
 40
0
 40
0
 40
0
 40
0
 40
1
 40
1
 40
1
 40
1
 10
494.970109
 20
809.521919
 30
0.0
 10
493.172167
 20
808.483877
 30
0.0
 10
492.064590
 20
806.565496
 30
0.0
 10
492.064590
 20
804.489412
 30
0.0
  0
SPLINE
  5
156
100
AcDbEntity
  8
0
 62
7
100
AcDbSpline
 70
8
 71
3
 72
8
 73
4
 74
0
 40
0
 40
0
 40
0
 40
0
 40
1
 40
1
 40
1
 40
1
 10
492.064590
 20
804.489412
 30
0.0
 10
492.064590
 20
802.413329
 30
0.0
 10
493.172167
 20
800.494948
 30
0.0
 10
494.970109
 20
799.456906
 30
0.0
  0
SPLINE
  5
157
100
AcDbEntity
  8
0
 62
7
100
AcDbSpline
 70
8
 71
3
 72
8
 73
4
 74
0
 40
0
 40
0
 40
0
 40
0
 40
1
 40
1
 40
1
 40
1
 10
494.970109
 20
799.456906
 30
0.0
 10
496.768050
 20
798.418865
 30
0.0
 10
498.983205
 20
798.418865
 30
0.0
 10
500.781146
 20
799.456906
 30
0.0
  0
SPLINE
  5
158
100
AcDbEntity
  8
0
 62
7
100
AcDbSpline
 70
8
 71
3
 72
8
 73
4
 74
0
 40
0
 40
0
 40
0
 40
0
 40
1
 40
1
 40
1
 40
1
 10
500.781146
 20
799.456906
 30
0.0
 10
502.579088
 20
800.494948
 30
0.0
 10
503.686665
 20
802.413329
 30
0.0
 10
503.686665
 20
804.489412
 30
0.0
  0
LWPOLYLINE
  5
159
100
AcDbEntity
  8
0
 62
7
100
AcDbPolyline
 90
1
 70
1
 10
2276.744940
 20
804.489412
 30
0.0
  0
SPLINE
  5
15a
100
AcDbEntity
  8
0
 62
7
100
AcDbSpline
 70
8
 71
3
 72
8
 73
4
 74
0
 40
0
 40
0
 40
0
 40
0
 40
1
 40
1
 40
1
 40
1
 10
2581.208040
 20
125.243085
 30
0.0
 10
2581.208040
 20
127.319169
 30
0.0
 10
2580.100463
 20
129.237549
 30
0.0
 10
2578.302521
 20
130.275591
 30
0.0
  0
SPLINE
  5
15b
100
AcDbEntity
  8
0
 62
7
100
AcDbSpline
 70
8
 71
3
 72
8
 73
4
 74
0
 40
0
 40
0
 40
0
 40
0
 40
1
 40
1
 40
1
 40
1
 10
2578.302521
 20
130.275591
 30
0.0
 10
2576.504580
 20
131.313633
 30
0.0
 10
2574.289425
 20
131.313633
 30
0.0
 10
2572.491484
 20
130.275591
 30
0.0
  0
SPLINE
  5
15c
100
AcDbEntity
  8
0
 62
7
100
AcDbSpline
 70
8
 71
3
 72
8
 73
4
 74
0
 40
0
 40
0
 40
0
 40
0
 40
1
 40
1
 40
1
 40
1
 10
2572.491484
 20
130.275591
 30
0.0
 10
2570.693542
 20
129.237549
 30
0.0
 10
2569.585965
 20
127.319169
 30
0.0
 10
2569.585965
 20
125.243085
 30
0.0
  0
SPLINE
  5
15d
100
AcDbEntity
  8
0
 62
7
100
AcDbSpline
 70
8
 71
3
 72
8
 73
4
 74
0
 40
0
 40
0
 40
0
 40
0
 40
1
 40
1
 40
1
 40
1
 10
2569.585965
 20
125.243085
 30
0.0
 10
2569.585965
 20
123.167001
 30
0.0
 10
2570.693542
 20
121.248621
 30
0.0
 10
2572.491484
 20
120.210579
 30
0.0
  0
SPLINE
  5
15e
100
AcDbEntity
  8
0
 62
7
100
AcDbSpline
 70
8
 71
3
 72
8
 73
4
 74
0
 40
0
 40
0
 40
0
 40
0
 40
1
 40
1
 40
1
 40
1
 10
2572.491484
 20
120.210579
 30
0.0
 10
2574.289425
 20
119.172537
 30
0.0
 10
2576.504580
 20
119.172537
 30
0.0
 10
2578.302521
 20
120.210579
 30
0.0
  0
SPLINE
  5
15f
100
AcDbEntity
  8
0
 62
7
100
AcDbSpline
 70
8
 71
3
 72
8
 73
4
 74
0
 40
0
 40
0
 40
0
 40
0
 40
1
 40
1
 40
1
 40
1
 10
2578.302521
 20
120.210579
 30
0.0
 10
2580.100463
 20
121.248621
 30
0.0
 10
2581.208040
 20
123.167001
 30
0.0
 10
2581.208040
 20
125.243085
 30
0.0
  0
LWPOLYLINE
  5
160
100
AcDbEntity
  8
0
 62
7
100
AcDbPolyline
 90
1
 70
1
 10
503.686665
 20
804.489412
 30
0.0
  0
SPLINE
  5
161
100
AcDbEntity
  8
0
 62
7
100
AcDbSpline
 70
8
 71
3
 72
8
 73
4
 74
0
 40
0
 40
0
 40
0
 40
0
 40
1
 40
1
 40
1
 40
1
 10
199.223565
 20
125.243085
 30
0.0
 10
199.223565
 20
127.319169
 30
0.0
 10
198.115988
 20
129.237549
 30
0.0
 10
196.318046
 20
130.275591
 30
0.0
  0
SPLINE
  5
162
100
AcDbEntity
  8
0
 62
7
100
AcDbSpline
 70
8
 71
3
 72
8
 73
4
 74
0
 40
0
 40
0
 40
0
 40
0
 40
1
 40
1
 40
1
 40
1
 10
196.318046
 20
130.275591
 30
0.0
 10
194.520105
 20
131.313633
 30
0.0
 10
192.304950
 20
131.313633
 30
0.0
 10
190.507009
 20
130.275591
 30
0.0
  0
SPLINE
  5
163
100
AcDbEntity
  8
0
 62
7
100
AcDbSpline
 70
8
 71
3
 72
8
 73
4
 74
0
 40
0
 40
0
 40
0
 40
0
 40
1
 40
1
 40
1
 40
1
 10
190.507009
 20
130.275591
 30
0.0
 10
188.709067
 20
129.237549
 30
0.0
 10
187.601490
 20
127.319169
 30
0.0
 10
187.601490
 20
125.243085
 30
0.0
  0
SPLINE
  5
164
100
AcDbEntity
  8
0
 62
7
100
AcDbSpline
 70
8
 71
3
 72
8
 73
4
 74
0
 40
0
 40
0
 40
0
 40
0
 40
1
 40
1
 40
1
 40
1
 10
187.601490
 20
125.243085
 30
0.0
 10
187.601490
 20
123.167001
 30
0.0
 10
188.709067
 20
121.248621
 30
0.0
 10
190.507009
 20
120.210579
 30
0.0
  0
SPLINE
  5
165
100
AcDbEntity
  8
0
 62
7
100
AcDbSpline
 70
8
 71
3
 72
8
 73
4
 74
0
 40
0
 40
0
 40
0
 40
0
 40
1
 40
1
 40
1
 40
1
 10
190.507009
 20
120.210579
 30
0.0
 10
192.304950
 20
119.172537
 30
0.0
 10
194.520105
 20
119.172537
 30
0.0
 10
196.318046
 20
120.210579
 30
0.0
  0
SPLINE
  5
166
100
AcDbEntity
  8
0
 62
7
100
AcDbSpline
 70
8
 71
3
 72
8
 73
4
 74
0
 40
0
 40
0
 40
0
 40
0
 40
1
 40
1
 40
1
 40
1
 10
196.318046
 20
120.210579
 30
0.0
 10
198.115988
 20
121.248621
 30
0.0
 10
199.223565
 20
123.167001
 30
0.0
 10
199.223565
 20
125.243085
 30
0.0
  0
LWPOLYLINE
  5
167
100
AcDbEntity
  8
0
 62
7
100
AcDbPolyline
 90
1
 70
1
 10
2581.208040
 20
125.243085
 30
0.0
  0
SPLINE
  5
168
100
AcDbEntity
  8
0
 62
7
100
AcDbSpline
 70
8
 71
3
 72
8
 73
4
 74
0
 40
0
 40
0
 40
0
 40
0
 40
1
 40
1
 40
1
 40
1
 10
26.133540
 20
304.714627
 30
0.0
 10
26.133540
 20
306.790711
 30
0.0
 10
25.025963
 20
308.709092
 30
0.0
 10
23.228021
 20
309.747134
 30
0.0
  0
SPLINE
  5
169
100
AcDbEntity
  8
0
 62
7
100
AcDbSpline
 70
8
 71
3
 72
8
 73
4
 74
0
 40
0
 40
0
 40
0
 40
0
 40
1
 40
1
 40
1
 40
1
 10
23.228021
 20
309.747134
 30
0.0
 10
21.430080
 20
310.785175
 30
0.0
 10
19.214925
 20
310.785175
 30
0.0
 10
17.416984
 20
309.747134
 30
0.0
  0
SPLINE
  5
16a
100
AcDbEntity
  8
0
 62
7
100
AcDbSpline
 70
8
 71
3
 72
8
 73
4
 74
0
 40
0
 40
0
 40
0
 40
0
 40
1
 40
1
 40
1
 40
1
 10
17.416984
 20
309.747134
 30
0.0
 10
15.619042
 20
308.709092
 30
0.0
 10
14.511465
 20
306.790711
 30
0.0
 10
14.511465
 20
304.714627
 30
0.0
  0
SPLINE
  5
16b
100
AcDbEntity
  8
0
 62
7
100
AcDbSpline
 70
8
 71
3
 72
8
 73
4
 74
0
 40
0
 40
0
 40
0
 40
0
 40
1
 40
1
 40
1
 40
1
 10
14.511465
 20
304.714627
 30
0.0
 10
14.511465
 20
302.638544
 30
0.0
 10
15.619042
 20
300.720163
 30
0.0
 10
17.416983
 20
299.682121
 30
0.0
  0
SPLINE
  5
16c
100
AcDbEntity
  8
0
 62
7
100
AcDbSpline
 70
8
 71
3
 72
8
 73
4
 74
0
 40
0
 40
0
 40
0
 40
0
 40
1
 40
1
 40
1
 40
1
 10
17.416983
 20
299.682121
 30
0.0
 10
19.214925
 20
298.644078
 30
0.0
 10
21.430080
 20
298.644078
 30
0.0
 10
23.228022
 20
299.682121
 30
0.0
  0
SPLINE
  5
16d
100
AcDbEntity
  8
0
 62
7
100
AcDbSpline
 70
8
 71
3
 72
8
 73
4
 74
0
 40
0
 40
0
 40
0
 40
0
 40
1
 40
1
 40
1
 40
1
 10
23.228022
 20
299.682121
 30
0.0
 10
25.025963
 20
300.720163
 30
0.0
 10
26.133540
 20
302.638544
 30
0.0
 10
26.133540
 20
304.714627
 30
0.0
  0
LWPOLYLINE
  5
16e
100
AcDbEntity
  8
0
 62
7
100
AcDbPolyline
 90
1
 70
1
 10
199.223565
 20
125.243085
 30
0.0
  0
SPLINE
  5
16f
100
AcDbEntity
  8
0
 62
7
100
AcDbSpline
 70
8
 71
3
 72
8
 73
4
 74
0
 40
0
 40
0
 40
0
 40
0
 40
1
 40
1
 40
1
 40
1
 10
73.367490
 20
643.174582
 30
0.0
 10
73.367490
 20
645.250666
 30
0.0
 10
72.259913
 20
647.169047
 30
0.0
 10
70.461971
 20
648.207089
 30
0.0
  0
SPLINE
  5
170
100
AcDbEntity
  8
0
 62
7
100
AcDbSpline
 70
8
 71
3
 72
8
 73
4
 74
0
 40
0
 40
0
 40
0
 40
0
 40
1
 40
1
 40
1
 40
1
 10
70.461971
 20
648.207089
 30
0.0
 10
68.664030
 20
649.245130
 30
0.0
 10
66.448875
 20
649.245130
 30
0.0
 10
64.650934
 20
648.207089
 30
0.0
  0
SPLINE
  5
171
100
AcDbEntity
  8
0
 62
7
100
AcDbSpline
 70
8
 71
3
 72
8
 73
4
 74
0
 40
0
 40
0
 40
0
 40
0
 40
1
 40
1
 40
1
 40
1
 10
64.650934
 20
648.207089
 30
0.0
 10
62.852992
 20
647.169047
 30
0.0
 10
61.745415
 20
645.250666
 30
0.0
 10
61.745415
 20
643.174582
 30
0.0
  0
SPLINE
  5
172
100
AcDbEntity
  8
0
 62
7
100
AcDbSpline
 70
8
 71
3
 72
8
 73
4
 74
0
 40
0
 40
0
 40
0
 40
0
 40
1
 40
1
 40
1
 40
1
 10
61.745415
 20
643.174582
 30
0.0
 10
61.745415
 20
641.098499
 30
0.0
 10
62.852992
 20
639.180118
 30
0.0
 10
64.650934
 20
638.142076
 30
0.0
  0
SPLINE
  5
173
100
AcDbEntity
  8
0
 62
7
100
AcDbSpline
 70
8
 71
3
 72
8
 73
4
 74
0
 40
0
 40
0
 40
0
 40
0
 40
1
 40
1
 40
1
 40
1
 10
64.650934
 20
638.142076
 30
0.0
 10
66.448875
 20
637.104035
 30
0.0
 10
68.664030
 20
637.104035
 30
0.0
 10
70.461971
 20
638.142076
 30
0.0
  0
SPLINE
  5
174
100
AcDbEntity
  8
0
 62
7
100
AcDbSpline
 70
8
 71
3
 72
8
 73
4
 74
0
 40
0
 40
0
 40
0
 40
0
 40
1
 40
1
 40
1
 40
1
 10
70.461971
 20
638.142076
 30
0.0
 10
72.259913
 20
639.180118
 30
0.0
 10
73.367490
 20
641.098499
 30
0.0
 10
73.367490
 20
643.174582
 30
0.0
  0
LWPOLYLINE
  5
175
100
AcDbEntity
  8
0
 62
7
100
AcDbPolyline
 90
1
 70
1
 10
26.133540
 20
304.714627
 30
0.0
  0
SPLINE
  5
176
100
AcDbEntity
  8
0
 62
7
100
AcDbSpline
 70
8
 71
3
 72
8
 73
4
 74
0
 40
0
 40
0
 40
0
 40
0
 40
1
 40
1
 40
1
 40
1
 10
2707.064115
 20
643.174582
 30
0.0
 10
2707.064115
 20
645.250666
 30
0.0
 10
2705.956538
 20
647.169047
 30
0.0
 10
2704.158596
 20
648.207089
 30
0.0
  0
SPLINE
  5
177
100
AcDbEntity
  8
0
 62
7
100
AcDbSpline
 70
8
 71
3
 72
8
 73
4
 74
0
 40
0
 40
0
 40
0
 40
0
 40
1
 40
1
 40
1
 40
1
 10
2704.158596
 20
648.207089
 30
0.0
 10
2702.360655
 20
649.245130
 30
0.0
 10
2700.145500
 20
649.245130
 30
0.0
 10
2698.347559
 20
648.207089
 30
0.0
  0
SPLINE
  5
178
100
AcDbEntity
  8
0
 62
7
100
AcDbSpline
 70
8
 71
3
 72
8
 73
4
 74
0
 40
0
 40
0
 40
0
 40
0
 40
1
 40
1
 40
1
 40
1
 10
2698.347559
 20
648.207089
 30
0.0
 10
2696.549617
 20
647.169047
 30
0.0
 10
2695.442040
 20
645.250666
 30
0.0
 10
2695.442040
 20
643.174582
 30
0.0
  0
SPLINE
  5
179
100
AcDbEntity
  8
0
 62
7
100
AcDbSpline
 70
8
 71
3
 72
8
 73
4
 74
0
 40
0
 40
0
 40
0
 40
0
 40
1
 40
1
 40
1
 40
1
 10
2695.442040
 20
643.174582
 30
0.0
 10
2695.442040
 20
641.098499
 30
0.0
 10
2696.549617
 20
639.180118
 30
0.0
 10
2698.347559
 20
638.142076
 30
0.0
  0
SPLINE
  5
17a
100
AcDbEntity
  8
0
 62
7
100
AcDbSpline
 70
8
 71
3
 72
8
 73
4
 74
0
 40
0
 40
0
 40
0
 40
0
 40
1
 40
1
 40
1
 40
1
 10
2698.347559
 20
638.142076
 30
0.0
 10
2700.145500
 20
637.104035
 30
0.0
 10
2702.360655
 20
637.104035
 30
0.0
 10
2704.158596
 20
638.142076
 30
0.0
  0
SPLINE
  5
17b
100
AcDbEntity
  8
0
 62
7
100
AcDbSpline
 70
8
 71
3
 72
8
 73
4
 74
0
 40
0
 40
0
 40
0
 40
0
 40
1
 40
1
 40
1
 40
1
 10
2704.158596
 20
638.142076
 30
0.0
 10
2705.956538
 20
639.180118
 30
0.0
 10
2707.064115
 20
641.098499
 30
0.0
 10
2707.064115
 20
643.174582
 30
0.0
  0
LWPOLYLINE
  5
17c
100
AcDbEntity
  8
0
 62
7
100
AcDbPolyline
 90
1
 70
1
 10
73.367490
 20
643.174582
 30
0.0
  0
SPLINE
  5
17d
100
AcDbEntity
  8
0
 62
7
100
AcDbSpline
 70
8
 71
3
 72
8
 73
4
 74
0
 40
0
 40
0
 40
0
 40
0
 40
1
 40
1
 40
1
 40
1
 10
1542.378757
 20
17.169060
 30
0.0
 10
1611.966840
 20
74.482860
 30
0.0
 10
1676.893980
 20
99.448185
 30
0.0
 10
1744.377622
 20
99.448185
 30
0.0
  0
SPLINE
  5
17e
100
AcDbEntity
  8
0
 62
7
100
AcDbSpline
 70
8
 71
3
 72
8
 73
4
 74
0
 40
0
 40
0
 40
0
 40
0
 40
1
 40
1
 40
1
 40
1
 10
1024.431907
 20
99.448185
 30
0.0
 10
1091.915550
 20
99.448185
 30
0.0
 10
1156.842690
 20
74.482860
 30
0.0
 10
1226.430772
 20
17.169060
 30
0.0
  0
LWPOLYLINE
  5
17f
100
AcDbEntity
  8
0
 62
7
100
AcDbPolyline
 90
1
 70
1
 10
2707.064115
 20
643.174582
 30
0.0
  0
LWPOLYLINE
  5
180
100
AcDbEntity
  8
0
 62
7
100
AcDbPolyline
 90
2
 70
0
 10
167.617665
 20
183.905760
 30
0.0
 10
167.617665
 20
153.300135
 30
0.0
  0
LWPOLYLINE
  5
181
100
AcDbEntity
  8
0
 62
7
100
AcDbPolyline
 90
2
 70
0
 10
34.353240
 20
284.729655
 30
0.0
 10
66.793815
 20
284.729655
 30
0.0
  0
LWPOLYLINE
  5
182
100
AcDbEntity
  8
0
 62
7
100
AcDbPolyline
 90
2
 70
0
 10
0.337515
 20
461.893140
 30
0.0
 10
0.337515
 20
318.745402
 30
0.0
  0
LWPOLYLINE
  5
183
100
AcDbEntity
  8
0
 62
7
100
AcDbPolyline
 90
2
 70
0
 10
639.607927
 20
818.662642
 30
0.0
 10
338.266515
 20
818.662642
 30
0.0
  0
LWPOLYLINE
  5
184
100
AcDbEntity
  8
0
 62
7
100
AcDbPolyline
 90
2
 70
0
 10
1648.746960
 20
916.757819
 30
0.0
 10
1120.062570
 20
916.757819
 30
0.0
  0
LWPOLYLINE
  5
185
100
AcDbEntity
  8
0
 62
7
100
AcDbPolyline
 90
2
 70
0
 10
2430.543015
 20
818.662642
 30
0.0
 10
2129.201602
 20
818.662642
 30
0.0
  0
LWPOLYLINE
  5
186
100
AcDbEntity
  8
0
 62
7
100
AcDbPolyline
 90
2
 70
0
 10
2768.472015
 20
318.745402
 30
0.0
 10
2768.472015
 20
461.893140
 30
0.0
  0
LWPOLYLINE
  5
187
100
AcDbEntity
  8
0
 62
7
100
AcDbPolyline
 90
2
 70
0
 10
2702.015715
 20
284.729655
 30
0.0
 10
2734.456290
 20
284.729655
 30
0.0
  0
LWPOLYLINE
  5
188
100
AcDbEntity
  8
0
 62
7
100
AcDbPolyline
 90
2
 70
0
 10
2601.191865
 20
153.300135
 30
0.0
 10
2601.191865
 20
183.905760
 30
0.0
  0
LWPOLYLINE
  5
189
100
AcDbEntity
  8
0
 62
7
100
AcDbPolyline
 90
2
 70
0
 10
1744.377622
 20
99.448185
 30
0.0
 10
2547.339915
 20
99.448185
 30
0.0
  0
LWPOLYLINE
  5
18a
100
AcDbEntity
  8
0
 62
7
100
AcDbPolyline
 90
2
 70
0
 10
1273.342027
 20
0.337560
 30
0.0
 10
1495.467502
 20
0.337560
 30
0.0
  0
SPLINE
  5
18b
100
AcDbEntity
  8
0
 62
7
100
AcDbSpline
 70
8
 71
3
 72
8
 73
4
 74
0
 40
0
 40
0
 40
0
 40
0
 40
1
 40
1
 40
1
 40
1
 10
167.617665
 20
153.300135
 30
0.0
 10
167.617656
 20
139.017707
 30
0.0
 10
173.291324
 20
125.320248
 30
0.0
 10
183.390526
 20
115.221046
 30
0.0
  0
SPLINE
  5
18c
100
AcDbEntity
  8
0
 62
7
100
AcDbSpline
 70
8
 71
3
 72
8
 73
4
 74
0
 40
0
 40
0
 40
0
 40
0
 40
1
 40
1
 40
1
 40
1
 10
183.390526
 20
115.221046
 30
0.0
 10
193.489728
 20
105.121844
 30
0.0
 10
207.187187
 20
99.448176
 30
0.0
 10
221.469615
 20
99.448185
 30
0.0
  0
SPLINE
  5
18d
100
AcDbEntity
  8
0
 62
7
100
AcDbSpline
 70
8
 71
3
 72
8
 73
4
 74
0
 40
0
 40
0
 40
0
 40
0
 40
1
 40
1
 40
1
 40
1
 10
167.617665
 20
183.905760
 30
0.0
 10
167.617673
 20
239.589245
 30
0.0
 10
122.477300
 20
284.729638
 30
0.0
 10
66.793815
 20
284.729655
 30
0.0
  0
SPLINE
  5
18e
100
AcDbEntity
  8
0
 62
7
100
AcDbSpline
 70
8
 71
3
 72
8
 73
4
 74
0
 40
0
 40
0
 40
0
 40
0
 40
1
 40
1
 40
1
 40
1
 10
0.337515
 20
318.745403
 30
0.0
 10
0.337515
 20
299.959033
 30
0.0
 10
15.566870
 20
284.729668
 30
0.0
 10
34.353240
 20
284.729655
 30
0.0
  0
SPLINE
  5
18f
100
AcDbEntity
  8
0
 62
7
100
AcDbSpline
 70
8
 71
3
 72
8
 73
4
 74
0
 40
0
 40
0
 40
0
 40
0
 40
1
 40
1
 40
1
 40
1
 10
338.266515
 20
818.662642
 30
0.0
 10
148.741792
 20
808.375100
 30
0.0
 10
0.337515
 20
651.696861
 30
0.0
 10
0.337515
 20
461.893136
 30
0.0
  0
SPLINE
  5
190
100
AcDbEntity
  8
0
 62
7
100
AcDbSpline
 70
8
 71
3
 72
8
 73
4
 74
0
 40
0
 40
0
 40
0
 40
0
 40
1
 40
1
 40
1
 40
1
 10
639.607927
 20
818.662642
 30
0.0
 10
757.862465
 20
818.662643
 30
0.0
 10
874.897693
 20
842.557909
 30
0.0
 10
983.687647
 20
888.913937
 30
0.0
  0
SPLINE
  5
191
100
AcDbEntity
  8
0
 62
7
100
AcDbSpline
 70
8
 71
3
 72
8
 73
4
 74
0
 40
0
 40
0
 40
0
 40
0
 40
1
 40
1
 40
1
 40
1
 10
1120.062570
 20
916.757819
 30
0.0
 10
1073.192753
 20
916.757819
 30
0.0
 10
1026.806206
 20
907.287005
 30
0.0
 10
983.687647
 20
888.913937
 30
0.0
  0
SPLINE
  5
192
100
AcDbEntity
  8
0
 62
7
100
AcDbSpline
 70
8
 71
3
 72
8
 73
4
 74
0
 40
0
 40
0
 40
0
 40
0
 40
1
 40
1
 40
1
 40
1
 10
1785.121882
 20
888.913937
 30
0.0
 10
1742.003324
 20
907.287005
 30
0.0
 10
1695.616777
 20
916.757819
 30
0.0
 10
1648.746960
 20
916.757819
 30
0.0
  0
SPLINE
  5
193
100
AcDbEntity
  8
0
 62
7
100
AcDbSpline
 70
8
 71
3
 72
8
 73
4
 74
0
 40
0
 40
0
 40
0
 40
0
 40
1
 40
1
 40
1
 40
1
 10
1785.121882
 20
888.913937
 30
0.0
 10
1893.911837
 20
842.557909
 30
0.0
 10
2010.947065
 20
818.662643
 30
0.0
 10
2129.201602
 20
818.662642
 30
0.0
  0
SPLINE
  5
194
100
AcDbEntity
  8
0
 62
7
100
AcDbSpline
 70
8
 71
3
 72
8
 73
4
 74
0
 40
0
 40
0
 40
0
 40
0
 40
1
 40
1
 40
1
 40
1
 10
2768.472015
 20
461.893136
 30
0.0
 10
2768.472015
 20
651.696861
 30
0.0
 10
2620.067738
 20
808.375100
 30
0.0
 10
2430.543015
 20
818.662642
 30
0.0
  0
SPLINE
  5
195
100
AcDbEntity
  8
0
 62
7
100
AcDbSpline
 70
8
 71
3
 72
8
 73
4
 74
0
 40
0
 40
0
 40
0
 40
0
 40
1
 40
1
 40
1
 40
1
 10
2734.456290
 20
284.729655
 30
0.0
 10
2753.242660
 20
284.729668
 30
0.0
 10
2768.472015
 20
299.959033
 30
0.0
 10
2768.472015
 20
318.745403
 30
0.0
  0
SPLINE
  5
196
100
AcDbEntity
  8
0
 62
7
100
AcDbSpline
 70
8
 71
3
 72
8
 73
4
 74
0
 40
0
 40
0
 40
0
 40
0
 40
1
 40
1
 40
1
 40
1
 10
2702.015715
 20
284.729655
 30
0.0
 10
2646.332230
 20
284.729638
 30
0.0
 10
2601.191857
 20
239.589245
 30
0.0
 10
2601.191865
 20
183.905760
 30
0.0
  0
SPLINE
  5
197
100
AcDbEntity
  8
0
 62
7
100
AcDbSpline
 70
8
 71
3
 72
8
 73
4
 74
0
 40
0
 40
0
 40
0
 40
0
 40
1
 40
1
 40
1
 40
1
 10
2547.339915
 20
99.448185
 30
0.0
 10
2561.622343
 20
99.448176
 30
0.0
 10
2575.319802
 20
105.121844
 30
0.0
 10
2585.419004
 20
115.221046
 30
0.0
  0
SPLINE
  5
198
100
AcDbEntity
  8
0
 62
7
100
AcDbSpline
 70
8
 71
3
 72
8
 73
4
 74
0
 40
0
 40
0
 40
0
 40
0
 40
1
 40
1
 40
1
 40
1
 10
2585.419004
 20
115.221046
 30
0.0
 10
2595.518206
 20
125.320248
 30
0.0
 10
2601.191874
 20
139.017707
 30
0.0
 10
2601.191865
 20
153.300135
 30
0.0
  0
SPLINE
  5
199
100
AcDbEntity
  8
0
 62
7
100
AcDbSpline
 70
8
 71
3
 72
8
 73
4
 74
0
 40
0
 40
0
 40
0
 40
0
 40
1
 40
1
 40
1
 40
1
 10
1495.467502
 20
0.337560
 30
0.0
 10
1512.583427
 20
0.337562
 30
0.0
 10
1529.167018
 20
6.287663
 30
0.0
 10
1542.378757
 20
17.169060
 30
0.0
  0
SPLINE
  5
19a
100
AcDbEntity
  8
0
 62
7
100
AcDbSpline
 70
8
 71
3
 72
8
 73
4
 74
0
 40
0
 40
0
 40
0
 40
0
 40
1
 40
1
 40
1
 40
1
 10
1226.430772
 20
17.169060
 30
0.0
 10
1239.642512
 20
6.287663
 30
0.0
 10
1256.226103
 20
0.337562
 30
0.0
 10
1273.342027
 20
0.337560
 30
0.0
  0
LWPOLYLINE
  5
19b
100
AcDbEntity
  8
0
 62
7
100
AcDbPolyline
 90
2
 70
0
 10
221.469615
 20
99.448185
 30
0.0
 10
1024.431907
 20
99.448185
 30
0.0
  0
SPLINE
  5
19c
100
AcDbEntity
  8
0
 62
7
100
AcDbSpline
 70
8
 71
3
 72
8
 73
4
 74
0
 40
0
 40
0
 40
0
 40
0
 40
1
 40
1
 40
1
 40
1
 10
1918.672875
 20
148.661565
 30
0.0
 10
1918.672874
 20
139.797853
 30
0.0
 10
1911.316901
 20
132.594581
 30
0.0
 10
1902.200175
 20
132.530820
 30
0.0
  0
SPLINE
  5
19d
100
AcDbEntity
  8
0
 62
7
100
AcDbSpline
 70
8
 71
3
 72
8
 73
4
 74
0
 40
0
 40
0
 40
0
 40
0
 40
1
 40
1
 40
1
 40
1
 10
1902.200175
 20
132.530820
 30
0.0
 10
1893.083467
 20
132.467055
 30
0.0
 10
1885.621667
 20
139.566663
 30
0.0
 10
1885.490475
 20
148.429440
 30
0.0
  0
SPLINE
  5
19e
100
AcDbEntity
  8
0
 62
7
100
AcDbSpline
 70
8
 71
3
 72
8
 73
4
 74
0
 40
0
 40
0
 40
0
 40
0
 40
1
 40
1
 40
1
 40
1
 10
1885.490475
 20
148.429440
 30
0.0
 10
1885.359283
 20
157.292238
 30
0.0
 10
1892.607884
 20
164.597677
 30
0.0
 10
1901.722725
 20
164.788972
 30
0.0
  0
SPLINE
  5
19f
100
AcDbEntity
  8
0
 62
7
100
AcDbSpline
 70
8
 71
3
 72
8
 73
4
 74
0
 40
0
 40
0
 40
0
 40
0
 40
1
 40
1
 40
1
 40
1
 10
1901.722725
 20
164.788972
 30
0.0
 10
1910.837534
 20
164.980256
 30
0.0
 10
1918.403622
 20
157.985776
 30
0.0
 10
1918.665975
 20
149.125763
 30
0.0
  0
LWPOLYLINE
  5
1a0
100
AcDbEntity
  8
0
 62
7
100
AcDbPolyline
 90
4
 70
1
 10
1184.058786
 20
142.186267
 30
0.0
 10
1246.425934
 20
142.186267
 30
0.0
 10
1246.425934
 20
65.549797
 30
0.0
 10
1184.058786
 20
65.549797
 30
0.0
  0
SPLINE
  5
1a1
100
AcDbEntity
  8
0
 62
7
100
AcDbSpline
 70
8
 71
3
 72
8
 73
4
 74
0
 40
0
 40
0
 40
0
 40
0
 40
1
 40
1
 40
1
 40
1
 10
2086.032225
 20
149.487278
 30
0.0
 10
2086.032224
 20
140.623565
 30
0.0
 10
2078.676251
 20
133.420294
 30
0.0
 10
2069.559525
 20
133.356532
 30
0.0
  0
SPLINE
  5
1a2
100
AcDbEntity
  8
0
 62
7
100
AcDbSpline
 70
8
 71
3
 72
8
 73
4
 74
0
 40
0
 40
0
 40
0
 40
0
 40
1
 40
1
 40
1
 40
1
 10
2069.559525
 20
133.356532
 30
0.0
 10
2060.442814
 20
133.292767
 30
0.0
 10
2052.981013
 20
140.392380
 30
0.0
 10
2052.849825
 20
149.255160
 30
0.0
  0
SPLINE
  5
1a3
100
AcDbEntity
  8
0
 62
7
100
AcDbSpline
 70
8
 71
3
 72
8
 73
4
 74
0
 40
0
 40
0
 40
0
 40
0
 40
1
 40
1
 40
1
 40
1
 10
2052.849825
 20
149.255160
 30
0.0
 10
2052.718637
 20
158.117927
 30
0.0
 10
2059.967191
 20
165.423350
 30
0.0
 10
2069.082000
 20
165.614685
 30
0.0
  0
SPLINE
  5
1a4
100
AcDbEntity
  8
0
 62
7
100
AcDbSpline
 70
8
 71
3
 72
8
 73
4
 74
0
 40
0
 40
0
 40
0
 40
0
 40
1
 40
1
 40
1
 40
1
 10
2069.082000
 20
165.614685
 30
0.0
 10
2078.196835
 20
165.806009
 30
0.0
 10
2085.762968
 20
158.811522
 30
0.0
 10
2086.025325
 20
149.951482
 30
0.0
  0
LWPOLYLINE
  5
1a5
100
AcDbEntity
  8
0
 62
7
100
AcDbPolyline
 90
3
 70
0
 10
1918.665975
 20
149.125763
 30
0.0
 10
1902.080850
 20
148.661565
 30
0.0
 10
1918.672875
 20
148.661565
 30
0.0
  0
SPLINE
  5
1a6
100
AcDbEntity
  8
0
 62
7
100
AcDbSpline
 70
8
 71
3
 72
8
 73
4
 74
0
 40
0
 40
0
 40
0
 40
0
 40
1
 40
1
 40
1
 40
1
 10
806.327250
 20
136.931970
 30
0.0
 10
806.327253
 20
128.068266
 30
0.0
 10
798.971297
 20
120.864995
 30
0.0
 10
789.854580
 20
120.801218
 30
0.0
  0
SPLINE
  5
1a7
100
AcDbEntity
  8
0
 62
7
100
AcDbSpline
 70
8
 71
3
 72
8
 73
4
 74
0
 40
0
 40
0
 40
0
 40
0
 40
1
 40
1
 40
1
 40
1
 10
789.854580
 20
120.801218
 30
0.0
 10
780.737860
 20
120.737440
 30
0.0
 10
773.276046
 20
127.837056
 30
0.0
 10
773.144858
 20
136.699845
 30
0.0
  0
SPLINE
  5
1a8
100
AcDbEntity
  8
0
 62
7
100
AcDbSpline
 70
8
 71
3
 72
8
 73
4
 74
0
 40
0
 40
0
 40
0
 40
0
 40
1
 40
1
 40
1
 40
1
 10
773.144858
 20
136.699845
 30
0.0
 10
773.013670
 20
145.562629
 30
0.0
 10
780.262251
 20
152.868059
 30
0.0
 10
789.377078
 20
153.059370
 30
0.0
  0
SPLINE
  5
1a9
100
AcDbEntity
  8
0
 62
7
100
AcDbSpline
 70
8
 71
3
 72
8
 73
4
 74
0
 40
0
 40
0
 40
0
 40
0
 40
1
 40
1
 40
1
 40
1
 10
789.377078
 20
153.059370
 30
0.0
 10
798.491904
 20
153.250682
 30
0.0
 10
806.058023
 20
146.256198
 30
0.0
 10
806.320380
 20
137.396167
 30
0.0
  0
LWPOLYLINE
  5
1aa
100
AcDbEntity
  8
0
 62
7
100
AcDbPolyline
 90
3
 70
0
 10
2086.025325
 20
149.951482
 30
0.0
 10
2069.440125
 20
149.487277
 30
0.0
 10
2086.032225
 20
149.487277
 30
0.0
  0
SPLINE
  5
1ab
100
AcDbEntity
  8
0
 62
7
100
AcDbSpline
 70
8
 71
3
 72
8
 73
4
 74
0
 40
0
 40
0
 40
0
 40
0
 40
1
 40
1
 40
1
 40
1
 10
752.396512
 20
135.670710
 30
0.0
 10
752.396512
 20
126.807006
 30
0.0
 10
745.040552
 20
119.603738
 30
0.0
 10
735.923835
 20
119.539965
 30
0.0
  0
SPLINE
  5
1ac
100
AcDbEntity
  8
0
 62
7
100
AcDbSpline
 70
8
 71
3
 72
8
 73
4
 74
0
 40
0
 40
0
 40
0
 40
0
 40
1
 40
1
 40
1
 40
1
 10
735.923835
 20
119.539965
 30
0.0
 10
726.807118
 20
119.476192
 30
0.0
 10
719.345308
 20
126.575806
 30
0.0
 10
719.214120
 20
135.438592
 30
0.0
  0
SPLINE
  5
1ad
100
AcDbEntity
  8
0
 62
7
100
AcDbSpline
 70
8
 71
3
 72
8
 73
4
 74
0
 40
0
 40
0
 40
0
 40
0
 40
1
 40
1
 40
1
 40
1
 10
719.214120
 20
135.438592
 30
0.0
 10
719.082932
 20
144.301376
 30
0.0
 10
726.331513
 20
151.606806
 30
0.0
 10
735.446340
 20
151.798117
 30
0.0
  0
SPLINE
  5
1ae
100
AcDbEntity
  8
0
 62
7
100
AcDbSpline
 70
8
 71
3
 72
8
 73
4
 74
0
 40
0
 40
0
 40
0
 40
0
 40
1
 40
1
 40
1
 40
1
 10
735.446340
 20
151.798117
 30
0.0
 10
744.561167
 20
151.989429
 30
0.0
 10
752.127285
 20
144.994946
 30
0.0
 10
752.389642
 20
136.134915
 30
0.0
  0
LWPOLYLINE
  5
1af
100
AcDbEntity
  8
0
 62
7
100
AcDbPolyline
 90
3
 70
0
 10
806.320380
 20
137.396167
 30
0.0
 10
789.735195
 20
136.931970
 30
0.0
 10
806.327250
 20
136.931970
 30
0.0
  0
SPLINE
  5
1b0
100
AcDbEntity
  8
0
 62
7
100
AcDbSpline
 70
8
 71
3
 72
8
 73
4
 74
0
 40
0
 40
0
 40
0
 40
0
 40
1
 40
1
 40
1
 40
1
 10
684.125542
 20
145.766940
 30
0.0
 10
684.125542
 20
136.903239
 30
0.0
 10
676.769586
 20
129.699972
 30
0.0
 10
667.652872
 20
129.636195
 30
0.0
  0
SPLINE
  5
1b1
100
AcDbEntity
  8
0
 62
7
100
AcDbSpline
 70
8
 71
3
 72
8
 73
4
 74
0
 40
0
 40
0
 40
0
 40
0
 40
1
 40
1
 40
1
 40
1
 10
667.652872
 20
129.636195
 30
0.0
 10
658.536153
 20
129.572418
 30
0.0
 10
651.074338
 20
136.672034
 30
0.0
 10
650.943150
 20
145.534823
 30
0.0
  0
SPLINE
  5
1b2
100
AcDbEntity
  8
0
 62
7
100
AcDbSpline
 70
8
 71
3
 72
8
 73
4
 74
0
 40
0
 40
0
 40
0
 40
0
 40
1
 40
1
 40
1
 40
1
 10
650.943150
 20
145.534823
 30
0.0
 10
650.811962
 20
154.397606
 30
0.0
 10
658.060543
 20
161.703036
 30
0.0
 10
667.175370
 20
161.894348
 30
0.0
  0
SPLINE
  5
1b3
100
AcDbEntity
  8
0
 62
7
100
AcDbSpline
 70
8
 71
3
 72
8
 73
4
 74
0
 40
0
 40
0
 40
0
 40
0
 40
1
 40
1
 40
1
 40
1
 10
667.175370
 20
161.894348
 30
0.0
 10
676.290197
 20
162.085659
 30
0.0
 10
683.856315
 20
155.091176
 30
0.0
 10
684.118672
 20
146.231145
 30
0.0
  0
LWPOLYLINE
  5
1b4
100
AcDbEntity
  8
0
 62
7
100
AcDbPolyline
 90
3
 70
0
 10
752.389642
 20
136.134915
 30
0.0
 10
735.804457
 20
135.670710
 30
0.0
 10
752.396512
 20
135.670710
 30
0.0
  0
SPLINE
  5
1b5
100
AcDbEntity
  8
0
 62
7
100
AcDbSpline
 70
8
 71
3
 72
8
 73
4
 74
0
 40
0
 40
0
 40
0
 40
0
 40
1
 40
1
 40
1
 40
1
 10
944.495842
 20
144.722055
 30
0.0
 10
944.495846
 20
135.858351
 30
0.0
 10
937.139889
 20
128.655080
 30
0.0
 10
928.023172
 20
128.591302
 30
0.0
  0
SPLINE
  5
1b6
100
AcDbEntity
  8
0
 62
7
100
AcDbSpline
 70
8
 71
3
 72
8
 73
4
 74
0
 40
0
 40
0
 40
0
 40
0
 40
1
 40
1
 40
1
 40
1
 10
928.023172
 20
128.591302
 30
0.0
 10
918.906456
 20
128.527529
 30
0.0
 10
911.444646
 20
135.627144
 30
0.0
 10
911.313457
 20
144.489930
 30
0.0
  0
SPLINE
  5
1b7
100
AcDbEntity
  8
0
 62
7
100
AcDbSpline
 70
8
 71
3
 72
8
 73
4
 74
0
 40
0
 40
0
 40
0
 40
0
 40
1
 40
1
 40
1
 40
1
 10
911.313457
 20
144.489930
 30
0.0
 10
911.182270
 20
153.352711
 30
0.0
 10
918.430846
 20
160.658140
 30
0.0
 10
927.545670
 20
160.849455
 30
0.0
  0
SPLINE
  5
1b8
100
AcDbEntity
  8
0
 62
7
100
AcDbSpline
 70
8
 71
3
 72
8
 73
4
 74
0
 40
0
 40
0
 40
0
 40
0
 40
1
 40
1
 40
1
 40
1
 10
927.545670
 20
160.849455
 30
0.0
 10
936.660497
 20
161.040767
 30
0.0
 10
944.226615
 20
154.046283
 30
0.0
 10
944.488972
 20
145.186252
 30
0.0
  0
LWPOLYLINE
  5
1b9
100
AcDbEntity
  8
0
 62
7
100
AcDbPolyline
 90
3
 70
0
 10
684.118672
 20
146.231145
 30
0.0
 10
667.533487
 20
145.766940
 30
0.0
 10
684.125542
 20
145.766940
 30
0.0
  0
SPLINE
  5
1ba
100
AcDbEntity
  8
0
 62
7
100
AcDbSpline
 70
8
 71
3
 72
8
 73
4
 74
0
 40
0
 40
0
 40
0
 40
0
 40
1
 40
1
 40
1
 40
1
 10
2008.501050
 20
154.642110
 30
0.0
 10
2008.501049
 20
145.778398
 30
0.0
 10
2001.145076
 20
138.575126
 30
0.0
 10
1992.028350
 20
138.511365
 30
0.0
  0
SPLINE
  5
1bb
100
AcDbEntity
  8
0
 62
7
100
AcDbSpline
 70
8
 71
3
 72
8
 73
4
 74
0
 40
0
 40
0
 40
0
 40
0
 40
1
 40
1
 40
1
 40
1
 10
1992.028350
 20
138.511365
 30
0.0
 10
1982.911642
 20
138.447600
 30
0.0
 10
1975.449842
 20
145.547208
 30
0.0
 10
1975.318650
 20
154.409985
 30
0.0
  0
SPLINE
  5
1bc
100
AcDbEntity
  8
0
 62
7
100
AcDbSpline
 70
8
 71
3
 72
8
 73
4
 74
0
 40
0
 40
0
 40
0
 40
0
 40
1
 40
1
 40
1
 40
1
 10
1975.318650
 20
154.409985
 30
0.0
 10
1975.187458
 20
163.272755
 30
0.0
 10
1982.436013
 20
170.578183
 30
0.0
 10
1991.550825
 20
170.769518
 30
0.0
  0
SPLINE
  5
1bd
100
AcDbEntity
  8
0
 62
7
100
AcDbSpline
 70
8
 71
3
 72
8
 73
4
 74
0
 40
0
 40
0
 40
0
 40
0
 40
1
 40
1
 40
1
 40
1
 10
1991.550825
 20
170.769518
 30
0.0
 10
2000.665663
 20
170.960842
 30
0.0
 10
2008.231797
 20
163.966350
 30
0.0
 10
2008.494150
 20
155.106308
 30
0.0
  0
LWPOLYLINE
  5
1be
100
AcDbEntity
  8
0
 62
7
100
AcDbPolyline
 90
3
 70
0
 10
944.488972
 20
145.186252
 30
0.0
 10
927.903787
 20
144.722055
 30
0.0
 10
944.495842
 20
144.722055
 30
0.0
  0
SPLINE
  5
1bf
100
AcDbEntity
  8
0
 62
7
100
AcDbSpline
 70
8
 71
3
 72
8
 73
4
 74
0
 40
0
 40
0
 40
0
 40
0
 40
1
 40
1
 40
1
 40
1
 10
885.472965
 20
148.283130
 30
0.0
 10
885.472964
 20
139.419426
 30
0.0
 10
878.117004
 20
132.216158
 30
0.0
 10
869.000288
 20
132.152385
 30
0.0
  0
SPLINE
  5
1c0
100
AcDbEntity
  8
0
 62
7
100
AcDbSpline
 70
8
 71
3
 72
8
 73
4
 74
0
 40
0
 40
0
 40
0
 40
0
 40
1
 40
1
 40
1
 40
1
 10
869.000288
 20
132.152385
 30
0.0
 10
859.883571
 20
132.088612
 30
0.0
 10
852.421761
 20
139.188226
 30
0.0
 10
852.290572
 20
148.051012
 30
0.0
  0
SPLINE
  5
1c1
100
AcDbEntity
  8
0
 62
7
100
AcDbSpline
 70
8
 71
3
 72
8
 73
4
 74
0
 40
0
 40
0
 40
0
 40
0
 40
1
 40
1
 40
1
 40
1
 10
852.290572
 20
148.051012
 30
0.0
 10
852.159385
 20
156.913796
 30
0.0
 10
859.407966
 20
164.219226
 30
0.0
 10
868.522792
 20
164.410537
 30
0.0
  0
SPLINE
  5
1c2
100
AcDbEntity
  8
0
 62
7
100
AcDbSpline
 70
8
 71
3
 72
8
 73
4
 74
0
 40
0
 40
0
 40
0
 40
0
 40
1
 40
1
 40
1
 40
1
 10
868.522792
 20
164.410537
 30
0.0
 10
877.637619
 20
164.601849
 30
0.0
 10
885.203738
 20
157.607366
 30
0.0
 10
885.466095
 20
148.747335
 30
0.0
  0
LWPOLYLINE
  5
1c3
100
AcDbEntity
  8
0
 62
7
100
AcDbPolyline
 90
3
 70
0
 10
2008.494150
 20
155.106308
 30
0.0
 10
1991.908950
 20
154.642110
 30
0.0
 10
2008.501050
 20
154.642110
 30
0.0
  0
SPLINE
  5
1c4
100
AcDbEntity
  8
0
 62
7
100
AcDbSpline
 70
8
 71
3
 72
8
 73
4
 74
0
 40
0
 40
0
 40
0
 40
0
 40
1
 40
1
 40
1
 40
1
 10
1587.274177
 20
198.391410
 30
0.0
 10
1587.274177
 20
189.527709
 30
0.0
 10
1579.918221
 20
182.324442
 30
0.0
 10
1570.801507
 20
182.260665
 30
0.0
  0
SPLINE
  5
1c5
100
AcDbEntity
  8
0
 62
7
100
AcDbSpline
 70
8
 71
3
 72
8
 73
4
 74
0
 40
0
 40
0
 40
0
 40
0
 40
1
 40
1
 40
1
 40
1
 10
1570.801507
 20
182.260665
 30
0.0
 10
1561.684794
 20
182.196892
 30
0.0
 10
1554.222985
 20
189.296502
 30
0.0
 10
1554.091792
 20
198.159285
 30
0.0
  0
SPLINE
  5
1c6
100
AcDbEntity
  8
0
 62
7
100
AcDbSpline
 70
8
 71
3
 72
8
 73
4
 74
0
 40
0
 40
0
 40
0
 40
0
 40
1
 40
1
 40
1
 40
1
 10
1554.091792
 20
198.159285
 30
0.0
 10
1553.960600
 20
207.022069
 30
0.0
 10
1561.209178
 20
214.327502
 30
0.0
 10
1570.324005
 20
214.518817
 30
0.0
  0
SPLINE
  5
1c7
100
AcDbEntity
  8
0
 62
7
100
AcDbSpline
 70
8
 71
3
 72
8
 73
4
 74
0
 40
0
 40
0
 40
0
 40
0
 40
1
 40
1
 40
1
 40
1
 10
1570.324005
 20
214.518817
 30
0.0
 10
1579.438835
 20
214.710129
 30
0.0
 10
1587.004955
 20
207.715641
 30
0.0
 10
1587.267307
 20
198.855607
 30
0.0
  0
LWPOLYLINE
  5
1c8
100
AcDbEntity
  8
0
 62
7
100
AcDbPolyline
 90
3
 70
0
 10
885.466095
 20
148.747335
 30
0.0
 10
868.880910
 20
148.283130
 30
0.0
 10
885.472965
 20
148.283130
 30
0.0
  0
SPLINE
  5
1c9
100
AcDbEntity
  8
0
 62
7
100
AcDbSpline
 70
8
 71
3
 72
8
 73
4
 74
0
 40
0
 40
0
 40
0
 40
0
 40
1
 40
1
 40
1
 40
1
 10
1663.491652
 20
196.868475
 30
0.0
 10
1663.491652
 20
188.004771
 30
0.0
 10
1656.135692
 20
180.801503
 30
0.0
 10
1647.018975
 20
180.737730
 30
0.0
  0
SPLINE
  5
1ca
100
AcDbEntity
  8
0
 62
7
100
AcDbSpline
 70
8
 71
3
 72
8
 73
4
 74
0
 40
0
 40
0
 40
0
 40
0
 40
1
 40
1
 40
1
 40
1
 10
1647.018975
 20
180.737730
 30
0.0
 10
1637.902261
 20
180.673957
 30
0.0
 10
1630.440452
 20
187.773567
 30
0.0
 10
1630.309260
 20
196.636350
 30
0.0
  0
SPLINE
  5
1cb
100
AcDbEntity
  8
0
 62
7
100
AcDbSpline
 70
8
 71
3
 72
8
 73
4
 74
0
 40
0
 40
0
 40
0
 40
0
 40
1
 40
1
 40
1
 40
1
 10
1630.309260
 20
196.636350
 30
0.0
 10
1630.178068
 20
205.499137
 30
0.0
 10
1637.426650
 20
212.804571
 30
0.0
 10
1646.541480
 20
212.995883
 30
0.0
  0
SPLINE
  5
1cc
100
AcDbEntity
  8
0
 62
7
100
AcDbSpline
 70
8
 71
3
 72
8
 73
4
 74
0
 40
0
 40
0
 40
0
 40
0
 40
1
 40
1
 40
1
 40
1
 10
1646.541480
 20
212.995883
 30
0.0
 10
1655.656307
 20
213.187190
 30
0.0
 10
1663.222422
 20
206.192703
 30
0.0
 10
1663.484775
 20
197.332673
 30
0.0
  0
LWPOLYLINE
  5
1cd
100
AcDbEntity
  8
0
 62
7
100
AcDbPolyline
 90
3
 70
0
 10
1587.267307
 20
198.855607
 30
0.0
 10
1570.682130
 20
198.391410
 30
0.0
 10
1587.274177
 20
198.391410
 30
0.0
  0
SPLINE
  5
1ce
100
AcDbEntity
  8
0
 62
7
100
AcDbSpline
 70
8
 71
3
 72
8
 73
4
 74
0
 40
0
 40
0
 40
0
 40
0
 40
1
 40
1
 40
1
 40
1
 10
1835.982127
 20
146.964818
 30
0.0
 10
1835.982127
 20
138.101116
 30
0.0
 10
1828.626171
 20
130.897850
 30
0.0
 10
1819.509457
 20
130.834072
 30
0.0
  0
SPLINE
  5
1cf
100
AcDbEntity
  8
0
 62
7
100
AcDbSpline
 70
8
 71
3
 72
8
 73
4
 74
0
 40
0
 40
0
 40
0
 40
0
 40
1
 40
1
 40
1
 40
1
 10
1819.509457
 20
130.834072
 30
0.0
 10
1810.392741
 20
130.770295
 30
0.0
 10
1802.930928
 20
137.869907
 30
0.0
 10
1802.799735
 20
146.732693
 30
0.0
  0
SPLINE
  5
1d0
100
AcDbEntity
  8
0
 62
7
100
AcDbSpline
 70
8
 71
3
 72
8
 73
4
 74
0
 40
0
 40
0
 40
0
 40
0
 40
1
 40
1
 40
1
 40
1
 10
1802.799735
 20
146.732693
 30
0.0
 10
1802.668543
 20
155.595479
 30
0.0
 10
1809.917125
 20
162.900914
 30
0.0
 10
1819.031955
 20
163.092225
 30
0.0
  0
SPLINE
  5
1d1
100
AcDbEntity
  8
0
 62
7
100
AcDbSpline
 70
8
 71
3
 72
8
 73
4
 74
0
 40
0
 40
0
 40
0
 40
0
 40
1
 40
1
 40
1
 40
1
 10
1819.031955
 20
163.092225
 30
0.0
 10
1828.146785
 20
163.283537
 30
0.0
 10
1835.712905
 20
156.289049
 30
0.0
 10
1835.975257
 20
147.429015
 30
0.0
  0
LWPOLYLINE
  5
1d2
100
AcDbEntity
  8
0
 62
7
100
AcDbPolyline
 90
3
 70
0
 10
1663.484775
 20
197.332673
 30
0.0
 10
1646.899597
 20
196.868475
 30
0.0
 10
1663.491652
 20
196.868475
 30
0.0
  0
SPLINE
  5
1d3
100
AcDbEntity
  8
0
 62
7
100
AcDbSpline
 70
8
 71
3
 72
8
 73
4
 74
0
 40
0
 40
0
 40
0
 40
0
 40
1
 40
1
 40
1
 40
1
 10
1516.373550
 20
208.591207
 30
0.0
 10
1516.373549
 20
199.727504
 30
0.0
 10
1509.017589
 20
192.524236
 30
0.0
 10
1499.900872
 20
192.460463
 30
0.0
  0
SPLINE
  5
1d4
100
AcDbEntity
  8
0
 62
7
100
AcDbSpline
 70
8
 71
3
 72
8
 73
4
 74
0
 40
0
 40
0
 40
0
 40
0
 40
1
 40
1
 40
1
 40
1
 10
1499.900872
 20
192.460463
 30
0.0
 10
1490.784159
 20
192.396689
 30
0.0
 10
1483.322350
 20
199.496299
 30
0.0
 10
1483.191157
 20
208.359083
 30
0.0
  0
SPLINE
  5
1d5
100
AcDbEntity
  8
0
 62
7
100
AcDbSpline
 70
8
 71
3
 72
8
 73
4
 74
0
 40
0
 40
0
 40
0
 40
0
 40
1
 40
1
 40
1
 40
1
 10
1483.191157
 20
208.359083
 30
0.0
 10
1483.059965
 20
217.221867
 30
0.0
 10
1490.308543
 20
224.527300
 30
0.0
 10
1499.423370
 20
224.718615
 30
0.0
  0
SPLINE
  5
1d6
100
AcDbEntity
  8
0
 62
7
100
AcDbSpline
 70
8
 71
3
 72
8
 73
4
 74
0
 40
0
 40
0
 40
0
 40
0
 40
1
 40
1
 40
1
 40
1
 10
1499.423370
 20
224.718615
 30
0.0
 10
1508.538200
 20
224.909927
 30
0.0
 10
1516.104320
 20
217.915439
 30
0.0
 10
1516.366672
 20
209.055405
 30
0.0
  0
LWPOLYLINE
  5
1d7
100
AcDbEntity
  8
0
 62
7
100
AcDbPolyline
 90
3
 70
0
 10
1835.975257
 20
147.429015
 30
0.0
 10
1819.390072
 20
146.964817
 30
0.0
 10
1835.982127
 20
146.964817
 30
0.0
  0
SPLINE
  5
1d8
100
AcDbEntity
  8
0
 62
7
100
AcDbSpline
 70
8
 71
3
 72
8
 73
4
 74
0
 40
0
 40
0
 40
0
 40
0
 40
1
 40
1
 40
1
 40
1
 10
140.108475
 20
515.939236
 30
0.0
 10
140.108475
 20
507.075523
 30
0.0
 10
132.752501
 20
499.872250
 30
0.0
 10
123.635775
 20
499.808489
 30
0.0
  0
SPLINE
  5
1d9
100
AcDbEntity
  8
0
 62
7
100
AcDbSpline
 70
8
 71
3
 72
8
 73
4
 74
0
 40
0
 40
0
 40
0
 40
0
 40
1
 40
1
 40
1
 40
1
 10
123.635775
 20
499.808489
 30
0.0
 10
114.519066
 20
499.744724
 30
0.0
 10
107.057266
 20
506.844334
 30
0.0
 10
106.926075
 20
515.707112
 30
0.0
  0
SPLINE
  5
1da
100
AcDbEntity
  8
0
 62
7
100
AcDbSpline
 70
8
 71
3
 72
8
 73
4
 74
0
 40
0
 40
0
 40
0
 40
0
 40
1
 40
1
 40
1
 40
1
 10
106.926075
 20
515.707112
 30
0.0
 10
106.794885
 20
524.569909
 30
0.0
 10
114.043485
 20
531.875346
 30
0.0
 10
123.158325
 20
532.066642
 30
0.0
  0
SPLINE
  5
1db
100
AcDbEntity
  8
0
 62
7
100
AcDbSpline
 70
8
 71
3
 72
8
 73
4
 74
0
 40
0
 40
0
 40
0
 40
0
 40
1
 40
1
 40
1
 40
1
 10
123.158325
 20
532.066642
 30
0.0
 10
132.273162
 20
532.257966
 30
0.0
 10
139.839295
 20
525.263476
 30
0.0
 10
140.101650
 20
516.403435
 30
0.0
  0
LWPOLYLINE
  5
1dc
100
AcDbEntity
  8
0
 62
7
100
AcDbPolyline
 90
3
 70
0
 10
1516.366672
 20
209.055405
 30
0.0
 10
1499.781495
 20
208.591207
 30
0.0
 10
1516.373550
 20
208.591207
 30
0.0
  0
SPLINE
  5
1dd
100
AcDbEntity
  8
0
 62
7
100
AcDbSpline
 70
8
 71
3
 72
8
 73
4
 74
0
 40
0
 40
0
 40
0
 40
0
 40
1
 40
1
 40
1
 40
1
 10
69.207825
 20
526.139006
 30
0.0
 10
69.207825
 20
517.275321
 30
0.0
 10
61.851897
 20
510.072060
 30
0.0
 10
52.735200
 20
510.008259
 30
0.0
  0
SPLINE
  5
1de
100
AcDbEntity
  8
0
 62
7
100
AcDbSpline
 70
8
 71
3
 72
8
 73
4
 74
0
 40
0
 40
0
 40
0
 40
0
 40
1
 40
1
 40
1
 40
1
 10
52.735200
 20
510.008259
 30
0.0
 10
43.618462
 20
509.944454
 30
0.0
 10
36.156616
 20
517.044075
 30
0.0
 10
36.025425
 20
525.906882
 30
0.0
  0
SPLINE
  5
1df
100
AcDbEntity
  8
0
 62
7
100
AcDbSpline
 70
8
 71
3
 72
8
 73
4
 74
0
 40
0
 40
0
 40
0
 40
0
 40
1
 40
1
 40
1
 40
1
 10
36.025425
 20
525.906882
 30
0.0
 10
35.894234
 20
534.769679
 30
0.0
 10
43.142835
 20
542.075117
 30
0.0
 10
52.257675
 20
542.266412
 30
0.0
  0
SPLINE
  5
1e0
100
AcDbEntity
  8
0
 62
7
100
AcDbSpline
 70
8
 71
3
 72
8
 73
4
 74
0
 40
0
 40
0
 40
0
 40
0
 40
1
 40
1
 40
1
 40
1
 10
52.257675
 20
542.266412
 30
0.0
 10
61.372512
 20
542.457736
 30
0.0
 10
68.938646
 20
535.463246
 30
0.0
 10
69.201000
 20
526.603204
 30
0.0
  0
LWPOLYLINE
  5
1e1
100
AcDbEntity
  8
0
 62
7
100
AcDbPolyline
 90
3
 70
0
 10
140.101650
 20
516.403435
 30
0.0
 10
123.516450
 20
515.939236
 30
0.0
 10
140.108475
 20
515.939236
 30
0.0
  0
SPLINE
  5
1e2
100
AcDbEntity
  8
0
 62
7
100
AcDbSpline
 70
8
 71
3
 72
8
 73
4
 74
0
 40
0
 40
0
 40
0
 40
0
 40
1
 40
1
 40
1
 40
1
 10
209.819925
 20
528.834627
 30
0.0
 10
209.819925
 20
519.970943
 30
0.0
 10
202.463997
 20
512.767682
 30
0.0
 10
193.347300
 20
512.703881
 30
0.0
  0
SPLINE
  5
1e3
100
AcDbEntity
  8
0
 62
7
100
AcDbSpline
 70
8
 71
3
 72
8
 73
4
 74
0
 40
0
 40
0
 40
0
 40
0
 40
1
 40
1
 40
1
 40
1
 10
193.347300
 20
512.703881
 30
0.0
 10
184.230562
 20
512.640075
 30
0.0
 10
176.768716
 20
519.739696
 30
0.0
 10
176.637525
 20
528.602504
 30
0.0
  0
SPLINE
  5
1e4
100
AcDbEntity
  8
0
 62
7
100
AcDbSpline
 70
8
 71
3
 72
8
 73
4
 74
0
 40
0
 40
0
 40
0
 40
0
 40
1
 40
1
 40
1
 40
1
 10
176.637525
 20
528.602504
 30
0.0
 10
176.506334
 20
537.465301
 30
0.0
 10
183.754935
 20
544.770738
 30
0.0
 10
192.869775
 20
544.962034
 30
0.0
  0
SPLINE
  5
1e5
100
AcDbEntity
  8
0
 62
7
100
AcDbSpline
 70
8
 71
3
 72
8
 73
4
 74
0
 40
0
 40
0
 40
0
 40
0
 40
1
 40
1
 40
1
 40
1
 10
192.869775
 20
544.962034
 30
0.0
 10
201.984612
 20
545.153358
 30
0.0
 10
209.550746
 20
538.158868
 30
0.0
 10
209.813100
 20
529.298826
 30
0.0
  0
LWPOLYLINE
  5
1e6
100
AcDbEntity
  8
0
 62
7
100
AcDbPolyline
 90
3
 70
0
 10
69.201000
 20
526.603204
 30
0.0
 10
52.615800
 20
526.139005
 30
0.0
 10
69.207825
 20
526.139005
 30
0.0
  0
SPLINE
  5
1e7
100
AcDbEntity
  8
0
 62
7
100
AcDbSpline
 70
8
 71
3
 72
8
 73
4
 74
0
 40
0
 40
0
 40
0
 40
0
 40
1
 40
1
 40
1
 40
1
 10
133.940625
 20
402.213863
 30
0.0
 10
133.940622
 20
390.850694
 30
0.0
 10
124.772252
 20
381.616188
 30
0.0
 10
113.409300
 20
381.534435
 30
0.0
  0
SPLINE
  5
1e8
100
AcDbEntity
  8
0
 62
7
100
AcDbSpline
 70
8
 71
3
 72
8
 73
4
 74
0
 40
0
 40
0
 40
0
 40
0
 40
1
 40
1
 40
1
 40
1
 10
113.409300
 20
381.534435
 30
0.0
 10
102.046356
 20
381.452683
 30
0.0
 10
92.746066
 20
390.554302
 30
0.0
 10
92.582550
 20
401.916285
 30
0.0
  0
SPLINE
  5
1e9
100
AcDbEntity
  8
0
 62
7
100
AcDbSpline
 70
8
 71
3
 72
8
 73
4
 74
0
 40
0
 40
0
 40
0
 40
0
 40
1
 40
1
 40
1
 40
1
 10
92.582550
 20
401.916285
 30
0.0
 10
92.419036
 20
413.278278
 30
0.0
 10
101.453574
 20
422.643761
 30
0.0
 10
112.814175
 20
422.889015
 30
0.0
  0
SPLINE
  5
1ea
100
AcDbEntity
  8
0
 62
7
100
AcDbSpline
 70
8
 71
3
 72
8
 73
4
 74
0
 40
0
 40
0
 40
0
 40
0
 40
1
 40
1
 40
1
 40
1
 10
112.814175
 20
422.889015
 30
0.0
 10
124.174771
 20
423.134275
 30
0.0
 10
133.605079
 20
414.167425
 30
0.0
 10
133.932075
 20
402.808965
 30
0.0
  0
LWPOLYLINE
  5
1eb
100
AcDbEntity
  8
0
 62
7
100
AcDbPolyline
 90
3
 70
0
 10
209.813100
 20
529.298826
 30
0.0
 10
193.227900
 20
528.834627
 30
0.0
 10
209.819925
 20
528.834627
 30
0.0
  0
LWPOLYLINE
  5
1ec
100
AcDbEntity
  8
0
 62
7
100
AcDbPolyline
 90
3
 70
0
 10
133.932075
 20
402.808965
 30
0.0
 10
113.260500
 20
402.213862
 30
0.0
 10
133.940625
 20
402.213862
 30
0.0
  0
ENDSEC
  0
SECTION
  2
OBJECTS
  0
DICTIONARY
  5
C
330
0
100
AcDbDictionary
  3
ACAD_GROUP
350
D
  3
ACAD_MLINESTYLE
350
17
  0
DICTIONARY
  5
D
330
C
100
AcDbDictionary
  0
DICTIONARY
  5
1A
330
C
100
AcDbDictionary
  0
DICTIONARY
  5
17
330
C
100
AcDbDictionary
  3
STANDARD
350
18
  0
DICTIONARY
  5
19
330
C
100
AcDbDictionary
  0
ENDSEC
  0
EOF
